<svg xmlns="http://www.w3.org/2000/svg" width="525" height="418" viewBox="0 0 525 418" fill="none"><path d="M332.355 327.015C331.593 326.927 330.927 326.839 330.355 326.839C286.55 326.224 242.841 325.52 199.036 324.905C197.988 324.905 197.226 325.081 196.369 325.96M195.227 325.52C195.131 325.344 194.941 325.081 194.846 324.905C194.084 324.905 193.417 324.817 192.655 324.817C180.657 324.641 168.658 324.553 156.754 324.377C155.231 324.377 154.279 324.817 153.136 325.784C138.185 339.589 122.853 353.131 103.332 361.309C76.4772 372.564 50.099 372.212 25.7206 355.241C9.6271 343.986 1.53271 328.334 0.19952 309.956C-1.41936 288.061 6.86548 269.156 23.1495 253.592C35.6244 241.721 49.7181 231.433 65.2403 223.256C83.905 213.407 104.093 210.417 125.234 215.254C125.71 215.342 126.091 215.43 126.853 215.518C126.853 214.55 126.853 213.759 126.853 212.88C126.853 193.271 126.853 173.574 126.758 153.965C126.758 146.139 131.709 139.369 139.613 136.467C140.566 136.115 141.328 135.588 142.185 135.06C145.422 133.125 148.66 131.191 151.898 129.168C155.993 126.706 160.278 125.651 165.23 125.915C176.943 126.355 188.751 126.443 200.464 126.618C201.035 126.618 201.512 126.531 202.464 126.443C202.464 125.563 202.464 124.772 202.464 123.893C202.464 99.3596 202.464 74.7387 202.369 50.2057C202.369 46.0729 203.892 42.8194 207.321 40.2694C213.415 35.7849 219.891 31.74 227.604 29.7176C229.794 29.1021 232.175 28.7503 234.461 28.7503C259.029 28.3107 283.598 28.2227 308.167 27.6072C328.736 27.1676 349.306 26.2003 369.78 25.4089C372.065 25.321 373.589 26.1124 374.351 27.9589C374.827 29.1021 375.112 30.421 375.112 31.6521C375.208 40.2694 375.208 48.9747 375.303 57.592C375.303 58.3834 375.303 59.2627 375.303 60.142C378.636 60.142 381.588 60.2299 384.635 60.142C395.586 59.7903 406.538 59.3506 417.584 58.911C419.584 58.823 420.441 59.6144 420.441 61.461C420.441 62.3403 420.536 63.2196 420.441 64.011C420.155 67.3524 417.203 69.9904 413.585 70.0783C402.252 70.3421 390.825 70.6059 379.493 70.7818C378.255 70.7818 377.017 70.7818 375.589 70.7818C375.589 73.8594 375.589 76.7611 375.589 79.7508C378.826 79.7508 381.969 79.7508 385.111 79.7508C395.682 79.5749 406.252 79.3991 416.918 79.2232C420.155 79.1353 420.536 79.487 420.536 82.4767C420.536 87.6647 417.775 90.0388 412.061 90.1268C400.348 90.2147 388.73 90.4785 377.112 90.6544C376.636 90.6544 376.255 90.7423 375.684 90.8302C375.684 93.8199 375.684 96.6337 375.684 99.6234C379.207 99.6234 382.635 99.6234 386.064 99.6234C396.729 99.5355 407.395 99.4475 418.06 99.2717C419.87 99.2717 420.536 99.9751 420.631 101.558C420.727 104.196 420.727 106.834 418.06 108.505C416.822 109.296 415.108 109.911 413.585 109.911C401.776 110.175 389.968 110.263 378.064 110.263C376.065 110.263 375.398 110.791 375.493 112.637C375.684 117.122 375.684 121.606 375.493 126.091C375.493 127.85 375.969 128.377 377.969 128.377C392.539 128.289 407.014 128.289 421.584 128.377C422.726 128.377 423.869 128.377 425.012 128.465C428.44 128.905 430.821 130.927 431.392 134.093C431.583 135.148 431.583 136.203 431.583 137.258C431.678 158.186 431.773 179.114 431.773 200.042C431.773 200.921 431.773 201.712 431.773 202.855C435.297 202.855 438.534 202.855 441.677 202.855C466.15 203.119 490.529 203.383 515.002 203.559C519.383 203.559 522.716 204.526 524.43 208.483C524.43 235.742 524.43 263.001 524.43 290.348C522.335 294.304 518.812 295.448 514.145 295.36C487.958 294.744 461.77 294.304 435.487 293.777C434.535 293.777 433.487 293.777 432.535 293.777C432.344 294.041 432.154 294.217 432.154 294.392C432.249 300.02 429.297 304.153 425.107 307.846C419.679 312.682 414.346 317.694 408.633 322.267C403.966 325.96 398.443 327.543 392.158 327.455C374.065 327.103 355.972 326.927 337.878 326.575C335.783 326.575 334.164 327.015 332.736 328.422M416.918 293.513C415.489 293.513 414.346 293.513 413.204 293.513C407.014 293.425 404.538 291.051 404.538 285.335C404.443 260.802 404.443 236.182 404.443 211.649C404.443 205.845 407.68 202.767 413.87 202.943C416.251 203.031 416.822 202.328 416.822 200.217C416.632 183.422 416.441 166.627 416.727 149.832C416.822 140.424 412.823 140.248 405.966 140.248C394.825 140.336 383.683 140.336 372.541 140.248C350.734 140.072 328.927 139.896 307.12 139.632C281.122 139.281 255.125 138.929 229.223 138.489C201.702 138.05 174.181 137.434 146.66 136.907C145.137 136.907 143.518 136.906 142.089 137.17C134.471 138.577 128.948 145.084 128.948 152.734C128.948 171.991 129.138 191.336 128.948 210.593C128.948 214.374 129.71 216.485 133.995 217.804C138.947 219.387 143.423 222.2 148.374 224.575C151.136 221.057 155.326 220.618 159.992 220.793C176.181 221.233 192.275 221.497 208.463 221.761C235.127 222.288 261.791 222.904 288.455 223.431C321.88 224.047 355.4 224.575 388.92 225.19C394.158 225.278 398.158 228.795 398.158 233.456C398.253 244.271 398.253 255.175 398.253 265.99C398.253 269.244 396.539 271.618 393.587 273.465C390.92 275.135 387.968 274.784 385.016 274.696C322.07 273.553 259.125 272.497 196.179 271.354C189.799 271.266 183.323 271.09 176.943 271.003C175.991 271.003 174.753 270.651 174.753 272.146C174.753 274.696 174.753 277.246 174.753 279.884C175.8 279.972 176.657 279.972 177.419 279.972C208.368 280.499 239.317 281.027 270.171 281.554C306.167 282.17 342.068 282.785 378.064 283.401C380.35 283.401 382.54 283.489 384.826 283.665C387.302 283.841 389.206 284.984 390.635 286.83C392.73 289.732 393.015 292.81 391.206 295.975C389.397 299.141 386.445 300.723 382.445 300.636C362.066 300.284 341.783 300.02 321.404 299.668C272.171 298.877 222.938 297.998 173.61 297.118C171.705 297.118 170.753 297.47 170.086 299.229C167.325 306.791 163.135 313.649 157.992 320.069C157.516 320.684 157.04 321.3 156.374 322.179C157.612 322.267 158.278 322.267 159.04 322.267C198.179 322.794 237.317 323.322 276.456 323.85C315.404 324.377 354.353 324.905 393.396 325.608C399.491 325.696 404.633 324.025 409.204 320.508C413.204 317.431 416.537 313.737 416.918 308.725C417.203 304.065 416.918 298.965 416.918 293.513ZM147.232 291.051C147.041 289.029 146.946 286.039 146.375 283.137C141.994 259.22 127.71 242.952 102.474 235.654C82.4766 229.85 63.2405 233.104 45.7185 243.128C19.5308 258.164 6.00843 280.235 8.19868 308.989C10.8651 344.426 45.2424 368.431 83.1432 362.364C119.33 356.384 146.66 326.488 147.232 291.051ZM363.685 60.8455C363.685 53.1954 363.685 45.985 363.685 38.7746C363.685 37.0159 362.447 36.0487 360.543 35.9607C359.685 35.8728 358.828 35.9607 357.971 35.9607C334.64 36.4883 311.31 37.1918 287.979 37.5435C264.457 37.8952 240.936 37.8073 217.51 37.9832C209.892 37.9832 204.749 42.8194 204.749 49.854C204.749 74.5628 204.749 99.2717 204.845 123.981C204.845 124.772 204.845 125.651 204.845 126.882C257.791 127.586 310.548 128.201 363.209 128.905C363.399 127.937 363.495 127.41 363.495 126.97C363.495 122.134 363.495 117.298 363.59 112.373C363.59 110.791 363.114 110.263 361.4 110.263C357.114 110.351 352.924 110.351 348.639 110.175C347.782 110.175 346.163 109.472 346.068 108.944C345.211 104.636 346.163 100.151 352.734 99.9751C355.591 99.8872 358.448 99.8872 361.304 99.9751C363.209 100.063 363.78 99.5355 363.685 97.7768C363.59 96.1061 363.59 94.3475 363.685 92.6768C363.78 91.1819 363.209 90.7423 361.59 90.7423C357.21 90.8302 352.734 90.8302 348.353 90.7423C347.496 90.7423 346.163 90.1267 346.068 89.5992C344.925 84.675 347.211 80.4542 353.115 80.3663C356.543 80.3663 360.066 80.3663 363.495 80.3663C363.495 77.0249 363.495 74.0352 363.495 71.2214C358.352 71.2214 353.4 71.3093 348.449 71.1335C347.592 71.1335 346.068 70.43 345.973 69.9024C344.83 64.8903 347.306 60.6696 353.019 60.7575C356.352 60.8455 359.781 60.8455 363.685 60.8455ZM465.674 292.106C465.674 292.194 465.674 292.37 465.674 292.458C472.816 292.458 480.054 292.37 487.196 292.458C497.385 292.546 507.575 292.722 517.764 292.898C520.335 292.898 521.668 291.93 522.049 289.556C522.145 288.765 522.144 287.973 522.144 287.182C522.049 262.561 521.859 237.94 521.764 213.319C521.764 212.792 521.764 212.352 521.764 211.824C521.478 208.395 519.097 206.373 515.479 206.373C511.479 206.373 507.479 206.285 503.385 206.285C473.102 205.933 442.82 205.669 412.537 205.317C408.347 205.23 407.204 206.285 407.204 210.242C407.204 235.038 407.299 259.747 407.299 284.544C407.299 288.941 409.395 290.963 414.156 291.051C431.392 291.403 448.533 291.754 465.674 292.106ZM173.038 260.89C173.419 263.089 173.895 264.935 173.991 266.782C174.086 268.98 174.943 269.596 177.324 269.596C232.937 270.563 288.645 271.53 344.258 272.585C359.114 272.849 373.97 273.113 388.825 273.377C393.206 273.465 396.158 270.915 396.158 267.046C396.158 256.23 396.158 245.326 396.063 234.511C396.063 230.554 392.539 227.388 388.254 227.125C385.873 227.037 383.492 226.949 381.112 226.861C338.069 226.069 295.026 225.366 251.983 224.575C219.986 223.959 187.989 223.256 155.993 222.64C153.041 222.552 150.755 223.519 149.231 226.069C156.85 231.609 162.849 238.292 167.515 246.206C167.61 243.48 169.325 243.304 171.515 243.304C183.894 243.568 196.274 243.744 208.654 244.007C213.606 244.095 212.749 243.568 212.844 247.876C212.939 251.042 212.653 251.218 209.32 251.13C197.036 250.866 184.751 250.602 172.467 250.426C171.61 250.426 170.658 250.426 169.705 250.426C169.896 252.889 170.943 253.68 173.419 253.768C185.132 253.856 196.941 254.12 208.654 254.383C213.606 254.471 212.749 253.856 212.844 258.252C212.939 261.33 212.653 261.506 209.225 261.418C198.179 261.242 187.132 261.066 176.086 260.89C175.229 260.89 174.276 260.89 173.038 260.89ZM171.705 295.711C172.562 295.799 173.419 295.887 174.276 295.887C178.752 295.975 183.228 295.975 187.704 296.063C252.84 297.118 318.071 298.173 383.207 299.229C387.397 299.317 390.063 296.942 390.063 293.073C390.158 288.589 386.921 285.511 381.778 285.423C357.59 284.984 333.403 284.632 309.215 284.192C264.934 283.401 220.652 282.697 176.276 281.906C175.705 281.906 175.038 281.994 174.562 281.994C173.61 286.566 172.658 290.963 171.705 295.711ZM365.59 60.5817C367.589 60.5817 369.494 60.4937 371.303 60.5817C372.922 60.6696 373.494 60.142 373.398 58.6472C373.303 53.8988 373.303 49.2385 373.303 44.4901C373.303 40.4453 373.303 36.3125 373.208 32.2676C373.113 28.7503 371.399 27.2555 367.78 27.4314C356.257 27.9589 344.735 28.5745 333.307 28.8383C311.691 29.4538 290.074 29.8934 268.362 30.2452C256.649 30.421 244.84 30.3331 233.127 30.421C227.128 30.509 221.89 32.8831 217.034 35.8728C217.7 36.1366 218.367 36.2245 219.034 36.2245C226.176 36.2245 233.223 36.2245 240.365 36.1366C258.172 35.9607 275.885 35.8728 293.692 35.5211C315.785 35.0814 337.878 34.5538 359.971 33.9383C363.875 33.8504 365.399 35.0814 365.59 38.5987C365.59 39.3901 365.494 40.1815 365.494 40.9729C365.59 47.5677 365.59 53.9868 365.59 60.5817ZM210.463 249.371C211.13 245.678 211.13 245.678 207.416 245.59C195.703 245.414 183.894 245.151 172.181 244.975C170.753 244.975 169.705 244.799 169.61 246.733C169.61 248.58 170.467 248.844 172.086 248.844C181.99 249.02 191.894 249.195 201.702 249.371C204.654 249.371 207.511 249.371 210.463 249.371ZM365.399 128.641C367.875 128.641 370.351 128.729 372.732 128.553C373.113 128.553 373.684 127.586 373.684 127.058C373.779 125.036 373.684 123.101 373.684 121.079C373.684 117.649 373.684 114.132 373.684 110.351C371.113 110.351 368.923 110.263 366.732 110.439C366.256 110.439 365.399 111.23 365.399 111.67C365.304 117.122 365.399 122.662 365.399 128.641ZM210.463 259.747C211.225 256.142 211.13 255.966 207.701 255.966C196.274 255.79 184.847 255.527 173.419 255.351C172.848 255.351 172.277 255.439 171.705 255.527C172.277 259.22 172.277 259.132 175.895 259.22C186.561 259.396 197.226 259.571 207.892 259.747C208.749 259.835 209.606 259.747 210.463 259.747ZM365.494 99.9751C367.875 99.9751 370.065 100.063 372.256 99.8872C372.732 99.8872 373.494 99.1837 373.494 98.832C373.589 96.194 373.589 93.644 373.589 90.9181C370.732 90.9181 368.161 90.9181 365.494 90.9181C365.494 93.9958 365.494 96.8096 365.494 99.9751ZM373.398 71.1335C370.732 71.1335 368.256 71.1335 365.59 71.1335C365.59 74.2111 365.59 77.0249 365.59 80.0146C368.161 80.0146 370.732 80.0146 373.398 80.0146C373.398 77.0249 373.398 74.1232 373.398 71.1335Z" fill="black"></path><path d="M416.92 293.515C416.92 298.966 417.206 304.066 416.825 309.166C416.444 314.179 413.111 317.872 409.112 320.949C404.541 324.467 399.398 326.137 393.304 326.049C354.355 325.346 315.407 324.818 276.364 324.291C237.225 323.763 198.086 323.236 158.948 322.708C158.186 322.708 157.424 322.62 156.281 322.62C156.948 321.741 157.424 321.125 157.9 320.51C163.042 314.091 167.232 307.232 169.994 299.67C170.661 297.823 171.613 297.472 173.517 297.559C222.75 298.439 271.983 299.23 321.311 300.109C341.69 300.461 361.974 300.725 382.353 301.077C386.352 301.165 389.209 299.582 391.114 296.416C392.923 293.339 392.732 290.261 390.542 287.271C389.209 285.425 387.304 284.282 384.733 284.106C382.543 283.93 380.258 283.93 377.972 283.842C341.976 283.227 306.075 282.611 270.079 281.996C239.13 281.468 208.18 280.94 177.327 280.413C176.469 280.413 175.612 280.325 174.66 280.325C174.66 277.687 174.66 275.137 174.66 272.587C174.66 271.092 175.898 271.356 176.85 271.444C183.231 271.532 189.706 271.62 196.086 271.795C259.032 272.939 321.978 273.994 384.924 275.137C387.876 275.225 390.828 275.489 393.494 273.906C396.351 272.147 398.16 269.685 398.16 266.432C398.16 255.616 398.16 244.712 398.065 233.897C398.065 229.148 394.066 225.719 388.828 225.631C355.308 225.016 321.883 224.488 288.362 223.873C261.699 223.345 235.035 222.729 208.371 222.202C192.182 221.85 176.089 221.674 159.9 221.235C155.234 221.147 151.044 221.498 148.282 225.016C143.33 222.642 138.854 219.828 133.903 218.245C129.617 216.926 128.855 214.816 128.855 211.035C129.046 191.777 128.855 172.432 128.855 153.175C128.855 145.525 134.283 139.018 141.997 137.611C143.521 137.348 145.044 137.348 146.568 137.348C174.089 137.875 201.61 138.491 229.131 138.93C255.128 139.37 281.125 139.722 307.027 140.074C328.834 140.337 350.642 140.513 372.449 140.689C383.591 140.777 394.732 140.777 405.874 140.689C412.635 140.601 416.73 140.865 416.635 150.274C416.349 167.069 416.635 183.864 416.73 200.659C416.73 202.769 416.254 203.472 413.778 203.384C407.588 203.209 404.35 206.286 404.35 212.09C404.35 236.623 404.445 261.244 404.445 285.777C404.445 291.492 406.921 293.866 413.111 293.954C414.349 293.515 415.492 293.515 416.92 293.515ZM279.411 216.398C279.411 216.574 279.411 216.838 279.411 217.014C285.315 217.014 291.124 217.014 297.028 217.014C299.79 217.014 300.933 216.047 300.933 213.848C300.933 206.198 300.933 198.548 300.933 190.986C300.933 189.755 300.456 189.227 299.028 189.227C286.934 189.052 274.935 188.788 262.841 188.524C260.556 188.524 259.413 189.579 259.413 191.69C259.413 199.252 259.413 206.814 259.413 214.376C259.413 216.047 260.08 216.486 261.699 216.486C267.698 216.398 273.507 216.398 279.411 216.398ZM377.115 218.157C377.115 218.421 377.115 218.597 377.115 218.86C382.829 218.86 388.542 218.86 394.256 218.86C396.922 218.86 397.875 217.981 397.875 215.519C397.875 207.693 397.78 199.955 397.875 192.129C397.875 190.546 397.494 189.843 395.589 189.843C384.162 190.019 372.735 190.107 361.307 190.195C358.641 190.195 357.498 191.25 357.498 193.712C357.498 201.098 357.498 208.572 357.498 215.959C357.498 217.541 357.974 218.157 359.688 218.069C365.497 218.157 371.306 218.157 377.115 218.157ZM328.549 217.278C328.549 217.541 328.549 217.717 328.549 217.981C334.358 217.981 340.167 217.981 345.975 217.981C348.737 217.981 349.785 217.102 349.785 214.552C349.785 207.078 349.785 199.603 349.785 192.041C349.785 190.634 349.308 190.019 347.69 190.019C335.976 189.843 324.168 189.667 312.455 189.491C310.074 189.491 308.836 190.546 308.836 192.745C308.836 200.307 308.836 207.869 308.836 215.431C308.836 216.926 309.408 217.454 310.931 217.366C316.836 217.278 322.645 217.278 328.549 217.278ZM397.875 184.303C397.875 181.841 397.684 179.467 397.875 177.093C398.446 170.234 392.161 164.431 384.257 164.431C362.355 164.343 340.452 164.079 318.645 163.727C273.507 162.936 228.369 162.056 183.231 161.177C175.422 161.001 167.613 160.738 159.805 160.825C151.615 160.913 146.092 166.365 146.092 173.839C146.092 175.158 146.187 176.565 146.092 177.884C145.901 179.555 146.568 180.083 148.377 180.083C163.804 180.346 179.326 180.698 194.753 180.962C234.844 181.753 275.031 182.633 315.122 183.336C340.357 183.776 365.497 184.039 390.733 184.303C393.018 184.303 395.304 184.303 397.875 184.303ZM190.373 194.415C208.466 194.767 221.036 194.943 233.511 195.207C237.035 195.295 240.463 195.383 243.986 195.383C246.748 195.383 247.795 194.152 247.7 190.898C247.7 188.348 247.605 188.26 244.272 188.26C235.892 188.084 227.607 187.996 219.227 187.821C199.419 187.381 179.707 187.029 159.9 186.589C156.472 186.502 153.139 186.414 149.71 186.414C147.044 186.414 146.187 187.733 145.997 190.81C145.806 193.272 147.044 193.448 149.139 193.448C164.756 193.712 180.374 194.152 190.373 194.415ZM198.277 204.791C206.085 204.967 216.084 205.231 226.179 205.495C232.083 205.583 238.082 205.671 243.986 205.759C246.843 205.759 247.795 204.528 247.795 201.274C247.795 198.724 247.795 198.724 244.367 198.636C213.608 198.021 182.85 197.317 152.091 196.702C151.139 196.702 150.187 196.614 149.33 196.702C146.854 197.053 145.997 198.636 146.092 201.978C146.187 204.352 147.996 203.736 149.425 203.824C164.947 204.176 180.469 204.44 198.277 204.791ZM196.277 214.991C196.277 215.167 196.277 215.431 196.277 215.607C205.895 215.607 215.418 215.519 225.036 215.607C231.416 215.607 237.701 215.871 244.081 215.959C246.748 215.959 247.795 214.816 247.891 211.914C247.986 210.155 247.795 209.012 245.224 208.924C213.894 208.309 182.659 207.605 151.329 206.902C150.663 206.902 149.901 206.814 149.234 206.99C146.854 207.429 145.901 209.188 146.187 212.441C146.377 214.728 148.187 214.024 149.52 214.112C165.042 214.464 180.66 214.728 196.277 214.991Z" fill="white"></path><path d="M147.236 291.053C146.664 326.49 119.334 356.387 83.1472 362.278C45.2464 368.433 10.9643 344.34 8.20268 308.904C6.01243 280.15 19.5348 258.079 45.7225 243.043C63.2445 233.018 82.4806 229.765 102.478 235.568C127.714 242.867 142.093 259.134 146.379 283.052C146.95 286.041 147.045 289.031 147.236 291.053ZM80.7665 296.505C81.2426 291.317 81.7187 285.69 82.0996 280.062C82.4806 274.786 83.3376 269.51 82.5758 264.058C81.3378 255.265 80.576 246.472 79.6237 237.679C79.5285 236.975 79.1476 236.36 78.8619 235.656C78.0048 236.008 76.9573 236.184 76.2907 236.799C75.8146 237.239 75.7194 238.206 75.6241 238.998C74.9575 245.856 74.3862 252.627 73.7196 259.486C73.3387 263.795 72.1007 268.191 72.3864 272.412C72.8625 280.414 74.0053 288.328 75.0528 296.241C75.2432 297.648 75.2432 298.967 73.7196 299.495C72.9578 299.759 71.7198 299.407 70.8627 298.967C58.1022 292.372 45.3416 285.778 32.6763 279.183C31.1526 278.391 29.629 277.864 28.6767 279.534C27.6292 281.293 29.8194 281.381 30.6765 281.909C43.7227 288.767 56.769 295.538 69.8152 302.309C70.5771 302.66 71.3389 303.54 71.4341 304.243C71.9102 309.695 75.9098 311.981 81.1474 309.607C82.3853 308.992 83.2424 309.167 84.2899 309.783C87.3372 311.366 90.3845 312.948 93.3366 314.531C94.6698 315.235 96.0029 315.147 96.7648 313.916C97.717 312.333 96.0029 312.157 95.1459 311.717C92.67 310.311 90.194 309.079 87.7181 307.76C88.3847 307.409 88.7656 307.497 89.2418 307.497C92.4795 307.76 95.7173 308.464 98.8598 308.2C105.335 307.585 111.716 306.266 118.096 305.562C120.762 305.298 121.143 304.243 120.477 302.045C119.334 301.869 118.191 301.605 116.953 301.429C109.811 300.374 102.859 298.264 95.4316 299.495C92.67 299.935 89.9084 300.11 87.1467 300.286C86.3849 300.374 85.4326 300.11 84.8613 299.759C83.7185 298.879 82.4806 297.824 80.7665 296.505ZM53.9121 252.979C52.8646 251.044 51.9124 249.374 51.0553 247.703C50.4839 246.472 49.6269 245.856 48.1985 246.56C46.9605 247.175 46.1034 248.055 46.9605 249.462C47.8175 250.869 48.4841 252.451 49.4364 253.77C49.8173 254.298 50.9601 254.826 51.5314 254.65C52.3885 254.474 53.0551 253.594 53.9121 252.979ZM30.5813 275.929C31.3431 275.402 32.3906 274.962 33.0572 274.258C33.3429 273.995 33.2477 272.852 32.962 272.764C30.486 271.708 28.1053 270.741 25.5342 270.038C24.8676 269.862 23.8201 270.917 23.0583 271.62C22.8678 271.796 23.1535 272.852 23.4392 273.027C25.7246 273.995 28.0101 274.874 30.5813 275.929ZM20.2014 297.472C20.2014 297.648 20.2966 297.824 20.2966 298C22.106 297.56 24.0105 297.121 25.8199 296.593C26.2008 296.505 26.5817 295.626 26.4865 295.186C26.3912 294.835 25.6294 294.483 25.058 294.395C22.6773 294.219 20.2966 293.955 17.9159 294.043C16.9637 294.043 15.8209 294.571 15.0591 295.186C13.9164 296.153 14.3925 297.209 15.9162 297.297C17.4398 297.385 18.773 297.385 20.2014 297.472ZM109.811 347.682C110.097 347.418 110.382 347.154 110.668 346.89C112.477 346.802 113.525 345.044 112.858 343.549C112.192 342.142 111.43 340.911 110.763 339.504C110.192 338.361 109.43 337.745 108.097 338.361C106.859 338.976 106.002 339.856 106.764 341.262C107.526 342.845 108.383 344.34 109.144 345.923C109.43 346.363 109.621 347.066 109.811 347.682ZM80.3855 352.606C80.3855 351.726 80.576 350.847 80.3855 350.056C80.2903 349.44 80.0046 348.473 79.6237 348.385C79.0524 348.209 78.0048 348.561 77.6239 349.001C77.0526 349.616 76.5764 350.583 76.4812 351.463C76.2907 352.957 76.2907 354.452 76.4812 355.947C76.5764 356.739 77.1478 357.442 77.5287 358.233C78.481 357.53 79.8142 357.002 80.2903 356.035C80.7665 355.068 80.3855 353.749 80.3855 352.606ZM133.904 261.157C133.808 260.893 133.808 260.717 133.713 260.453C132.951 260.453 131.904 260.189 131.333 260.541C128.095 262.388 124.857 264.322 121.715 266.345C121.143 266.696 121.048 267.751 120.762 268.455C121.619 268.455 122.572 268.631 123.238 268.279C126.285 266.52 129.333 264.674 132.285 262.827C132.951 262.388 133.332 261.772 133.904 261.157ZM35.3427 320.95C35.2474 320.686 35.2474 320.511 35.1522 320.247C34.3904 320.247 33.3429 319.983 32.7715 320.335C29.5338 322.181 26.296 324.204 23.1535 326.226C22.5821 326.578 22.4869 327.633 22.106 328.337C22.963 328.249 23.9153 328.512 24.5819 328.073C27.6292 326.314 30.6765 324.468 33.7238 322.533C34.3904 322.269 34.7713 321.566 35.3427 320.95ZM110.382 240.668C109.43 240.317 108.859 239.877 108.478 239.965C107.621 240.229 106.668 240.668 106.288 241.284C104.478 243.834 102.859 246.472 101.24 249.198C100.955 249.638 101.145 250.341 101.145 250.957C101.717 250.869 102.574 251.044 102.859 250.781C105.335 247.527 107.716 244.274 110.382 240.668ZM46.3891 350.056C46.8653 350.319 47.2462 350.495 47.7223 350.759C48.2937 349.792 48.8651 348.913 49.4364 347.945C50.8648 345.571 52.3885 343.285 53.7217 340.911C54.1026 340.295 54.0074 339.416 54.1026 338.625C53.2455 338.888 51.9124 338.888 51.5314 339.416C49.5317 342.318 47.6271 345.395 45.913 348.473C45.6273 348.825 46.1987 349.528 46.3891 350.056ZM129.714 314.443C128.857 315.059 127.904 315.674 127.238 316.378C127.047 316.642 127.333 317.609 127.619 317.785C129.809 318.752 132.094 319.719 134.38 320.335C135.046 320.511 136.189 319.543 136.951 318.928C137.237 318.752 137.141 317.609 136.856 317.433C134.666 316.466 132.38 315.498 129.714 314.443ZM143.807 287.448C143.617 287.096 143.331 286.745 143.141 286.305C142.569 286.129 141.808 285.69 141.332 285.865C137.999 286.833 134.761 287.888 131.523 288.943C131.047 289.119 130.571 289.471 130.285 289.91C129.999 290.35 129.904 290.965 130.095 291.405C130.19 291.581 131.047 291.845 131.523 291.669C134.856 290.702 138.094 289.647 141.332 288.591C142.189 288.328 142.95 287.888 143.807 287.448Z" fill="white"></path><path d="M465.676 292.109C448.535 291.757 431.393 291.406 414.252 291.054C409.491 290.966 407.396 289.031 407.396 284.547C407.301 259.75 407.301 235.041 407.301 210.245C407.301 206.288 408.444 205.32 412.634 205.32C442.916 205.672 473.199 205.936 503.481 206.288C507.481 206.288 511.48 206.376 515.575 206.376C519.289 206.376 521.67 208.486 521.86 211.827C521.86 212.355 521.86 212.795 521.86 213.322C521.955 237.943 522.146 262.564 522.241 287.185C522.241 287.976 522.241 288.768 522.146 289.559C521.765 291.845 520.432 292.9 517.861 292.9C507.671 292.812 497.482 292.549 487.292 292.461C480.15 292.373 472.913 292.461 465.771 292.461C465.676 292.373 465.676 292.285 465.676 292.109ZM515.289 285.866C515.289 284.019 515.194 282.524 515.289 281.118C515.575 279.095 514.718 278.48 512.528 278.48C481.769 278.04 451.01 277.512 420.252 276.985C418.347 276.985 416.443 276.985 414.443 276.985C414.443 279.359 414.443 281.645 414.443 284.195C447.963 284.723 481.388 285.25 515.289 285.866Z" fill="white"></path><path d="M173.041 260.896C174.279 260.896 175.136 260.896 176.089 260.896C187.135 261.072 198.182 261.248 209.228 261.424C212.656 261.512 212.847 261.248 212.847 258.258C212.751 253.862 213.609 254.477 208.657 254.389C196.944 254.126 185.135 253.862 173.422 253.774C170.946 253.774 169.899 252.895 169.708 250.433C170.661 250.433 171.518 250.433 172.47 250.433C184.754 250.696 197.039 250.96 209.323 251.136C212.656 251.224 212.847 250.96 212.847 247.883C212.751 243.574 213.609 244.101 208.657 244.014C196.277 243.75 183.897 243.574 171.518 243.31C169.327 243.222 167.613 243.486 167.518 246.212C162.852 238.298 156.853 231.615 149.234 226.075C150.758 223.525 153.044 222.558 155.996 222.646C187.992 223.35 219.989 223.965 251.985 224.581C295.029 225.372 338.072 226.075 381.115 226.867C383.495 226.867 385.876 226.955 388.257 227.131C392.542 227.394 395.97 230.56 396.066 234.517C396.161 245.332 396.161 256.236 396.161 267.052C396.161 271.009 393.209 273.471 388.828 273.383C373.973 273.119 359.117 272.855 344.261 272.591C288.648 271.624 232.94 270.569 177.327 269.602C174.946 269.602 174.089 268.986 173.994 266.788C173.994 264.941 173.422 263.095 173.041 260.896ZM252.081 247.267C251.985 242.255 251.985 237.243 252.081 232.231C252.081 230.912 251.7 230.296 250.176 230.208C241.129 230.032 232.083 229.769 223.036 229.681C220.655 229.681 219.417 230.824 219.417 232.934C219.417 242.958 219.513 252.895 219.513 262.919C219.513 264.414 220.179 264.853 221.703 264.853C230.559 265.029 239.511 265.293 248.367 265.469C251.033 265.557 252.176 264.414 252.176 261.952C252.081 257.115 252.081 252.191 252.081 247.267ZM327.787 238.562C327.311 238.386 327.216 238.21 327.025 238.21C317.598 237.946 308.17 237.682 298.742 237.507C296.743 237.507 295.695 238.738 295.695 240.584C295.695 248.586 295.695 256.588 295.695 264.59C295.695 265.996 296.362 266.524 297.79 266.436C297.981 266.436 298.266 266.436 298.457 266.436C306.646 266.612 314.836 266.788 323.026 266.876C326.93 266.964 327.692 266.172 327.692 262.743C327.692 257.995 327.692 253.158 327.692 248.41C327.787 245.069 327.787 241.815 327.787 238.562ZM273.126 265.645C273.126 265.821 273.126 265.996 273.126 266.172C277.507 266.172 281.887 266.172 286.363 266.172C289.029 266.172 290.172 265.205 290.172 262.919C290.172 256.5 290.172 250.081 290.172 243.662C290.172 242.255 289.696 241.639 288.077 241.551C279.221 241.376 270.269 241.2 261.413 241.024C258.937 240.936 257.794 241.991 257.794 244.189C257.794 250.696 257.794 257.203 257.794 263.71C257.794 265.205 258.366 265.733 259.985 265.733C264.365 265.645 268.746 265.645 273.126 265.645ZM354.927 243.31C354.927 243.398 354.927 243.486 354.927 243.662C355.308 243.662 355.689 243.662 356.07 243.662C361.974 243.75 367.973 243.838 373.877 243.838C376.544 243.838 377.401 242.782 377.401 239.705C377.401 236.803 377.401 236.715 374.258 236.715C362.64 236.539 350.927 236.363 339.31 236.188C334.739 236.1 334.072 236.803 334.072 241.112C334.072 242.695 334.548 243.398 336.453 243.398C342.643 243.31 348.832 243.31 354.927 243.31ZM356.546 247.091C356.546 247.003 356.546 246.827 356.546 246.739C353.022 246.739 349.404 246.739 345.88 246.739C343.023 246.739 340.167 246.476 337.31 246.476C334.739 246.476 334.072 247.883 334.072 251.576C334.072 253.862 335.596 253.598 337.119 253.598C348.737 253.862 360.45 254.038 372.068 254.302C376.734 254.389 377.401 253.686 377.496 249.465C377.496 247.795 377.02 247.003 375.02 247.091C368.926 247.179 362.736 247.091 356.546 247.091ZM356.832 257.555C356.832 257.379 356.832 257.291 356.832 257.115C354.546 257.115 352.356 257.115 350.07 257.115C345.976 257.027 341.881 256.852 337.786 256.852C334.929 256.852 334.072 257.995 334.167 261.336C334.167 263.974 334.167 263.974 337.5 263.974C349.118 264.15 360.641 264.326 372.258 264.502C377.115 264.59 377.591 264.062 377.591 259.665C377.591 258.171 377.21 257.467 375.401 257.467C369.211 257.555 363.021 257.555 356.832 257.555ZM212.466 233.813C211.609 233.725 210.656 233.638 209.609 233.638C197.325 233.374 185.04 233.198 172.756 233.022C167.613 232.934 167.709 232.934 167.613 237.682C167.613 239.529 168.09 240.145 170.185 240.145C182.183 240.32 194.277 240.672 206.276 240.848C213.323 240.936 212.751 241.815 212.561 234.429C212.751 234.253 212.656 234.165 212.466 233.813Z" fill="white"></path><path d="M171.707 295.713C172.659 290.965 173.612 286.569 174.564 282.084C175.135 282.084 175.707 281.996 176.278 281.996C220.559 282.787 264.84 283.491 309.216 284.282C333.404 284.722 357.592 285.074 381.78 285.513C386.922 285.601 390.16 288.679 390.065 293.163C389.97 297.032 387.303 299.319 383.209 299.319C318.073 298.263 252.841 297.208 187.705 296.153C183.23 296.065 178.754 296.065 174.278 295.977C173.421 295.889 172.564 295.801 171.707 295.713Z" fill="white"></path><path d="M210.463 249.373C207.511 249.373 204.654 249.373 201.798 249.373C191.894 249.198 181.99 249.022 172.182 248.846C170.563 248.846 169.611 248.582 169.706 246.735C169.706 244.801 170.848 244.977 172.277 244.977C183.99 245.241 195.798 245.416 207.511 245.592C211.13 245.68 211.13 245.68 210.463 249.373Z" fill="white"></path><path d="M365.402 128.646C365.402 122.754 365.402 117.215 365.498 111.587C365.498 111.147 366.355 110.356 366.831 110.356C369.021 110.18 371.306 110.268 373.782 110.268C373.782 114.049 373.782 117.566 373.782 120.996C373.782 123.018 373.878 124.953 373.782 126.975C373.782 127.503 373.211 128.47 372.83 128.47C370.259 128.646 367.878 128.646 365.402 128.646Z" fill="white"></path><path d="M210.466 259.748C209.609 259.748 208.752 259.748 207.8 259.748C197.134 259.572 186.469 259.396 175.803 259.221C172.185 259.133 172.185 259.133 171.613 255.527C172.185 255.44 172.756 255.352 173.327 255.352C184.755 255.527 196.182 255.703 207.609 255.967C211.133 256.055 211.228 256.143 210.466 259.748Z" fill="white"></path><path d="M365.496 99.9789C365.496 96.8133 365.496 93.9995 365.496 90.9219C368.162 90.9219 370.734 90.9219 373.59 90.9219C373.59 93.5598 373.686 96.1978 373.495 98.8357C373.495 99.2754 372.733 99.8909 372.257 99.8909C370.067 100.067 367.877 99.9789 365.496 99.9789Z" fill="white"></path><path d="M373.399 71.1367C373.399 74.1264 373.399 77.0282 373.399 80.0178C370.732 80.0178 368.256 80.0178 365.59 80.0178C365.59 77.0282 365.59 74.2143 365.59 71.1367C368.256 71.1367 370.732 71.1367 373.399 71.1367Z" fill="white"></path><path d="M279.41 217.101C279.41 217.101 267.697 216.398 261.793 216.486C260.174 216.486 259.508 216.046 259.508 214.375C259.603 206.813 259.508 199.251 259.508 191.689C259.508 189.579 260.651 188.523 262.936 188.523C275.03 188.699 287.029 188.963 299.123 189.227C300.551 189.227 301.027 189.754 301.027 190.986C301.027 198.636 301.027 206.286 301.027 213.848C301.027 216.134 299.885 217.013 297.123 217.013C291.124 217.101 279.41 217.101 279.41 217.101Z" fill="black"></path><path d="M327.977 217.101C327.977 217.101 316.264 216.398 310.36 216.486C308.741 216.486 308.074 216.046 308.074 214.375C308.169 206.813 308.074 199.251 308.074 191.689C308.074 189.579 309.217 188.523 311.502 188.523C323.596 188.699 335.595 188.963 347.689 189.227C349.118 189.227 349.594 189.754 349.594 190.986C349.594 198.636 349.594 206.286 349.594 213.848C349.594 216.134 348.451 217.013 345.689 217.013C339.69 217.101 327.977 217.101 327.977 217.101Z" fill="black"></path><path d="M376.543 217.101C376.543 217.101 364.83 216.398 358.926 216.486C357.307 216.486 356.641 216.046 356.641 214.375C356.736 206.813 356.641 199.251 356.641 191.689C356.641 189.579 357.783 188.523 360.069 188.523C372.163 188.699 384.162 188.963 396.256 189.227C397.684 189.227 398.16 189.754 398.16 190.986C398.16 198.636 398.16 206.286 398.16 213.848C398.16 216.134 397.017 217.013 394.256 217.013C388.256 217.101 376.543 217.101 376.543 217.101Z" fill="black"></path><path d="M397.873 184.304C395.302 184.304 393.016 184.304 390.731 184.304C365.495 183.953 340.355 183.777 315.12 183.337C275.029 182.634 234.843 181.754 194.751 180.963C179.325 180.611 163.802 180.259 148.375 180.084C146.566 180.084 145.899 179.556 146.09 177.885C146.185 176.566 146.09 175.159 146.09 173.84C146.09 166.366 151.613 160.914 159.803 160.826C167.612 160.739 175.42 161.09 183.229 161.178C228.367 162.058 273.505 162.937 318.643 163.728C340.546 164.08 362.448 164.344 384.255 164.432C392.254 164.432 398.54 170.235 397.873 177.094C397.683 179.468 397.873 181.842 397.873 184.304ZM395.968 183.073C395.968 180.084 396.254 177.621 395.873 175.247C395.111 170.059 390.064 166.278 383.874 166.102C369.114 165.839 354.354 165.663 339.593 165.399C287.313 164.52 234.938 163.552 182.658 162.673C175.039 162.497 167.326 162.321 159.708 162.233C154.184 162.145 149.518 164.871 148.661 169.268C147.995 172.17 148.28 175.159 148.09 178.501C230.843 180.084 313.31 181.578 395.968 183.073Z" fill="black"></path><path d="M190.368 194.416C180.369 194.152 164.752 193.712 149.134 193.449C147.039 193.361 145.801 193.185 145.992 190.811C146.182 187.821 147.039 186.502 149.706 186.414C153.134 186.414 156.467 186.502 159.895 186.59C179.703 187.03 199.415 187.469 219.222 187.821C227.602 187.997 235.887 188.085 244.267 188.261C247.6 188.349 247.6 188.349 247.695 190.899C247.695 194.152 246.743 195.383 243.982 195.383C240.458 195.383 237.03 195.295 233.506 195.207C221.032 194.943 208.557 194.768 190.368 194.416Z" fill="black"></path><path d="M198.274 204.793C180.562 204.441 164.944 204.177 149.422 203.826C147.994 203.826 146.184 204.441 146.089 201.979C145.994 198.638 146.851 197.055 149.327 196.703C150.279 196.615 151.136 196.703 152.088 196.703C182.847 197.319 213.606 198.022 244.364 198.638C247.793 198.726 247.793 198.726 247.793 201.276C247.793 204.529 246.84 205.76 243.984 205.76C238.079 205.76 232.08 205.672 226.176 205.496C216.082 205.32 206.083 205.057 198.274 204.793Z" fill="black"></path><path d="M149.425 214.117C148.092 214.117 146.282 214.732 146.092 212.446C145.806 209.192 146.663 207.434 149.139 206.994C149.806 206.906 150.567 206.906 151.234 206.906C182.564 207.61 213.799 208.313 245.129 208.929C247.7 209.017 247.795 210.16 247.795 211.918C247.7 214.82 246.748 215.963 243.986 215.963C237.606 215.875 198.086 215.084 198.086 215.084C198.086 215.084 165.042 214.468 149.425 214.117Z" fill="black"></path><path d="M80.7645 296.505C82.4786 297.824 83.7166 298.879 85.0498 299.759C85.6212 300.11 86.5734 300.286 87.3353 300.286C90.0969 300.11 92.9537 300.022 95.6201 299.495C103.048 298.264 110 300.374 117.142 301.429C118.38 301.605 119.522 301.869 120.665 302.045C121.332 304.243 120.951 305.298 118.284 305.562C111.809 306.266 105.524 307.584 99.0483 308.2C95.9058 308.464 92.5728 307.76 89.4303 307.497C88.9541 307.497 88.5732 307.409 87.9066 307.76C90.3826 309.079 92.8585 310.31 95.3344 311.717C96.1915 312.157 98.0008 312.421 96.9533 313.916C96.1915 315.147 94.8583 315.235 93.5251 314.531C90.4778 312.948 87.4305 311.366 84.4784 309.783C83.4309 309.167 82.5739 309.079 81.3359 309.607C76.0984 312.069 72.0988 309.783 71.6226 304.243C71.5274 303.54 70.7656 302.66 70.0038 302.309C56.9575 295.45 43.9113 288.679 30.865 281.908C29.9127 281.381 27.7225 281.293 28.8652 279.534C29.8175 277.864 31.4364 278.391 32.8648 279.183C45.6254 285.777 58.2907 292.46 71.0513 298.967C71.9083 299.407 73.1463 299.759 73.9081 299.495C75.4318 298.967 75.4318 297.648 75.2413 296.241C74.1938 288.327 73.0511 280.326 72.5749 272.412C72.2892 268.103 73.5272 263.794 73.9081 259.486C74.5747 252.715 75.1461 245.856 75.8127 238.998C75.9079 238.206 75.9079 237.327 76.4793 236.799C77.0506 236.184 78.1934 236.008 79.0504 235.656C79.3361 236.36 79.717 236.975 79.8122 237.679C80.7645 246.472 81.5264 255.265 82.7643 264.058C83.5261 269.422 82.6691 274.698 82.2882 280.062C81.7168 285.689 81.2407 291.317 80.7645 296.505ZM78.7647 308.552C81.4311 308.552 83.6214 306.441 83.6214 303.891C83.6214 301.341 81.3359 299.231 78.6695 299.143C76.0031 299.055 73.6224 301.341 73.6224 303.979C73.7177 306.529 76.0031 308.552 78.7647 308.552Z" fill="black"></path><path d="M53.9125 252.979C53.1507 253.595 52.3889 254.474 51.5318 254.738C50.9604 254.914 49.8177 254.386 49.4368 253.858C48.4845 252.539 47.8179 250.957 46.9609 249.55C46.199 248.143 46.9609 247.263 48.1988 246.648C49.6273 245.944 50.3891 246.56 51.0557 247.791C51.8175 249.374 52.7698 251.045 53.9125 252.979Z" fill="black"></path><path d="M30.5793 275.929C27.9129 274.873 25.7227 273.994 23.5324 272.939C23.2467 272.763 22.9611 271.708 23.1515 271.532C23.9133 270.828 24.9608 269.773 25.6274 269.949C28.1986 270.653 30.6745 271.62 33.0552 272.675C33.3409 272.763 33.4361 273.906 33.1505 274.17C32.3886 274.961 31.3411 275.489 30.5793 275.929Z" fill="black"></path><path d="M20.1994 297.476C18.771 297.388 17.4378 297.388 16.0094 297.212C14.4857 297.036 14.0096 296.069 15.1523 295.102C15.9141 294.486 16.9617 293.959 18.0092 293.959C20.3899 293.871 22.7706 294.135 25.1513 294.311C25.6274 294.311 26.4845 294.75 26.5797 295.102C26.6749 295.542 26.294 296.421 25.9131 296.509C24.1038 297.124 22.1992 297.476 20.3899 297.916C20.2946 297.828 20.1994 297.652 20.1994 297.476Z" fill="black"></path><path d="M109.808 347.679C109.617 347.064 109.427 346.448 109.141 345.833C108.379 344.25 107.522 342.755 106.76 341.172C105.999 339.765 106.856 338.886 108.094 338.271C109.427 337.655 110.189 338.271 110.76 339.414C111.427 340.821 112.188 342.14 112.855 343.458C113.617 345.041 112.474 346.712 110.665 346.8C110.379 347.064 110.093 347.328 109.808 347.679Z" fill="black"></path><path d="M80.3831 352.605C80.3831 353.748 80.764 355.067 80.2879 355.946C79.8118 356.826 78.4786 357.441 77.5263 358.145C77.1454 357.353 76.574 356.65 76.4788 355.858C76.2883 354.364 76.2883 352.869 76.4788 351.374C76.574 350.495 77.0502 349.615 77.6215 348.912C78.0024 348.472 79.0499 348.12 79.6213 348.296C80.0022 348.384 80.2879 349.351 80.3831 349.967C80.5736 350.934 80.4784 351.814 80.3831 352.605Z" fill="black"></path><path d="M133.903 261.158C133.332 261.685 132.951 262.389 132.284 262.828C129.332 264.675 126.285 266.522 123.238 268.28C122.666 268.632 121.619 268.368 120.762 268.456C121.047 267.753 121.143 266.697 121.714 266.346C124.857 264.323 128.094 262.389 131.332 260.542C131.903 260.191 132.856 260.454 133.713 260.454C133.808 260.718 133.903 260.982 133.903 261.158Z" fill="black"></path><path d="M35.3383 320.949C34.7669 321.476 34.386 322.268 33.7194 322.619C30.7673 324.554 27.72 326.401 24.5775 328.159C23.9109 328.511 22.9586 328.335 22.1016 328.423C22.3872 327.72 22.4825 326.664 23.1491 326.313C26.2916 324.202 29.5293 322.268 32.7671 320.421C33.3385 320.069 34.2908 320.333 35.1478 320.333C35.243 320.509 35.243 320.773 35.3383 320.949Z" fill="black"></path><path d="M110.38 240.669C107.713 244.274 105.333 247.528 102.952 250.781C102.762 251.045 101.809 250.957 101.238 250.957C101.238 250.341 101.048 249.638 101.333 249.198C102.952 246.56 104.571 243.834 106.38 241.284C106.856 240.669 107.809 240.229 108.571 239.965C108.856 239.79 109.428 240.229 110.38 240.669Z" fill="black"></path><path d="M46.3867 350.056C46.1963 349.529 45.6249 348.825 45.9106 348.473C47.7199 345.396 49.5292 342.406 51.529 339.416C51.9099 338.889 53.2431 338.889 54.1002 338.625C54.005 339.416 54.1002 340.296 53.7193 340.911C52.3861 343.285 50.8624 345.66 49.434 347.946C48.8626 348.913 48.2913 349.792 47.7199 350.76C47.2438 350.584 46.7676 350.32 46.3867 350.056Z" fill="black"></path><path d="M129.708 314.445C132.374 315.588 134.66 316.468 136.945 317.523C137.231 317.611 137.326 318.754 137.041 319.018C136.279 319.633 135.136 320.601 134.469 320.425C132.089 319.809 129.898 318.842 127.708 317.875C127.423 317.699 127.137 316.732 127.327 316.468C127.994 315.588 128.946 315.061 129.708 314.445Z" fill="black"></path><path d="M143.803 287.452C142.946 287.803 142.185 288.331 141.328 288.595C138.09 289.65 134.757 290.705 131.519 291.672C131.138 291.76 130.186 291.584 130.091 291.409C129.9 290.969 130.091 290.353 130.281 289.914C130.472 289.474 131.043 289.122 131.519 288.946C134.757 287.891 137.995 286.836 141.328 285.869C141.804 285.693 142.47 286.133 143.137 286.309C143.327 286.748 143.518 287.1 143.803 287.452Z" fill="black"></path><path d="M515.289 285.865C481.388 285.338 447.963 284.81 414.348 284.195C414.348 281.557 414.348 279.359 414.348 276.984C416.347 276.984 418.252 276.984 420.157 276.984C450.915 277.512 481.674 278.04 512.433 278.479C514.718 278.479 515.48 279.095 515.194 281.117C515.099 282.524 515.289 284.019 515.289 285.865ZM513.48 280.326C512.718 280.238 512.147 280.15 511.671 280.15C480.531 279.622 449.392 279.095 418.252 278.567C416.538 278.567 416.062 279.007 415.967 280.59C415.871 282.612 417.109 282.524 418.633 282.524C449.582 283.052 480.436 283.579 511.385 284.107C512.052 284.107 512.718 284.019 513.385 284.019C513.48 283.403 513.48 282.964 513.48 282.524C513.48 281.821 513.48 281.205 513.48 280.326Z" fill="black"></path><path d="M252.079 247.265C252.079 252.189 252.079 257.113 252.079 262.037C252.079 264.499 250.936 265.642 248.27 265.554C239.413 265.379 230.462 265.115 221.606 264.939C220.082 264.939 219.416 264.499 219.416 263.004C219.416 252.98 219.32 243.044 219.32 233.02C219.32 230.909 220.653 229.678 222.939 229.766C231.986 229.942 241.032 230.118 250.079 230.294C251.603 230.294 252.079 230.997 251.984 232.316C251.984 237.24 252.079 242.252 252.079 247.265Z" fill="black"></path><path d="M327.786 238.559C327.786 241.901 327.786 245.154 327.786 248.408C327.786 253.156 327.786 257.992 327.786 262.741C327.786 266.17 326.929 266.961 323.12 266.873C314.93 266.698 306.74 266.61 298.551 266.434C298.36 266.434 298.075 266.434 297.884 266.434C296.456 266.522 295.789 265.994 295.789 264.587C295.789 256.585 295.789 248.584 295.789 240.582C295.789 238.735 296.837 237.416 298.836 237.504C308.264 237.68 317.692 237.944 327.119 238.208C327.214 238.208 327.31 238.296 327.786 238.559Z" fill="black"></path><path d="M273.122 265.644C273.122 265.644 264.361 265.644 259.886 265.644C258.267 265.644 257.695 265.116 257.695 263.621C257.791 257.114 257.695 250.607 257.695 244.1C257.695 241.902 258.838 240.847 261.314 240.935C270.17 241.111 279.122 241.286 287.978 241.462C289.597 241.462 290.073 242.166 290.073 243.573C290.073 249.992 290.073 256.411 290.073 262.83C290.073 265.204 288.93 266.083 286.264 266.083C281.978 266.171 273.122 265.644 273.122 265.644Z" fill="black"></path><path d="M354.927 253.858C348.737 253.858 342.547 253.77 336.357 253.858C334.453 253.858 333.977 253.154 333.977 251.572C333.977 247.263 334.643 246.56 339.214 246.648C350.832 246.823 362.545 246.999 374.163 247.175C377.305 247.263 377.305 247.263 377.305 250.165C377.305 253.242 376.448 254.298 373.782 254.298C368.068 254.386 354.927 254.034 354.927 253.858Z" fill="black"></path><path d="M354.927 262.651C348.737 262.651 342.547 262.563 336.357 262.651C334.453 262.651 333.977 261.947 333.977 260.365C333.977 256.056 334.643 255.353 339.214 255.44C350.832 255.616 362.545 255.792 374.163 255.968C377.305 256.056 377.305 256.056 377.305 258.958C377.305 262.035 376.448 263.091 373.782 263.091C368.068 263.179 354.927 262.827 354.927 262.651Z" fill="black"></path><path d="M212.463 233.811C212.653 234.163 212.748 234.339 212.748 234.427C212.939 241.725 213.415 240.934 206.463 240.846C194.465 240.67 182.371 240.318 170.372 240.142C168.277 240.142 167.801 239.527 167.801 237.68C167.896 232.932 167.801 232.932 172.943 233.02C185.228 233.196 197.512 233.459 209.796 233.635C210.653 233.635 211.606 233.723 212.463 233.811ZM210.463 238.999C211.034 235.306 211.034 235.306 207.32 235.218C202.273 235.13 197.226 235.042 192.274 234.954C185.513 234.866 178.657 234.778 171.896 234.603C170.086 234.515 169.61 235.042 169.61 236.625C169.61 238.296 170.467 238.472 171.896 238.472C181.037 238.647 190.179 238.823 199.226 238.999C203.035 239.087 206.654 238.999 210.463 238.999Z" fill="black"></path><path d="M395.966 183.074C313.308 181.579 230.841 180.085 147.992 178.59C148.183 175.248 147.897 172.171 148.564 169.357C149.516 164.96 154.087 162.234 159.61 162.322C167.228 162.41 174.942 162.674 182.56 162.762C234.84 163.641 287.216 164.609 339.496 165.488C354.256 165.752 369.017 165.84 383.777 166.191C390.062 166.279 395.014 170.06 395.776 175.336C396.252 177.623 395.966 180.085 395.966 183.074ZM379.873 178.678C382.729 178.678 384.92 176.655 384.92 174.105C384.92 171.555 382.539 169.621 379.777 169.621C376.92 169.621 374.635 171.643 374.635 174.105C374.54 176.743 376.825 178.766 379.873 178.678ZM349.59 173.49C349.59 170.588 347.209 168.478 343.972 168.478C340.448 168.478 337.496 171.116 337.496 174.193C337.496 177.095 339.782 179.205 343.114 179.205C346.638 179.205 349.59 176.567 349.59 173.49ZM362.16 168.653C358.637 168.653 355.589 171.203 355.494 174.281C355.399 177.095 357.875 179.293 361.113 179.381C364.446 179.469 367.588 176.743 367.683 173.754C367.779 170.852 365.398 168.653 362.16 168.653Z" fill="white"></path><path d="M78.7619 308.552C76.0003 308.552 73.7148 306.529 73.7148 303.979C73.7148 301.341 76.0003 299.055 78.7619 299.143C81.4283 299.231 83.7138 301.341 83.7138 303.891C83.6186 306.529 81.4283 308.552 78.7619 308.552Z" fill="white"></path><path d="M482.911 250.871C482.911 250.519 482.816 250.08 482.911 249.816C484.34 246.65 482.911 244.364 480.34 242.43C478.531 241.023 478.531 239.44 479.959 237.769C480.34 237.33 480.626 236.802 481.007 236.362C483.102 233.373 483.006 230.471 480.531 227.833C480.054 227.393 479.007 227.218 478.245 227.305C471.865 228.097 472.627 227.745 472.341 222.821C472.246 220.183 471.77 218.248 468.246 218.161C468.246 217.897 468.246 217.721 468.246 217.457C469.389 217.105 470.532 216.226 471.579 216.402C473.293 216.666 475.388 216.842 475.198 219.392C475.103 220.711 475.293 222.117 475.388 223.436C475.579 225.723 476.721 226.602 479.197 226.338C479.293 226.338 479.388 226.338 479.388 226.338C484.149 225.811 484.53 225.986 485.863 230.383C485.959 230.823 485.863 231.35 485.673 231.79C485.387 232.405 484.911 233.021 484.435 233.637C481.197 238.121 481.197 238.473 485.197 242.342C488.339 245.156 487.196 249.2 482.911 250.871Z" fill="white"></path><path d="M468.053 242.868C468.053 243.044 468.053 243.132 468.053 243.308C467.577 244.627 467.006 245.946 466.529 247.353C465.006 246.649 463.101 246.298 462.054 245.242C459.387 242.692 459.387 239.527 460.53 236.273C461.197 234.603 462.53 235.13 463.577 235.57C466.815 237.065 467.863 239.703 468.053 242.868Z" fill="white"></path><path d="M465.201 249.201C463.392 250.96 461.392 251.136 459.488 250.345C456.44 249.201 454.821 246.827 454.536 243.838C454.25 240.672 455.107 237.946 458.345 236.188C457.583 244.453 459.202 247.707 465.201 249.201Z" fill="white"></path><path d="M513.479 280.326C513.479 281.206 513.479 281.821 513.479 282.525C513.479 282.964 513.384 283.404 513.384 284.02C512.717 284.02 512.051 284.108 511.384 284.108C480.435 283.58 449.581 283.052 418.632 282.525C417.204 282.525 415.871 282.613 415.966 280.59C416.061 279.008 416.442 278.48 418.251 278.568C449.391 279.095 480.53 279.623 511.67 280.151C512.146 280.151 512.717 280.239 513.479 280.326Z" fill="white"></path><path d="M210.462 239C206.653 239 202.939 239.088 199.225 239C190.083 238.824 180.942 238.648 171.895 238.472C170.466 238.472 169.609 238.296 169.609 236.625C169.609 235.043 170.086 234.515 171.895 234.603C178.656 234.779 185.512 234.867 192.274 234.955C197.321 235.043 202.368 235.131 207.32 235.219C211.034 235.306 211.034 235.306 210.462 239Z" fill="white"></path><path d="M379.876 178.674C376.924 178.674 374.543 176.652 374.543 174.102C374.543 171.64 376.828 169.617 379.685 169.617C382.447 169.617 384.732 171.552 384.828 174.102C384.923 176.74 382.733 178.674 379.876 178.674Z" fill="black"></path><path d="M349.593 173.491C349.593 176.569 346.641 179.207 343.117 179.207C339.784 179.207 337.404 177.096 337.499 174.195C337.499 171.029 340.451 168.479 343.974 168.479C347.212 168.391 349.593 170.589 349.593 173.491ZM347.783 174.283C347.783 171.996 345.403 170.062 342.832 170.15C340.832 170.238 339.403 171.557 339.403 173.403C339.403 175.602 341.594 177.536 344.07 177.536C346.26 177.624 347.783 176.217 347.783 174.283Z" fill="black"></path><path d="M362.165 168.652C365.402 168.652 367.783 170.851 367.688 173.752C367.593 176.83 364.45 179.556 361.117 179.38C357.879 179.292 355.404 177.006 355.499 174.28C355.594 171.202 358.737 168.652 362.165 168.652ZM361.212 170.499C358.927 170.499 357.499 171.642 357.499 173.664C357.499 175.863 359.498 177.797 362.069 177.797C364.26 177.797 365.879 176.478 365.879 174.632C365.974 172.433 363.784 170.499 361.212 170.499Z" fill="black"></path><path d="M347.782 174.281C347.782 176.216 346.259 177.535 344.069 177.535C341.497 177.535 339.402 175.6 339.402 173.402C339.402 171.555 340.831 170.148 342.831 170.148C345.402 170.148 347.782 172.083 347.782 174.281Z" fill="white"></path><path d="M361.209 170.501C363.78 170.501 365.875 172.435 365.875 174.633C365.875 176.48 364.256 177.887 362.066 177.799C359.495 177.711 357.4 175.864 357.495 173.666C357.495 171.644 358.924 170.413 361.209 170.501Z" fill="white"></path><path d="M355.212 245.331C349.022 245.331 342.832 245.243 336.642 245.331C334.738 245.331 334.262 244.627 334.262 243.044C334.262 238.736 334.928 238.032 339.499 238.12C351.117 238.296 362.83 238.472 374.448 238.648C377.59 238.736 377.59 238.736 377.59 241.637C377.59 244.715 376.733 245.77 374.067 245.77C368.258 245.77 355.212 245.419 355.212 245.331Z" fill="black"></path><path d="M312.068 23.2155C312.068 15.5654 305.402 9.41016 297.117 9.41016H200.08C191.795 9.41016 185.129 15.5654 185.129 23.2155V31.8328H312.068V23.2155Z" fill="white"></path><path d="M312.069 32.6265H185.13C184.654 32.6265 184.273 32.2748 184.273 31.8351V23.2178C184.273 15.216 191.32 8.62109 200.081 8.62109H297.119C305.784 8.62109 312.927 15.128 312.927 23.2178V31.8351C312.831 32.2748 312.45 32.6265 312.069 32.6265ZM185.892 31.0437H311.212V23.1298C311.212 15.9194 304.832 10.028 297.023 10.028H200.081C192.273 10.028 185.892 15.9194 185.892 23.1298V31.0437Z" fill="#010101"></path><path d="M312.068 31.832H185.129V109.3H312.068V31.832Z" fill="white"></path><path d="M312.069 110.094H185.13C184.654 110.094 184.273 109.742 184.273 109.302V31.8343C184.273 31.3947 184.654 31.043 185.13 31.043H312.069C312.546 31.043 312.927 31.3947 312.927 31.8343V109.302C312.831 109.742 312.45 110.094 312.069 110.094ZM185.892 108.511H311.212V32.5378H185.892V108.511Z" fill="#010101"></path><path d="M222.559 0.878906H214.75V17.3222H222.559V0.878906Z" fill="white"></path><path d="M222.56 18.026H214.752C214.275 18.026 213.895 17.6743 213.895 17.2346V0.791381C213.895 0.351722 214.275 0 214.752 0H222.56C223.036 0 223.417 0.351722 223.417 0.791381V17.2346C223.322 17.6743 223.036 18.026 222.56 18.026ZM215.513 16.5312H221.703V1.6707H215.513V16.5312Z" fill="#010101"></path><path d="M242.457 0.878906H234.648V17.3222H242.457V0.878906Z" fill="white"></path><path d="M242.459 18.026H234.65C234.174 18.026 233.793 17.6743 233.793 17.2346V0.791381C233.793 0.351722 234.174 0 234.65 0H242.459C242.935 0 243.316 0.351722 243.316 0.791381V17.2346C243.316 17.6743 242.935 18.026 242.459 18.026ZM235.507 16.5312H241.697V1.6707H235.507V16.5312Z" fill="#010101"></path><path d="M262.457 0.878906H254.648V17.3222H262.457V0.878906Z" fill="white"></path><path d="M262.459 18.026H254.65C254.174 18.026 253.793 17.6743 253.793 17.2346V0.791381C253.793 0.351722 254.174 0 254.65 0H262.459C262.935 0 263.316 0.351722 263.316 0.791381V17.2346C263.316 17.6743 262.935 18.026 262.459 18.026ZM255.507 16.5312H261.697V1.6707H255.507V16.5312Z" fill="#010101"></path><path d="M282.453 0.878906H274.645V17.3222H282.453V0.878906Z" fill="white"></path><path d="M282.455 18.026H274.646C274.17 18.026 273.789 17.6743 273.789 17.2346V0.791381C273.789 0.351722 274.17 0 274.646 0H282.455C282.931 0 283.312 0.351722 283.312 0.791381V17.2346C283.217 17.6743 282.836 18.026 282.455 18.026ZM275.408 16.5312H281.598V1.6707H275.408V16.5312Z" fill="#010101"></path><path d="M210.657 51.0014C210.657 54.9583 207.229 58.1239 202.944 58.1239C198.659 58.1239 195.23 54.9583 195.23 51.0014C195.23 47.0445 198.659 43.8789 202.944 43.8789C207.229 43.8789 210.657 47.0445 210.657 51.0014Z" fill="white"></path><path d="M202.944 58.8276C198.278 58.8276 194.469 55.3104 194.469 51.0017C194.469 46.693 198.278 43.1758 202.944 43.1758C207.61 43.1758 211.419 46.693 211.419 51.0017C211.515 55.3104 207.705 58.8276 202.944 58.8276ZM202.944 44.6706C199.135 44.6706 196.088 47.4844 196.088 51.0017C196.088 54.519 199.135 57.3328 202.944 57.3328C206.753 57.3328 209.8 54.519 209.8 51.0017C209.8 47.4844 206.753 44.6706 202.944 44.6706Z" fill="#010101"></path><path d="M233.513 51.0014C233.513 54.9583 230.085 58.1239 225.799 58.1239C221.514 58.1239 218.086 54.9583 218.086 51.0014C218.086 47.0445 221.514 43.8789 225.799 43.8789C229.989 43.8789 233.513 47.0445 233.513 51.0014Z" fill="white"></path><path d="M225.8 58.8276C221.133 58.8276 217.324 55.3104 217.324 51.0017C217.324 46.693 221.133 43.1758 225.8 43.1758C230.466 43.1758 234.275 46.693 234.275 51.0017C234.275 55.3104 230.466 58.8276 225.8 58.8276ZM225.8 44.6706C221.99 44.6706 218.943 47.4844 218.943 51.0017C218.943 54.519 221.99 57.3328 225.8 57.3328C229.609 57.3328 232.656 54.519 232.656 51.0017C232.656 47.4844 229.513 44.6706 225.8 44.6706Z" fill="#010101"></path><path d="M256.271 51.0014C256.271 54.9583 252.842 58.1239 248.557 58.1239C244.272 58.1239 240.844 54.9583 240.844 51.0014C240.844 47.0445 244.272 43.8789 248.557 43.8789C252.842 43.8789 256.271 47.0445 256.271 51.0014Z" fill="white"></path><path d="M248.557 58.8276C243.891 58.8276 240.082 55.3104 240.082 51.0017C240.082 46.693 243.891 43.1758 248.557 43.1758C253.223 43.1758 257.033 46.693 257.033 51.0017C257.128 55.3104 253.319 58.8276 248.557 58.8276ZM248.557 44.6706C244.748 44.6706 241.701 47.4844 241.701 51.0017C241.701 54.519 244.748 57.3328 248.557 57.3328C252.366 57.3328 255.414 54.519 255.414 51.0017C255.414 47.4844 252.366 44.6706 248.557 44.6706Z" fill="#010101"></path><path d="M279.025 51.0014C279.025 54.9583 275.596 58.1239 271.311 58.1239C267.026 58.1239 263.598 54.9583 263.598 51.0014C263.598 47.0445 267.026 43.8789 271.311 43.8789C275.596 43.8789 279.025 47.0445 279.025 51.0014Z" fill="white"></path><path d="M271.409 58.8276C266.743 58.8276 262.934 55.3104 262.934 51.0017C262.934 46.693 266.743 43.1758 271.409 43.1758C276.075 43.1758 279.884 46.693 279.884 51.0017C279.884 55.3104 276.075 58.8276 271.409 58.8276ZM271.409 44.6706C267.6 44.6706 264.552 47.4844 264.552 51.0017C264.552 54.519 267.6 57.3328 271.409 57.3328C275.218 57.3328 278.265 54.519 278.265 51.0017C278.265 47.4844 275.123 44.6706 271.409 44.6706Z" fill="#010101"></path><path d="M301.88 51.0014C301.88 54.9583 298.452 58.1239 294.167 58.1239C289.881 58.1239 286.453 54.9583 286.453 51.0014C286.453 47.0445 289.881 43.8789 294.167 43.8789C298.452 43.8789 301.88 47.0445 301.88 51.0014Z" fill="white"></path><path d="M294.167 58.8276C289.501 58.8276 285.691 55.3104 285.691 51.0017C285.691 46.693 289.501 43.1758 294.167 43.1758C298.833 43.1758 302.642 46.693 302.642 51.0017C302.737 55.3104 298.833 58.8276 294.167 58.8276ZM294.167 44.6706C290.358 44.6706 287.31 47.4844 287.31 51.0017C287.31 54.519 290.358 57.3328 294.167 57.3328C297.976 57.3328 301.023 54.519 301.023 51.0017C301.023 47.4844 297.976 44.6706 294.167 44.6706Z" fill="#010101"></path><path d="M210.657 70.6069C210.657 74.5638 207.229 77.7293 202.944 77.7293C198.659 77.7293 195.23 74.5638 195.23 70.6069C195.23 66.6499 198.659 63.4844 202.944 63.4844C207.229 63.4844 210.657 66.6499 210.657 70.6069Z" fill="white"></path><path d="M202.944 78.4331C198.278 78.4331 194.469 74.9159 194.469 70.6072C194.469 66.2985 198.278 62.7812 202.944 62.7812C207.61 62.7812 211.419 66.2985 211.419 70.6072C211.515 74.9159 207.705 78.4331 202.944 78.4331ZM202.944 64.2761C199.135 64.2761 196.088 67.0899 196.088 70.6072C196.088 74.1245 199.135 76.9383 202.944 76.9383C206.753 76.9383 209.8 74.1245 209.8 70.6072C209.8 67.0899 206.753 64.2761 202.944 64.2761Z" fill="#010101"></path><path d="M233.513 70.6069C233.513 74.5638 230.085 77.7293 225.799 77.7293C221.514 77.7293 218.086 74.5638 218.086 70.6069C218.086 66.6499 221.514 63.4844 225.799 63.4844C229.989 63.4844 233.513 66.6499 233.513 70.6069Z" fill="white"></path><path d="M225.8 78.4331C221.133 78.4331 217.324 74.9159 217.324 70.6072C217.324 66.2985 221.133 62.7812 225.8 62.7812C230.466 62.7812 234.275 66.2985 234.275 70.6072C234.275 74.9159 230.466 78.4331 225.8 78.4331ZM225.8 64.2761C221.99 64.2761 218.943 67.0899 218.943 70.6072C218.943 74.1245 221.99 76.9383 225.8 76.9383C229.609 76.9383 232.656 74.1245 232.656 70.6072C232.656 67.0899 229.513 64.2761 225.8 64.2761Z" fill="#010101"></path><path d="M256.271 70.6069C256.271 74.5638 252.842 77.7293 248.557 77.7293C244.272 77.7293 240.844 74.5638 240.844 70.6069C240.844 66.6499 244.272 63.4844 248.557 63.4844C252.842 63.4844 256.271 66.6499 256.271 70.6069Z" fill="white"></path><path d="M248.557 78.4331C243.891 78.4331 240.082 74.9159 240.082 70.6072C240.082 66.2985 243.891 62.7812 248.557 62.7812C253.223 62.7812 257.033 66.2985 257.033 70.6072C257.128 74.9159 253.319 78.4331 248.557 78.4331ZM248.557 64.2761C244.748 64.2761 241.701 67.0899 241.701 70.6072C241.701 74.1245 244.748 76.9383 248.557 76.9383C252.366 76.9383 255.414 74.1245 255.414 70.6072C255.414 67.0899 252.366 64.2761 248.557 64.2761Z" fill="#010101"></path><path d="M279.025 70.6069C279.025 74.5638 275.596 77.7293 271.311 77.7293C267.026 77.7293 263.598 74.5638 263.598 70.6069C263.598 66.6499 267.026 63.4844 271.311 63.4844C275.596 63.4844 279.025 66.6499 279.025 70.6069Z" fill="white"></path><path d="M271.409 78.4331C266.743 78.4331 262.934 74.9159 262.934 70.6072C262.934 66.2985 266.743 62.7812 271.409 62.7812C276.075 62.7812 279.884 66.2985 279.884 70.6072C279.884 74.9159 276.075 78.4331 271.409 78.4331ZM271.409 64.2761C267.6 64.2761 264.552 67.0899 264.552 70.6072C264.552 74.1245 267.6 76.9383 271.409 76.9383C275.218 76.9383 278.265 74.1245 278.265 70.6072C278.265 67.0899 275.123 64.2761 271.409 64.2761Z" fill="#010101"></path><path d="M301.88 70.6069C301.88 74.5638 298.452 77.7293 294.167 77.7293C289.881 77.7293 286.453 74.5638 286.453 70.6069C286.453 66.6499 289.881 63.4844 294.167 63.4844C298.452 63.4844 301.88 66.6499 301.88 70.6069Z" fill="white"></path><path d="M294.167 78.4331C289.501 78.4331 285.691 74.9159 285.691 70.6072C285.691 66.2985 289.501 62.7812 294.167 62.7812C298.833 62.7812 302.642 66.2985 302.642 70.6072C302.737 74.9159 298.833 78.4331 294.167 78.4331ZM294.167 64.2761C290.358 64.2761 287.31 67.0899 287.31 70.6072C287.31 74.1245 290.358 76.9383 294.167 76.9383C297.976 76.9383 301.023 74.1245 301.023 70.6072C301.023 67.0899 297.976 64.2761 294.167 64.2761Z" fill="#010101"></path><path d="M210.657 90.2162C210.657 94.1732 207.229 97.3387 202.944 97.3387C198.659 97.3387 195.23 94.1732 195.23 90.2162C195.23 86.2593 198.659 83.0938 202.944 83.0938C207.229 83.0938 210.657 86.2593 210.657 90.2162Z" fill="white"></path><path d="M202.944 98.0425C198.278 98.0425 194.469 94.5252 194.469 90.2166C194.469 85.9079 198.278 82.3906 202.944 82.3906C207.61 82.3906 211.419 85.9079 211.419 90.2166C211.515 94.5252 207.705 98.0425 202.944 98.0425ZM202.944 83.7975C199.135 83.7975 196.088 86.6113 196.088 90.1286C196.088 93.6459 199.135 96.4597 202.944 96.4597C206.753 96.4597 209.8 93.6459 209.8 90.1286C209.8 86.6993 206.753 83.7975 202.944 83.7975Z" fill="#010101"></path><path d="M233.513 90.2162C233.513 94.1732 230.085 97.3387 225.799 97.3387C221.514 97.3387 218.086 94.1732 218.086 90.2162C218.086 86.2593 221.514 83.0938 225.799 83.0938C229.989 83.0938 233.513 86.2593 233.513 90.2162Z" fill="white"></path><path d="M225.8 98.0425C221.133 98.0425 217.324 94.5252 217.324 90.2166C217.324 85.9079 221.133 82.3906 225.8 82.3906C230.466 82.3906 234.275 85.9079 234.275 90.2166C234.275 94.5252 230.466 98.0425 225.8 98.0425ZM225.8 83.7975C221.99 83.7975 218.943 86.6113 218.943 90.1286C218.943 93.6459 221.99 96.4597 225.8 96.4597C229.609 96.4597 232.656 93.6459 232.656 90.1286C232.656 86.6993 229.513 83.7975 225.8 83.7975Z" fill="#010101"></path><path d="M256.271 90.2162C256.271 94.1732 252.842 97.3387 248.557 97.3387C244.272 97.3387 240.844 94.1732 240.844 90.2162C240.844 86.2593 244.272 83.0938 248.557 83.0938C252.842 83.0938 256.271 86.2593 256.271 90.2162Z" fill="white"></path><path d="M248.557 98.0425C243.891 98.0425 240.082 94.5252 240.082 90.2166C240.082 85.9079 243.891 82.3906 248.557 82.3906C253.223 82.3906 257.033 85.9079 257.033 90.2166C257.128 94.5252 253.319 98.0425 248.557 98.0425ZM248.557 83.7975C244.748 83.7975 241.701 86.6113 241.701 90.1286C241.701 93.6459 244.748 96.4597 248.557 96.4597C252.366 96.4597 255.414 93.6459 255.414 90.1286C255.414 86.6993 252.366 83.7975 248.557 83.7975Z" fill="#010101"></path><path d="M279.025 90.2162C279.025 94.1732 275.596 97.3387 271.311 97.3387C267.026 97.3387 263.598 94.1732 263.598 90.2162C263.598 86.2593 267.026 83.0938 271.311 83.0938C275.596 83.0938 279.025 86.2593 279.025 90.2162Z" fill="white"></path><path d="M271.409 98.0425C266.743 98.0425 262.934 94.5252 262.934 90.2166C262.934 85.9079 266.743 82.3906 271.409 82.3906C276.075 82.3906 279.884 85.9079 279.884 90.2166C279.884 94.5252 276.075 98.0425 271.409 98.0425ZM271.409 83.7975C267.6 83.7975 264.552 86.6113 264.552 90.1286C264.552 93.6459 267.6 96.4597 271.409 96.4597C275.218 96.4597 278.265 93.6459 278.265 90.1286C278.265 86.6993 275.123 83.7975 271.409 83.7975Z" fill="#010101"></path><path d="M301.88 90.2162C301.88 94.1732 298.452 97.3387 294.167 97.3387C289.881 97.3387 286.453 94.1732 286.453 90.2162C286.453 86.2593 289.881 83.0938 294.167 83.0938C298.452 83.0938 301.88 86.2593 301.88 90.2162Z" fill="white"></path><path d="M294.167 98.0425C289.501 98.0425 285.691 94.5252 285.691 90.2166C285.691 85.9079 289.501 82.3906 294.167 82.3906C298.833 82.3906 302.642 85.9079 302.642 90.2166C302.737 94.5252 298.833 98.0425 294.167 98.0425ZM294.167 83.7975C290.358 83.7975 287.31 86.6113 287.31 90.1286C287.31 93.6459 290.358 96.4597 294.167 96.4597C297.976 96.4597 301.023 93.6459 301.023 90.1286C301.023 86.6993 297.976 83.7975 294.167 83.7975Z" fill="#010101"></path><path d="M241.223 123.719C226.748 146.933 194.656 154.847 169.516 141.481C144.376 128.116 135.805 98.4828 150.28 75.2688C164.755 52.0548 196.846 44.141 221.987 57.5066C247.032 70.9602 255.697 100.593 241.223 123.719Z" fill="white"></path><path d="M195.703 148.781C186.37 148.781 177.228 146.494 169.134 142.186C143.708 128.644 134.947 98.4835 149.612 74.9178C159.135 59.7056 176.847 50.2969 195.798 50.2969C205.13 50.2969 214.272 52.5831 222.366 56.8918C247.792 70.4333 256.553 100.594 241.888 124.16C232.365 139.284 214.653 148.781 195.703 148.781ZM195.798 51.7917C177.419 51.7917 160.182 60.9366 151.041 75.6212C136.756 98.3956 145.327 127.677 169.991 140.779C177.8 144.999 186.751 147.198 195.798 147.198C214.177 147.198 231.413 138.053 240.555 123.368C254.839 100.594 246.269 71.3126 221.605 58.2107C213.701 53.99 204.749 51.7917 195.798 51.7917Z" fill="#010101"></path><path d="M205.512 99.5375C205.512 104.55 201.131 108.594 195.703 108.594C190.275 108.594 185.895 104.55 185.895 99.5375C185.895 94.5253 190.275 90.4805 195.703 90.4805C201.131 90.4805 205.512 94.5253 205.512 99.5375Z" fill="white"></path><path d="M195.703 109.298C189.894 109.298 185.133 104.902 185.133 99.5378C185.133 94.1739 189.894 89.7773 195.703 89.7773C201.512 89.7773 206.369 94.1739 206.369 99.5378C206.369 104.902 201.607 109.298 195.703 109.298ZM195.703 91.2722C190.751 91.2722 186.752 94.9653 186.752 99.5378C186.752 104.11 190.751 107.803 195.703 107.803C200.655 107.803 204.655 104.11 204.655 99.5378C204.655 94.9653 200.655 91.2722 195.703 91.2722Z" fill="#010101"></path><path d="M195.705 65.0732C195.229 65.0732 194.848 64.7215 194.848 64.2818V55.5765C194.848 55.1369 195.229 54.7852 195.705 54.7852C196.181 54.7852 196.562 55.1369 196.562 55.5765V64.2818C196.562 64.7215 196.181 65.0732 195.705 65.0732Z" fill="#010101"></path><path d="M176.658 69.8187C176.372 69.8187 176.086 69.6428 175.896 69.467L171.134 61.9048C170.944 61.5531 171.039 61.1134 171.42 60.8496C171.801 60.6738 172.277 60.7617 172.563 61.1134L177.324 68.6756C177.515 69.0273 177.419 69.467 177.038 69.7308C176.943 69.7308 176.753 69.8187 176.658 69.8187Z" fill="#010101"></path><path d="M162.658 82.6571C162.563 82.6571 162.372 82.6571 162.277 82.5691L154.087 78.1726C153.706 77.9967 153.516 77.4691 153.802 77.1174C153.992 76.7656 154.563 76.5898 154.944 76.8536L163.134 81.2502C163.515 81.426 163.705 81.9536 163.42 82.3054C163.229 82.5692 162.944 82.6571 162.658 82.6571Z" fill="#010101"></path><path d="M157.613 100.243H148.185C147.709 100.243 147.328 99.8912 147.328 99.4515C147.328 99.0119 147.709 98.6602 148.185 98.6602H157.613C158.089 98.6602 158.47 99.0119 158.47 99.4515C158.375 99.8912 158.089 100.243 157.613 100.243Z" fill="#010101"></path><path d="M154.47 122.227C154.185 122.227 153.899 122.052 153.709 121.876C153.518 121.524 153.613 121.084 153.994 120.82L162.184 116.424C162.565 116.248 163.041 116.336 163.327 116.688C163.517 117.039 163.422 117.479 163.041 117.743L154.851 122.139C154.756 122.227 154.661 122.227 154.47 122.227Z" fill="#010101"></path><path d="M171.898 138.315C171.803 138.315 171.612 138.315 171.517 138.227C171.136 138.051 170.946 137.523 171.231 137.172L175.993 129.61C176.183 129.258 176.755 129.082 177.135 129.346C177.516 129.522 177.707 130.049 177.421 130.401L172.66 137.963C172.469 138.139 172.184 138.315 171.898 138.315Z" fill="#010101"></path><path d="M195.705 144.21C195.229 144.21 194.848 143.858 194.848 143.419V134.713C194.848 134.274 195.229 133.922 195.705 133.922C196.181 133.922 196.562 134.274 196.562 134.713V143.419C196.562 143.858 196.181 144.21 195.705 144.21Z" fill="#010101"></path><path d="M219.509 138.315C219.223 138.315 218.938 138.139 218.747 137.963L213.986 130.401C213.795 130.049 213.891 129.61 214.272 129.346C214.652 129.17 215.129 129.258 215.414 129.61L220.176 137.172C220.366 137.523 220.271 137.963 219.89 138.227C219.795 138.315 219.604 138.315 219.509 138.315Z" fill="#010101"></path><path d="M236.935 122.223C236.84 122.223 236.65 122.223 236.554 122.136L228.365 117.739C227.984 117.563 227.793 117.036 228.079 116.684C228.269 116.332 228.841 116.156 229.222 116.42L237.411 120.817C237.792 120.992 237.983 121.52 237.697 121.872C237.507 122.136 237.221 122.223 236.935 122.223Z" fill="#010101"></path><path d="M243.316 100.243H233.888C233.412 100.243 233.031 99.8912 233.031 99.4515C233.031 99.0119 233.412 98.6602 233.888 98.6602H243.316C243.792 98.6602 244.173 99.0119 244.173 99.4515C244.078 99.8912 243.792 100.243 243.316 100.243Z" fill="#010101"></path><path d="M228.744 82.6571C228.458 82.6571 228.172 82.4812 227.982 82.3053C227.791 81.9536 227.887 81.5139 228.268 81.2501L236.457 76.8536C236.838 76.6777 237.314 76.7656 237.6 77.1174C237.79 77.4691 237.695 77.9087 237.314 78.1725L229.125 82.5691C229.029 82.6571 228.839 82.6571 228.744 82.6571Z" fill="#010101"></path><path d="M214.749 69.8148C214.654 69.8148 214.464 69.8148 214.369 69.7269C213.988 69.551 213.797 69.0234 214.083 68.6717L218.844 61.1096C219.035 60.7578 219.606 60.582 219.987 60.8458C220.368 61.0216 220.558 61.5492 220.273 61.9009L215.511 69.4631C215.321 69.6389 215.035 69.8148 214.749 69.8148Z" fill="#010101"></path><path d="M171.895 122.225C171.705 122.225 171.514 122.137 171.324 121.962C171.038 121.698 171.038 121.17 171.324 120.906L188.179 105.342C188.465 105.079 189.036 105.079 189.322 105.342C189.607 105.606 189.607 106.134 189.322 106.398L172.466 121.962C172.371 122.137 172.181 122.225 171.895 122.225Z" fill="#010101"></path><path d="M221.128 100.243H205.416C204.94 100.243 204.559 99.8912 204.559 99.4515C204.559 99.0119 204.94 98.6602 205.416 98.6602H221.128C221.604 98.6602 221.985 99.0119 221.985 99.4515C221.985 99.8912 221.604 100.243 221.128 100.243Z" fill="#010101"></path><path d="M465.964 250.34C469.011 252.187 471.202 256.144 475.106 257.902V252.451C475.106 248.669 467.297 242.954 465.964 242.162C465.869 242.162 465.869 242.075 465.774 242.075C465.583 241.899 465.393 241.635 465.393 241.371C465.393 241.107 465.583 240.844 465.774 240.668C465.869 240.58 465.869 240.58 465.964 240.58C467.297 239.7 475.106 234.073 475.106 230.292V229.061C467.678 232.754 458.251 232.93 450.918 228.797V230.292C450.918 234.073 458.822 239.788 460.155 240.58C460.155 240.58 460.25 240.58 460.25 240.668C460.536 240.844 460.631 241.107 460.631 241.459C460.631 241.811 460.441 242.075 460.25 242.25L460.155 242.338C458.822 243.218 450.918 248.845 450.918 252.626V257.199C456.346 254.649 460.06 247.087 465.964 250.34Z" fill="white"></path><path d="M475.009 258.432C474.914 258.432 474.819 258.432 474.724 258.344C472.438 257.289 470.724 255.53 469.105 253.859C467.962 252.628 466.82 251.485 465.582 250.782C464.725 250.342 463.868 250.078 463.011 250.078C460.725 250.078 458.63 251.837 456.44 253.771C454.821 255.178 453.107 256.673 451.107 257.464C450.917 257.552 450.726 257.552 450.536 257.464C450.345 257.376 450.25 257.201 450.25 257.025V252.452C450.25 247.968 459.678 241.725 459.773 241.637C459.963 241.549 460.059 241.461 460.059 241.285C460.059 241.109 459.963 241.021 459.868 240.933C459.678 240.845 450.25 234.514 450.25 230.118V228.623C450.25 228.447 450.345 228.271 450.536 228.183C450.726 228.095 450.917 228.095 451.107 228.183C454.535 230.118 458.63 231.173 462.915 231.173C467.01 231.173 471.105 230.206 474.724 228.447C474.914 228.359 475.105 228.359 475.295 228.447C475.485 228.535 475.581 228.711 475.581 228.887V230.118C475.581 234.602 466.248 240.845 466.153 240.845L465.963 240.933C465.867 241.021 465.772 241.109 465.772 241.285C465.772 241.461 465.867 241.549 465.963 241.637C465.963 241.637 466.058 241.725 466.153 241.725C466.248 241.813 475.581 248.056 475.581 252.452V257.904C475.581 258.08 475.485 258.256 475.295 258.344C475.295 258.432 475.2 258.432 475.009 258.432ZM463.106 249.023C464.153 249.023 465.201 249.287 466.248 249.902C467.582 250.782 468.819 251.925 470.057 253.244C471.391 254.651 472.819 256.058 474.438 257.025V252.54C474.438 249.375 467.962 244.187 465.582 242.692C465.582 242.692 465.486 242.604 465.391 242.516C465.01 242.252 464.82 241.813 464.82 241.373C464.82 240.933 465.01 240.494 465.391 240.23C465.486 240.142 465.582 240.142 465.677 240.054C467.962 238.559 474.533 233.371 474.533 230.206V229.854C471.01 231.437 467.01 232.316 463.011 232.316C458.916 232.316 455.011 231.437 451.488 229.678V230.206C451.488 233.371 458.059 238.559 460.439 240.054C460.439 240.054 460.535 240.142 460.63 240.142C461.011 240.406 461.296 240.845 461.296 241.373C461.296 241.813 461.106 242.252 460.63 242.604C460.63 242.604 460.535 242.692 460.439 242.692C458.059 244.187 451.488 249.375 451.488 252.54V256.145C452.916 255.354 454.345 254.211 455.678 253.068C458.059 250.87 460.344 249.023 463.106 249.023Z" fill="#010101"></path><path d="M465.964 250.34C460.06 247.086 456.346 254.648 450.918 256.935V262.211H475.106V257.902C471.202 256.143 468.916 252.186 465.964 250.34Z" fill="white"></path><path d="M475.009 262.739H450.821C450.536 262.739 450.25 262.475 450.25 262.211V256.935C450.25 256.76 450.345 256.496 450.631 256.408C452.44 255.616 454.059 254.21 455.678 252.891C458.059 250.868 460.344 248.934 463.106 248.934C464.153 248.934 465.201 249.197 466.248 249.813C467.582 250.692 468.819 251.835 470.057 253.154C471.581 254.737 473.295 256.408 475.39 257.375C475.581 257.463 475.771 257.639 475.771 257.903V262.211C475.676 262.563 475.39 262.739 475.009 262.739ZM451.488 261.684H474.438V258.254C472.343 257.199 470.724 255.528 469.105 253.946C467.962 252.715 466.82 251.572 465.582 250.868C464.725 250.428 463.868 250.165 463.011 250.165C460.725 250.165 458.63 251.923 456.44 253.858C454.916 255.177 453.297 256.584 451.488 257.463V261.684Z" fill="#010101"></path><path d="M450.918 220.355V228.709C458.251 232.842 467.678 232.666 475.106 228.973V220.443H450.918V220.355Z" fill="white"></path><path d="M463.009 232.314C458.533 232.314 454.248 231.259 450.629 229.149C450.439 229.061 450.344 228.885 450.344 228.709V220.356C450.344 220.092 450.629 219.828 450.915 219.828H475.103C475.389 219.828 475.674 220.092 475.674 220.356V228.885C475.674 229.061 475.579 229.237 475.389 229.413C471.58 231.259 467.294 232.314 463.009 232.314ZM451.486 228.358C454.915 230.204 458.819 231.171 463.009 231.171C467.009 231.171 470.913 230.292 474.532 228.533V220.883H451.582V228.358H451.486Z" fill="#010101"></path><path d="M460.059 240.492L462.915 241.987L465.677 240.58" fill="white"></path><path d="M462.913 242.517C462.817 242.517 462.722 242.517 462.627 242.429L459.77 240.934C459.484 240.758 459.389 240.406 459.58 240.142C459.77 239.879 460.151 239.791 460.437 239.966L463.008 241.373L465.484 240.054C465.769 239.879 466.15 239.967 466.341 240.23C466.531 240.494 466.436 240.846 466.15 241.022L463.389 242.429C463.198 242.517 463.103 242.517 462.913 242.517Z" fill="#010101"></path><path d="M462.915 244.624C462.629 244.624 462.344 244.361 462.344 244.097V242.074C462.344 241.811 462.629 241.547 462.915 241.547C463.201 241.547 463.486 241.811 463.486 242.074V244.097C463.582 244.361 463.296 244.624 462.915 244.624Z" fill="#010101"></path><path d="M462.915 250.078C462.629 250.078 462.344 249.814 462.344 249.55V246.824C462.344 246.561 462.629 246.297 462.915 246.297C463.201 246.297 463.486 246.561 463.486 246.824V249.55C463.486 249.902 463.201 250.078 462.915 250.078Z" fill="#010101"></path><path d="M478.053 218.244C478.053 219.387 477.006 220.354 475.768 220.354H450.246C449.008 220.354 447.961 219.387 447.961 218.244V216.31C447.961 215.166 449.008 214.199 450.246 214.199H475.768C477.006 214.199 478.053 215.166 478.053 216.31V218.244Z" fill="white"></path><path d="M475.77 220.882H450.249C448.63 220.882 447.297 219.651 447.297 218.156V216.222C447.297 214.727 448.63 213.496 450.249 213.496H475.77C477.389 213.496 478.722 214.727 478.722 216.222V218.156C478.627 219.739 477.389 220.882 475.77 220.882ZM450.154 214.639C449.201 214.639 448.44 215.343 448.44 216.222V218.156C448.44 219.036 449.201 219.739 450.154 219.739H475.675C476.627 219.739 477.389 219.036 477.389 218.156V216.222C477.389 215.343 476.627 214.639 475.675 214.639H450.154Z" fill="#010101"></path><path d="M478.053 266.342C478.053 267.485 477.006 268.452 475.768 268.452H450.246C449.008 268.452 447.961 267.485 447.961 266.342V264.407C447.961 263.264 449.008 262.297 450.246 262.297H475.768C477.006 262.297 478.053 263.264 478.053 264.407V266.342Z" fill="white"></path><path d="M475.77 269.07H450.249C448.63 269.07 447.297 267.839 447.297 266.344V264.409C447.297 262.915 448.63 261.684 450.249 261.684H475.77C477.389 261.684 478.722 262.915 478.722 264.409V266.344C478.627 267.839 477.389 269.07 475.77 269.07ZM450.154 262.739C449.201 262.739 448.44 263.442 448.44 264.322V266.256C448.44 267.135 449.201 267.839 450.154 267.839H475.675C476.627 267.839 477.389 267.135 477.389 266.256V264.322C477.389 263.442 476.627 262.739 475.675 262.739H450.154Z" fill="#010101"></path><path d="M322.164 320.422H195.605V392.702H322.164V320.422Z" fill="white"></path><path d="M322.166 393.32H195.608C195.227 393.32 194.941 393.056 194.941 392.704V320.424C194.941 320.072 195.227 319.809 195.608 319.809H322.166C322.547 319.809 322.833 320.072 322.833 320.424V392.704C322.833 393.056 322.547 393.32 322.166 393.32ZM196.275 392.089H321.499V321.04H196.275V392.089Z" fill="#010101"></path><path d="M269.03 360.255H248.747L245.985 358.145L195.609 392.702H322.167L271.792 358.145L269.03 360.255Z" fill="white"></path><path d="M322.166 393.317H195.513C195.227 393.317 194.941 393.141 194.846 392.877C194.751 392.613 194.846 392.349 195.036 392.173L245.412 357.616C245.698 357.44 245.983 357.44 246.174 357.616L248.745 359.551H268.552L271.124 357.616C271.314 357.44 271.695 357.44 271.885 357.616L322.166 392.086C322.356 392.173 322.547 392.349 322.547 392.613C322.832 393.053 322.547 393.317 322.166 393.317ZM197.608 392.086H320.166L271.79 358.935L269.41 360.694C269.314 360.782 269.124 360.87 269.029 360.87H248.745C248.555 360.87 248.459 360.782 248.364 360.694L245.983 358.935L197.608 392.086Z" fill="#010101"></path><path d="M195.605 320.422L245.981 358.145L248.743 360.255H269.026L271.788 358.145L322.164 320.422H195.605Z" fill="white"></path><path d="M269.026 360.871H248.742C248.552 360.871 248.456 360.783 248.361 360.695L245.6 358.585L195.224 320.862C195.033 320.686 194.938 320.422 195.033 320.158C195.129 319.895 195.414 319.719 195.605 319.719H322.163C322.449 319.719 322.734 319.895 322.734 320.158C322.83 320.422 322.734 320.686 322.544 320.862L269.407 360.695C269.311 360.783 269.216 360.871 269.026 360.871ZM248.933 359.64H268.74L320.258 321.038H197.414L248.933 359.64Z" fill="#010101"></path><path d="M348.832 392.703C348.832 406.244 336.928 417.324 322.168 417.324C307.503 417.324 295.504 406.332 295.504 392.703C295.504 379.161 307.407 368.082 322.168 368.082C336.833 368.17 348.832 379.161 348.832 392.703Z" fill="white"></path><path d="M322.165 417.94C307.119 417.94 294.93 406.596 294.93 392.791C294.93 378.898 307.214 367.555 322.165 367.555C337.211 367.555 349.495 378.898 349.495 392.791C349.495 406.596 337.211 417.94 322.165 417.94ZM322.165 368.698C307.881 368.698 296.168 379.425 296.168 392.703C296.168 405.893 307.785 416.709 322.165 416.709C336.449 416.709 348.162 405.981 348.162 392.703C348.162 379.513 336.449 368.698 322.165 368.698Z" fill="#010101"></path><path d="M342.161 332.915H322.163C321.782 332.915 321.496 332.651 321.496 332.299C321.496 331.947 321.782 331.684 322.163 331.684H342.161C342.542 331.684 342.827 331.947 342.827 332.299C342.827 332.651 342.542 332.915 342.161 332.915Z" fill="#010101"></path><path d="M342.161 343.286H322.163C321.782 343.286 321.496 343.022 321.496 342.67C321.496 342.318 321.782 342.055 322.163 342.055H342.161C342.542 342.055 342.827 342.318 342.827 342.67C342.827 343.022 342.542 343.286 342.161 343.286Z" fill="#010101"></path><path d="M342.161 353.665H322.163C321.782 353.665 321.496 353.401 321.496 353.049C321.496 352.697 321.782 352.434 322.163 352.434H342.161C342.542 352.434 342.827 352.697 342.827 353.049C342.827 353.401 342.542 353.665 342.161 353.665Z" fill="#010101"></path><path d="M342.161 364.04H322.163C321.782 364.04 321.496 363.776 321.496 363.424C321.496 363.072 321.782 362.809 322.163 362.809H342.161C342.542 362.809 342.827 363.072 342.827 363.424C342.827 363.776 342.542 364.04 342.161 364.04Z" fill="#010101"></path><path d="M225.033 390.589V367.551H151.422V408.879H225.033H239.698L225.033 390.589Z" fill="white"></path><path d="M239.698 409.497H151.327C150.946 409.497 150.66 409.233 150.66 408.881V367.553C150.66 367.201 150.946 366.938 151.327 366.938H225.033C225.414 366.938 225.7 367.201 225.7 367.553V390.415L240.27 408.529C240.46 408.705 240.46 408.969 240.365 409.145C240.175 409.409 239.984 409.497 239.698 409.497ZM152.089 408.265H238.46L224.557 390.943C224.462 390.855 224.462 390.679 224.462 390.591V368.169H152.089V408.265Z" fill="#010101"></path><path d="M216.75 377.051H186.182C185.801 377.051 185.516 376.788 185.516 376.436C185.516 376.084 185.801 375.82 186.182 375.82H216.75C217.131 375.82 217.417 376.084 217.417 376.436C217.417 376.788 217.131 377.051 216.75 377.051Z" fill="#010101"></path><path d="M216.75 384.876H186.182C185.801 384.876 185.516 384.612 185.516 384.26C185.516 383.908 185.801 383.645 186.182 383.645H216.75C217.131 383.645 217.417 383.908 217.417 384.26C217.417 384.612 217.131 384.876 216.75 384.876Z" fill="#010101"></path><path d="M216.75 392.79H186.182C185.801 392.79 185.516 392.526 185.516 392.174C185.516 391.822 185.801 391.559 186.182 391.559H216.75C217.131 391.559 217.417 391.822 217.417 392.174C217.417 392.526 217.131 392.79 216.75 392.79Z" fill="#010101"></path><path d="M216.75 400.618H186.182C185.801 400.618 185.516 400.354 185.516 400.002C185.516 399.651 185.801 399.387 186.182 399.387H216.75C217.131 399.387 217.417 399.651 217.417 400.002C217.417 400.354 217.131 400.618 216.75 400.618Z" fill="#010101"></path><path d="M195.607 345.044H166.467C166.086 345.044 165.801 344.78 165.801 344.428C165.801 344.076 166.086 343.812 166.467 343.812H195.607C195.988 343.812 196.274 344.076 196.274 344.428C196.274 344.78 195.988 345.044 195.607 345.044Z" fill="#010101"></path><path d="M195.607 355.419H149.897C149.516 355.419 149.23 355.155 149.23 354.803C149.23 354.451 149.516 354.188 149.897 354.188H195.607C195.987 354.188 196.273 354.451 196.273 354.803C196.273 355.155 195.987 355.419 195.607 355.419Z" fill="#010101"></path><path d="M297.499 402.637H269.311C268.93 402.637 268.645 402.374 268.645 402.022C268.645 401.67 268.93 401.406 269.311 401.406H297.499C297.88 401.406 298.165 401.67 298.165 402.022C298.165 402.374 297.88 402.637 297.499 402.637Z" fill="#010101"></path><path d="M303.789 411.083H291.124C290.743 411.083 290.457 410.819 290.457 410.467C290.457 410.115 290.743 409.852 291.124 409.852H303.789C304.17 409.852 304.456 410.115 304.456 410.467C304.456 410.819 304.17 411.083 303.789 411.083Z" fill="#010101"></path><path d="M181.986 388.216C181.986 394.723 176.272 399.999 169.225 399.999C162.179 399.999 156.465 394.723 156.465 388.216C156.465 381.71 162.179 376.434 169.225 376.434C176.272 376.434 181.986 381.71 181.986 388.216Z" fill="white"></path><path d="M169.228 400.617C161.8 400.617 155.801 395.077 155.801 388.219C155.801 381.36 161.8 375.82 169.228 375.82C176.656 375.82 182.655 381.36 182.655 388.219C182.655 395.077 176.656 400.617 169.228 400.617ZM169.228 377.051C162.562 377.051 157.134 382.063 157.134 388.219C157.134 394.374 162.562 399.386 169.228 399.386C175.894 399.386 181.322 394.374 181.322 388.219C181.322 382.063 175.894 377.051 169.228 377.051Z" fill="#010101"></path><path d="M177.988 388.833H160.561C160.18 388.833 159.895 388.569 159.895 388.217C159.895 387.865 160.18 387.602 160.561 387.602H177.988C178.369 387.602 178.654 387.865 178.654 388.217C178.654 388.569 178.274 388.833 177.988 388.833Z" fill="#010101"></path><path d="M169.229 396.924C168.848 396.924 168.562 396.66 168.562 396.309V380.217C168.562 379.865 168.848 379.602 169.229 379.602C169.61 379.602 169.896 379.865 169.896 380.217V396.309C169.896 396.66 169.61 396.924 169.229 396.924Z" fill="#010101"></path><path d="M316.739 405.628C316.549 405.628 316.358 405.54 316.263 405.452L304.55 394.637C304.265 394.373 304.265 394.021 304.55 393.757C304.836 393.493 305.217 393.493 305.502 393.757L316.835 404.133L338.928 383.733C339.213 383.469 339.594 383.469 339.88 383.733C340.166 383.997 340.166 384.349 339.88 384.612L317.311 405.452C317.12 405.54 316.93 405.628 316.739 405.628Z" fill="#010101"></path></svg>