<svg xmlns="http://www.w3.org/2000/svg" xmlns:xlink="http://www.w3.org/1999/xlink" id="Layer_1" x="0px" y="0px" viewBox="0 0 472 475" style="enable-background:new 0 0 472 475;" xml:space="preserve"><style type="text/css">	.st0{fill:#FFFFFF;}	.st1{fill:#010101;}	.st2{fill:#D8D8D8;}</style><g>	<g>		<path class="st0" d="M338.9,403.1c0.1-2.1,0.1-4.1-0.1-6.1l8.4-4.7l-2.5-8.5l-9.6,0.6c-0.9-1.8-2-3.6-3.2-5.2l4.9-8.3l-6.4-6.1   l-8,5.3c-1.7-1.1-3.5-2.1-5.4-2.9l0.1-9.6l-8.6-2.1l-4.3,8.6c-2.1-0.1-4.1-0.1-6.1,0.1l-4.7-8.4l-8.5,2.5l0.6,9.6   c-1.8,0.9-3.6,2-5.2,3.2l-8.3-4.9l-6.1,6.4l5.3,8c-1.1,1.7-2.1,3.5-2.9,5.4l-9.6-0.1l-2.1,8.6l8.6,4.3c-0.1,2.1-0.1,4.1,0.1,6.1   l-8.4,4.7l2.5,8.5l9.6-0.6c0.9,1.8,2,3.6,3.2,5.2l-4.9,8.3l6.4,6.1l8-5.3c1.7,1.1,3.5,2.1,5.4,2.9l-0.1,9.6l8.6,2.1l4.3-8.6   c2.1,0.1,4.1,0.1,6.1-0.1l4.7,8.4l8.5-2.5l-0.6-9.6c1.8-0.9,3.6-2,5.2-3.2l8.3,4.9l6.1-6.4l-5.3-8c1.1-1.7,2.1-3.5,2.9-5.4   l9.6,0.1l2.1-8.6L338.9,403.1z M324.2,406.3c-2.9,12.2-15.2,19.7-27.4,16.7c-12.2-2.9-19.7-15.2-16.7-27.4s15.2-19.7,27.4-16.7   C319.6,381.9,327.1,394.1,324.2,406.3z"></path>		<path class="st1" d="M295.7,446.9h-0.1l-8.6-2.1c-0.2-0.1-0.4-0.3-0.4-0.5l0.1-9.3c-1.7-0.8-3.3-1.6-4.9-2.6l-7.7,5.1   c-0.2,0.1-0.5,0.1-0.7-0.1l-6.4-6.1c-0.2-0.2-0.2-0.4-0.1-0.7l4.8-8c-1.1-1.5-2-3.1-2.9-4.7l-9.3,0.6c-0.3,0-0.5-0.1-0.5-0.4   l-2.5-8.5c-0.1-0.2,0-0.5,0.3-0.6l8.1-4.5c-0.2-1.8-0.2-3.7-0.1-5.5l-8.3-4.1c-0.2-0.1-0.3-0.4-0.3-0.6l2.1-8.6   c0.1-0.2,0.3-0.4,0.5-0.4l9.3,0.1c0.8-1.7,1.7-3.3,2.6-4.9l-5.1-7.7c-0.1-0.2-0.1-0.5,0.1-0.7l6.1-6.4c0.2-0.2,0.4-0.2,0.7-0.1   l8,4.8c1.5-1.1,3.1-2,4.7-2.9l-0.6-9.3c0-0.3,0.1-0.5,0.4-0.5l8.5-2.5c0.2-0.1,0.5,0,0.6,0.3l4.5,8.1c1.8-0.2,3.7-0.2,5.5-0.1   l4.1-8.3c0.1-0.2,0.4-0.3,0.6-0.3l8.6,2.1c0.2,0.1,0.4,0.3,0.4,0.5l-0.1,9.3c1.7,0.8,3.3,1.6,4.9,2.6l7.7-5.1   c0.2-0.1,0.5-0.1,0.7,0.1l6.4,6.1c0.2,0.2,0.2,0.4,0.1,0.7l-4.8,8c1.1,1.5,2,3.1,2.9,4.7l9.3-0.6c0.3,0,0.5,0.1,0.5,0.4l2.5,8.5   c0.1,0.2,0,0.5-0.3,0.6l-8.1,4.5c0.2,1.8,0.2,3.7,0.1,5.5l8.3,4.1c0.2,0.1,0.3,0.4,0.3,0.6l-2.1,8.6c-0.1,0.2-0.3,0.4-0.5,0.4   l-9.3-0.1c-0.8,1.7-1.6,3.3-2.6,4.9l5.1,7.7c0.1,0.2,0.1,0.5-0.1,0.7l-6.1,6.4c-0.2,0.2-0.4,0.2-0.7,0.1l-8-4.8   c-1.5,1.1-3.1,2-4.7,2.9l0.6,9.3c0,0.3-0.1,0.5-0.4,0.5l-8.5,2.5c-0.2,0.1-0.5,0-0.6-0.3l-4.5-8.1c-1.8,0.2-3.7,0.2-5.5,0.1   l-4.1,8.3C296.1,446.8,295.9,446.9,295.7,446.9z M287.7,443.9l7.7,1.9l4.1-8.3c0.1-0.2,0.3-0.3,0.5-0.3c2,0.1,4.1,0.1,6.1-0.1   c0.2,0,0.4,0.1,0.5,0.3l4.5,8l7.6-2.3l-0.6-9.2c0-0.2,0.1-0.4,0.3-0.5c1.8-0.9,3.5-2,5.2-3.2c0.2-0.1,0.4-0.1,0.6,0l7.9,4.7   l5.5-5.8l-5.1-7.6c-0.1-0.2-0.1-0.4,0-0.6c1.1-1.7,2.1-3.5,2.9-5.3c0.1-0.2,0.3-0.3,0.5-0.3l9.2,0.1l1.9-7.7l-8.3-4.1   c-0.2-0.1-0.3-0.3-0.3-0.5c0.1-2,0.1-4.1-0.1-6.1c0-0.2,0.1-0.4,0.3-0.5l8-4.5l-2.3-7.6l-9.2,0.6c-0.2,0-0.4-0.1-0.5-0.3   c-0.9-1.8-2-3.5-3.2-5.2c-0.1-0.2-0.1-0.4,0-0.6l4.7-7.9l-5.8-5.5l-7.6,5.1c-0.2,0.1-0.4,0.1-0.6,0c-1.7-1.1-3.5-2.1-5.3-2.9   c-0.2-0.1-0.3-0.3-0.3-0.5l0.1-9.2l-7.7-1.9l-4.1,8.3c-0.1,0.2-0.3,0.3-0.5,0.3c-2-0.1-4.1-0.1-6.1,0.1c-0.2,0-0.4-0.1-0.5-0.3   l-4.5-8l-7.6,2.3l0.6,9.2c0,0.2-0.1,0.4-0.3,0.5c-1.8,0.9-3.5,2-5.2,3.2c-0.2,0.1-0.4,0.1-0.6,0l-7.9-4.7l-5.5,5.8l5.1,7.6   c0.1,0.2,0.1,0.4,0,0.6c-1.1,1.7-2.1,3.4-2.9,5.3c-0.1,0.2-0.3,0.3-0.5,0.3l-9.2-0.1l-1.9,7.7l8.3,4.1c0.2,0.1,0.3,0.3,0.3,0.5   c-0.1,2-0.1,4.1,0.1,6.1c0,0.2-0.1,0.4-0.3,0.5l-8,4.5l2.3,7.6l9.2-0.6c0.2,0,0.4,0.1,0.5,0.3c0.9,1.8,2,3.5,3.2,5.2   c0.1,0.2,0.1,0.4,0,0.6l-4.7,7.9l5.8,5.5l7.6-5.1c0.2-0.1,0.4-0.1,0.6,0c1.7,1.1,3.5,2.1,5.3,2.9c0.2,0.1,0.3,0.3,0.3,0.5   L287.7,443.9z M302.2,424.3c-1.8,0-3.7-0.2-5.5-0.7c-12.5-3-20.2-15.6-17.1-28.1c1.5-6,5.2-11.1,10.5-14.4   c5.3-3.2,11.5-4.2,17.6-2.8c12.5,3,20.2,15.6,17.1,28.1c-1.5,6-5.2,11.1-10.5,14.4C310.5,423.1,306.4,424.3,302.2,424.3z    M302.1,378.8c-10,0-19.1,6.8-21.6,17c-2.9,11.9,4.5,23.9,16.4,26.8c5.8,1.4,11.7,0.5,16.8-2.6c5.1-3.1,8.6-8,10-13.7l0.5,0.1   l-0.5-0.1c2.9-11.9-4.5-23.9-16.4-26.8C305.6,379,303.8,378.8,302.1,378.8z"></path>	</g>	<g>		<g>			<path class="st0" d="M403.6,383.7c0-1.3-0.1-2.7-0.3-3.9l5.3-3.2l-1.8-5.4l-6.2,0.7c-0.6-1.2-1.4-2.3-2.2-3.3l3-5.5l-4.3-3.7    l-5,3.6c-1.1-0.7-2.3-1.3-3.5-1.7l-0.2-6.2l-5.6-1.1l-2.5,5.7c-1.3,0-2.7,0.1-3.9,0.3l-3.2-5.3l-5.4,1.8l0.7,6.2    c-1.2,0.6-2.3,1.4-3.3,2.2l-5.4-3l-3.7,4.3l3.6,5c-0.7,1.1-1.3,2.3-1.7,3.6l-6.2,0.2l-1.1,5.6l5.7,2.5c0,1.3,0.1,2.7,0.3,3.9    l-5.3,3.2l1.8,5.4l6.2-0.7c0.6,1.2,1.4,2.3,2.2,3.3l-3,5.5l4.3,3.7l5-3.6c1.1,0.7,2.3,1.3,3.5,1.7l0.2,6.2l5.6,1.1l2.5-5.7    c1.3,0,2.7-0.1,3.9-0.3l3.2,5.3l5.4-1.8l-0.7-6.2c1.2-0.6,2.3-1.4,3.3-2.2l5.4,3l3.7-4.3l-3.6-5c0.7-1.1,1.3-2.3,1.7-3.6l6.2-0.2    l1.1-5.6L403.6,383.7z M394.3,386.2c-1.6,7.9-9.3,13.1-17.2,11.5c-7.9-1.6-13.1-9.3-11.5-17.2s9.3-13.1,17.2-11.5    S395.9,378.3,394.3,386.2z"></path>			<path class="st1" d="M377,413.2h-0.1l-5.6-1.1c-0.2,0-0.4-0.3-0.4-0.5l-0.2-5.8c-1-0.4-2-0.9-3-1.5l-4.7,3.4    c-0.2,0.1-0.5,0.1-0.7,0L358,404c-0.2-0.2-0.2-0.4-0.1-0.7l2.8-5.1c-0.7-0.9-1.3-1.8-1.8-2.8l-5.8,0.6c-0.2,0-0.5-0.1-0.6-0.4    l-1.8-5.4c-0.1-0.2,0-0.5,0.2-0.6l5-3.1c-0.1-1.1-0.2-2.2-0.2-3.3l-5.3-2.4c-0.2-0.1-0.4-0.3-0.3-0.6l1.1-5.6    c0-0.2,0.3-0.4,0.5-0.4l5.8-0.2c0.4-1,0.9-2,1.5-3l-3.4-4.7c-0.1-0.2-0.1-0.5,0-0.7l3.7-4.3c0.2-0.2,0.4-0.2,0.7-0.1l5.1,2.8    c0.9-0.7,1.8-1.3,2.8-1.9l-0.6-5.8c0-0.2,0.1-0.5,0.4-0.6l5.4-1.8c0.2-0.1,0.5,0,0.6,0.2l3,5c1.1-0.1,2.2-0.2,3.3-0.2l2.4-5.3    c0.1-0.2,0.3-0.4,0.6-0.3l5.6,1.1c0.2,0,0.4,0.3,0.4,0.5l0.2,5.8c1,0.4,2,0.9,3,1.5l4.7-3.4c0.2-0.1,0.5-0.1,0.7,0l4.3,3.7    c0.2,0.2,0.2,0.4,0.1,0.7l-2.8,5.1c0.7,0.9,1.3,1.8,1.8,2.8l5.8-0.6c0.3,0,0.5,0.1,0.6,0.4l1.8,5.4c0.1,0.2,0,0.5-0.2,0.6l-5,3.1    c0.1,1.1,0.2,2.2,0.2,3.3l5.3,2.4c0.2,0.1,0.4,0.3,0.3,0.6l-1.1,5.6c0,0.2-0.3,0.4-0.5,0.4l-5.8,0.2c-0.4,1-0.9,2-1.5,3l3.4,4.7    c0.1,0.2,0.1,0.5,0,0.7l-3.7,4.3c-0.2,0.2-0.4,0.2-0.7,0.1l-5.1-2.8c-0.9,0.7-1.8,1.3-2.8,1.9l0.6,5.8c0,0.2-0.1,0.5-0.4,0.6    l-5.4,1.8c-0.2,0.1-0.5,0-0.6-0.2l-3-5c-1.1,0.1-2.2,0.2-3.3,0.2l-2.4,5.3C377.4,413.1,377.2,413.2,377,413.2z M372,411.1    l4.7,0.9l2.3-5.3c0.1-0.2,0.3-0.3,0.5-0.3c1.3,0,2.6-0.1,3.9-0.2c0.2,0,0.4,0.1,0.5,0.3l3,4.9l4.6-1.6l-0.6-5.7    c0-0.2,0.1-0.4,0.3-0.5c1.1-0.6,2.2-1.3,3.2-2.1c0.2-0.1,0.4-0.2,0.6-0.1l5.1,2.8l3.2-3.6l-3.4-4.7c-0.1-0.2-0.1-0.4,0-0.6    c0.7-1.1,1.2-2.3,1.7-3.5c0.1-0.2,0.3-0.3,0.5-0.3l5.8-0.1l0.9-4.7l-5.3-2.3c-0.2-0.1-0.3-0.3-0.3-0.5c0-1.3-0.1-2.6-0.2-3.9    c0-0.2,0.1-0.4,0.3-0.5l4.9-3l-1.6-4.6l-5.7,0.6c-0.2,0-0.4-0.1-0.5-0.3c-0.6-1.1-1.3-2.2-2.1-3.2c-0.1-0.2-0.2-0.4-0.1-0.6    l2.8-5.1l-3.6-3.2l-4.7,3.4c-0.2,0.1-0.4,0.1-0.6,0c-1.1-0.7-2.3-1.2-3.5-1.7c-0.2-0.1-0.3-0.3-0.3-0.5l-0.1-5.8l-4.7-0.9    l-2.3,5.3c-0.1,0.2-0.3,0.3-0.5,0.3c-1.3,0-2.6,0.1-3.9,0.2c-0.2,0-0.4-0.1-0.5-0.3l-3-4.9l-4.6,1.6l0.6,5.7    c0,0.2-0.1,0.4-0.3,0.5c-1.1,0.6-2.2,1.3-3.2,2.1c-0.2,0.1-0.4,0.2-0.6,0.1l-5.1-2.8l-3.2,3.6l3.4,4.7c0.1,0.2,0.1,0.4,0,0.6    c-0.7,1.1-1.2,2.3-1.7,3.5c-0.1,0.2-0.3,0.3-0.5,0.3l-5.8,0.1l-0.9,4.7l5.3,2.3c0.2,0.1,0.3,0.3,0.3,0.5c0,1.3,0.1,2.6,0.2,3.9    c0,0.2-0.1,0.4-0.3,0.5l-4.9,3l1.6,4.6l5.7-0.6c0.2,0,0.4,0.1,0.5,0.3c0.6,1.1,1.3,2.2,2.1,3.2c0.1,0.2,0.2,0.4,0.1,0.6l-2.8,5.1    l3.6,3.2l4.7-3.4c0.2-0.1,0.4-0.1,0.6,0c1.1,0.7,2.3,1.2,3.5,1.7c0.2,0.1,0.3,0.3,0.3,0.5L372,411.1z M380,398.5    c-1,0-2-0.1-3-0.3c-8.2-1.6-13.5-9.6-11.9-17.8c0.8-4,3.1-7.4,6.4-9.6c3.4-2.3,7.4-3.1,11.4-2.3c8.2,1.6,13.5,9.6,11.9,17.8    c-0.8,4-3.1,7.4-6.4,9.6C385.9,397.6,383,398.5,380,398.5z M379.9,369.2c-2.8,0-5.4,0.8-7.8,2.4c-3.1,2.1-5.2,5.3-6,9    c-1.5,7.6,3.5,15,11.1,16.6c3.7,0.7,7.4,0,10.6-2.1c3.1-2.1,5.2-5.3,6-9c1.5-7.6-3.5-15-11.1-16.6    C381.8,369.3,380.8,369.2,379.9,369.2z"></path>		</g>	</g>	<path class="st2" d="M309.4,456.2c-0.3,0-0.5-0.2-0.5-0.5s0.2-0.5,0.5-0.6c0.8,0,1.6-0.1,2.4-0.2c0.3,0,0.6,0.2,0.6,0.5  s-0.2,0.6-0.5,0.6C311.1,456.1,310.2,456.2,309.4,456.2L309.4,456.2z M318.2,454.8c-0.2,0-0.4-0.1-0.5-0.4  c-0.1-0.3,0.1-0.6,0.4-0.7c2-0.6,3.9-1.4,5.9-2.4c0.3-0.1,0.6,0,0.7,0.2c0.1,0.3,0,0.6-0.2,0.7c-2,1-4,1.8-6,2.4  C318.3,454.8,318.2,454.8,318.2,454.8z M329.7,449.1c-0.2,0-0.3-0.1-0.4-0.2c-0.2-0.2-0.1-0.6,0.1-0.7c1.7-1.2,3.4-2.5,5-3.9  c0.2-0.2,0.6-0.2,0.8,0c0.2,0.2,0.2,0.6,0,0.8c-1.7,1.5-3.4,2.8-5.1,4C329.9,449,329.8,449.1,329.7,449.1z M339.3,440.6  c-0.1,0-0.3,0-0.4-0.1c-0.2-0.2-0.2-0.5,0-0.8c1.4-1.6,2.8-3.2,4.1-4.9c0.2-0.2,0.5-0.3,0.8-0.1c0.2,0.2,0.3,0.5,0.1,0.8  c-1.3,1.7-2.7,3.4-4.1,5C339.6,440.5,339.4,440.6,339.3,440.6z M347,430.3c-0.1,0-0.2,0-0.3-0.1c-0.3-0.2-0.3-0.5-0.2-0.7  c1.1-1.9,2.2-3.8,3-5.6c0.1-0.3,0.4-0.4,0.7-0.3c0.3,0.1,0.4,0.4,0.3,0.7c-0.9,1.9-1.9,3.8-3.1,5.7  C347.4,430.2,347.2,430.3,347,430.3z M352.4,418.6h-0.1c-0.3-0.1-0.4-0.4-0.4-0.7c0.5-1.7,0.8-3.2,0.8-4.5c0-0.6-0.1-1.1-0.2-1.6  c-0.1-0.3,0.1-0.6,0.4-0.7c0.3-0.1,0.6,0.1,0.7,0.4c0.2,0.5,0.2,1.2,0.2,1.9c0,1.3-0.3,2.9-0.8,4.8  C352.8,418.4,352.6,418.6,352.4,418.6z"></path></g><g>	<g>		<path class="st2" d="M431.9,365c-0.2,0-0.3-0.1-0.4-0.2c-0.2-0.2-0.1-0.6,0.1-0.7l3.5-2.3c0.2-0.2,0.6-0.1,0.7,0.1   c0.2,0.2,0.1,0.6-0.1,0.7l-3.5,2.3C432.1,364.9,432,365,431.9,365z"></path>		<path class="st2" d="M423.8,370.4c-0.2,0-0.3-0.1-0.4-0.2c-0.2-0.2-0.1-0.6,0.1-0.7l3.5-2.3c0.2-0.2,0.6-0.1,0.7,0.1   c0.2,0.2,0.1,0.6-0.1,0.7l-3.5,2.3C424,370.4,423.9,370.4,423.8,370.4z"></path>		<path class="st2" d="M428,364.2c-0.2,0-0.3-0.1-0.4-0.2l-2.3-3.5c-0.2-0.2-0.1-0.6,0.1-0.7c0.2-0.2,0.6-0.1,0.7,0.1l2.3,3.5   c0.2,0.2,0.1,0.6-0.1,0.7C428.2,364.2,428.1,364.2,428,364.2z"></path>		<path class="st2" d="M433.4,372.3c-0.2,0-0.3-0.1-0.4-0.2l-2.3-3.5c-0.2-0.2-0.1-0.6,0.1-0.7c0.2-0.2,0.6-0.1,0.7,0.1l2.3,3.5   c0.2,0.2,0.1,0.6-0.1,0.7C433.6,372.2,433.5,372.3,433.4,372.3z"></path>	</g>	<g>		<path class="st2" d="M310.7,40.4h-0.1c-29.2-8.2-60.2-8.6-89.5-1.1c-0.3,0.1-0.6-0.1-0.7-0.4c-0.1-0.3,0.1-0.6,0.4-0.7   c29.5-7.6,60.7-7.2,90.1,1.1c0.3,0.1,0.5,0.4,0.4,0.7C311.2,40.3,310.9,40.4,310.7,40.4z"></path>		<path class="st2" d="M326.1,35.1c-0.1,0-0.1,0-0.2,0c-39.5-13.6-81.2-14.5-120.7-2.5c-0.3,0.1-0.6-0.1-0.7-0.4   c-0.1-0.3,0.1-0.6,0.4-0.7c39.7-12,81.7-11.1,121.4,2.6c0.3,0.1,0.4,0.4,0.3,0.7C326.5,34.9,326.3,35.1,326.1,35.1z"></path>		<path class="st2" d="M200.7,38.5L200.7,38.5l-7.4-0.3c-0.2,0-0.4-0.1-0.5-0.3s-0.1-0.4,0-0.5l4.8-7.6c0.1-0.2,0.3-0.3,0.5-0.2   c0.2,0,0.4,0.2,0.4,0.4l2.6,7.9c0.1,0.2,0,0.4-0.1,0.5C201,38.4,200.9,38.5,200.7,38.5z M194.3,37.1l5.7,0.3l-2-6.1L194.3,37.1z"></path>	</g></g><g>	<g>		<g>			<path class="st0" d="M433.2,52.5H45.5C36.9,52.5,30,59.4,30,68v265.8c0,8.6,6.9,15.5,15.5,15.5h387.7c8.6,0,15.5-6.9,15.5-15.5    V68C448.6,59.4,441.7,52.5,433.2,52.5z"></path>			<path class="st1" d="M433.2,349.8H45.5c-8.8,0-16-7.2-16-16V68c0-8.8,7.2-16,16-16h387.7c8.8,0,16,7.2,16,16v265.8    C449.2,342.6,442,349.8,433.2,349.8z M45.5,53c-8.2,0-15,6.7-15,15v265.8c0,8.2,6.7,15,15,15h387.7c8.2,0,15-6.7,15-15V68    c0-8.2-6.7-15-15-15H45.5z"></path>		</g>		<g>			<path class="st0" d="M45.5,343.2c-5.2,0-9.4-4.2-9.4-9.4V68c0-5.2,4.2-9.4,9.4-9.4h387.7c5.2,0,9.4,4.2,9.4,9.4v265.8    c0,5.2-4.2,9.4-9.4,9.4L45.5,343.2L45.5,343.2z"></path>			<path class="st1" d="M433.2,343.8H45.5c-5.5,0-10-4.5-10-10V68c0-5.5,4.5-10,10-10h387.7c5.5,0,10,4.5,10,10v265.8    C443.1,339.3,438.7,343.8,433.2,343.8z M45.5,59.1c-4.9,0-8.9,4-8.9,8.9v265.8c0,4.9,4,8.9,8.9,8.9h387.7c4.9,0,8.9-4,8.9-8.9V68    c0-4.9-4-8.9-8.9-8.9H45.5z"></path>		</g>		<g>			<path class="st1" d="M427.2,336H51.5c-4.5,0-8.2-3.7-8.2-8.2v-63.9c0-0.3,0.2-0.5,0.5-0.5s0.5,0.2,0.5,0.5v63.9    c0,4,3.2,7.2,7.2,7.2h375.7c4,0,7.2-3.2,7.2-7.2V223.1c0-0.3,0.2-0.5,0.5-0.5s0.5,0.2,0.5,0.5v104.7    C435.4,332.3,431.7,336,427.2,336z"></path>			<path class="st1" d="M44.5,220.2c-0.3,0-0.5-0.2-0.5-0.5L43.2,86.9c0-0.3,0.2-0.5,0.5-0.5s0.5,0.2,0.5,0.5L45,219.7    C45.1,220,44.8,220.2,44.5,220.2L44.5,220.2z"></path>			<path class="st1" d="M434.9,123.7c-0.3,0-0.5-0.2-0.5-0.5v-18.1c0-0.3,0.2-0.5,0.5-0.5s0.5,0.2,0.5,0.5v18.1    C435.4,123.4,435.2,123.7,434.9,123.7z"></path>		</g>		<path class="st1" d="M416.4,325.5H68.6c-5,0-9-4-9-9V78c0-5,4-9,9-9h347.8c5,0,9,4,9,9v238.4C425.4,321.4,421.4,325.5,416.4,325.5   z M68.6,70.1c-4.4,0-7.9,3.6-7.9,7.9v238.4c0,4.4,3.6,7.9,7.9,7.9h347.8c4.4,0,7.9-3.6,7.9-7.9V78c0-4.4-3.6-7.9-7.9-7.9H68.6z"></path>		<g>							<ellipse transform="matrix(0.1602 -0.9871 0.9871 0.1602 -4.8944 285.4234)" class="st1" cx="165.3" cy="145.6" rx="32.6" ry="32.6"></ellipse>			<polygon class="st0" points="184.5,145.6 154.2,128.1 154.2,163.1    "></polygon>		</g>		<g>			<path class="st1" d="M392.8,106.9H285.4c-0.3,0-0.5-0.2-0.5-0.5s0.2-0.5,0.5-0.5h107.4c0.3,0,0.5,0.2,0.5,0.5    C393.4,106.7,393.1,106.9,392.8,106.9z"></path>			<path class="st1" d="M392.8,115.8H285.4c-0.3,0-0.5-0.2-0.5-0.5s0.2-0.5,0.5-0.5h107.4c0.3,0,0.5,0.2,0.5,0.5    S393.1,115.8,392.8,115.8z"></path>			<path class="st1" d="M392.8,124.4H285.4c-0.3,0-0.5-0.2-0.5-0.5s0.2-0.5,0.5-0.5h107.4c0.3,0,0.5,0.2,0.5,0.5    C393.4,124.2,393.1,124.4,392.8,124.4z"></path>			<path class="st1" d="M392.8,133.3H285.4c-0.3,0-0.5-0.2-0.5-0.5s0.2-0.5,0.5-0.5h107.4c0.3,0,0.5,0.2,0.5,0.5    C393.4,133,393.1,133.3,392.8,133.3z"></path>			<path class="st1" d="M392.8,156.5H285.4c-0.3,0-0.5-0.2-0.5-0.5s0.2-0.5,0.5-0.5h107.4c0.3,0,0.5,0.2,0.5,0.5    S393.1,156.5,392.8,156.5z"></path>			<path class="st1" d="M392.8,165.4H285.4c-0.3,0-0.5-0.2-0.5-0.5s0.2-0.5,0.5-0.5h107.4c0.3,0,0.5,0.2,0.5,0.5    S393.1,165.4,392.8,165.4z"></path>			<path class="st1" d="M392.8,174H285.4c-0.3,0-0.5-0.2-0.5-0.5s0.2-0.5,0.5-0.5h107.4c0.3,0,0.5,0.2,0.5,0.5S393.1,174,392.8,174z    "></path>			<path class="st1" d="M392.8,182.8H285.4c-0.3,0-0.5-0.2-0.5-0.5s0.2-0.5,0.5-0.5h107.4c0.3,0,0.5,0.2,0.5,0.5    S393.1,182.8,392.8,182.8z"></path>		</g>		<path class="st1" d="M269.3,220.2H74.4c-2.9,0-5.3-2.4-5.3-5.3V81.3c0-2.9,2.4-5.3,5.3-5.3h194.8c2.9,0,5.3,2.4,5.3,5.3v133.6   C274.5,217.8,272.2,220.2,269.3,220.2z M74.4,77.1c-2.3,0-4.2,1.9-4.2,4.2v133.6c0,2.3,1.9,4.2,4.2,4.2h194.8   c2.3,0,4.2-1.9,4.2-4.2V81.3c0-2.3-1.9-4.2-4.2-4.2H74.4z"></path>	</g>	<g>		<g>			<g>				<g>					<path class="st0" d="M383.4,324l3-9.7c0,0,2.6-0.3,3.6-0.4c16.3-1.7,8.1-34.2-5.4-41.8c-8.3-4.7-18.3-5.3-27.9-4.9      c-6.8,0.3-13.4,0.1-19.6,3.8c-8.7,5.2-16.2,14.2-20.8,28l-4.3,25H383.4z"></path>					<path class="st1" d="M383.4,324.5H312c-0.2,0-0.3-0.1-0.4-0.2s-0.1-0.3-0.1-0.4l4.2-25.1v-0.1c4.4-13,11.5-22.6,21.1-28.3      c5.6-3.3,11.4-3.5,17.6-3.8c0.8,0,1.5-0.1,2.3-0.1c8.4-0.4,19.2-0.1,28.2,5c9.3,5.2,16.6,22.6,14.3,33.8      c-1.1,5.4-4.2,8.5-9.1,9c-0.7,0.1-2.5,0.3-3.2,0.4l-2.9,9.4C383.8,324.3,383.6,324.5,383.4,324.5z M312.6,323.4H383l2.9-9.3      c0.1-0.2,0.2-0.3,0.4-0.4c0,0,2.6-0.3,3.6-0.4c5.5-0.6,7.4-4.7,8.1-8.1c2.2-10.9-4.8-27.7-13.8-32.7      c-8.8-4.9-19.4-5.2-27.7-4.8c-0.8,0-1.5,0.1-2.3,0.1c-6,0.2-11.7,0.4-17,3.6c-9.4,5.6-16.3,14.9-20.6,27.7L312.6,323.4z"></path>				</g>			</g>			<g>				<path class="st1" d="M363.5,252.5c2,1,3.4,1.1,4.5,1.1c3.9-0.2,6.3-3.3,6.8-3.9c6.1-7.7,1.6-17.2-4.5-23.4c-1.4-1.4-3-2.8-5-3.4     c-1.5-0.5-3.2-0.6-4.8-0.5c-5.8,0.1-12,1.9-15.1,6.8c-1.8,2.9,1.4,8.6,3.8,10.1c2.2,1.3,4.4,0.6,6.2,2.6     C358.5,245.4,359,250.2,363.5,252.5z"></path>				<g>					<path class="st0" d="M352.6,265.8l1.6-9.9c-0.4,0-3.3-0.5-3.6-0.7c-2.7-1.4-2-8.2-2-8.2l-1.5-1.8l4.5-10.1      c4.8,4,6.5,0.1,11.2,2c4.7,2,2.2,7.2,2.2,7.2s3.9-1.7,3,2c-0.6,2.8-2.7,3-4,2.9l2.5,17c0,0,8.1,2.3,9.7,2.7      c-2-0.1-16.2,6-32.2-0.7L352.6,265.8z"></path>					<path class="st1" d="M359.8,272.1c-4.8,0-10.3-0.8-16.1-3.2c-0.2-0.1-0.3-0.3-0.3-0.5s0.2-0.4,0.4-0.5l8.3-2.5l1.5-9      c-1-0.2-2.9-0.5-3.2-0.7c-2.8-1.4-2.4-7.1-2.3-8.5l-1.4-1.6c-0.1-0.2-0.2-0.4-0.1-0.6l4.5-10.1c0.1-0.2,0.2-0.3,0.4-0.3      c0.2,0,0.3,0,0.5,0.1c2.5,2.1,4.1,1.8,5.9,1.5c1.4-0.2,3-0.5,5.2,0.4c1.4,0.6,2.4,1.5,2.9,2.8c0.6,1.5,0.3,3.1,0,4.1      c0.7-0.1,1.6-0.2,2.2,0.3s0.8,1.4,0.5,2.7c-0.3,1.5-1.3,3.3-3.9,3.3l2.4,16c1.5,0.4,8,2.3,9.3,2.6c0.3,0.1,0.4,0.3,0.4,0.6      c0,0.3-0.3,0.5-0.6,0.5c-0.3,0-1.2,0.2-2.3,0.5C371,270.8,366,272.1,359.8,272.1z M345.6,268.5c12.2,4.6,23.2,1.8,27.9,0.6      c0.1,0,0.2,0,0.3-0.1c-2.9-0.8-7.4-2.1-7.5-2.1c-0.2-0.1-0.4-0.2-0.4-0.4l-2.5-17c0-0.2,0-0.3,0.1-0.4s0.3-0.2,0.4-0.2      c2,0.2,3.1-0.6,3.5-2.5c0.2-0.8,0.1-1.4-0.2-1.6c-0.5-0.4-1.6-0.1-2.1,0.2c-0.2,0.1-0.4,0-0.6-0.1c-0.2-0.2-0.2-0.4-0.1-0.6      c0,0,1.1-2.4,0.4-4.3c-0.4-1-1.1-1.7-2.3-2.2c-1.9-0.8-3.2-0.6-4.6-0.3c-1.8,0.3-3.6,0.6-6.2-1.3l-4.1,9.1l1.3,1.5      c0.1,0.1,0.1,0.3,0.1,0.4c-0.2,1.8-0.3,6.6,1.7,7.6c0.3,0.1,3,0.6,3.4,0.7c0.1,0,0.3,0.1,0.4,0.2s0.1,0.3,0.1,0.4L353,266      c0,0.2-0.2,0.4-0.4,0.4L345.6,268.5z M352.6,265.8L352.6,265.8L352.6,265.8z"></path>				</g>				<path class="st1" d="M355.3,256.6c-0.4,0-0.8,0-1.2-0.1c-0.3,0-0.5-0.3-0.5-0.6c0-0.3,0.3-0.5,0.6-0.5c4.2,0.6,6.2-2.6,6.2-2.7     c0.1-0.3,0.5-0.3,0.7-0.2c0.3,0.2,0.3,0.5,0.2,0.7C361.3,253.4,359.4,256.6,355.3,256.6z"></path>			</g>			<g>				<path class="st1" d="M361.2,255c-0.6,0-1.1-0.1-1.7-0.2l-5.5-1.6c-0.3-0.1-0.4-0.4-0.4-0.7c0.1-0.3,0.4-0.4,0.7-0.4l5.5,1.6     c2.3,0.7,4.8-0.4,5.8-2.6l1.1-2.3c0.1-0.3,0.4-0.4,0.7-0.3c0.3,0.1,0.4,0.4,0.3,0.7l-1.1,2.3C365.6,253.8,363.5,255,361.2,255z"></path>				<path class="st0" d="M368.3,245c-0.1,0-0.2,0-0.2-0.1c-0.3-0.1-0.4-0.4-0.3-0.7c0-0.1,2.9-6.2,1.1-10.8c-0.7-1.8-2-3.1-3.9-3.9     c-0.3-0.1-0.4-0.4-0.3-0.7c0.1-0.3,0.4-0.4,0.7-0.3c2.2,0.9,3.7,2.5,4.5,4.5c1.9,5-1,11.3-1.2,11.6     C368.7,244.9,368.5,245,368.3,245z"></path>				<path class="st1" d="M352.1,252.7c-0.1-0.8,0.5-1.6,1.3-1.7s1.6,0.5,1.7,1.3s-0.5,1.6-1.3,1.7     C353,254.1,352.2,253.5,352.1,252.7z"></path>				<path class="st1" d="M363.1,246.7c-0.3-2.3,1.2-4.4,3.3-4.6c0.2,0,1.1-0.1,1.3,0c1.8,0.1,2.8,1.7,3,3.7c0.3,2.2-0.6,4.3-2.5,4.7     c-0.1,0-0.7,0.1-0.7,0.1C365.1,250.5,363.4,249,363.1,246.7z"></path>				<g>											<ellipse transform="matrix(0.9944 -0.106 0.106 0.9944 -24.0389 40.3736)" class="st0" cx="367.8" cy="246.3" rx="3.8" ry="4.2"></ellipse>					<path class="st1" d="M367.9,251c-1,0-2-0.4-2.8-1.1c-0.9-0.8-1.5-1.9-1.6-3.2c-0.1-1.2,0.2-2.5,0.9-3.4c0.7-1,1.8-1.6,2.9-1.7      c2.4-0.3,4.6,1.6,4.9,4.2s-1.5,4.9-3.9,5.2C368.2,251,368,251,367.9,251z M367.8,242.6c-0.1,0-0.2,0-0.3,0      c-0.9,0.1-1.6,0.6-2.2,1.3c-0.6,0.8-0.8,1.7-0.7,2.7l0,0c0.1,1,0.5,1.9,1.3,2.5c0.7,0.6,1.6,0.9,2.4,0.8c1.8-0.2,3.1-2,2.9-4      C370.9,244,369.4,242.6,367.8,242.6z"></path>				</g>			</g>			<g>				<path class="st0" d="M371.6,249.5c0.1,0,0.1-0.1,0-0.1c-1.7-0.3-5.9-1.3-5-3.2c0.3-0.7,3.8-0.2,5.2,0c1.4,0.2,5.8,4,6.7,6.9     c0.7,2.3,1.1,5.9,1.7,8.2c0,0,22.4,29.5,19.9,41.4c-3.1,14.8-17.7,9.4-20.4,2.5c-2.4-6.1-3.3-34.1-3.5-40.4     c-0.3-0.8-1-2.7-1.7-3.4c-0.8-0.9-5.2-2.8-5.4-4.7c-0.1-1.5,2.3-3.1,3.5-3.8c0.2-0.1,0.1-0.4-0.1-0.4c-0.7,0-1.8,0.1-2.8,0.7     c-1.7,1-3.6,0.4-3.1-0.8C367.1,251.3,369.6,249.7,371.6,249.5z"></path>				<path class="st1" d="M390.6,312.6c-4.7,0-9.8-3.2-11.4-7.3c-2.4-6.1-3.3-32.4-3.5-40.5c-0.6-1.5-1.2-2.7-1.6-3.1     c-0.2-0.2-0.8-0.6-1.5-1c-1.8-1.1-3.9-2.4-4.1-4c-0.1-1.3,1.2-2.6,2.6-3.6c-0.4,0.1-0.8,0.2-1.2,0.5c-1.3,0.7-2.8,0.8-3.5,0.1     c-0.4-0.4-0.5-1-0.3-1.5c0.4-1,2-2.1,3.6-2.7c-1.6-0.4-3.1-1.1-3.6-2.1c-0.2-0.5-0.2-1,0-1.5c0.4-0.8,1.7-0.9,5.6-0.3h0.2     c1.7,0.2,6.2,4.2,7.2,7.3c0.4,1.3,0.7,3,1,4.7c0.2,1.3,0.4,2.5,0.7,3.4c1.6,2.1,22.4,30,20,41.8c-1.7,8-6.5,9.6-9.2,9.8     C391.2,312.6,390.9,312.6,390.6,312.6z M372.5,251.9c0.3,0,0.6,0.2,0.7,0.6c0.1,0.3,0,0.7-0.3,0.9c-2.1,1.2-3.3,2.5-3.2,3.3     c0.1,1,2.2,2.3,3.6,3.2c0.8,0.5,1.4,0.8,1.7,1.2c0.7,0.7,1.5,2.5,1.8,3.5c0,0.1,0,0.1,0,0.2c0.2,5.7,1.1,34.2,3.5,40.2     c1.5,3.9,6.7,6.9,11.2,6.6c4.1-0.3,7.1-3.5,8.2-9c2.4-11.5-19.6-40.7-19.8-41c0-0.1-0.1-0.1-0.1-0.2c-0.3-1-0.5-2.3-0.7-3.6     c-0.3-1.6-0.5-3.3-0.9-4.6c-0.9-2.9-5.2-6.4-6.3-6.5h-0.2c-3.2-0.4-4.2-0.4-4.5-0.2c-0.1,0.2-0.1,0.3,0,0.5     c0.4,0.7,2.1,1.5,4.6,2c0.3,0.1,0.5,0.3,0.5,0.6c0,0.3-0.2,0.5-0.5,0.6l0,0c-1.9,0.2-4.2,1.8-4.5,2.6c-0.1,0.2,0,0.3,0,0.3     c0.3,0.3,1.3,0.3,2.3-0.2C370.5,252.1,371.7,251.9,372.5,251.9L372.5,251.9z M371.6,249.5L371.6,249.5L371.6,249.5z M371.5,249     L371.5,249L371.5,249z"></path>			</g>			<path class="st1" d="M387.8,314.8c-3.8,0-14.1-1.1-16-12.6c0-0.3,0.2-0.6,0.4-0.6c0.3,0,0.6,0.1,0.6,0.4    c2.2,13.2,15.7,11.7,16.3,11.7c0.3,0,0.6,0.2,0.6,0.5s-0.2,0.6-0.5,0.6C389.2,314.8,388.7,314.8,387.8,314.8z"></path>		</g>		<g>			<path class="st1" d="M305.5,320.8h33.3l-24.7-37.9c-0.8-1.2-2.1-1.9-3.6-1.9h-27c-1.7,0-2.8,1.8-1.8,3.2L305.5,320.8z"></path>							<ellipse transform="matrix(0.5449 -0.8385 0.8385 0.5449 -109.4744 386.8446)" class="st0" cx="301.6" cy="294.3" rx="2.3" ry="4.3"></ellipse>			<path class="st1" d="M308.7,324h55.6c1.8,0,3.3-1.5,3.3-3.3v-0.1h-62.2v0.1C305.4,322.5,306.8,324,308.7,324z"></path>			<path class="st0" d="M335.8,321.4h-28.6c-0.3,0-0.5-0.2-0.5-0.5s0.2-0.5,0.5-0.5h28.6c0.3,0,0.5,0.2,0.5,0.5    S336.1,321.4,335.8,321.4z"></path>		</g>	</g>	<g>		<path class="st0" d="M333.1,231.5c1.2,0,2.2,1,2.2,2.2v14.9c0,1.2-1,2.2-2.2,2.2H292c-1.2,0-2.2-1-2.2-2.2v-14.9   c0-1.2,1-2.2,2.2-2.2H333.1z"></path>		<path class="st1" d="M333.1,251.2H292c-1.5,0-2.7-1.2-2.7-2.7v-14.9c0-1.5,1.2-2.7,2.7-2.7h8.1c0.3,0,0.5,0.2,0.5,0.5   s-0.2,0.5-0.5,0.5H292c-0.9,0-1.6,0.7-1.6,1.6v14.9c0,0.9,0.7,1.6,1.6,1.6h41.1c0.9,0,1.6-0.7,1.6-1.6v-14.9   c0-0.9-0.7-1.6-1.6-1.6h-27.5c-0.3,0-0.5-0.2-0.5-0.5s0.2-0.5,0.5-0.5h27.5c1.5,0,2.7,1.2,2.7,2.7v14.9   C335.8,250,334.6,251.2,333.1,251.2z"></path>		<path class="st1" d="M329.2,239.1h-32.6c-0.3,0-0.5-0.2-0.5-0.5s0.2-0.5,0.5-0.5h32.6c0.3,0,0.5,0.2,0.5,0.5   S329.5,239.1,329.2,239.1z"></path>		<path class="st1" d="M329.2,243.5h-6.8c-0.3,0-0.5-0.2-0.5-0.5s0.2-0.5,0.5-0.5h6.8c0.3,0,0.5,0.2,0.5,0.5   S329.5,243.5,329.2,243.5z"></path>		<path class="st1" d="M318,243.5h-21.5c-0.3,0-0.5-0.2-0.5-0.5s0.2-0.5,0.5-0.5H318c0.3,0,0.5,0.2,0.5,0.5S318.3,243.5,318,243.5z"></path>	</g></g><path class="st1" d="M160.5,331.1c-7.5-9-18.8-10.3-26.6,0H160.5z"></path><path class="st0" d="M58.3,381.8c-25.8,0-46.7-30.1-46.7-67.1v-52.4c0-15.4,8.9-27.9,19.8-27.9H61c11.7,0,21.3,13.5,21.3,30.1V289 c0,22.9,12.5,41.5,27.8,41.5c17.6,0,31.8,20.4,31.8,45.5c0,3.3-2.1,5.9-4.7,5.9H58.3V381.8z"></path><path class="st1" d="M80.3,264.5V289c0,24,13.4,43.5,29.8,43.5S140,352,140,376c0,2.1-1.2,3.9-2.7,3.9h-79 c-24.7,0-44.7-29.2-44.7-65.1v-52.4c0-14.3,8-25.9,17.8-25.9H61C71.7,236.4,80.3,249,80.3,264.5z"></path><polygon class="st0" points="51.7,461.8 51.7,455.7 73.5,453.2 73.5,367.8 84.7,367.8 84.7,453 108,455.8 108,461.8 "></polygon><polygon class="st1" points="106,457.5 106,459.8 53.7,459.8 53.7,457.5 75.5,455 75.5,369.8 82.7,369.8 82.7,454.8 "></polygon><g>	<g>		<g>			<g>				<path class="st0" d="M165.9,431.4l5,5.2c1.9,2,3,4.6,3,7.4v4l14.6-4c-3.2-3.4-6.4-6.6-8.6-10.7l-4.5-8.7L165.9,431.4z"></path>				<path class="st1" d="M173.9,448.6c-0.1,0-0.2,0-0.3-0.1s-0.2-0.3-0.2-0.4v-4c0-2.6-1-5.1-2.8-7l-5-5.2c-0.1-0.1-0.2-0.3-0.1-0.4     c0-0.2,0.1-0.3,0.2-0.4l9.5-6.8c0.1-0.1,0.3-0.1,0.4-0.1c0.2,0,0.3,0.1,0.4,0.3l4.5,8.7c1.9,3.6,4.5,6.4,7.3,9.3     c0.4,0.4,0.8,0.8,1.2,1.2c0.1,0.1,0.2,0.3,0.1,0.5s-0.2,0.3-0.4,0.4l-14.6,4C174,448.6,173.9,448.6,173.9,448.6z M166.7,431.5     l4.6,4.8c2,2.1,3.1,4.9,3.1,7.8v3.3l13.1-3.6c-0.2-0.2-0.4-0.4-0.5-0.6c-2.9-3-5.6-5.9-7.5-9.6l-4.2-8.1L166.7,431.5z"></path>			</g>			<g>				<g>					<path class="st0" d="M171.2,443.1c-0.3,2.1-0.3,6-0.3,9.5c0,2.2,1.6,4.1,3.9,4.4c6.2,0.8,21.8,1.6,33.9,0.5      c0.8-0.1,2.3-0.7,2.7-2.7c1.4-6.9-10.7-8.6-23.9-13.6c-0.5-0.2-1.1-0.1-1.5,0.3l-1.4,1.4c-1.4,1.4-3.5,1.8-5.4,1l-6.2-1.7      C172.2,441.8,171.3,442.3,171.2,443.1z"></path>					<path class="st1" d="M195.2,458.6c-8.7,0-16.8-0.6-20.6-1c-2.5-0.3-4.3-2.4-4.3-4.9v-1.1c0-3.2,0.1-6.5,0.3-8.5      c0.1-0.5,0.4-1,0.9-1.3s1-0.3,1.5-0.1l6.2,1.7c0,0,0,0,0.1,0c1.6,0.7,3.5,0.3,4.8-0.9l1.4-1.4c0.5-0.5,1.4-0.7,2.1-0.4      c3.1,1.2,6,2.1,8.9,3.1c9.2,3,16.4,5.4,15.3,11.2c-0.4,2.2-2,3.1-3.2,3.2C204.4,458.4,199.7,458.6,195.2,458.6z M171.8,443.2      c-0.3,1.9-0.3,5.1-0.3,8.3v1.1c0,1.9,1.4,3.6,3.4,3.8c5.7,0.7,21.4,1.6,33.7,0.5c0.3,0,1.8-0.3,2.2-2.3c1-4.8-5.6-7-14.6-9.9      c-2.9-0.9-5.8-1.9-8.9-3.1c-0.3-0.1-0.7,0-0.9,0.2l-1.4,1.4c-1.6,1.5-3.9,2-5.9,1.1l-6.2-1.7c0,0,0,0-0.1,0      c-0.2-0.1-0.4-0.1-0.6,0C171.9,442.8,171.8,443,171.8,443.2z"></path>				</g>				<g>					<path class="st0" d="M171.2,451.9c0,0,0,0.4,0,0.5c0,2.2,1.6,4.1,3.9,4.4c6.2,0.8,21.5,1.7,33.5,0.6c0.8-0.1,2.3-0.7,2.7-2.7      c0.1-0.6,0-1.8,0-1.8h-0.9c-12.2,0.6-24.4,0.3-36.5-0.9L171.2,451.9z"></path>					<path class="st1" d="M196.2,458.5c-9,0-17.5-0.7-21.3-1.1c-2.5-0.3-4.3-2.4-4.3-4.9V452c0-0.1,0.1-0.3,0.2-0.4      c0.1-0.1,0.3-0.1,0.4-0.1l2.7,0.2c12.1,1.2,24.3,1.5,36.4,0.9h0.9c0.3,0,0.5,0.2,0.6,0.5c0,0.1,0.1,1.2-0.1,1.9      c-0.4,2.2-2,3.1-3.2,3.2C204.7,458.4,200.4,458.5,196.2,458.5z M171.7,452.5c0,1.9,1.4,3.6,3.4,3.8c5.5,0.7,20.8,1.8,33.4,0.6      c0.3,0,1.8-0.3,2.2-2.3c0.1-0.3,0.1-0.7,0.1-1.1h-0.3c-12.2,0.6-24.5,0.3-36.6-0.9L171.7,452.5z"></path>				</g>				<path class="st1" d="M190.4,449.1c-0.1,0-0.3-0.1-0.4-0.2c-0.2-0.2-0.2-0.5,0-0.8l4.6-4.6c0.2-0.2,0.5-0.2,0.8,0     c0.2,0.2,0.2,0.5,0,0.8l-4.6,4.6C190.7,449.1,190.6,449.1,190.4,449.1z"></path>				<path class="st1" d="M195,449.6c-0.1,0-0.3,0-0.4-0.1c-0.2-0.2-0.2-0.5,0-0.8l3.7-3.8c0.2-0.2,0.5-0.2,0.8,0     c0.2,0.2,0.2,0.5,0,0.8l-3.7,3.8C195.3,449.6,195.1,449.6,195,449.6z"></path>			</g>		</g>		<g>			<g>				<path class="st0" d="M124.1,433.6c4.1-5.8,8-17.9,8-17.9l9.2,6.4l-4.9,8.2c-1.6,2.1-1.6,5.3-1,7.9l1.8,4.8L124.1,433.6z"></path>				<path class="st1" d="M137.2,443.6c-0.1,0-0.2,0-0.3-0.1l-13.1-9.5c-0.2-0.2-0.3-0.5-0.1-0.7c4-5.7,7.9-17.6,7.9-17.7     c0.1-0.2,0.2-0.3,0.3-0.3c0.2-0.1,0.3,0,0.5,0.1l9.2,6.4c0.2,0.2,0.3,0.5,0.2,0.7l-4.9,8.2c0,0,0,0,0,0.1     c-1.3,1.7-1.6,4.5-0.9,7.5l1.7,4.8c0.1,0.2,0,0.5-0.2,0.6C137.5,443.6,137.3,443.6,137.2,443.6z M124.8,433.4l11.3,8.2l-1.2-3.2     c-0.9-3.3-0.5-6.4,1-8.4l4.6-7.8l-8.2-5.7C131.5,419.1,128.3,428.3,124.8,433.4z"></path>			</g>			<g>				<g>					<path class="st0" d="M124.3,430.3c-1.3,1.7-3.7,4.9-5.6,7.9c-1.1,1.9-0.6,4.4,1.1,5.7c2.4,1.8,9.7,6.5,14.5,9.5      c2.8,1.8,6,2.8,9.3,3l4.7,0.3c1.5,0.1,3-0.1,4.5-0.5c1.4-0.4,2.9-1.1,3-2.1c0.2-2.8-2.6-4.6-5-5.6c-2.7-1.2-5.1-3-7.1-5.2      c-2-2.3-4.5-5.2-6.3-7.3c-0.3-0.4-0.9-0.6-1.4-0.5l-1.9,0.5c-1.9,0.5-3.9-0.3-5.1-1.8l-2.8-3.8      C125.8,429.7,124.8,429.7,124.3,430.3z"></path>					<path class="st1" d="M149.2,457.2c-0.3,0-0.6,0-0.9,0l-4.7-0.3c-3.4-0.2-6.7-1.2-9.6-3.1c-5.3-3.4-12.2-7.7-14.5-9.5      c-2-1.5-2.5-4.3-1.3-6.4c1.8-3.1,4.3-6.3,5.6-8c0.3-0.4,0.9-0.7,1.4-0.7c0.6,0,1.1,0.3,1.4,0.7l2.8,3.8      c1.1,1.4,2.9,2.1,4.6,1.6l1.9-0.5c0.7-0.2,1.5,0.1,2,0.7c1.8,2.2,4.4,5.2,6.2,7.3c1.9,2.2,4.3,3.9,6.9,5      c3.6,1.6,5.5,3.7,5.3,6.1c-0.1,1.1-1.2,2-3.4,2.6C151.8,457.1,150.5,457.2,149.2,457.2z M125.3,430.4c-0.2,0-0.4,0.1-0.5,0.3      l0,0c-1.3,1.6-3.7,4.8-5.5,7.8c-1,1.7-0.6,3.8,1,5c2.4,1.9,10.1,6.7,14.4,9.5c2.7,1.7,5.9,2.7,9.1,2.9l4.7,0.3      c1.5,0.1,3-0.1,4.3-0.4c1.6-0.4,2.5-1,2.6-1.6c0.1-2.5-2.5-4.1-4.7-5.1c-2.7-1.2-5.2-3-7.2-5.3c-1.9-2.1-4.5-5.1-6.3-7.4      c-0.2-0.3-0.6-0.4-0.9-0.3l-1.9,0.5c-2.1,0.5-4.4-0.3-5.7-2l-2.8-3.8C125.7,430.5,125.5,430.4,125.3,430.4L125.3,430.4z       M124.3,430.3L124.3,430.3L124.3,430.3z"></path>				</g>				<g>					<path class="st0" d="M119,437.8c0,0-0.2,0.3-0.3,0.5c-1.1,1.9-0.6,4.4,1.1,5.7c3.7,2.8,11,8,19.1,12.4      c4.6,2.5,12.8,1.4,14.5,1.1c1.2-0.2,2.2-1,2.3-2.2l0.1-2c0,0-10.7,1.5-14.7-1.1c-7.1-4.6-13.9-8.6-20.8-13.5L119,437.8z"></path>					<path class="st1" d="M147.3,458.5c-3,0-6.2-0.4-8.6-1.7c-7.6-4.1-14.9-9.1-19.2-12.4c-2-1.5-2.5-4.3-1.3-6.4l0.3-0.5      c0.1-0.1,0.2-0.2,0.4-0.2c0.1,0,0.3,0,0.4,0.1l1.3,1c4.6,3.3,9.1,6.2,13.9,9.1c2.2,1.4,4.6,2.9,6.9,4.4c3.8,2.5,14.2,1,14.3,1      c0.2,0,0.3,0,0.4,0.1c0.1,0.1,0.2,0.3,0.2,0.4l-0.1,2c0,1.4-1.1,2.5-2.7,2.7C152.2,458.2,149.9,458.5,147.3,458.5z       M119.2,438.5c-1,1.7-0.5,3.8,1,5c4.3,3.3,11.5,8.2,19.1,12.4c4.3,2.3,11.9,1.4,14.2,1.1c0.8-0.1,1.8-0.6,1.8-1.7V454      c-2.4,0.3-10.8,1.1-14.4-1.2c-2.3-1.5-4.6-2.9-6.9-4.4c-4.8-3-9.3-5.8-13.9-9.2L119.2,438.5z"></path>				</g>				<path class="st1" d="M136.4,444.5c-0.2,0-0.5-0.2-0.5-0.4c-0.1-0.3,0.1-0.6,0.4-0.7l6.3-1.7c0.3-0.1,0.6,0.1,0.7,0.4     c0.1,0.3-0.1,0.6-0.4,0.7l-6.3,1.7C136.5,444.5,136.4,444.5,136.4,444.5z"></path>				<path class="st1" d="M140.1,447.2c-0.2,0-0.4-0.2-0.5-0.4c-0.1-0.3,0.1-0.6,0.4-0.7l5.1-1.5c0.3-0.1,0.6,0.1,0.7,0.4     c0.1,0.3-0.1,0.6-0.4,0.7l-5.1,1.5C140.2,447.2,140.1,447.2,140.1,447.2z"></path>			</g>		</g>		<g>			<g>				<path class="st0" d="M93.7,336.5c0,0,58-1.9,78.6,10.3c19.6,11.7-33.6,83.1-33.6,83.1l-11.1-6.1l14-47.9c1-3.5-1.1-7.2-4.6-8.1     l-50-14.2L93.7,336.5z"></path>				<path class="st1" d="M138.7,430.5c-0.1,0-0.2,0-0.3-0.1l-11.1-6.1c-0.2-0.1-0.3-0.4-0.3-0.6l14-47.9c0.9-3.2-1-6.6-4.2-7.5     l-50.1-14.2c-0.1,0-0.3-0.1-0.3-0.3c-0.1-0.1-0.1-0.3,0-0.4l6.6-17.1c0.1-0.2,0.3-0.3,0.5-0.3c2.4-0.1,58.4-1.8,78.9,10.4     c2.3,1.3,3.7,3.5,4.3,6.4c4.2,20.9-36,75.1-37.7,77.4C139.1,430.4,138.9,430.5,138.7,430.5z M128.3,423.6l10.3,5.6     c3.6-4.9,41.1-56.7,37.2-76.2c-0.5-2.6-1.8-4.5-3.8-5.7c-19.4-11.6-73.1-10.4-78-10.3l-6.3,16.2l49.5,14.1c3.8,1.1,6,5,4.9,8.8     L128.3,423.6z"></path>			</g>			<g>				<path class="st0" d="M63.9,369.4c8.9,2.8,17.8,2.4,40,2.1c6.3-0.1,15.2,5.5,18.1,11.1c6.6,12.9,24.5,40.3,47.7,55.3l11.1-6     l-32-67.7c-2.6-5.8-7.4-10.3-13.4-12.5l-55.9-20.5c0,0-14.6-4.6-23.1,10.9c-1.5,2.8-2.6,5.3-3.2,7.5     C50.8,357.4,56.3,367,63.9,369.4z"></path>				<path class="st1" d="M169.6,438.5c-0.1,0-0.2,0-0.3-0.1c-23.1-15-41-41.9-47.9-55.5c-2.8-5.6-11.6-10.9-17.6-10.8l-4.7,0.1     c-18.6,0.3-27.1,0.4-35.4-2.2c-8-2.5-13.5-12.6-11.1-20.4c0.7-2.4,1.8-5,3.3-7.6c8.6-15.7,23.6-11.2,23.7-11.2l56,20.5     c6.1,2.2,11,6.9,13.7,12.8l32,67.7c0.1,0.3,0,0.6-0.2,0.7l-11.1,6C169.8,438.5,169.7,438.5,169.6,438.5z M104,371     c6.4,0,15.4,5.6,18.4,11.4c6.4,12.5,24.4,39.9,47.2,54.9l10.3-5.6l-31.8-67.3c-2.5-5.6-7.3-10.1-13.1-12.2l-55.9-20.5     c-0.6-0.2-14.3-4.2-22.5,10.7c-1.4,2.6-2.5,5-3.2,7.4c-2.2,7.2,3,16.7,10.4,19c8.1,2.6,16.6,2.5,35.1,2.2l4.7-0.1     C103.9,371,104,371,104,371z"></path>			</g>		</g>	</g>	<g>		<g>			<path class="st0" d="M169.1,233.5l5.4-6.5c0.4-0.5,1.2-0.2,1.2,0.4c0,1-0.1,2.3-0.3,3.4c-0.1,0.7,0.4,1.4,1.1,1.3    c0.3,0,0.5,0,0.7,0c1.1,0,2.2-0.5,3-1.3c0.9-1,2-2.2,2.5-2.6c0.8-0.6,1.7-1.6,2.9-1.7l0,0c1.2-0.1,2,1.1,1.4,2.1l-1.6,2.7    c-1.8,3-4.5,5.4-7.8,6.8l-4.9,2c-0.8,0.3-1.3,1.1-1.3,2l0.2,18.9l-6.2-6.4c0,0,0.6-11.4,1.8-17.1    C167.4,236.1,168.1,234.7,169.1,233.5z"></path>			<path class="st1" d="M171.5,261.6c-0.1,0-0.3-0.1-0.4-0.2l-6.2-6.4c-0.1-0.1-0.2-0.3-0.2-0.4c0-0.5,0.6-11.5,1.8-17.1    c0.3-1.6,1.1-3.1,2.1-4.4l5.4-6.5c0.3-0.4,0.9-0.5,1.3-0.4c0.5,0.2,0.8,0.6,0.8,1.2c-0.1,1.4-0.2,2.6-0.4,3.5    c0,0.2,0,0.4,0.1,0.5s0.3,0.2,0.5,0.2c0.3,0,0.5,0,0.8,0c1,0,1.9-0.4,2.6-1.2c1.3-1.5,2.2-2.3,2.5-2.6c0.1-0.1,0.2-0.2,0.3-0.3    c0.8-0.6,1.7-1.4,2.8-1.5c0.8-0.1,1.5,0.3,1.9,0.9s0.4,1.4,0,2.1l-1.6,2.7c-1.9,3.1-4.7,5.6-8.1,7l-4.9,2c-0.6,0.3-1,0.8-1,1.5    l0.2,18.9C171.8,261.3,171.7,261.5,171.5,261.6C171.6,261.6,171.6,261.6,171.5,261.6z M165.8,254.5l5.1,5.3l-0.2-17.5    c0-1.1,0.6-2.1,1.6-2.5l4.9-2c3.2-1.3,5.8-3.6,7.5-6.5l1.6-2.7c0.2-0.3,0.2-0.6,0-0.9s-0.5-0.4-0.8-0.4c-0.8,0.1-1.6,0.7-2.3,1.3    c-0.1,0.1-0.2,0.2-0.3,0.3c-0.2,0.1-0.7,0.7-2.4,2.5c-0.9,1-2.1,1.5-3.4,1.5c-0.2,0-0.5,0-0.7,0c-0.5,0-1-0.2-1.3-0.6    s-0.5-0.9-0.4-1.4c0.2-0.9,0.3-2,0.3-3.3c0,0,0-0.1-0.1-0.1s-0.1,0-0.1,0l-5.4,6.5c-1,1.1-1.6,2.5-1.9,3.9    C166.5,242.9,165.9,252.8,165.8,254.5z"></path>		</g>		<g>			<g>				<path class="st0" d="M65.2,247.4c0,0,7.8-1.3,14.3-4.6c2.7-1.4,9.9-3.8,14.3,1.5c3.2,3.9,7.3,9.2,11.9,13.8     c1.9,1.9,2.6,4.8,2.6,4.8s-6.1-1.1-17.3-4.8C79.8,254.5,65.2,247.4,65.2,247.4z"></path>				<path class="st1" d="M108.2,263.5C108.2,263.5,108.1,263.5,108.2,263.5c-0.2,0-6.4-1.2-17.4-4.8C79.7,255.1,65.1,248.1,65,248     c-0.2-0.1-0.3-0.3-0.3-0.6c0-0.2,0.2-0.4,0.4-0.5c0.1,0,7.8-1.3,14.1-4.5c1-0.5,9.7-4.7,14.9,1.6c0.5,0.7,1.1,1.3,1.7,2.1     c2.8,3.5,6.4,7.9,10.2,11.7c2,2,2.7,5,2.7,5.1c0,0.2,0,0.4-0.1,0.5C108.5,263.4,108.4,263.5,108.2,263.5z M66.9,247.7     c4,1.9,15.3,7,24.2,10c8.6,2.8,14.3,4.2,16.3,4.6c-0.3-1-1-2.6-2.2-3.7c-3.9-3.8-7.4-8.2-10.3-11.8c-0.6-0.7-1.1-1.4-1.7-2.1     c-4.7-5.7-12.7-1.8-13.6-1.4C75,245.7,69.6,247.1,66.9,247.7z"></path>			</g>			<path class="st0" d="M67.2,265.9c0,0-5.4-0.2-7.8-3.5c-5-6.8-5.6-20.4,22.2-13c9.1,2.4,18,10.6,18,10.6l7.6,8.4L67.2,265.9z"></path>			<g>				<path class="st0" d="M173.1,243.6h-8.6c0,0-1.8,20.1-24.4,24.7c-15.1,3.1-22.2,0-24.2-1.1c-0.1-0.1-0.3-0.2-0.6-0.4     c-1.3-0.9-4.2-2.7-6.4-3.9c-7.5-4.1-21-10.7-32.3-3.9c-30.3,18.2-35.7,59.9-26.2,88.8c0.6,1.9,1.9,10,3.6,11.2     c10.7,7.5,28.1-1.4,28.1-1.4c12.7-4.7,21.5-14.7,25.2-19.5c0.9-1.2,0.7-2.9-0.5-3.9c-2.1-1.7-4.8-5.9-5.1-16.8     c-0.2-5.7,1.9-12.4,4.6-19.1c6.3,3.9,17.7,6.3,38.2-0.5C183.6,284.9,173.1,243.6,173.1,243.6z"></path>				<path class="st1" d="M64.7,362.5c-3.8,0-7.7-0.8-11.1-3.1c-1.3-0.9-2.2-4.6-3.2-8.9c-0.3-1.1-0.5-2.1-0.6-2.6     c-9.7-29.8-3.7-71.2,26.5-89.4c10.7-6.4,23.2-1.3,32.8,3.9c2.1,1.1,4.9,3,6.3,3.9l0.1,0.1c0.3,0.2,0.5,0.3,0.6,0.4     c1.8,1,8.8,4.1,23.8,1.1c22-4.5,24-24,24-24.2c0-0.3,0.3-0.5,0.5-0.5h8.6c0.2,0,0.5,0.2,0.5,0.4c0,0.1,2.6,10.6,0.4,22.5     c-2.1,11-8.9,25.6-29.4,32.4s-32,4.3-38.1,0.8c-3.1,7.7-4.5,13.5-4.3,18.3c0.3,10.6,2.8,14.7,4.9,16.4c1.5,1.1,1.7,3.2,0.6,4.6     c-4.1,5.4-12.8,15-25.4,19.7C81.6,358.4,73.3,362.5,64.7,362.5z M87.4,256.6c-3.6,0-7.2,0.8-10.6,2.9     c-29.8,17.9-35.6,58.7-26,88.1c0.2,0.5,0.4,1.5,0.7,2.7c0.6,2.6,1.7,7.5,2.8,8.2c10.3,7.2,27.4-1.3,27.6-1.4c0,0,0,0,0.1,0     c12.4-4.6,20.9-14.1,24.9-19.3c0.7-1,0.5-2.3-0.4-3.1c-2.3-1.8-5-6.2-5.3-17.2c-0.1-5,1.3-11.1,4.6-19.3     c0.1-0.1,0.2-0.3,0.3-0.3s0.3,0,0.4,0.1c5.8,3.6,17,6.3,37.8-0.5c16-5.3,25.7-15.9,28.6-31.5c2-10.4,0.2-19.6-0.2-21.7H165     c-0.5,3.1-4,20.4-24.8,24.7c-14.9,3.1-22.1,0.2-24.6-1.2c-0.1-0.1-0.3-0.2-0.6-0.4l-0.1-0.1c-1.3-0.9-4.1-2.7-6.2-3.8     C102.3,260,94.8,256.6,87.4,256.6z"></path>			</g>			<path class="st0" d="M102.1,273.1c0.7,5.4,2.3,12.2,6.2,19.2c12.4,22.4,32.5,28.8,37.5,29.8l-7.2,6c0,0-46.1,4.5-61.3-41.2    c0,0-5.8-18.1,7.1-22.6c2.7-0.9,6.3-1.5,9.7-0.1C100,266.5,101.8,272.4,102.1,273.1z"></path>			<path class="st1" d="M135.2,328.8c-4.4,0-12.6-0.5-21.5-3.5c-12.3-4.1-28.6-14-36.6-37.3c-0.1-0.3,0.1-0.6,0.3-0.7    c0.3-0.1,0.6,0.1,0.7,0.3c7.9,22.9,23.9,32.6,35.9,36.7c12.2,4.1,22.9,3.5,24.4,3.4l6.2-5.2c-4.8-1.2-24.4-7.5-36.8-29.8    c-3.3-5.9-5.4-12.4-6.3-19.4c0-0.3,0.2-0.6,0.5-0.6s0.6,0.2,0.6,0.5c0.9,6.8,3,13.3,6.2,19c13.7,24.6,36.1,29.3,37.1,29.5    c0.2,0,0.4,0.2,0.4,0.4c0.1,0.2,0,0.4-0.2,0.5l-7.2,6c-0.1,0.1-0.2,0.1-0.3,0.1C138.6,328.7,137.4,328.8,135.2,328.8z"></path>			<g>				<path class="st1" d="M114.1,294.1c-0.1,0-0.2,0-0.3-0.1c-0.3-0.1-0.4-0.5-0.2-0.7c4.5-8.1,3.5-17.1,3.5-17.2     c0-0.3,0.2-0.6,0.5-0.6s0.6,0.2,0.6,0.5c0,0.4,1.1,9.5-3.6,17.9C114.5,294,114.3,294.1,114.1,294.1z"></path>			</g>			<path class="st1" d="M52.5,357c-0.2,0-0.4-0.1-0.5-0.4c-0.6-1.8-1.2-4.2-1.6-6.1c-0.3-1.1-0.5-2.1-0.6-2.6    c-7.8-23.9-6.2-59.6,15.9-81.2c0.2-0.2,0.6-0.2,0.8,0s0.2,0.6,0,0.8c-21.8,21.3-23.4,56.5-15.7,80.1c0.2,0.5,0.4,1.5,0.7,2.7    c0.4,1.9,1,4.2,1.6,6c0.1,0.3,0,0.6-0.3,0.7C52.7,357,52.6,357,52.5,357z"></path>			<path class="st1" d="M67.2,266.4L67.2,266.4c-0.2,0-5.7-0.2-8.3-3.7c-2.5-3.4-4-8.4-1.6-12c2.2-3.2,8.2-6.1,24.3-1.8    c5.5,1.5,11,5,14.6,7.7c0.2,0.2,0.3,0.5,0.1,0.8c-0.2,0.2-0.5,0.3-0.8,0.1c-3.5-2.7-8.8-6.1-14.2-7.6    c-12.1-3.2-20.4-2.7-23.2,1.4c-2.1,3.1-0.7,7.8,1.5,10.8c2.3,3.1,7.4,3.3,7.4,3.3c0.3,0,0.5,0.3,0.5,0.6    C67.7,266.2,67.5,266.4,67.2,266.4z"></path>		</g>		<g>			<path class="st0" d="M136.4,328.2c0.4-0.2,4.1-6,8.2-7.2c4.1-1.2,12.9,7.7,12.9,7.7L136.4,328.2z"></path>			<path class="st1" d="M157.5,329.3L157.5,329.3l-21.1-0.6c-0.2,0-0.4-0.2-0.5-0.4c-0.1-0.2,0-0.4,0.2-0.6c0.1-0.1,0.3-0.4,0.5-0.7    c1.3-1.7,4.4-5.6,7.8-6.6c4.2-1.2,12.5,6.9,13.4,7.9c0.2,0.2,0.2,0.4,0.1,0.6C157.9,329.2,157.7,329.3,157.5,329.3z M137.5,327.7    l18.6,0.5c-2.9-2.8-8.7-7.4-11.4-6.6C141.7,322.4,138.8,326.1,137.5,327.7z"></path>		</g>	</g>	<g>		<g>			<path class="st0" d="M103.8,263.6c1.8,0.4,3.6-0.6,4.3-2.3l2.7-6.7c0.3-0.6,0.9-1,1.6-1l4,0.3c0.9,0.1,1.7-0.4,2-1.3l2-5.4l0,0    l2.1-0.6c0.4-0.1,0.6-0.6,0.5-1l-1.2-4.2c-0.2-0.8,0.1-5.2-0.8-5.3c0,0-13.2-7.7-18.6-2.6c-1.4,1.3-1.9,3.4-1.5,5.3l0.5,2.4    c0.6,2.7,0.2,5.6-1.3,8c-0.4,0.6-0.8,1.2-1.3,1.8l-5.2,5.4c-0.9,0.9-0.7,2.5,0.5,3.1C96.7,260.8,100.9,263,103.8,263.6z"></path>			<path class="st1" d="M104.6,264.2c-0.3,0-0.6,0-0.9-0.1c-2.8-0.6-6.9-2.7-9.8-4.3c-0.7-0.4-1.1-1-1.3-1.8    c-0.1-0.8,0.1-1.5,0.7-2.1l5.2-5.4c0.5-0.5,0.9-1.1,1.3-1.7c1.3-2.2,1.8-4.9,1.2-7.6l-0.5-2.4c-0.5-2.1,0.2-4.4,1.7-5.8    c5.4-5.1,18,1.8,19.1,2.5c0.9,0.2,0.9,1.7,1,4.1c0,0.6,0,1.4,0.1,1.6l1.2,4.2c0.2,0.7-0.2,1.4-0.9,1.6l-1.8,0.6l-1.9,5.2    c-0.4,1-1.4,1.7-2.5,1.6l-4-0.3c-0.5,0-0.9,0.2-1.1,0.7l-2.7,6.7C107.9,263.2,106.3,264.2,104.6,264.2z M103.9,263.1    c1.6,0.3,3.1-0.5,3.7-2l2.7-6.7c0.4-0.9,1.2-1.4,2.2-1.3l4,0.3c0.6,0,1.2-0.3,1.4-0.9l2-5.4c0.1-0.2,0.2-0.3,0.4-0.3l2.1-0.6    c0.1,0,0.2-0.2,0.2-0.3l-1.2-4.2c-0.1-0.3-0.1-0.9-0.1-1.9c0-0.9-0.1-2.7-0.3-3.1h-0.1c-0.1-0.1-13-7.5-17.9-2.7    c-1.2,1.2-1.8,3-1.4,4.8l0.5,2.4c0.6,3,0.2,5.9-1.3,8.3c-0.4,0.7-0.9,1.3-1.4,1.9l-5.2,5.5c-0.3,0.3-0.5,0.8-0.4,1.2    c0.1,0.4,0.3,0.8,0.7,1C96.7,260.2,101,262.5,103.9,263.1z"></path>		</g>		<path class="st1" d="M108.8,240.8c-0.3-2.4-1.5-3.4-1.1-4.5c0.2-0.6,0.9-0.9,1.2-1c1.7-0.8,3.6,0.3,7.5,1.8c4.8,1.9,5.3,2.2,6.4,2   c2.6-0.5,4.5-3.1,5.1-5.5c0.2-0.7,0.9-4.3-1.8-6.7c-1.9-1.8-4.9-2.2-7.6-1.2c-0.1-0.7-0.3-1.8-1.2-2.5c-2-1.6-5.9,0.3-7.2,1   c-1.2,0.6-3.5,2-5.5,4.8c-0.4-0.3-1.9-1.5-3.8-1.3c-2.9,0.3-4.2,3.5-4.3,3.8c-1.4,3.5,1,7.3,2.8,10.1c1.3,2,1.8,2.5,2.8,3.4   c0.2-0.1,0.4-0.1,0.7-0.2c0.7-0.2,1.1-1.1,0.9-1.8v-0.1c-0.3-0.8-0.4-1.6-0.4-2.4c0.1-0.7,0.2-1.3,0.7-1.6c0.8-0.4,1.9,0.2,2,0.2   c1,0.5,1.4,1.5,1.5,2.3C107.6,241.8,108.9,241.6,108.8,240.8z"></path>	</g>	<g>		<path class="st1" d="M117.3,249.6L117.3,249.6l-6.3-0.2c-3.6-0.1-6.5-2.8-7-6.3l-0.4-3.2c0-0.3,0.2-0.6,0.5-0.6s0.6,0.2,0.6,0.5   l0.4,3.2c0.4,3,2.9,5.3,6,5.4l6.2,0.2c0.3,0,0.5,0.3,0.5,0.6C117.8,249.4,117.6,249.6,117.3,249.6z"></path>		<path class="st0" d="M101.8,239.9c-0.2,0-0.5-0.2-0.5-0.4c0-0.1-2-10.1,5-13.2c0.3-0.1,0.6,0,0.7,0.3c0.1,0.3,0,0.6-0.3,0.7   c-6.2,2.8-4.4,11.9-4.4,12c0.1,0.3-0.1,0.6-0.4,0.6C101.9,239.9,101.9,239.9,101.8,239.9z"></path>		<path class="st1" d="M118.1,249.5c0.4-0.9,0-2-0.9-2.5c-0.9-0.4-2.1,0-2.5,0.9s0,2,0.9,2.5S117.6,250.5,118.1,249.5z"></path>		<path class="st1" d="M110.2,240.8c1-3.2-0.5-6.5-3.4-7.4c-0.3-0.1-1.5-0.4-1.8-0.4c-2.6-0.3-4.3,1.6-5.2,4.4c-1,3-0.3,6.1,2.3,7.2   c0.1,0,0.9,0.3,1,0.3C106.3,245.5,109.2,243.9,110.2,240.8z"></path>		<g>							<ellipse transform="matrix(0.2874 -0.9578 0.9578 0.2874 -154.9767 269.4384)" class="st0" cx="103.6" cy="238.9" rx="6" ry="5.5"></ellipse>			<path class="st1" d="M103.4,245.3c-0.5,0-1.1-0.1-1.6-0.2c-3.2-1-4.9-4.5-3.9-8c0.5-1.7,1.6-3.1,3-3.9c1.5-0.9,3.1-1.1,4.7-0.6    c1.6,0.5,2.8,1.6,3.5,3.1s0.9,3.3,0.4,4.9c-0.5,1.7-1.6,3.1-3,3.9C105.5,245,104.4,245.3,103.4,245.3z M103.9,233.4    c-0.9,0-1.7,0.2-2.5,0.7c-1.2,0.7-2.1,1.9-2.5,3.3c-0.9,2.9,0.6,5.9,3.2,6.7c1.3,0.4,2.6,0.2,3.8-0.5s2.1-1.9,2.5-3.3    s0.3-2.9-0.3-4.1s-1.6-2.1-2.9-2.5C104.8,233.5,104.3,233.4,103.9,233.4z"></path>		</g>	</g></g><g>	<g>		<g>			<path class="st0" d="M32.6,341.8h228.5c0.9,0,1.6-0.7,1.6-1.6v-7.4c0-0.9-0.7-1.6-1.6-1.6H32.6c-0.9,0-1.6,0.7-1.6,1.6v7.4    C31.1,341.1,31.8,341.8,32.6,341.8z"></path>			<path class="st1" d="M261.1,342.4H32.6c-1.2,0-2.1-0.9-2.1-2.1v-7.4c0-1.2,0.9-2.1,2.1-2.1h228.5c1.2,0,2.1,0.9,2.1,2.1v7.4    C263.2,341.4,262.3,342.4,261.1,342.4z M32.6,331.8c-0.6,0-1,0.5-1,1v7.4c0,0.6,0.5,1,1,1h228.5c0.6,0,1-0.5,1-1v-7.4    c0-0.6-0.5-1-1-1H32.6z"></path>		</g>		<path class="st1" d="M107.8,339.4c-0.3,0-0.5-0.2-0.5-0.5V334c0-0.3,0.2-0.5,0.5-0.5s0.5,0.2,0.5,0.5v4.8   C108.3,339.1,108.1,339.4,107.8,339.4z"></path>	</g></g><g>	<g>		<g>			<path class="st1" d="M235.9,318.2l-85.3,0.2c-0.7,0-1.3-0.5-1.2-1.3l3.8-51.8c0.1-1.3,1.3-2.4,2.6-2.4l84.1,0.1L235.9,318.2z"></path>			<path class="st1" d="M150.6,318.9c-0.5,0-1-0.2-1.3-0.5s-0.5-0.8-0.4-1.3l3.8-51.8c0.1-1.6,1.6-2.9,3.1-2.9l84.1,0.1    c0.1,0,0.3,0.1,0.4,0.2s0.2,0.3,0.1,0.4l-4,55.2c0,0.3-0.3,0.5-0.5,0.5L150.6,318.9z M235.9,318.2L235.9,318.2L235.9,318.2z     M155.8,263.4c-1,0-2,0.9-2,2l-3.8,51.8c0,0.2,0,0.4,0.2,0.5c0.1,0.1,0.3,0.2,0.5,0.2l84.8-0.2l4-54.2L155.8,263.4z"></path>		</g>		<g>			<path class="st0" d="M237.7,318.1h-83.5c-0.7,0-1.3-0.5-1.2-1.3l3.8-51.3c0.1-1.4,1.5-2.7,3-2.7h82.5c0.7,0,1.3,0.5,1.2,1.3    l-3.9,52.3C239.4,317.4,238.6,318.1,237.7,318.1z"></path>			<path class="st1" d="M237.7,318.7h-83.5c-0.5,0-1-0.2-1.3-0.5s-0.5-0.8-0.4-1.3l3.8-51.3c0.1-1.7,1.8-3.2,3.5-3.2h82.5    c0.5,0,1,0.2,1.3,0.5s0.5,0.8,0.4,1.3l-3.9,52.3C239.9,317.7,238.8,318.7,237.7,318.7z M159.7,263.4c-1.2,0-2.3,1-2.4,2.2    l-3.8,51.3c0,0.2,0,0.4,0.2,0.5c0.1,0.1,0.3,0.2,0.5,0.2h83.5c0.6,0,1.2-0.6,1.3-1.1l3.9-52.3c0-0.2,0-0.4-0.2-0.5    c-0.1-0.1-0.3-0.2-0.5-0.2h-82.5V263.4z"></path>		</g>	</g>	<g>		<path class="st1" d="M186.8,330.8h12.8l3.2-34.6c0-0.4-0.2-0.7-0.7-0.7h-10.6c-0.8,0-1.5,0.6-1.6,1.5L186.8,330.8z"></path>		<g>			<polygon class="st0" points="188.8,330.8 201.5,330.8 204.7,296.2 191.9,296.2    "></polygon>			<path class="st1" d="M201.5,331.3h-12.8c-0.2,0-0.3-0.1-0.4-0.2s-0.2-0.3-0.1-0.4l3.1-34.6c0-0.3,0.3-0.5,0.5-0.5h12.8    c0.2,0,0.3,0.1,0.4,0.2s0.2,0.3,0.1,0.4l-3.1,34.6C202.1,331.1,201.8,331.3,201.5,331.3z M189.3,330.2H201l3-33.5h-11.7    L189.3,330.2z"></path>		</g>	</g>	<path class="st1" d="M210.5,331.4h-34.6c-0.4,0-0.7-0.3-0.7-0.7V326c0-0.4,0.3-0.7,0.7-0.7h34.6c0.4,0,0.7,0.3,0.7,0.7v4.7  C211.1,331.1,210.8,331.4,210.5,331.4z"></path>	<g>		<rect x="177" y="325.9" class="st0" width="35.9" height="5"></rect>		<path class="st1" d="M212.9,331.4H177c-0.3,0-0.5-0.2-0.5-0.5v-5c0-0.3,0.2-0.5,0.5-0.5h35.9c0.3,0,0.5,0.2,0.5,0.5v5   C213.5,331.2,213.2,331.4,212.9,331.4z M177.5,330.3h34.8v-3.9h-34.8L177.5,330.3L177.5,330.3z"></path>	</g></g><path class="st2" d="M248.7,460.4c-0.3,0-0.5-0.2-0.5-0.5V344.7c0-0.3,0.2-0.5,0.5-0.5s0.5,0.2,0.5,0.5v115.1 C249.3,460.1,249,460.4,248.7,460.4z"></path><path class="st2" d="M239.9,427.4c-0.3,0-0.5-0.2-0.5-0.5v-78.5c0-0.3,0.2-0.5,0.5-0.5s0.5,0.2,0.5,0.5v78.5 C240.5,427.1,240.2,427.4,239.9,427.4z"></path><path class="st2" d="M53.7,438.5c-0.3,0-0.5-0.2-0.5-0.5v-45.8c0-0.3,0.2-0.5,0.5-0.5s0.5,0.2,0.5,0.5V438 C54.2,438.3,54,438.5,53.7,438.5z"></path><path class="st2" d="M46.1,421.7c-0.3,0-0.5-0.2-0.5-0.5v-36.8c0-0.3,0.2-0.5,0.5-0.5s0.5,0.2,0.5,0.5v36.8 C46.6,421.5,46.4,421.7,46.1,421.7z"></path></svg>