<svg xmlns="http://www.w3.org/2000/svg" xmlns:xlink="http://www.w3.org/1999/xlink" id="Layer_1" x="0px" y="0px" viewBox="0 0 1560 1400" style="enable-background:new 0 0 1560 1400;" xml:space="preserve"><style type="text/css">	.st0{fill:#FFFFFF;}	.st1{fill:none;stroke:#000000;stroke-linecap:round;stroke-miterlimit:10;}	.st2{fill:#FFFFFF;stroke:#000000;stroke-miterlimit:10;}	.st3{fill:#FFFFFF;stroke:#000000;stroke-width:2;stroke-miterlimit:10;}	.st4{fill:none;stroke:#000000;stroke-width:2;stroke-linecap:round;stroke-miterlimit:10;}	.st5{stroke:#FFFFFF;stroke-width:2;stroke-miterlimit:10;}	.st6{opacity:0.69;fill:none;stroke:#000000;stroke-width:2;stroke-miterlimit:10;enable-background:new    ;}	.st7{fill:none;stroke:#FFFFFF;stroke-width:16;stroke-miterlimit:10;}	.st8{opacity:0.51;}	.st9{fill:none;stroke:#000000;stroke-width:2;stroke-miterlimit:10;}	.st10{fill:#1A1717;stroke:#FFFFFF;stroke-width:2;stroke-miterlimit:10;}	.st11{fill:#1A1717;}	.st12{fill:none;stroke:#FFFFFF;stroke-width:2;stroke-miterlimit:10;}	.st13{stroke:#FFFFFF;stroke-miterlimit:10;}	.st14{fill:none;stroke:#FFFFFF;stroke-miterlimit:10;}	.st15{stroke:#FFFFFF;stroke-width:2;stroke-miterlimit:10;enable-background:new    ;}	.st16{enable-background:new    ;}	.st17{fill:none;}	.st18{font-family:'ArialRoundedMTBold';}	.st19{font-size:23.2078px;}	.st20{fill:none;stroke:#000000;stroke-miterlimit:10;}	.st21{fill:#9E2750;}	.st22{fill:#FFFFFF;stroke:#000000;stroke-width:0.75;stroke-miterlimit:10;}	.st23{display:none;}	.st24{display:inline;opacity:0.66;fill:#FFFBAB;enable-background:new    ;}	.st25{display:inline;fill:#FFFFFF;stroke:#000000;stroke-miterlimit:10;}	.st26{fill:#232323;}	.st27{fill:#16110D;}	.st28{fill:#191410;}	.st29{fill:#FFBE2E;}</style><path class="st0" d="M963.6,1125.1c-3.2,0-7-0.8-11.5-2.9c-6.2-2.9-32.4-15.8-62.8-30.8c-34.6-17.1-73.8-36.4-90.8-44.6 c-11.9-5.7-11.5-14.5-11.2-23c0.1-2.6,0.2-5.2,0.1-8.1l0-0.3l1.4-16.6l10.1,0.9l-1.4,15.9c0.1,3.2,0,6.1-0.1,8.7 c-0.4,8.4-0.2,10.7,5.4,13.4c17.1,8.2,56.3,27.6,90.9,44.7c30.3,15,56.5,27.9,62.6,30.8c8.8,4.2,11.3,0.7,12.1-0.5 c0.9-1.3,1.4-2.9,1.4-4.7c0-2.3,0.1-6.3,0.2-10.9c0.2-7.8,0.4-18.6,0.2-21l10.1-0.6c0.2,2.6,0,10.7-0.2,21.8 c-0.1,4.4-0.2,8.6-0.2,10.8c0,3.9-1.2,7.5-3.3,10.5C975,1120.9,971,1125.1,963.6,1125.1L963.6,1125.1z"></path><path class="st1" d="M969.5,1079.9c-0.1,2.6,0.3,19.7,0,30.8c-0.1,4.1-6,6.3-11.2,6.3"></path><path class="st2" d="M923.6,1111.8c-0.8,0-1.9-0.7-2.3-1.4c-2.2-3.8-0.4-8.2,1-10.4c2.3-3.5,5.2-4.3,6.8-4.4 c1.2-0.1,2.7,0.9,2.7,2.1c0,1.2-0.9,2-2.1,2c-0.1,0-2.2,0.4-3.7,2.7c-0.7,1-2.1,4.5-0.9,6.7C925.7,1110.3,925,1111.8,923.6,1111.8 C923.6,1111.9,923.6,1111.9,923.6,1111.8L923.6,1111.8z"></path><path class="st2" d="M927.6,1114.1c-0.8,0-1.9-0.7-2.3-1.4c-0.5-1-0.8-2-1-2.9c-0.4-3,0.9-5.8,2-7.5c2.3-3.5,5.2-4.3,6.8-4.4 c1.2-0.1,2.7,0.9,2.7,2.1c0,1.2-0.9,2-2.1,2c-0.1,0-2.2,0.4-3.7,2.7c-0.7,1-2.1,4.5-0.9,6.7C929.8,1112.5,929,1114.1,927.6,1114.1 C927.7,1114.1,927.6,1114.1,927.6,1114.1L927.6,1114.1z M814.7,1057.1c-0.8,0-1.9-0.7-2.3-1.4c-2.2-3.8-0.4-8.2,1-10.4 c2.3-3.5,5.2-4.3,6.8-4.4c1.2-0.1,2.7,0.9,2.7,2.1c0,1.2-0.9,2-2.1,2c-0.1,0-2.2,0.4-3.7,2.7c-0.7,1-2.1,4.5-1,6.7 C816.9,1055.5,816.1,1057,814.7,1057.1C814.8,1057.1,814.8,1057.1,814.7,1057.1L814.7,1057.1z"></path><path class="st2" d="M818.8,1059.3c-0.8,0-1.9-0.7-2.3-1.4c-0.5-1-0.8-2-1-2.9c-0.4-3,0.9-5.8,2-7.5c2.3-3.5,5.2-4.3,6.8-4.4 c1.2-0.1,2.7,0.9,2.7,2.1c0,1.2-0.9,2-2.1,2c-0.1,0-2.2,0.4-3.7,2.7c-0.7,1-2.1,4.5-1,6.7C821,1057.7,820.2,1059.3,818.8,1059.3 C818.8,1059.3,818.8,1059.3,818.8,1059.3L818.8,1059.3z"></path><path class="st0" d="M1259.1,1074.2c-3.2,0-7-0.8-11.5-2.9c-6.2-2.9-32.4-15.8-62.8-30.8c-34.6-17.1-73.8-36.4-90.8-44.6 c-11.9-5.7-11.5-14.5-11.2-23c0.1-2.6,0.2-5.2,0.1-8.1l0-0.3l1.4-16.6l10.1,0.9l-1.4,15.9c0.1,3.2,0,6.1-0.1,8.7 c-0.4,8.4-0.2,10.7,5.4,13.4c17.1,8.2,56.3,27.6,90.9,44.7c30.3,15,56.5,27.9,62.6,30.8c8.8,4.2,11.3,0.7,12.1-0.5 c0.9-1.3,1.4-2.9,1.4-4.7c0-2.3,0.1-6.3,0.2-10.9c0.2-7.8,0.4-18.6,0.2-21l10.1-0.6c0.2,2.6,0,10.7-0.2,21.8 c-0.1,4.4-0.2,8.6-0.2,10.8c0,3.9-1.2,7.5-3.3,10.5C1270.5,1069.9,1266.4,1074.2,1259.1,1074.2L1259.1,1074.2z"></path><path class="st1" d="M1265,1029c-0.1,2.6,0.3,19.7,0,30.8c-0.1,4.1-6,6.3-11.2,6.3"></path><path class="st2" d="M1219,1060.9c-0.8,0-1.9-0.7-2.3-1.4c-2.2-3.8-0.4-8.2,1-10.4c2.3-3.5,5.2-4.3,6.8-4.4c1.2-0.1,2.7,0.9,2.7,2.1 c0,1.2-0.9,2-2.1,2c-0.1,0-2.2,0.4-3.7,2.7c-0.7,1-2.1,4.5-0.9,6.7C1221.2,1059.3,1220.4,1060.9,1219,1060.9 C1219.1,1060.9,1219.1,1060.9,1219,1060.9L1219,1060.9z"></path><path class="st2" d="M1223.1,1063.1c-0.8,0-1.9-0.7-2.3-1.4c-0.5-1-0.8-2-1-2.9c-0.4-3,0.9-5.8,2-7.5c2.3-3.5,5.2-4.3,6.8-4.4 c1.2-0.1,2.7,0.9,2.7,2.1c0,1.2-0.9,2-2.1,2c-0.1,0-2.2,0.4-3.7,2.7c-0.7,1-2.1,4.5-0.9,6.7 C1225.3,1061.6,1224.5,1063.1,1223.1,1063.1C1223.1,1063.1,1223.1,1063.1,1223.1,1063.1L1223.1,1063.1z"></path><path class="st3" d="M1110.2,1006.1c-0.8,0-1.9-0.7-2.3-1.4c-2.2-3.8-0.4-8.2,1-10.4c2.3-3.5,5.2-4.3,6.8-4.4 c1.2-0.1,2.7,0.9,2.7,2.1c0,1.2-0.9,2-2.1,2c-0.1,0-2.2,0.4-3.7,2.7c-0.7,1-2.1,4.5-0.9,6.7 C1112.4,1004.5,1111.6,1006.1,1110.2,1006.1C1110.2,1006.1,1110.2,1006.1,1110.2,1006.1L1110.2,1006.1z"></path><path class="st3" d="M1114.3,1008.3c-0.8,0-1.9-0.7-2.3-1.4c-0.5-1-0.8-2-1-2.9c-0.4-3,0.9-5.8,2-7.5c2.3-3.5,5.2-4.3,6.8-4.4 c1.2-0.1,2.7,0.9,2.7,2.1c0,1.2-0.9,2-2.1,2c-0.1,0-2.2,0.4-3.7,2.7c-0.7,1-2.1,4.5-0.9,6.7 C1116.4,1006.8,1115.7,1008.3,1114.3,1008.3C1114.3,1008.3,1114.3,1008.3,1114.3,1008.3L1114.3,1008.3z"></path><path class="st0" d="M565.5,963.6c-5,0-11.1-1.3-18.2-4.6c-9.8-4.6-51.2-25-99.2-48.7c-54.6-27-116.6-57.5-143.5-70.5 c-18.8-9-18.2-22.9-17.6-36.3c0.2-4,0.4-8.2,0.1-12.8l0-0.5l2.3-26.2l15.9,1.4l-2.2,25.1c0.2,5.1,0,9.7-0.1,13.8 c-0.6,13.2-0.4,16.9,8.6,21.2c27,13,89,43.6,143.6,70.5c47.9,23.6,89.3,44.1,98.9,48.6c14,6.6,17.8,1.1,19.1-0.7 c1.4-2,2.2-4.6,2.2-7.4c0-3.6,0.2-9.9,0.3-17.2c0.3-12.4,0.6-29.3,0.4-33.1l16-1c0.3,4.2,0,16.9-0.4,34.5c-0.2,6.9-0.3,13.5-0.3,17 c0,6.1-1.8,11.8-5.2,16.6C583.5,956.8,577.1,963.6,565.5,963.6L565.5,963.6z"></path><path class="st4" d="M575,919c-0.1,4.1,0.2,4.3-0.3,21.7c-0.2,6.5-9.5,10-17.8,10"></path><path class="st3" d="M502.2,942.6c-1.2,0-3-1.1-3.6-2.2c-3.4-6.1-0.7-13,1.6-16.5c3.6-5.5,8.2-6.8,10.8-6.9c2-0.1,4.2,1.4,4.3,3.3 c0,1.9-1.4,3.2-3.3,3.2c-0.2,0-3.5,0.6-5.9,4.2c-1.1,1.6-3.3,7.1-1.5,10.5C505.6,940.2,504.4,942.6,502.2,942.6L502.2,942.6 L502.2,942.6z"></path><path class="st3" d="M508.6,946.2c-1.2,0-3-1.1-3.6-2.2c-0.9-1.5-1.3-3.1-1.5-4.7c-0.6-4.7,1.4-9.2,3.2-11.8 c3.6-5.5,8.2-6.8,10.8-6.9c2-0.1,4.2,1.4,4.3,3.3c0,1.9-1.4,3.2-3.3,3.2c-0.2,0-3.5,0.6-5.9,4.2c-1.1,1.6-3.3,7.1-1.5,10.5 C512,943.7,510.8,946.1,508.6,946.2C508.7,946.1,508.7,946.2,508.6,946.2L508.6,946.2z M349.2,866.3c-1.2,0-3-1.1-3.6-2.2 c-3.4-6.1-0.7-13,1.6-16.5c3.6-5.5,8.2-6.8,10.8-6.9c2-0.1,4.2,1.4,4.3,3.3c0,1.9-1.4,3.2-3.3,3.2c-0.2,0-3.5,0.6-5.9,4.2 c-1.1,1.6-3.3,7.1-1.5,10.5C352.6,863.9,351.4,866.3,349.2,866.3L349.2,866.3L349.2,866.3z"></path><path class="st3" d="M355.6,869.8c-1.2,0-3-1.1-3.6-2.2c-0.9-1.5-1.3-3.1-1.5-4.7c-0.6-4.7,1.4-9.2,3.2-11.8 c3.6-5.5,8.2-6.8,10.8-6.9c2-0.1,4.2,1.4,4.3,3.3c0,1.9-1.4,3.2-3.3,3.2c-0.2,0-3.5,0.6-5.9,4.2c-1.1,1.6-3.3,7.1-1.5,10.5 C359,867.4,357.8,869.8,355.6,869.8L355.6,869.8L355.6,869.8z"></path><path class="st5" d="M1430.9,867.4l-154.3,30.8l-124.2-60.9l0-10.8l155.1-30.1l123.7,60.9L1430.9,867.4z"></path><path class="st6" d="M245,743.8l340.6,162.8 M275.8,737.8l340.7,162.9 M306.6,731.8l341.7,163.4 M337.3,725.6l341.8,163.4  M368.5,719.8l340.5,162.8 M398.2,713.2l342.1,163.7 M429.3,707.3L771,870.7 M459.8,701l342.1,163.7 M491,695.2l341.9,163.6  M523.1,689.6L864,852.4 M554,683.6l341.2,163 M584.2,677.2L926,840.5 M615.8,671.5l341.1,162.9 M646.7,665.5l340.6,162.7  M677.5,659.5l340.7,162.7 M708.4,653.4l340.1,162.5 M739.3,647.4L1079.9,810 M770.3,641.4l341,162.9 M801.3,635.3l340,162.2  M832.3,629.3l340.5,162.3 M1150.8,766L497.1,893.4 M1124.4,750.1L475.5,876.4 M1069.2,725.2L423,851.3 M1042.2,712.7l-642.4,126  M1014.9,700.1l-642,125.3 M987.9,687.6L348.1,813.1 M960.8,675.1L313.8,802.2 M934.6,662.3L294,788 M906.6,650L255.8,777.8  M879.7,637.6L237.8,764.1"></path><path class="st7" d="M1109.1,782.4c0.4,6.3-0.6,40.7-0.7,50.9c0,4.3-1.2,8.5-3.7,12c-4.1,5.8-12.5,11.1-29,3.3 c-20.9-9.8-192.3-97-242.6-121.1c-18.5-8.9-12-22.8-13-43.3l2.2-22.7"></path><path class="st5" d="M1200.2,787.3l0,7.3c0,0.6-0.4,1.1-1,1.2L556.6,921.2L218.2,758.8l0-8.7c0-0.2,0.1-0.3,0.3-0.3L1199,786 C1199.6,786.1,1200.2,786.6,1200.2,787.3L1200.2,787.3z"></path><path class="st0" d="M1199.6,786.8L557.9,912.6c-0.2,0.1-0.5,0-0.7-0.1L218.3,750.6c-0.6-0.3-0.5-1.2,0.2-1.3l633.9-124 c0.2,0,0.5,0,0.7,0.1l346.6,160.3C1200.2,786,1200.1,786.7,1199.6,786.8L1199.6,786.8z"></path><g class="st8">	<path class="st9" d="M243.2,743l345.8,165.3 M273.6,736.8l346,165.5 M304.5,730.7l347.8,166.3 M337.3,725.6l345,165 M368.5,719.8  l344.8,164.9 M398.2,713.2l345.2,165.2 M429.3,707.3l345.4,165.3 M459.8,701l345.5,165.3 M491,695.2l341.9,163.6 M523.1,689.6  L864,852.4 M554,683.6l341.2,163 M584.2,677.2L926,840.5 M614.3,670.8l342.5,163.6 M644.7,664.5l342.6,163.6 M677.5,659.5  l343.8,164.2 M708.4,653.4l343.4,164 M739.3,647.4l343.6,164.1 M770.2,641.4l345,164.8 M801.3,635.3l343.4,163.8 M832.3,629.3  l344.3,164.1 M532.9,902.6L1180.8,775 M1151.2,762.8L497.6,890.2 M1124.4,750.1L475.5,876.4 M1098.8,737.3L452.2,863.1   M1069.2,725.2L423,851.3 M1042.2,712.7l-642.4,126 M1014.9,700.1l-642,125.3 M987.9,687.6L348.1,813.1 M960.8,675.1L313.8,802.2   M934.6,662.3L294,788 M906.6,650L270.1,775 M879.7,637.5L237.8,764.1"></path></g><path d="M659.5,661.3l0,26.4c0,0,5.3,25.8,18.7,36L617,694.6c-10.1-5.4-8.5-20.3,2.6-23.4L659.5,661.3L659.5,661.3z"></path><path class="st4" d="M1100.7,816.5c-0.2,4,0.2,4.2-0.3,21.1c-0.2,6.3-9.5,9.7-17.8,9.7"></path><path class="st3" d="M1051.8,852c-1.2,0-3-1.1-3.6-2.2c-3.4-6.1-0.7-13,1.6-16.5c3.6-5.5,8.2-6.8,10.8-6.9c1.9-0.1,4.2,1.4,4.3,3.3 c0,1.9-1.4,3.2-3.3,3.2c-0.2,0-3.5,0.6-5.9,4.2c-1.1,1.6-3.3,7.1-1.5,10.5C1055.1,849.6,1053.9,852,1051.8,852L1051.8,852z"></path><path class="st3" d="M1058.2,855.6c-1.2,0-3-1.1-3.6-2.2c-0.9-1.5-1.3-3.1-1.5-4.7c-0.6-4.7,1.4-9.2,3.2-11.8 c3.6-5.5,8.2-6.8,10.8-6.9c1.9-0.1,4.2,1.4,4.3,3.3c0,1.9-1.4,3.2-3.3,3.2c-0.2,0-3.5,0.6-5.9,4.2c-1.1,1.6-3.3,7.1-1.5,10.5 C1061.6,853.1,1060.4,855.5,1058.2,855.6L1058.2,855.6z"></path><path class="st10" d="M692.4,307.3c-14.9,3-26.9,17.7-26.8,32.9l1.9,361.3c0.1,15.2,12.2,25.1,27.1,22.2l143.3-28.5 c14.9-3,26.9-17.7,26.8-32.9L862.8,301c-0.1-15.2-12.2-25.1-27.1-22.1L692.4,307.3L692.4,307.3z"></path><path class="st5" d="M826,694.3l-141.7,28.2c-18.2,3.6-33-8.5-33.1-27.1L649.3,338c-0.1-18.6,14.6-36.6,32.8-40.2l141.7-25.2 c18.2-3.6,40,5.5,40.1,24.1l-5.2,357.3C858.9,672.6,844.2,690.7,826,694.3L826,694.3z"></path><path id="SVGID_3_" class="st11" d="M692.4,307.3c-14.9,3-26.9,17.7-26.8,32.9l1.9,361.3c0.1,15.2,12.2,25.1,27.1,22.2l143.3-28.5 c14.9-3,26.9-17.7,26.8-32.9L862.8,301c-0.1-15.2-12.2-25.1-27.1-22.1L692.4,307.3L692.4,307.3z"></path><path class="st12" d="M692.4,307.3c-14.9,3-26.9,17.7-26.8,32.9l1.9,361.3c0.1,15.2,12.2,25.1,27.1,22.2l143.3-28.5 c14.9-3,26.9-17.7,26.8-32.9L862.8,301c-0.1-15.2-12.2-25.1-27.1-22.1L692.4,307.3L692.4,307.3z"></path><path class="st5" d="M837,699.4l-141.7,28.2c-18.2,3.6-33-8.5-33.1-27.1l-1.8-357.3c-0.1-18.6,14.6-36.6,32.8-40.2l141.7-24.2 c18.2-3.6,33,4.5,33.1,23.1l1.8,357.3C869.9,677.8,855.2,695.8,837,699.4L837,699.4z"></path><path class="st3" d="M692.3,308.5c-14.9,3-26.9,17.7-26.8,32.9l1.9,357.3c0.1,15.2,12.2,25.1,27.1,22.2l143.3-28.5 c14.9-3,26.9-17.7,26.8-32.9l-1.9-357.3c-0.1-15.2-10.9-19.4-25.7-16.4L692.3,308.5L692.3,308.5z"></path><path d="M820.8,281.8c0,0-1.7,10.9-1.8,11.6c-1,4.4-4.5,7.9-8.9,8.8l-92,18.3c-4.3,0.9-8-1.4-9-5.3c-0.2-0.6-1.8-10.8-1.8-10.8"></path><path class="st4" d="M735.2,704.5l89.9-17.9"></path><path class="st3" d="M840.6,640.7l-138.4,27.5c-1.9,0.4-3.5-0.9-3.5-2.8l-0.2-34.3c0-1.9,1.5-3.8,3.4-4.2l138.4-27.5 c1.9-0.4,3.5,0.9,3.5,2.8l0.2,34.3C844,638.5,842.5,640.3,840.6,640.7z M839.2,586.3l-138.4,27.5c-1.9,0.4-3.5-0.9-3.5-2.8 l-0.2-34.3c0-1.9,1.5-3.8,3.4-4.2L839,544.9c1.9-0.4,3.5,0.9,3.5,2.8l0.2,34.3C842.7,584,841.1,585.9,839.2,586.3L839.2,586.3z"></path><path class="st13" d="M779.4,301.5l-29.5,5.8c-2.3,0.5-4.1-0.7-4.1-2.6s1.9-3.8,4.2-4.2l29.5-5.8c2.3-0.5,4.1,0.7,4.1,2.6 S781.7,301,779.4,301.5z"></path><path class="st14" d="M782.2,295c0,1.9-1.9,3.8-4.2,4.2l-29.5,5.8c-0.8,0.1-1.5,0.1-2.1-0.1"></path><path d="M688.1,341.5l-2.5,0.5l0.2-11.5l2.5-0.5L688.1,341.5z M682.9,334.4l-2.5,0.5l-0.1,8.3l2.5-0.5L682.9,334.4z M693.8,325.5 l-2.5,0.5l-0.2,14.9l2.5-0.5L693.8,325.5z M699.3,320l-2.5,0.5l-0.3,19.2l2.5-0.5L699.3,320z M704.8,315.2l-2.5,0.5l-0.4,22.8 l2.5-0.5L704.8,315.2z"></path><path class="st15" d="M655.5,410.8l-3.6,0.8c0.9-0.2,1.5-1.1,1.5-2.6l3.6-0.8C657,409.7,656.4,410.6,655.5,410.8z M644.3,365.7 l3.6-0.8c0.9-0.2,2.1,0.3,3.5,1.5l-3.6,0.8C646.5,366,645.2,365.5,644.3,365.7z"></path><g class="st16">	<g class="st16">		<path class="st5" d="M651.3,370.9l3.6-0.8c0.8,1.1,1.4,2.3,1.8,3.6l-3.6,0.8C652.7,373.3,652,372,651.3,370.9z"></path>	</g>	<path class="st5" d="M652.7,367.6l-1.3-1.2c-1.3-1.2-2.6-1.7-3.5-1.5l-3.6,0.8c0.9-0.2,2.1,0.3,3.5,1.5l1.3,1.2  c2.7,2.5,4.8,6.9,4.8,9.9l-0.5,30.6c0,1.5-0.6,2.4-1.5,2.6l3.6-0.8c0.9-0.2,1.5-1.1,1.5-2.6l0.5-30.6  C657.6,374.5,655.4,370.1,652.7,367.6z"></path></g><path class="st5" d="M649.1,368.4c2.7,2.5,4.8,6.9,4.8,9.9l-0.5,30.6c-0.1,3.1-2.3,3.5-5,1.1l-1.3-1.2c-2.7-2.4-4.8-6.9-4.8-9.9 l0.5-30.6c0.1-3,2.3-3.5,5-1.1L649.1,368.4z M654.5,472l-3.6,0.8c0.9-0.2,1.5-1.1,1.5-2.6l3.6-0.8C656,470.9,655.4,471.8,654.5,472z "></path><path class="st5" d="M651.8,428.8l-1.3-1.2c-1.3-1.2-2.6-1.7-3.5-1.5l-3.6,0.8c0.9-0.2,2.1,0.3,3.5,1.5l1.3,1.2 c2.7,2.5,4.8,6.9,4.8,9.9l-0.5,30.6c0,1.5-0.6,2.4-1.5,2.6l3.6-0.8c0.9-0.2,1.5-1.1,1.5-2.6l0.5-30.6 C656.6,435.8,654.5,431.3,651.8,428.8z"></path><path class="st5" d="M648.2,429.7c2.7,2.5,4.8,6.9,4.8,9.9l-0.5,30.6c-0.1,3.1-2.3,3.5-5,1.1l-1.3-1.2c-2.7-2.4-4.8-6.9-4.8-9.9 l0.5-30.6c0.1-3,2.3-3.5,5-1.1L648.2,429.7z"></path><path class="st17" d="M952.3,570.4L710,619.9l0.6-32.9l242.4-49.5L952.3,570.4z"></path><text transform="matrix(0.9812 -0.2004 -1.729914e-02 0.9999 710.2527 603.8596)" class="st18 st19">Phone</text><path class="st17" d="M953.4,623.8L711,673.3l0.6-32.9l242.4-49.5L953.4,623.8z"></path><text transform="matrix(0.9812 -0.2004 -1.729914e-02 0.9999 711.2728 657.2636)" class="st18 st19">Email</text><path class="st5" d="M422.9,979.2l-212.5,41.6L81.2,960.3l0-10l214.4-42l127.4,61L422.9,979.2z"></path><path class="st0" d="M424.3,970L210,1011.5L80.7,951l214.8-42.6L424.3,970z"></path><g class="st8">	<path class="st9" d="M105.5,942.2l134.4,64.2 M167.2,930.1l135.5,64.8 M198.7,924.4l134.8,64.4 M229,918.1l134.9,64.5 M260.4,912.3  l134.2,64.2 M187.2,1002.3L408.8,959 M381.2,945l-229.2,45 M353.2,932.3l-223.3,43.9 M325.9,920.1l-222.2,43.2 M136.4,936.1  l134.5,64.3"></path></g><path class="st4" d="M778.1,643.8l58.4-10.7 M784.8,588.7l51.6-10.1"></path><path class="st5" d="M1307.6,1010.5l0,9.5l-365.5,72.4L711.1,979.5l0-9.1L1307.6,1010.5z"></path><path class="st0" d="M1308.8,1009.7c0.4,0.2,0.3,0.8-0.1,0.8l-365.2,71.8c-0.2,0.1-0.5,0-0.7-0.1L710.9,970.7 c-0.4-0.2-0.3-0.8,0.1-0.8l368-71.7c0.1,0,0.2,0,0.3,0L1308.8,1009.7L1308.8,1009.7z"></path><g class="st8">	<path class="st9" d="M733.3,963l240.3,114.9 M765.2,957.4l240.4,115 M795.3,951l241.1,115.3 M826.2,945l240.9,115.2 M860.9,940.8  l236.4,113 M891.5,934.7l237.3,113.5 M918.5,926.8l241.3,115.4 M953.4,922.7l236.8,113.3 M985,917l236.1,113 M1046.9,904.8  l236.4,112.9 M918.1,1072.4l372.2-73.3 M1263.8,985.2L882.8,1060 M1236.4,973.1l-375.7,73.1 M1211.9,960l-374.5,72.9 M1181.8,948.2  l-373.6,72.9 M1156.1,935.7L785,1008.5 M1129.4,922.7l-371.3,72.4 M1103.8,910.3l-370.5,72.7 M1015.7,910.7l235.9,112.7"></path></g><path class="st0" d="M1431.7,857.1L1276,887.1l-123.7-60.5c-0.1-0.1-0.1-0.3,0-0.3l153.2-31.7L1431.7,857.1L1431.7,857.1z"></path><g class="st8">	<path class="st9" d="M1209.9,812.8l130.7,62.9 M1242.3,807.6l129.4,62.3 M1272.8,801.6l130.2,62.4 M1253.7,878l160.4-31.2   M1386.4,832.8L1226,864.1 M1356.5,820.5l-155.9,30.4 M1331.3,808l-157,30.2 M1179.2,819.3l130.3,62.6"></path></g><path class="st17" d="M1306.4,795.4l123.9,61.6c0.3,0.2,0.3,0.7-0.1,0.8c-14.2,2.7-153.9,29.2-154,29.2l-123.5-60 c-0.4-0.2-0.3-0.7,0.1-0.8C1167.2,823.2,1306.2,795.3,1306.4,795.4L1306.4,795.4z"></path><g>	<path class="st2" d="M890.7,836.6l0,10.2c0,0.1,0.1,0.2,0.2,0.2l44.2-8.3c0.1,0,0.2-0.1,0.2-0.2l0-10.2c0-0.1-0.1-0.2-0.2-0.2  l-44.2,8.3C890.7,836.4,890.7,836.5,890.7,836.6z"></path>	<path class="st2" d="M890.7,836.4V847L846,823.3l0-10.6L890.7,836.4z M846,812.7l44.7,23.7l44.6-8.3v0l-44.8-41.3L846,812.7z"></path>	<path class="st2" d="M890.7,827.2v9.2l41.4-8.3l0-7.7L890.7,827.2z"></path>	<path class="st2" d="M890.7,821.5l0,10.6L846,808.5l0-10.6L890.7,821.5z"></path>	<path class="st2" d="M846,797.9l44.7,23.7l44.5-8.3c0,0,0,0,0-0.1l-44.7-41.2L846,797.9z"></path>	<path class="st20" d="M932.1,812.9V806l-41.4,6.8v8.4"></path>	<path class="st2" d="M890.7,806.8l0,10.5c0,0,0,0.1,0.1,0.1l44.5-8.3c0,0,0.1,0,0.1-0.1l0-10.5c0,0,0-0.1-0.1-0.1L890.7,806.8  C890.7,806.7,890.7,806.7,890.7,806.8L890.7,806.8z"></path>	<path class="st2" d="M890.7,806.7l0,10.6L846,793.6l0-10.6L890.7,806.7z"></path>	<path class="st2" d="M846,783l44.7,23.7l44.2-8.3c0.1,0,0.2-0.2,0.1-0.3l-44.5-41L846,783z"></path>	<path class="st2" d="M890.7,797.9v8.4l41.4-7.6v-7.7L890.7,797.9z"></path>	<path class="st2" d="M890.7,791.9l0,10.6l44.6-8.3l0-10.6L890.7,791.9z"></path>	<path class="st2" d="M890.7,791.9l0,10.6L846,778.8v-10.6L890.7,791.9z"></path>	<path class="st2" d="M846,768.2l44.7,23.7l44.2-8.3c0.1,0,0.2-0.2,0.1-0.3l-44.5-41L846,768.2z"></path>	<path class="st2" d="M890.7,783.1v8.4l41.4-7.6v-7.7L890.7,783.1z"></path>	<path class="st2" d="M890.7,777l0,10.6l44.6-8.3v-10.6L890.7,777z"></path>	<path class="st2" d="M890.7,777.1l0,10.2c0,0.1-0.2,0.2-0.3,0.2L846.1,764c-0.1,0-0.1-0.1-0.1-0.2l0-10.2c0-0.1,0.2-0.2,0.3-0.2  l44.4,23.5C890.7,777,890.7,777,890.7,777.1z"></path>	<path class="st2" d="M890.7,767.3v9.7l41.4-7.9v-8.6L890.7,767.3z"></path>	<path class="st2" d="M890.7,762.2l0,10.6l44.6-8.3v-10.6L890.7,762.2z"></path>	<path class="st2" d="M890.8,762.2l0,10.4c0,0.1-0.1,0.1-0.1,0.1l-44.6-23.6c0,0,0,0,0-0.1l0-10.4c0-0.1,0.1-0.1,0.1-0.1  L890.8,762.2C890.7,762.2,890.8,762.2,890.8,762.2z"></path>	<path class="st2" d="M846.3,738.6l44.4,23.5l43.8-8.2c0.3,0,0.3-0.4,0.1-0.6l-44.1-27.5l-44.2,12.6  C846.2,738.4,846.2,738.6,846.3,738.6L846.3,738.6z"></path>	<path class="st2" d="M890.7,761.8l0-8.4l41.4-6.8l0.1,7.9l-41.4,7.8"></path>	<path class="st2" d="M890.8,754.9l0,6.9l-41.6-21.7v-6.9L890.8,754.9z"></path>	<path class="st2" d="M890.7,747.7l0,9.7c0,0.3,0.2,0.5,0.5,0.4l43.7-8.2c0.2,0,0.4-0.2,0.4-0.4l0-9.7c0-0.3-0.2-0.5-0.5-0.4  l-43.7,8.2C890.9,747.3,890.7,747.5,890.7,747.7z"></path>	<path class="st2" d="M846.6,723.9l44.1,23.3c0,0,0.1,0,0.1,0l43.7-8.2l0.1-0.5l-44-21c0,0-0.1,0-0.1,0l-43.8,5.9  C846.5,723.6,846.4,723.8,846.6,723.9L846.6,723.9z"></path>	<g id="XMLID_147_">		<path id="XMLID_152_" class="st2" d="M888.9,722.8l-23.8-11.9c-0.4-0.2-0.8,0-0.8,0.4l0,15.3c0,0.2,0.1,0.4,0.3,0.5l23.8,11.8   c0.4,0.2,0.8,0,0.8-0.4l0-15.1C889.2,723.1,889.1,722.9,888.9,722.8z"></path>		<path id="XMLID_150_" class="st2" d="M864.6,710.4l25.6-2.8c0,0,0.1,0,0.1,0l24.9,10.6c0.1,0,0.1,0.2,0,0.2l-25.8,4.5   c0,0-0.1,0-0.1,0l-24.6-12.3C864.5,710.6,864.5,710.4,864.6,710.4L864.6,710.4z"></path>		<path id="XMLID_148_" class="st2" d="M889.8,722.9l24.7-4.9c0.4,0,0.9,0.3,0.9,0.7l0.1,15.2c0,0.3-0.2,0.5-0.6,0.6l-24.7,4.6   c-0.4,0-0.9-0.3-0.9-0.7l0-14.9C889.2,723.2,889.5,723,889.8,722.9L889.8,722.9z"></path>	</g>	<g id="XMLID_139_">		<path id="XMLID_145_" class="st2" d="M888.6,710.3L876,704c-0.3-0.2-0.7,0-0.7,0.3l0,8c0,0.1,0.1,0.3,0.2,0.4l12.6,6.2   c0.3,0.2,0.7,0,0.7-0.3l0-7.9C888.9,710.6,888.8,710.4,888.6,710.3z"></path>	</g>	<path id="XMLID_128_" class="st2" d="M893.2,707.3l0-6.2c0-0.1-0.1-0.3-0.2-0.3l-7.2-2.6c-0.2-0.1-0.5,0-0.5,0.3l0,6.3  c0,0.1,0,0.2,0.1,0.2c0.5,0.6,3.6,3.6,7.5,2.6C893.1,707.6,893.2,707.4,893.2,707.3L893.2,707.3z"></path>	<path id="XMLID_105_" class="st2" d="M893.3,701c0,0.8-1.8,0.8-4.1,0c-2.2-0.8-4.1-2.1-4.1-2.9c0-0.8,1.8-0.8,4.1,0  C891.5,698.9,893.3,700.2,893.3,701z"></path></g><g>	<path class="st2" d="M333.4,775.8l0,10.2c0,0.1,0.1,0.2,0.2,0.2l44.2-8.3c0.1,0,0.2-0.1,0.2-0.2l0-10.2c0-0.1-0.1-0.2-0.2-0.2  l-44.2,8.3C333.5,775.6,333.4,775.7,333.4,775.8z"></path>	<path class="st2" d="M333.5,775.6v10.6l-44.7-23.7l0-10.6L333.5,775.6z M288.7,751.9l44.7,23.7l44.6-8.3v0L333.3,726L288.7,751.9z"></path>	<path class="st2" d="M333.4,766.4v9.2l41.4-8.3l0-7.7L333.4,766.4z"></path>	<path class="st2" d="M333.5,760.7l0,10.6l-44.7-23.7l0-10.6L333.5,760.7z"></path>	<path class="st2" d="M288.7,737.1l44.7,23.7l44.5-8.3c0,0,0,0,0-0.1l-44.7-41.2L288.7,737.1z"></path>	<path class="st20" d="M374.9,752.1v-6.9l-41.4,6.8v8.4"></path>	<path class="st2" d="M333.5,746l0,10.5c0,0,0,0.1,0.1,0.1l44.5-8.3c0,0,0.1,0,0.1-0.1l0-10.5c0,0,0-0.1-0.1-0.1L333.5,746  C333.5,745.9,333.5,745.9,333.5,746L333.5,746z"></path>	<path class="st2" d="M333.5,745.9l0,10.6l-44.7-23.7l0-10.6L333.5,745.9z"></path>	<path class="st2" d="M288.8,722.2l44.7,23.7l44.2-8.3c0.1,0,0.2-0.2,0.1-0.3l-44.5-41L288.8,722.2z"></path>	<path class="st2" d="M333.5,737.1v8.4l41.4-7.6v-7.7L333.5,737.1z"></path>	<path class="st2" d="M333.5,731.1l0,10.6l44.6-8.3l0-10.6L333.5,731.1z"></path>	<path class="st2" d="M333.5,731.1l0,10.6L288.8,718v-10.6L333.5,731.1z"></path>	<path class="st2" d="M288.8,707.4l44.7,23.7l44.2-8.3c0.1,0,0.2-0.2,0.1-0.3l-44.5-41L288.8,707.4z"></path>	<path class="st2" d="M333.5,722.3v8.4l41.4-7.6v-7.7L333.5,722.3z"></path>	<path class="st2" d="M333.5,716.2l0,10.6l44.6-8.3v-10.6L333.5,716.2z"></path>	<path class="st2" d="M333.5,716.3l0,10.2c0,0.1-0.2,0.2-0.3,0.2l-44.4-23.5c-0.1,0-0.1-0.1-0.1-0.2l0-10.2c0-0.1,0.2-0.2,0.3-0.2  l44.4,23.5C333.5,716.2,333.5,716.2,333.5,716.3z"></path>	<path class="st2" d="M333.5,706.5v9.7l41.4-7.9v-8.6L333.5,706.5z"></path>	<path class="st2" d="M333.5,701.4l0,10.6l44.6-8.3V693L333.5,701.4z"></path>	<path class="st2" d="M333.5,701.4l0,10.4c0,0.1-0.1,0.1-0.1,0.1l-44.6-23.6c0,0,0,0,0-0.1l0-10.4c0-0.1,0.1-0.1,0.1-0.1  L333.5,701.4C333.5,701.4,333.5,701.4,333.5,701.4z"></path>	<path class="st2" d="M289.1,677.8l44.4,23.5l43.8-8.2c0.3,0,0.3-0.4,0.1-0.6L333.3,665l-44.2,12.6C289,677.6,289,677.8,289.1,677.8  L289.1,677.8z"></path>	<path class="st2" d="M333.5,701l0-8.4l41.4-6.8l0.1,7.9l-41.4,7.8"></path>	<path class="st2" d="M333.5,694.1l0,6.9l-41.6-21.7v-6.9L333.5,694.1z"></path>	<path class="st2" d="M333.5,686.9l0,9.7c0,0.3,0.2,0.5,0.5,0.4l43.7-8.2c0.2,0,0.4-0.2,0.4-0.4l0-9.7c0-0.3-0.2-0.5-0.5-0.4  l-43.7,8.2C333.7,686.5,333.5,686.7,333.5,686.9z"></path>	<path class="st2" d="M289.4,663.1l44.1,23.3c0,0,0.1,0,0.1,0l43.7-8.2l0.1-0.5l-44-21c0,0-0.1,0-0.1,0l-43.8,5.9  C289.2,662.8,289.2,663.1,289.4,663.1L289.4,663.1z"></path>	<g id="XMLID_00000042708232621450139840000013280256755138384047_">		<path id="XMLID_00000016753480509399143110000003094887030868875652_" class="st2" d="M331.7,662l-23.8-11.9   c-0.4-0.2-0.8,0-0.8,0.4l0,15.3c0,0.2,0.1,0.4,0.3,0.5l23.8,11.8c0.4,0.2,0.8,0,0.8-0.4l0-15.1C332,662.3,331.9,662.1,331.7,662z"></path>		<path id="XMLID_00000016782648739580944350000001389982321129432474_" class="st2" d="M307.4,649.6l25.6-2.8c0,0,0.1,0,0.1,0   l24.9,10.6c0.1,0,0.1,0.2,0,0.2l-25.8,4.5c0,0-0.1,0-0.1,0l-24.6-12.3C307.2,649.8,307.3,649.6,307.4,649.6L307.4,649.6z"></path>		<path id="XMLID_00000137840925003175297700000011394903464244154510_" class="st2" d="M332.6,662.1l24.7-4.9   c0.4,0,0.9,0.3,0.9,0.7l0.1,15.2c0,0.3-0.2,0.5-0.6,0.6l-24.7,4.6c-0.4,0-0.9-0.3-0.9-0.7l0-14.9   C332,662.4,332.2,662.2,332.6,662.1L332.6,662.1z"></path>	</g>	<g id="XMLID_00000127754079986100398230000013675969798598246528_">		<path id="XMLID_00000093874198652959896750000013895796972427338372_" class="st2" d="M331.4,649.5l-12.6-6.3   c-0.3-0.2-0.7,0-0.7,0.3l0,8c0,0.1,0.1,0.3,0.2,0.4l12.6,6.2c0.3,0.2,0.7,0,0.7-0.3l0-7.9C331.7,649.8,331.6,649.6,331.4,649.5z"></path>	</g>	<path id="XMLID_00000003092827746027874520000014347482948382992039_" class="st2" d="M336,646.5l0-6.2c0-0.1-0.1-0.3-0.2-0.3  l-7.2-2.6c-0.2-0.1-0.5,0-0.5,0.3l0,6.3c0,0.1,0,0.2,0.1,0.2c0.5,0.6,3.6,3.6,7.5,2.6C335.9,646.8,336,646.7,336,646.5L336,646.5z"></path>	<path id="XMLID_00000067203893488792704600000016272452850355862948_" class="st2" d="M336.1,640.2c0,0.8-1.8,0.8-4.1,0  c-2.2-0.8-4.1-2.1-4.1-2.9c0-0.8,1.8-0.8,4.1,0C334.3,638.1,336.1,639.4,336.1,640.2z"></path></g><path class="st21" d="M925.4,572.1l0.2-0.3L925.4,572.1z"></path><ellipse cx="870" cy="1010.5" rx="22.3" ry="6.1"></ellipse><ellipse transform="matrix(0.8576 -0.5144 0.5144 0.8576 -453.8385 274.2042)" cx="268.2" cy="956.6" rx="22.3" ry="6.1"></ellipse><path class="st3" d="M848.2,964c2.1-0.1,2.1-0.1,3.1-0.1c2.1,0.1,2.1,0.1,3.2,0.3c2.1,0.4,2.2,0.4,3.3,0.7c2.1,0.7,2.2,0.7,3.4,1.2 c2.1,1,2.2,1.1,3.5,1.8c1.9,1.3,2.2,1.5,3.5,2.6c1.8,1.7,2.1,1.9,3.3,3.5c-4.1-5.1-13.3-5.9-23.5-1.3c-0.1,0.1-0.2,0-0.3-0.1 c-1.1-4.8-1.8-7.3-2.2-8c-0.1-0.1,0-0.2,0.1-0.3C846.5,964.2,847.5,964.1,848.2,964"></path><path class="st3" d="M824,985.3c0.5-2.4,0.6-2.7,1.3-4.7c1-2.2,1.1-2.5,2-4.1c1.3-2,1.4-2.2,2.5-3.4c1.8-1.9,3.6-3.6,5.8-5 c2-1.2,2-1.2,3.2-1.7c2.1-0.9,2.1-0.9,3.2-1.2c2.1-0.6,2.1-0.6,3.1-0.8l0.3-0.1c0.3,0.3,0.7,0.8,2.5,8.5 c-13.5,0.2-22.5,5.2-24.1,13.5L824,985.3"></path><path class="st3" d="M842.8,1014.2c-2.1-0.7-2.2-0.7-3.4-1.2c-2.1-1-2.2-1.1-3.5-1.8c-1.9-1.3-2.2-1.5-3.5-2.6 c-1.8-1.7-2-1.9-3.3-3.5c-2-2.7-2.5-3.6-3.8-6.8c-0.8-2.3-0.9-2.8-1.3-5.2c-0.1-0.8-0.2-1.9-0.2-2.7c0-2.7,0-2.7,0.2-4.1 c1.7-8.3,10.7-13.4,24.1-13.5c-8.5,17.9-9.2,40.2-3.4,41.8C844,1014.5,843.3,1014.4,842.8,1014.2"></path><path class="st3" d="M867.9,1008.9c-1.8,1.4-1.9,1.5-3,2.2c-2,1.2-2,1.2-3.2,1.7c-2.1,0.9-2.1,0.9-3.2,1.2c-2.1,0.6-2.1,0.6-3.1,0.8 c-2.1,0.3-2.1,0.3-3.1,0.4c-2.1,0.1-2.1,0.1-3.1,0.1c-2.1-0.1-2.1-0.1-3.2-0.3l-1.5-0.3c-6.8-2.4-3.8-27,3.4-41.8 c18.6,9,28.4,26.6,22.5,33.7C869.7,1007.3,868.7,1008.2,867.9,1008.9"></path><path class="st3" d="M871.6,974.1c2,2.7,2.5,3.6,3.8,6.8c0.8,2.3,0.9,2.8,1.3,5.2c0.1,0.8,0.2,1.9,0.2,2.7c0,2.5,0,2.9-0.4,5.1 c-0.5,2.4-0.6,2.7-1.3,4.7c-1,2.2-1.1,2.5-2,4.1c-1.3,2-1.4,2.2-2.5,3.4l-0.4,0.4c6.2-8-5.5-25.7-22.5-33.7 C858.1,968.2,867.5,968.9,871.6,974.1"></path><path class="st14" d="M987.2,862.4l19.9-2.7"></path><g>	<g class="st16">		<path class="st2" d="M611.2,739.1l85.3-16.6c0.2,0,0.4,0.1,0.4,0.3l-0.3,134.2c0,0.1-0.1,0.2-0.3,0.3L611,873.8   c-0.2,0-0.4-0.1-0.4-0.3l0.3-134.2C610.9,739.2,611,739.1,611.2,739.1z"></path>		<path class="st2" d="M504.1,690.8l84-15.7l108.7,47.3v0l-85.9,16.7L504,691C503.9,690.9,504,690.8,504.1,690.8L504.1,690.8z"></path>		<path class="st2" d="M610.9,739.3l-0.3,134.2c0,0.2-0.2,0.3-0.4,0.2l-106.6-48c-0.1,0-0.1-0.1-0.1-0.2l0.3-134.2   c0-0.2,0.2-0.3,0.4-0.2l106.6,48C610.9,739.1,610.9,739.2,610.9,739.3z"></path>	</g>	<g class="st16">		<path class="st22" d="M582.6,755.4l0.1-20.8l20.6,9.5l-0.1,20.8L582.6,755.4z"></path>	</g>	<g class="st16">		<path class="st22" d="M582.5,779.1l0.1-20.8l20.7,9.5l-0.1,20.8L582.5,779.1z"></path>	</g>	<g class="st16">		<path class="st22" d="M582.5,802.9l0.1-20.8l20.7,9.5l-0.1,20.8L582.5,802.9z"></path>	</g>	<g class="st16">		<path class="st22" d="M582.5,826.6l0.1-20.8l20.6,9.5l-0.1,20.8L582.5,826.6z"></path>	</g>	<g class="st16">		<path class="st22" d="M582.5,850.4l0.1-20.8l20.7,9.5l-0.1,20.8L582.5,850.4z"></path>	</g>	<g class="st16">		<path class="st22" d="M558.4,744.6l0.1-20.8l20.6,9.5l-0.1,20.8L558.4,744.6z"></path>	</g>	<g class="st16">		<path class="st22" d="M558.5,768.3l0.1-20.8l20.7,9.4l-0.1,20.8L558.5,768.3z"></path>	</g>	<g class="st16">		<path class="st22" d="M558.5,792.1l0.1-20.8l20.7,9.5l-0.1,20.8L558.5,792.1z"></path>	</g>	<g class="st16">		<path class="st22" d="M558.5,815.8l0.1-20.8l20.7,9.5l-0.1,20.8L558.5,815.8z"></path>	</g>	<g class="st16">		<path class="st22" d="M558.6,839.6l0.1-20.8l20.6,9.5l-0.1,20.8L558.6,839.6z"></path>	</g>	<g class="st16">		<path class="st22" d="M534.8,733.8l0.1-20.8l20.6,9.5l-0.1,20.8L534.8,733.8z"></path>	</g>	<g class="st16">		<path class="st22" d="M534.8,757.5l0.1-20.8l20.6,9.5l-0.1,20.8L534.8,757.5z"></path>	</g>	<g class="st16">		<path class="st22" d="M534.9,781.3l0.1-20.8l20.7,9.5l-0.1,20.8L534.9,781.3z"></path>	</g>	<g class="st16">		<path class="st22" d="M534.9,805l0.1-20.8l20.7,9.5l-0.1,20.8L534.9,805z"></path>	</g>	<g class="st16">		<path class="st22" d="M535,828.8L535,808l20.7,9.5l-0.1,20.8L535,828.8z"></path>	</g>	<g class="st16">		<path class="st22" d="M511.3,723l0.1-20.8l20.6,9.5l-0.1,20.8L511.3,723z"></path>	</g>	<g class="st16">		<path class="st22" d="M511.3,746.7l0.1-20.8l20.6,9.5l-0.1,20.8L511.3,746.7z"></path>	</g>	<g class="st16">		<path class="st22" d="M511.3,770.5l0.1-20.8l20.6,9.5l-0.1,20.8L511.3,770.5z"></path>	</g>	<g class="st16">		<path class="st22" d="M511.4,794.2l0.1-20.8l20.6,9.5l-0.1,20.8L511.4,794.2z"></path>	</g>	<g class="st16">		<path class="st22" d="M511.4,817.9l0.1-20.8l20.7,9.5l-0.1,20.8L511.4,817.9z"></path>	</g>	<g class="st16">		<path class="st2" d="M582.1,663.5l-54,9.6c-0.8,0.1-1,1.2-0.2,1.6l83.4,37.6c1,0.4,2,0.6,3.1,0.4l57.3-10.5c0.8-0.1,1-1.2,0.2-1.6   l-89.2-36.9C582.5,663.5,582.4,663.5,582.1,663.5L582.1,663.5z"></path>	</g></g><g class="st23">	<ellipse class="st24" cx="-387.5" cy="-934.2" rx="10.2" ry="9.7"></ellipse>			<ellipse transform="matrix(0.6057 -0.7957 0.7957 0.6057 592.6277 -676.8018)" class="st25" cx="-386.6" cy="-936.4" rx="2.2" ry="2.3"></ellipse></g><path class="st0" d="M821.3,314.5l26.7-5.3l0.5-10.9l-27,5.4L821.3,314.5z"></path><path d="M826.1,302.5l-0.2,11.6l22-4.6l0.2-11.6L826.1,302.5z"></path><path d="M819.9,307.2l-0.1,4.6l-1.7,0.4l0.1-4.6L819.9,307.2z M849,297.5l-0.2,12.1l-27.9,5.8l0.2-12.1L849,297.5L849,297.5z  M847.8,298.7l-25.6,5.3l-0.2,10l25.6-5.3L847.8,298.7z"></path><g>	<rect x="714.1" y="491.8" transform="matrix(0.989 -0.1477 0.1477 0.989 -65.1197 111.1945)" width="4.2" height="4.7"></rect>	<rect x="754.3" y="485" transform="matrix(0.989 -0.1477 0.1477 0.989 -63.5469 117.7945)" width="14.3" height="3.6"></rect>	<rect x="756.6" y="500.2" transform="matrix(0.989 -0.1477 0.1477 0.989 -65.7695 118.297)" width="14.3" height="3.6"></rect>	<rect x="755.5" y="493" transform="matrix(0.989 -0.1477 0.1477 0.989 -64.7248 117.9146)" width="12.4" height="3.6"></rect>	<polygon points="744.3,491.2 739.9,491.9 744.6,500 747.6,487.1 751.6,486.5 747.3,506.4 743.8,507 733.9,489.1 743.7,487.7  "></polygon>	<rect x="807.8" y="477" transform="matrix(0.989 -0.1477 0.1477 0.989 -61.7805 125.6075)" width="14.3" height="3.6"></rect>	<rect x="810.1" y="492.2" transform="matrix(0.989 -0.1477 0.1477 0.989 -64.0031 126.11)" width="14.3" height="3.6"></rect>	<rect x="809" y="485" transform="matrix(0.989 -0.1477 0.1477 0.989 -62.9585 125.7275)" width="12.4" height="3.6"></rect>	<polygon points="798.2,483.2 793.9,483.8 798.6,492 801.5,479 805.6,478.4 801.3,498.4 797.8,498.9 787.9,481.1 797.7,479.6  "></polygon>	<rect x="715.7" y="499.1" transform="matrix(0.989 -0.1477 0.1477 0.989 -66.7008 111.5519)" width="4.2" height="11.7"></rect>	<path d="M770.8,483.6l0.5,3.4l10-1.5c0,0,4.3,1.9,0.8,5.2l-10,1.5l1.5,10.2l3.3-0.5c0,0-0.9-6.1-0.9-6.3c0-0.2,4.9-0.7,4.9-0.7  l5.3,5.6l3.6-0.5l-5.5-6.5c0,0,3.2-2.2,2.4-6.2c0,0-0.1-4-4.7-5.1L770.8,483.6z"></path>	<path d="M731.1,501.2l-4.2,0.6c-1.1,0.2-2.2-0.6-2.3-1.7l0,0c-0.2-1.1,0.6-2.2,1.7-2.3l4.2-0.6c1.1-0.2,2.2,0.6,2.3,1.7l0,0  C733,500,732.2,501.1,731.1,501.2z"></path></g><path d="M755.4,401.2c-16.8,2.5-28.1,19.6-25.3,38.1c2.8,18.5,18.6,31.5,35.4,29c16.8-2.5,28.1-19.6,25.3-38.1 S772.1,398.7,755.4,401.2z M738.2,417.7l7.6-1.1l3.1,6.3l-7.8,1.2L738.2,417.7z M774.3,419.1l-0.1,0.5l-7,38.3l-9.6,1.4l-14.2-31.8 l7.4-1.1l8,15.8l4.7-21.5l-10.9,1.6l-1-6.7l23.8-3.6L774.3,419.1z"></path><g>	<polygon id="XMLID_5092_" class="st26" points="1328,804.2 1283.5,829.9 1217.6,791.9 1262.2,766.2  "></polygon>	<polygon id="XMLID_4795_" class="st0" points="1328,807.6 1283.5,833.2 1217.6,795.2 1262.2,769.6  "></polygon>	<polygon id="XMLID_5088_" class="st26" points="1217.6,791.9 1217.6,830.7 1283.5,868.7 1283.5,829.9  "></polygon>	<polygon id="XMLID_5190_" class="st26" points="1241.5,808.1 1254.3,815.5 1292.9,792.7 1280.5,785.5  "></polygon>	<path id="XMLID_4797_" class="st27" d="M1328,803.6l-65.8-38l0,0l-44.5,25.6l-0.5,0.3v0.6V831l65.8,38l0.5,0.3l0.5-0.3l44.5-25.6  v-38.9v-0.6L1328,803.6z M1282.9,867.8l-64.8-37.4v-37.6l64.8,37.4V867.8z M1218.7,791.9l43.5-25l64.8,37.4l-17.9,10.3l-25.6,14.7  L1218.7,791.9z"></path>	<path id="XMLID_5194_" class="st28" d="M1294.9,790l-14-8.2l-39.8,23.1l-0.4-0.2v0.5l-0.4,0.2l0.4,0.2v38.9l14.4,8.3v-39.4  L1294.9,790z M1280.9,782.8l12.4,7.3l-38.6,22.7l-12.8-7.4L1280.9,782.8z M1241.6,844.1v-38l12.8,7.4v38L1241.6,844.1z"></path>	<g id="XMLID_5150_">		<g id="XMLID_5111_">			<path id="XMLID_5115_" class="st0" d="M1259.8,783.3l-9.3,5.4l11.1,6.4l9.3-5.4L1259.8,783.3z M1261.4,792.4l-6.2-3.6l4.8-2.7    l6.2,3.6L1261.4,792.4z"></path>			<path id="XMLID_5112_" class="st27" d="M1261.4,793l-7.2-4.2l5.7-3.3l7.2,4.2L1261.4,793z M1256.2,788.8l5.3,3l3.8-2.2l-5.3-3    L1256.2,788.8z"></path>		</g>		<path id="XMLID_5087_" class="st27" d="M1261.6,795.7l-12.1-7l10.3-6l12.1,7L1261.6,795.7z M1251.5,788.7l10.1,5.8l8.4-4.8   l-10.1-5.8L1251.5,788.7z"></path>	</g>	<g id="XMLID_5138_">		<path id="XMLID_5139_" class="st27" d="M1308.1,808.6l-0.5-0.8l2-1.1c0.3-0.2,0.5-0.4,0.5-0.6c0-0.2-0.2-0.4-0.5-0.6l-0.3-0.1   c-0.8-0.5-2.2-0.5-3,0l-0.2,0.1c-1.1,0.6-2.9,0.6-4,0l-0.3-0.1c-0.6-0.4-1-0.9-1-1.4s0.3-1.1,1-1.4l0.2-0.1   c0.3-0.2,0.5-0.4,0.5-0.6s-0.2-0.4-0.5-0.6l-0.2-0.1c-0.8-0.5-2.2-0.5-3,0l-0.2,0.1c-1.1,0.6-2.9,0.6-4,0c-0.6-0.4-1-0.9-1-1.4   c0-0.6,0.3-1.1,1-1.4l0.2-0.1c0.3-0.2,0.5-0.4,0.5-0.6c0-0.2-0.2-0.4-0.5-0.6l-0.2-0.1c-0.8-0.5-2.2-0.5-3,0l-2,1.1l-0.5-0.8   l2-1.1c1.1-0.6,2.9-0.6,4,0l0.2,0.1c0.6,0.4,1,0.9,1,1.4c0,0.6-0.3,1.1-1,1.4l-0.2,0.1c-0.3,0.2-0.5,0.4-0.5,0.6   c0,0.2,0.2,0.4,0.5,0.6c0.8,0.5,2.2,0.5,3,0l0.2-0.1c1.1-0.6,2.9-0.6,4,0l0.2,0.1c0.6,0.4,1,0.9,1,1.4s-0.3,1.1-1,1.4l-0.2,0.1   c-0.3,0.2-0.5,0.4-0.5,0.6s0.2,0.4,0.5,0.6l0.3,0.1c0.8,0.5,2.2,0.5,3,0l0.2-0.1c1.1-0.6,2.9-0.6,4,0l0.3,0.1c0.6,0.4,1,0.9,1,1.4   c0,0.6-0.3,1.1-1,1.4L1308.1,808.6z"></path>	</g>	<g id="XMLID_5145_">		<polygon id="XMLID_5149_" class="st0" points="1285.3,821 1274,814.5 1289.8,805.4 1301.1,812   "></polygon>		<path id="XMLID_5146_" class="st27" d="M1285.3,821.6l-12.3-7.1l16.7-9.7l12.3,7.1L1285.3,821.6z M1275,814.5l10.3,6l14.8-8.5   l-10.3-6L1275,814.5z"></path>	</g>	<g id="XMLID_5140_">		<polygon id="XMLID_5144_" class="st0" points="1285.5,818.4 1278.6,814.5 1289.7,808.1 1296.5,812   "></polygon>		<path id="XMLID_5141_" class="st27" d="M1285.5,819l-7.8-4.5l12-7l7.8,4.5L1285.5,819z M1279.6,814.5l5.9,3.4l10.1-5.8l-5.9-3.4   L1279.6,814.5z"></path>	</g>	<g id="XMLID_5084_">		<g id="XMLID_5107_">			<path id="XMLID_5108_" class="st27" d="M1244.6,795.9c-2.3,0-4.6-0.5-6.4-1.5c-1.8-1-2.8-2.4-2.8-4c0-1.5,1-2.9,2.8-4    c3.5-2,9.2-2,12.7,0c1.8,1,2.8,2.4,2.8,4c0,1.5-1,2.9-2.8,4C1249.2,795.4,1246.9,795.9,1244.6,795.9z M1244.6,785.9    c-2.1,0-4.3,0.5-5.9,1.4c-1.5,0.9-2.3,2-2.3,3.1c0,1.2,0.8,2.3,2.3,3.1c3.2,1.9,8.5,1.9,11.8,0c1.5-0.9,2.3-2,2.3-3.1    c0-1.2-0.8-2.3-2.3-3.1C1248.8,786.4,1246.7,785.9,1244.6,785.9z"></path>		</g>		<g id="XMLID_5103_">			<path id="XMLID_5104_" class="st27" d="M1244.6,794.4c-1.6,0-3.3-0.4-4.5-1.1c-1.3-0.7-2-1.8-2-2.9c0-1.1,0.7-2.1,2-2.9    c2.5-1.4,6.5-1.4,9,0c1.3,0.7,2,1.8,2,2.9c0,1.1-0.7,2.1-2,2.9C1247.8,794,1246.2,794.4,1244.6,794.4z M1244.6,787.4    c-1.5,0-2.9,0.3-4,1c-1,0.6-1.5,1.3-1.5,2c0,0.7,0.5,1.5,1.5,2c2.2,1.3,5.8,1.3,8,0c1-0.6,1.5-1.3,1.5-2c0-0.7-0.5-1.5-1.5-2    C1247.5,787.7,1246,787.4,1244.6,787.4z"></path>		</g>	</g>	<g id="XMLID_5151_">		<path id="XMLID_5158_" class="st27" d="M1296.9,801.7l-0.5-0.9l2.2-1.2c0.3-0.2,0.5-0.4,0.5-0.7c0-0.2-0.2-0.5-0.5-0.7l-0.3-0.2   c-0.9-0.5-2.4-0.5-3.3,0l-0.2,0.1c-1.2,0.7-3.2,0.7-4.4,0l-0.3-0.2c-0.7-0.4-1.1-1-1.1-1.6c0-0.6,0.4-1.2,1.1-1.6l0.2-0.1   c0.3-0.2,0.5-0.4,0.5-0.7c0-0.2-0.2-0.5-0.5-0.7l-0.2-0.1c-0.9-0.5-2.4-0.5-3.3,0l-0.2,0.1c-1.2,0.7-3.2,0.7-4.4,0   c-0.7-0.4-1.1-1-1.1-1.6c0-0.6,0.4-1.2,1.1-1.6l0.2-0.1c0.3-0.2,0.5-0.4,0.5-0.7c0-0.2-0.2-0.5-0.5-0.7l-0.2-0.1   c-0.9-0.5-2.4-0.5-3.3,0l-2.2,1.2l-0.5-0.9l2.2-1.2c1.2-0.7,3.2-0.7,4.4,0l0.2,0.1c0.7,0.4,1.1,1,1.1,1.6c0,0.6-0.4,1.2-1.1,1.6   l-0.2,0.1c-0.3,0.2-0.5,0.4-0.5,0.7c0,0.2,0.2,0.5,0.5,0.7c0.9,0.5,2.4,0.5,3.3,0l0.2-0.1c1.2-0.7,3.2-0.7,4.4,0l0.2,0.1   c0.7,0.4,1.1,1,1.1,1.6c0,0.6-0.4,1.2-1.1,1.6l-0.2,0.1c-0.3,0.2-0.5,0.4-0.5,0.7c0,0.2,0.2,0.5,0.5,0.7l0.3,0.2   c0.9,0.5,2.4,0.5,3.3,0l0.2-0.1c1.2-0.7,3.2-0.7,4.4,0l0.3,0.2c0.7,0.4,1.1,1,1.1,1.6c0,0.6-0.4,1.2-1.1,1.6L1296.9,801.7z"></path>	</g>	<g id="XMLID_5175_">		<g id="XMLID_5159_">			<polygon id="XMLID_5165_" class="st0" points="1262.6,850.2 1249.7,842.8 1249.7,823 1262.6,830.4    "></polygon>			<path id="XMLID_5166_" class="st27" d="M1263,850.9l-13.6-7.9v-20.7l13.6,7.9V850.9z M1250.1,842.5l12.1,7v-18.9l-12.1-7V842.5z"></path>		</g>		<g id="XMLID_5160_">			<polygon id="XMLID_5161_" class="st0" points="1261.3,847.6 1252.8,842.7 1252.8,828.6 1261.3,833.5    "></polygon>			<path id="XMLID_5162_" class="st27" d="M1260.8,846.8l-9.2-5.3v-15.1l9.2,5.3V846.8z M1252.3,841l7.7,4.4v-13.2l-7.7-4.4V841z"></path>		</g>	</g>	<g id="XMLID_5170_">		<path id="XMLID_5171_" class="st0" d="M1235.6,831c0,3.2-2.3,4.5-5,2.9c-2.8-1.6-5-5.5-5-8.7c0-3.2,2.3-4.5,5-2.9   C1233.3,823.9,1235.6,827.8,1235.6,831z"></path>		<g id="XMLID_5169_">			<path id="XMLID_5176_" class="st27" d="M1229.3,832.5c-3.4-2-6.2-6.7-6.2-10.7s2.8-5.5,6.2-3.6s6.2,6.7,6.2,10.7    S1232.7,834.5,1229.3,832.5z M1229.3,819.1c-3-1.7-5.5-0.3-5.5,3.2c0,3.5,2.5,7.7,5.5,9.5c3,1.7,5.5,0.3,5.5-3.2    C1234.7,825.1,1232.3,820.8,1229.3,819.1z"></path>		</g>		<path id="XMLID_5172_" class="st27" d="M1229.3,830.7c-2.5-1.4-4.6-5-4.6-7.9c0-2.9,2-4.1,4.6-2.6c2.5,1.4,4.6,5,4.6,7.9   C1233.8,831,1231.8,832.2,1229.3,830.7z M1229.3,821c-2.1-1.2-3.9-0.2-3.9,2.2c0,2.5,1.7,5.5,3.9,6.7c2.1,1.2,3.9,0.2,3.9-2.2   C1233.1,825.2,1231.4,822.2,1229.3,821z"></path>	</g>	<g id="XMLID_5182_">		<path id="XMLID_5183_" class="st27" d="M1263.2,853.9c-3.4-2-6.2-6.7-6.2-10.7c0-3.9,2.8-5.5,6.2-3.6c3.4,2,6.2,6.7,6.2,10.7   C1269.4,854.3,1266.6,855.9,1263.2,853.9z M1263.2,840.5c-3-1.7-5.5-0.3-5.5,3.2s2.5,7.7,5.5,9.5c3,1.7,5.5,0.3,5.5-3.2   C1268.7,846.5,1266.2,842.2,1263.2,840.5z"></path>	</g>	<path id="XMLID_5179_" class="st27" d="M1263.2,852.1c-2.5-1.4-4.6-5-4.6-7.9c0-2.9,2-4.1,4.6-2.6c2.5,1.4,4.6,5,4.6,7.9  C1267.8,852.4,1265.7,853.6,1263.2,852.1z M1263.2,842.4c-2.1-1.2-3.9-0.2-3.9,2.2c0,2.5,1.7,5.5,3.9,6.7c2.1,1.2,3.9,0.2,3.9-2.2  S1265.3,843.6,1263.2,842.4z"></path>	<polygon id="XMLID_5200_" class="st0" points="1317.6,849.8 1317.6,832 1306.1,838.6 1306.1,856.4 1307,855.9 1307,839.1   1316.7,833.5 1316.7,850.3  "></polygon>	<g id="XMLID_5186_">		<path id="XMLID_5188_" class="st0" d="M1298.2,849.4h-0.7v-0.3c0-0.7,0.4-1.4,1-1.8l0.5-0.3c0.3-0.2,0.7-0.2,0.9-0.1   c0.3,0.2,0.4,0.5,0.4,0.8c0,0.1,0,0.2,0.1,0.3c0,0,0.1,0,0.2-0.1l0.5-0.3c0.3-0.2,0.7-0.8,0.7-1.2c0-0.7,0.4-1.4,1-1.8l0.5-0.3   c0.3-0.2,0.7-0.2,0.9-0.1c0.3,0.2,0.4,0.5,0.4,0.8c0,0.1,0,0.2,0.1,0.3c0,0,0.1,0,0.2-0.1l0.4-0.2c0.3-0.2,0.7-0.8,0.7-1.2   c0-0.7,0.4-1.4,1-1.8l0.5-0.3c0.3-0.2,0.7-0.2,0.9-0.1c0.3,0.2,0.4,0.5,0.4,0.8v0.4h-0.7v-0.4c0-0.1,0-0.2-0.1-0.3   c0,0-0.1,0-0.2,0.1l-0.5,0.3c-0.3,0.2-0.7,0.8-0.7,1.2c0,0.7-0.4,1.4-1,1.8l-0.4,0.2c-0.3,0.2-0.7,0.2-0.9,0.1   c-0.3-0.2-0.4-0.5-0.4-0.8c0-0.1,0-0.2-0.1-0.3c0,0-0.1,0-0.2,0.1l-0.5,0.3c-0.3,0.2-0.7,0.8-0.7,1.2c0,0.7-0.4,1.4-1,1.8   l-0.5,0.3c-0.3,0.2-0.7,0.2-0.9,0.1c-0.3-0.2-0.4-0.5-0.4-0.8c0-0.1,0-0.2-0.1-0.3c0,0-0.1,0-0.2,0.1l-0.5,0.3   c-0.3,0.2-0.7,0.8-0.7,1.2V849.4z"></path>	</g></g><g>	<g id="XMLID_2_">		<path id="XMLID_3_" class="st0" d="M904.3,589h-6.2v-2.7c0-6,4-13,9.2-15.9l4.5-2.6c3-1.7,6.1-1.9,8.5-0.5   c2.4,1.4,3.8,4.2,3.8,7.6c0,1.3,0.3,2.1,0.7,2.3c0.3,0.2,1.2,0.1,2.3-0.5l5-2.9c3.3-1.9,6.1-6.8,6.1-10.6c0-6,4-13,9.2-15.9   l4.3-2.5c3-1.7,6.1-1.9,8.5-0.5c2.4,1.4,3.8,4.2,3.8,7.6c0,1.3,0.3,2.1,0.7,2.3c0.3,0.2,1.2,0.1,2.3-0.5l3.6-2.1   c3.3-1.9,6.1-6.8,6.1-10.6c0-6,4-13,9.2-15.9l4.3-2.5c3-1.7,6.1-1.9,8.5-0.5c2.4,1.4,3.8,4.2,3.8,7.6v3.4h-6.2v-3.4   c0-1.3-0.3-2.1-0.7-2.3c-0.3-0.2-1.2-0.1-2.3,0.5l-4.3,2.5c-3.3,1.9-6.1,6.8-6.1,10.6c0,6-4,13-9.2,15.9l-3.6,2.1   c-3,1.7-6.1,1.9-8.5,0.5c-2.4-1.4-3.8-4.2-3.8-7.6c0-1.3-0.3-2.1-0.7-2.3c-0.3-0.2-1.2-0.1-2.3,0.5l-4.3,2.5   c-3.3,1.9-6.1,6.8-6.1,10.6c0,6-4,13-9.2,15.9l-5,2.9c-3,1.7-6.1,1.9-8.5,0.5c-2.4-1.4-3.8-4.2-3.8-7.6c0-1.3-0.3-2.1-0.7-2.3   c-0.3-0.2-1.2-0.1-2.3,0.5l-4.5,2.6c-3.3,1.9-6.1,6.8-6.1,10.6V589z"></path>	</g>	<g id="XMLID_00000004507949365152431850000013386392695700077985_">		<polygon id="XMLID_4817_" class="st0" points="995.1,517.4 1003.6,571.7 1136.1,446   "></polygon>		<path id="XMLID_4818_" class="st27" d="M1002.9,573.2l-8.7-56.2l0.6-0.3l141-71.5l1.1,1.3l-132.7,125.8L1002.9,573.2z    M996.1,517.9l8.1,52l127.1-120.6L996.1,517.9z"></path>	</g>	<polygon id="XMLID_5083_" class="st27" points="1020.5,533.1 1002.7,571.5 1002.9,573.2 1042.3,544.3  "></polygon>	<polygon id="XMLID_4813_" class="st27" points="1136.1,446 952.1,491.1 995.1,517.4  "></polygon>	<polygon id="XMLID_4804_" class="st27" points="1136.1,446 1075.1,565.2 1022,533  "></polygon>	<path id="XMLID_4798_" class="st0" d="M1136.1,454.5l-59.5,116.2l-53.1-32.2l111.4-85C1135.6,453.1,1136.4,453.8,1136.1,454.5z"></path>	<polygon id="XMLID_4806_" class="st0" points="994.2,517 996.1,517.9 996.6,521.3 1120.4,458.6 1134.3,446.9 1116.6,455.9   950.3,496.6 993.3,523 995,522.1  "></polygon>	<g id="XMLID_5_">		<path id="XMLID_4800_" class="st27" d="M1136.8,446.5l-1.1-1.3h0h0l-141.3,34.7l0,0l-42.5,10.4l-2,0.5l45.2,27.6l52.1-26.4l0,0   l79.2-40.1l1.8-0.9l-38.9,29.7l-67.8,51.7l-1,0.8l55,33.3l9-17.6l0,0L1136.8,446.5L1136.8,446.5L1136.8,446.5z M995.2,516.5   l-40.9-25l43.8-10.7l46.5,10.7L995.2,516.5z M1047,490.2l-45.2-10.4l95.5-23.4l31.8-7.8L1047,490.2z M1074.8,564l-51.3-31.1   l35.6-27.1l24.4,41.3L1074.8,564z M1084.4,545.3l-23.9-40.5l45.8-34.9l27.4-20.9L1084.4,545.3z"></path>	</g>	<g id="XMLID_74_">		<g id="XMLID_00000159454181507973348400000007895229056119863205_">			<path id="XMLID_4822_" class="st0" d="M1058.1,526.4l-9.3,11l14.6,13.9l9.2-11.1L1058.1,526.4z M1063.1,545.9l-9.9-9.3l5.1-6.1    l9.9,9.2L1063.1,545.9z"></path>			<path id="XMLID_00000031196613599157809910000007908379431867627708_" class="st27" d="M1063.1,545.9l-11.2-10.7l6.2-7.3    l11.2,10.6L1063.1,545.9z M1053,535.1l10,9.5l5.1-6.1l-9.9-9.4L1053,535.1z"></path>		</g>		<path id="XMLID_4808_" class="st27" d="M1063.3,550.2l-15.5-14.8l10.1-11.9l15.4,14.7L1063.3,550.2z M1049.5,535.3l13.6,13   l8.4-10.1l-13.6-12.9L1049.5,535.3z"></path>	</g>	<g id="XMLID_00000109026972131922630470000001181778600544277917_">		<path id="XMLID_4803_" class="st27" d="M1071.6,515.7c0,8.2-7.3,14.9-16.3,14.9c-7.7,0-14.2-4.9-15.9-11.5l-0.8,0.6   c2,6.8,8.7,11.8,16.7,11.8c9.5,0,17.3-7.1,17.3-15.9c0-6.3-4-11.8-9.8-14.3l-0.9,0.7C1067.6,504.3,1071.6,509.6,1071.6,515.7z"></path>		<path id="XMLID_4802_" class="st27" d="M1068.3,515.7c0,6.4-5.7,11.7-12.7,11.7c-6.6,0-12.1-4.7-12.7-10.6l-0.9,0.7   c0.9,6.1,6.7,10.9,13.6,10.9c7.6,0,13.7-5.7,13.7-12.6c0-5.6-3.9-10.3-9.4-12l-1,0.7C1064.3,505.8,1068.3,510.3,1068.3,515.7z"></path>	</g>	<g id="XMLID_4812_">		<path id="XMLID_4828_" class="st27" d="M910.4,591h-6.2v-2.7c0-6,4-13,9.2-15.9l4.5-2.6c3-1.7,6.1-1.9,8.5-0.5   c2.4,1.4,3.8,4.2,3.8,7.6c0,1.3,0.3,2.1,0.7,2.3c0.3,0.2,1.2,0.1,2.3-0.5l5-2.9c3.3-1.9,6.1-6.8,6.1-10.6c0-6,4-13,9.2-15.9   l4.3-2.5c3-1.7,6.1-1.9,8.5-0.5c2.4,1.4,3.8,4.2,3.8,7.6c0,1.3,0.3,2.1,0.7,2.3c0.3,0.2,1.2,0.1,2.3-0.5l3.6-2.1   c3.3-1.9,6.1-6.8,6.1-10.6c0-6,4-13,9.2-15.9l4.3-2.5c3-1.7,6.1-1.9,8.5-0.5c2.4,1.4,3.8,4.2,3.8,7.6v3.4h-6.2v-3.4   c0-1.3-0.3-2.1-0.7-2.3c-0.3-0.2-1.2-0.1-2.3,0.5l-4.3,2.5c-3.3,1.9-6.1,6.8-6.1,10.6c0,6-4,13-9.2,15.9l-3.6,2.1   c-3,1.7-6.1,1.9-8.5,0.5c-2.4-1.4-3.8-4.2-3.8-7.6c0-1.3-0.3-2.1-0.7-2.3c-0.3-0.2-1.2-0.1-2.3,0.5l-4.3,2.5   c-3.3,1.9-6.1,6.8-6.1,10.6c0,6-4,13-9.2,15.9l-5,2.9c-3,1.7-6.1,1.9-8.5,0.5c-2.4-1.4-3.8-4.2-3.8-7.6c0-1.3-0.3-2.1-0.7-2.3   c-0.3-0.2-1.2-0.1-2.3,0.5l-4.5,2.6c-3.3,1.9-6.1,6.8-6.1,10.6V591z"></path>	</g>	<g id="XMLID_4807_">		<path id="XMLID_4827_" class="st27" d="M876.8,635.5h-4.6v-1.3c0-3.2,2.1-6.7,4.8-8.3l2.1-1.2c1.7-1,3.5-1.1,4.9-0.3   c1.4,0.8,2.2,2.4,2.2,4.4c0,0.1,0,0.1,0,0.2c0,0,0.1,0,0.1-0.1l2.4-1.4c1.3-0.7,2.5-2.8,2.5-4.3c0-3.2,2.1-6.7,4.8-8.3l2-1.2   c1.7-1,3.5-1.1,4.9-0.3c1.4,0.8,2.2,2.4,2.2,4.4c0,0.1,0,0.1,0,0.2c0,0,0.1,0,0.1-0.1l1.7-1c1.3-0.7,2.5-2.8,2.5-4.3   c0-3.2,2.1-6.7,4.8-8.3l2-1.2c1.7-1,3.5-1.1,4.9-0.3c1.4,0.8,2.2,2.4,2.2,4.4v1.6h-4.6v-1.6c0-0.1,0-0.1,0-0.2c0,0-0.1,0-0.1,0.1   l-2,1.2c-1.3,0.7-2.5,2.8-2.5,4.3c0,3.2-2.1,6.7-4.8,8.3l-1.7,1c-1.7,1-3.5,1.1-4.9,0.3c-1.4-0.8-2.2-2.4-2.2-4.4   c0-0.1,0-0.1,0-0.2c0,0-0.1,0-0.1,0.1l-2,1.2c-1.3,0.7-2.5,2.8-2.5,4.3c0,3.2-2.1,6.7-4.8,8.3l-2.4,1.4c-1.7,1-3.5,1.1-4.9,0.3   c-1.4-0.8-2.2-2.4-2.2-4.4c0-0.1,0-0.1,0-0.2c0,0-0.1,0-0.1,0.1l-2.1,1.2c-1.3,0.7-2.5,2.8-2.5,4.3V635.5z"></path>	</g>	<g id="XMLID_4824_">		<path id="XMLID_4826_" class="st27" d="M1039.9,453.2h-3.4v-1c0-2.5,1.7-5.4,3.9-6.7l1.8-1c1.3-0.8,2.7-0.8,3.8-0.2   c1.1,0.6,1.7,1.9,1.7,3.4c0,0.2,0,0.4,0.1,0.5c0,0,0.2-0.1,0.4-0.2l1.9-1.1c1.1-0.7,2.2-2.4,2.2-3.7c0-2.5,1.7-5.4,3.9-6.7l1.7-1   c1.3-0.8,2.7-0.8,3.8-0.2c1.1,0.6,1.7,1.9,1.7,3.4c0,0.2,0,0.4,0.1,0.5c0,0,0.2-0.1,0.4-0.2l1.4-0.8c1.1-0.7,2.2-2.4,2.2-3.7   c0-2.5,1.7-5.4,3.9-6.7l1.7-1c1.3-0.8,2.7-0.8,3.8-0.2c1.1,0.6,1.7,1.9,1.7,3.4v1.4h-3.4v-1.4c0-0.2,0-0.4-0.1-0.5   c0,0-0.2,0.1-0.4,0.2l-1.7,1c-1.1,0.7-2.2,2.4-2.2,3.7c0,2.5-1.7,5.4-3.9,6.7l-1.4,0.8c-1.3,0.8-2.7,0.8-3.8,0.2   c-1.1-0.6-1.7-1.9-1.7-3.4c0-0.2,0-0.4-0.1-0.5c0,0-0.2,0.1-0.4,0.2l-1.7,1c-1.1,0.7-2.2,2.4-2.2,3.7c0,2.5-1.7,5.4-3.9,6.7   l-1.9,1.1c-1.3,0.8-2.7,0.8-3.8,0.2c-1.1-0.6-1.7-1.9-1.7-3.4c0-0.2,0-0.4-0.1-0.5c0,0-0.2,0.1-0.4,0.2l-1.8,1   c-1.1,0.7-2.2,2.4-2.2,3.7V453.2z"></path>	</g></g><g id="XMLID_5249_">	<g id="XMLID_5227_">		<path id="XMLID_5240_" class="st29" d="M173.1,949.5L173.1,949.5l0.1-13.3l109.8-1.5l0,13c0,0.3,0,0,0,0.3l0,0h0   c-0.2,1.9-1.7,3.9-4.4,5.5l-40.7,24.2c-5.4,3.2-13.7,3.7-18.5,1l-43.1-24.1C173.9,953.3,172.8,951.4,173.1,949.5z"></path>		<path id="XMLID_5247_" class="st27" d="M173.1,949.5L173.1,949.5l0.1-13.3l109.8-1.5l0,13c0,0.3,0,0,0,0.3l0,0h0   c-0.2,1.9-1.7,3.9-4.4,5.5l-40.7,24.2c-5.4,3.2-13.7,3.7-18.5,1l-43.1-24.1C173.9,953.3,172.8,951.4,173.1,949.5z"></path>		<path id="XMLID_5241_" class="st27" d="M227.4,981.2c-3.1,0-6.2-0.6-8.4-1.8l-43.1-24.1c-2.5-1.4-3.8-3.5-3.6-5.8l0-12.9   l111.4-2.5l0,13.7c0,0.1,0,0.3,0,0.5c-0.3,2.2-2,4.4-4.8,6l-40.7,24.2C235.1,980.2,231.2,981.2,227.4,981.2z M173.8,936.9   l-0.1,12.7c-0.2,1.7,0.8,3.3,2.9,4.5l43.1,24.1c4.6,2.6,12.5,2.1,17.8-1l40.7-24.2c2.4-1.4,3.9-3.2,4.1-5c0-0.1,0-0.1,0-0.2l0,0   l0-12.3L173.8,936.9z"></path>	</g>	<g id="XMLID_5226_">		<path id="XMLID_5236_" class="st27" d="M176.3,941.7l43.1,24.1c4.8,2.7,13,2.2,18.5-1l40.7-24.2c5.4-3.2,6-8,1.2-10.7l-43.1-24.1   c-4.8-2.7-13-2.2-18.5,1L177.5,931C172,934.2,171.5,939,176.3,941.7z"></path>		<path id="XMLID_00000047043843633851276140000011515174669418966414_" class="st0" d="M175.9,946.6l43.1,24.1   c4.8,2.7,13,2.2,18.5-1l40.7-24.2c5.4-3.2,6-8,1.2-10.7l-43.1-24.1c-4.8-2.7-13-2.2-18.5,1l-40.7,24.2   C171.7,939.1,171.1,943.9,175.9,946.6z"></path>		<path id="XMLID_5237_" class="st27" d="M227.4,968.2c-3.1,0-6.2-0.6-8.4-1.8l-43.1-24.1c-2.3-1.3-3.6-3.1-3.6-5.2   c0-2.4,1.7-4.9,4.8-6.7l40.7-24.2c5.6-3.3,14.2-3.8,19.2-1l43.1,24.1c2.3,1.3,3.6,3.1,3.6,5.2c0,2.4-1.7,4.9-4.8,6.7l-40.7,24.2   C235.1,967.2,231.2,968.2,227.4,968.2z M228.5,904.7c-3.5,0-7.2,1-10.1,2.7l-40.7,24.2c-2.6,1.6-4.1,3.6-4.1,5.5   c0,1.5,1,2.9,2.9,4l43.1,24.1c4.6,2.6,12.5,2.1,17.8-1l40.7-24.2c2.6-1.6,4.1-3.6,4.1-5.5c0-1.5-1-2.9-2.9-4l-43.1-24.1   C234.2,905.2,231.4,904.7,228.5,904.7z"></path>	</g>	<g id="XMLID_5225_">		<path id="XMLID_5232_" class="st0" d="M230.5,936.1l-1.9-12.4c1.1-0.8,0.7-0.5,1.8-1.3l22.8,12.8c0.3,0.1,1,3.1,1.2,3.3l-22.7-1.3   C231,937.1,230.6,936.6,230.5,936.1z"></path>		<path id="XMLID_5233_" class="st27" d="M260.8,935l-30.9-1.4l-2.8-17.9l1.3,0.7c0.1,0,0.1,0.1,0.2,0.1l29.7,16.6   c0.3,0.2,0.6,0.4,0.8,0.5L260.8,935z M231.2,932.2l24.6,1.1l-26.8-15L231.2,932.2z"></path>	</g>	<g id="XMLID_5224_">		<path id="XMLID_5228_" class="st0" d="M225.8,940.1c0.1,0.6,0.6,1,1.2,1l28.4,1.3c0.4,1.4,0.3,1.3,0.7,2.7L236.1,957   c-2.1,1.2-5.6,1.2-7.9-0.1l-29.7-16.6c-2.3-1.3-2.4-3.3-0.3-4.6l23.5-14c0.3-0.2,0.7-0.4,1.1-0.5L225.8,940.1z"></path>		<path id="XMLID_5229_" class="st27" d="M232.4,954.5c-1.6,0-3.3-0.3-4.6-1.1l-29.7-16.6c-1.4-0.8-2.2-1.9-2.2-3   c0-1.1,0.6-2.1,1.8-2.8l23.5-14c0.3-0.2,0.7-0.4,1.2-0.5l0.8-0.3l3.1,20.1l35.5,1.6l-1.5,1.2c-0.2,0.2-0.3,0.3-0.5,0.4l-23.5,14   C235.3,954.1,233.9,954.5,232.4,954.5z M222.2,918.1c-0.1,0-0.1,0.1-0.2,0.1l-23.5,14c-0.7,0.4-1.1,1-1.1,1.5   c0,0.6,0.5,1.3,1.5,1.8l29.7,16.6c2,1.1,5.3,1.2,7.2,0.1l22-13.1l-32.5-1.5L222.2,918.1z"></path>	</g>	<polygon id="XMLID_5244_" class="st27" points="228.4,967.5 228.6,980.5 234.1,979.4 242.2,975.5 280.7,952 283.1,949 282.9,934.7   281.4,938.9 273.1,943.9 234.1,966.5  "></polygon>	<polygon id="XMLID_5245_" class="st27" points="223.7,967.2 223.9,980.3 220.5,979.3 220.3,966.3  "></polygon>	<polygon id="XMLID_5246_" class="st27" points="175.5,941.5 175.7,953.8 173.8,952.4 172.3,944 172.8,936.9 175.5,941.5  "></polygon></g><g id="XMLID_4987_">	<g id="XMLID_4956_">		<path id="XMLID_4957_" d="M971.9,1035.8l-75.7-43.7c-5.6-3.3-4.9-8.9,1.6-12.7l108.5-62.7c6.5-3.8,16.3-4.2,22-0.9l75.7,43.7   c5.6,3.3,4.9,8.9-1.6,12.7l-108.5,62.7C987.4,1038.7,977.5,1039.1,971.9,1035.8z"></path>		<path id="XMLID_4964_" class="st0" d="M971.9,1043.9l-75.7-43.7c-5.6-3.3-4.9-8.9,1.6-12.7l108.5-62.7c6.5-3.8,16.3-4.2,22-0.9   l75.7,43.7c5.6,3.3,4.9,8.9-1.6,12.7L993.9,1043C987.4,1046.7,977.5,1047.1,971.9,1043.9z"></path>		<path id="XMLID_4958_" class="st27" d="M981.5,1039.4c-3.8,0-7.5-0.8-10.2-2.4l-75.7-43.7c-2.9-1.7-4.5-4-4.5-6.7   c0-3.1,2.2-6.1,6.1-8.3l108.5-62.7c7-4,17.2-4.4,23.3-0.9l75.7,43.7c2.9,1.7,4.5,4,4.5,6.7c0,3.1-2.2,6.1-6.1,8.3l-108.5,62.7   C990.7,1038.3,986,1039.4,981.5,1039.4z M972.6,1034.6c5.2,3,14.5,2.6,20.6-0.9l108.5-62.7c3-1.7,4.7-3.9,4.7-6   c0-2.1-1.7-3.5-3.1-4.3l-75.7-43.7c-5.2-3-14.5-2.6-20.6,0.9l-108.5,62.7c-3,1.7-4.7,3.9-4.7,6c0,2.1,1.7,3.5,3.1,4.3   L972.6,1034.6z"></path>	</g>	<g id="XMLID_4963_">		<g id="XMLID_4998_">			<polygon id="XMLID_5002_" class="st0" points="995.9,1015.5 969.8,1000.5 991.7,987.8 1017.8,1002.9    "></polygon>			<path id="XMLID_4999_" class="st27" d="M995.9,1017l-28.5-16.5l24.4-14.1l28.5,16.5L995.9,1017z M972.3,1000.5l23.6,13.6    l19.5-11.3l-23.6-13.6L972.3,1000.5z"></path>		</g>		<g id="XMLID_4993_">			<polygon id="XMLID_4997_" class="st0" points="995.6,1009.1 980.9,1000.7 992,994.2 1006.7,1002.7    "></polygon>			<path id="XMLID_4994_" class="st27" d="M995.6,1010.6l-17.2-9.9l13.6-7.9l17.2,9.9L995.6,1010.6z M983.3,1000.7l12.2,7.1l8.7-5    l-12.2-7.1L983.3,1000.7z"></path>		</g>	</g>	<g id="XMLID_4977_">		<g id="XMLID_4982_">			<path id="XMLID_4983_" class="st27" d="M958.7,1013.5c-6.5,0-13-1.4-18-4.3c-5-2.9-7.7-6.8-7.7-10.9c0-4.2,2.7-8.1,7.7-10.9    c9.9-5.7,26.1-5.7,36,0c5,2.9,7.7,6.8,7.7,10.9c0,4.2-2.7,8.1-7.7,10.9l0,0C971.7,1012.1,965.2,1013.5,958.7,1013.5z     M958.7,984.9c-6.2,0-12.3,1.4-17,4.1c-4.4,2.5-6.8,5.8-6.8,9.3c0,3.5,2.4,6.8,6.8,9.3c9.4,5.4,24.7,5.4,34.1,0l0,0    c4.4-2.5,6.8-5.8,6.8-9.3c0-3.5-2.4-6.8-6.8-9.3C971,986.3,964.9,984.9,958.7,984.9z"></path>		</g>		<g id="XMLID_4978_">			<path id="XMLID_4979_" class="st27" d="M958.7,1009.9c-4.9,0-9.8-1.1-13.6-3.2c-3.8-2.2-5.9-5.2-5.9-8.4c0-3.2,2.1-6.2,5.9-8.4    c7.5-4.3,19.7-4.3,27.1,0c3.8,2.2,5.9,5.2,5.9,8.4c0,3.2-2.1,6.2-5.9,8.4l0,0C968.5,1008.8,963.6,1009.9,958.7,1009.9z     M958.7,988.5c-4.6,0-9.1,1-12.6,3c-3.2,1.8-4.9,4.2-4.9,6.7c0,2.5,1.8,4.9,4.9,6.7c7,4,18.3,4,25.2,0c3.2-1.8,4.9-4.2,4.9-6.7    c0-2.5-1.8-4.9-4.9-6.7C967.8,989.5,963.3,988.5,958.7,988.5z"></path>		</g>	</g>	<g id="XMLID_4967_">		<path id="XMLID_4968_" class="st27" d="M1006.3,990.1l-1-1.8l4.3-2.5c0.7-0.4,1.1-0.9,1.1-1.3c0-0.4-0.4-0.9-1.1-1.3l-0.6-0.3   c-1.8-1-4.8-1-6.6,0l-0.4,0.3c-2.4,1.4-6.2,1.4-8.7,0l-0.6-0.3c-1.4-0.8-2.1-1.9-2.1-3.1c0-1.2,0.7-2.3,2.1-3.1l0.5-0.3   c0.7-0.4,1.1-0.9,1.1-1.3c0-0.4-0.4-0.9-1.1-1.3l-0.3-0.2c-1.8-1-4.8-1-6.6,0l-0.4,0.3c-2.4,1.4-6.2,1.4-8.7,0   c-1.4-0.8-2.1-1.9-2.1-3.1c0-1.2,0.7-2.3,2.1-3.1l0.4-0.3c0.7-0.4,1.1-0.9,1.1-1.3c0-0.4-0.4-0.9-1.1-1.3l-0.4-0.3   c-1.8-1-4.8-1-6.6,0l-4.3,2.5l-1-1.8l4.3-2.5c2.4-1.4,6.2-1.4,8.7,0l0.4,0.3c1.4,0.8,2.1,1.9,2.1,3.1c0,1.2-0.7,2.3-2.1,3.1   l-0.4,0.3c-0.7,0.4-1.1,0.9-1.1,1.3c0,0.4,0.4,0.9,1.1,1.3c1.8,1,4.8,1,6.6,0l0.4-0.3c2.4-1.4,6.2-1.4,8.7,0l0.3,0.2   c1.4,0.8,2.1,1.9,2.1,3.1c0,1.2-0.7,2.3-2.1,3.1l-0.5,0.3c-0.7,0.4-1.1,0.9-1.1,1.3c0,0.4,0.4,0.9,1.1,1.3l0.6,0.3   c1.8,1,4.8,1,6.6,0l0.4-0.3c2.4-1.4,6.2-1.4,8.7,0l0.6,0.3c1.4,0.8,2.1,1.9,2.1,3.1c0,1.2-0.7,2.3-2.1,3.1L1006.3,990.1z"></path>	</g>	<g id="XMLID_4969_">		<path id="XMLID_4970_" class="st27" d="M1024.2,997l-1.2-2l4.9-2.8c0.8-0.4,1.2-1,1.2-1.5c0-0.5-0.4-1-1.2-1.5l-0.6-0.4   c-2-1.2-5.5-1.2-7.5,0l-0.5,0.3c-2.8,1.6-7.1,1.6-9.9,0l-0.6-0.4c-1.5-0.9-2.4-2.1-2.4-3.5c0-1.4,0.8-2.6,2.4-3.5l0.5-0.3   c0.8-0.4,1.2-1,1.2-1.5s-0.4-1-1.2-1.5l-0.4-0.2c-2-1.2-5.5-1.2-7.5,0l-0.5,0.3c-2.8,1.6-7.1,1.6-9.9,0c-1.5-0.9-2.4-2.1-2.4-3.5   c0-1.4,0.9-2.6,2.4-3.5l0.5-0.3c0.8-0.4,1.2-1,1.2-1.5c0-0.5-0.4-1-1.2-1.5l-0.5-0.3c-2-1.2-5.5-1.2-7.5,0l-4.9,2.8l-1.2-2   l4.9-2.8c2.8-1.6,7.1-1.6,9.9,0l0.5,0.3c1.5,0.9,2.4,2.1,2.4,3.5c0,1.4-0.8,2.6-2.4,3.5l-0.5,0.3c-0.8,0.4-1.2,1-1.2,1.5   c0,0.5,0.4,1,1.2,1.5c2,1.2,5.5,1.2,7.5,0l0.5-0.3c2.8-1.6,7.1-1.6,9.9,0l0.4,0.2c1.5,0.9,2.4,2.1,2.4,3.5c0,1.4-0.8,2.6-2.4,3.5   l-0.5,0.3c-0.8,0.4-1.2,1-1.2,1.5s0.4,1,1.2,1.5l0.6,0.4c2,1.2,5.5,1.2,7.5,0l0.5-0.3c2.8-1.6,7.1-1.6,9.9,0l0.6,0.4   c1.5,0.9,2.4,2.1,2.4,3.5c0,1.4-0.8,2.6-2.4,3.5L1024.2,997z"></path>	</g>	<g id="XMLID_4971_">		<g id="XMLID_4965_">			<path id="XMLID_4975_" class="st0" d="M1010,917.8c-3.6,0.2-7.1,0-10.4-0.6c-3.3-0.5-6-1.4-8.1-2.6c-2.3-1.3-3.9-3-4.7-5.1    c-0.8-2-0.5-4.3,0.9-6.7c1.4-2.4,3.8-4.6,7.2-6.5c4.1-2.4,9.3-4.2,15.6-5.3c6.3-1.2,12-1.4,17.2-0.8c5.2,0.6,9.3,1.8,12.3,3.5    c2.3,1.3,3.8,2.9,4.7,4.8c0.9,1.9,0.8,3.9-0.1,6.2l7.4-2.7l7,4l-31.7,11.9c-4.4,1.6-6.8,2.6-7.2,2.8c-0.7,0.4-1,0.9-1,1.5    c0,0.6,0.4,1.1,1.2,1.6c1.4,0.8,4,1.4,7.8,1.8c5,0.5,10.2,0.3,15.4-0.8c5.2-1,9.7-2.6,13.4-4.7c4.3-2.5,7.3-5.5,8.8-8.9    c1.5-3.5,1.2-7.1-0.9-11c-2.1-3.8-5.9-7.3-11.2-10.4c-6.1-3.5-13.1-5.9-20.9-7.2c-7.9-1.3-15.8-1.2-23.9,0.3    c-8.1,1.5-15.2,4-21.2,7.5c-6.4,3.7-10.5,7.6-12.3,11.9c-1.8,4.2-1.2,8.5,1.8,12.8c3,4.3,7.7,8.3,14.1,11.9    c6.8,3.9,13.7,6.6,20.5,7.9c6.9,1.3,13.1,1.7,18.7,1.1l7.1,4.1c-4.1,0.8-9.1,1.1-15.2,0.9c-6.1-0.2-12.1-1.1-18.2-2.8    c-6.1-1.6-12.3-4.2-18.5-7.8c-5.8-3.3-10.3-6.8-13.7-10.5c-3.4-3.7-5.3-7.3-5.8-11c-0.5-3.7,0.4-7.2,2.5-10.4    c2.7-4.1,6.9-7.8,12.6-11.1c6.3-3.7,13.7-6.4,22-8.2c10.2-2.2,20.1-2.7,29.7-1.5c9.6,1.2,18.5,4.2,26.8,9    c6.4,3.7,10.9,7.8,13.4,12.3c2.5,4.5,2.6,9.1,0.4,13.8c-2,4-5.6,7.6-10.9,10.6c-7.5,4.3-16.9,6.7-28,7c-10,0.3-17.8-1.2-23.4-4.4    c-1.8-1-3-2-3.5-3c-0.6-1-0.6-1.9-0.1-2.8C1007.7,919.6,1008.5,918.8,1010,917.8z M1001.7,900.8c-3.6,2.1-5.5,4.1-5.8,6.3    c-0.3,2.1,0.5,2.1,2.7,3.4c1.5,0.8,6.1,0.8,8.6,1.3c2.5,0.4,5.3,0.6,8.5,0.4c3.2-0.1,4,1.6,7.6,0.7s6.7-2.2,9.3-3.8    c3.5-2,5.4-4.1,5.6-6.3c0.2-2.1-1-3.9-3.5-5.4c-1.7-1-3.6-1.6-6-2c-2.3-0.4-5.1-0.4-8.3-0.1c-3.2,0.3-6.6,1-10.1,2    C1006.8,898.4,1003.9,899.5,1001.7,900.8z"></path>		</g>		<g id="XMLID_4966_">			<path id="XMLID_4972_" d="M1010,912.6c-3.6,0.2-7.1,0-10.4-0.6c-3.3-0.5-6-1.4-8.1-2.6c-2.3-1.3-3.9-3-4.7-5.1s-0.5-4.3,0.9-6.7    c1.4-2.4,3.8-4.6,7.2-6.5c4.1-2.4,9.3-4.2,15.6-5.3c6.3-1.2,12-1.4,17.2-0.8c5.2,0.6,9.3,1.8,12.3,3.5c2.3,1.3,3.8,2.9,4.7,4.8    c0.9,1.9,0.8,3.9-0.1,6.2l7.4-2.7l7,4l-31.8,11.9c-4.4,1.6-6.8,2.6-7.2,2.8c-0.7,0.4-1,0.9-1,1.5c0,0.6,0.4,1.1,1.2,1.6    c1.4,0.8,4,1.4,7.8,1.8c5,0.5,10.2,0.3,15.4-0.8c5.2-1,9.7-2.6,13.4-4.7c4.3-2.5,7.3-5.5,8.8-8.9c1.5-3.5,1.2-7.1-0.9-11    c-2.1-3.8-5.9-7.3-11.2-10.4c-6.1-3.5-13.1-5.9-20.9-7.2c-7.9-1.3-15.8-1.2-23.9,0.3c-8.1,1.5-15.2,4-21.2,7.5    c-6.4,3.7-10.5,7.6-12.3,11.9c-1.8,4.2-1.2,8.5,1.8,12.8c3,4.3,7.7,8.3,14.1,11.9c6.8,3.9,13.7,6.6,20.5,7.9    c6.9,1.3,13.1,1.7,18.7,1.1l7,4.1c-4.1,0.8-9.1,1.1-15.2,0.9c-6.1-0.2-12.1-1.1-18.2-2.8c-6.1-1.6-12.3-4.2-18.5-7.8    c-5.8-3.3-10.3-6.8-13.7-10.5c-3.4-3.7-5.3-7.3-5.8-11c-0.5-3.7,0.4-7.2,2.5-10.4c2.7-4.1,6.9-7.8,12.6-11.1    c6.3-3.7,13.7-6.4,22-8.2c10.2-2.2,20.1-2.7,29.7-1.5c9.6,1.2,18.5,4.2,26.8,9c6.4,3.7,10.9,7.8,13.4,12.3    c2.5,4.5,2.6,9.1,0.4,13.8c-2,4-5.6,7.6-10.9,10.6c-7.5,4.3-16.9,6.7-28,7c-10,0.3-17.8-1.2-23.4-4.4c-1.8-1-3-2-3.5-3    c-0.6-1-0.6-1.9-0.1-2.8C1007.7,914.4,1008.5,913.6,1010,912.6z M1001.7,895.6c-3.6,2.1-5.5,4.1-5.8,6.3    c-0.3,2.1,0.7,3.8,2.8,5.1c1.5,0.8,3.4,1.5,5.9,1.9c2.5,0.4,5.3,0.6,8.5,0.4c3.2-0.1,6.6-0.7,10.1-1.7c3.6-1,6.7-2.2,9.3-3.8    c3.5-2,5.4-4.1,5.6-6.3c0.2-2.1-1-3.9-3.5-5.4c-1.7-1-3.6-1.6-6-2c-2.3-0.4-5.1-0.4-8.3-0.1c-3.2,0.3-6.6,1-10.1,2    C1006.8,893.2,1003.9,894.4,1001.7,895.6z"></path>		</g>	</g></g></svg>