<svg xmlns="http://www.w3.org/2000/svg" xmlns:xlink="http://www.w3.org/1999/xlink" id="Layer_1" x="0px" y="0px" viewBox="0 0 472 475" style="enable-background:new 0 0 472 475;" xml:space="preserve"><style type="text/css">	.st0{fill:#FFFFFF;}	.st1{fill:#D8D8D8;}</style><g>	<path class="st0" d="M77.2,374.2l-1.4-6.7c-0.3-0.1-0.6-0.2-0.9-0.3l-4.8,5l-8.8-5.3l2.2-6.5c-0.2-0.2-0.4-0.4-0.6-0.7l-6.6,1.9  l-4.9-8.9l5.1-4.6c-0.1-0.3-0.2-0.6-0.2-0.9l-6.7-1.6l0.2-10.2l6.7-1.4c0.1-0.3,0.2-0.6,0.3-0.9l-5-4.8l5.3-8.8l6.5,2.2  c0.2-0.2,0.4-0.4,0.7-0.6l-1.9-6.6l8.9-4.9l4.6,5.1c0.3-0.1,0.6-0.2,0.9-0.2l1.6-6.7l10.2,0.2l1.4,6.7c0.3,0.1,0.6,0.2,0.9,0.3  l4.8-5l8.8,5.3l-2.2,6.5c0.2,0.2,0.4,0.4,0.6,0.7l6.6-1.9l4.9,8.9l-5.1,4.6c0.1,0.3,0.2,0.6,0.2,0.9l6.7,1.6l-0.2,10.2l-6.7,1.4  c-0.1,0.3-0.2,0.6-0.3,0.9l5,4.8l-5.3,8.8l-6.5-2.2c-0.2,0.2-0.4,0.4-0.7,0.6l1.9,6.6l-8.9,4.9l-4.6-5.1c-0.3,0.1-0.6,0.2-0.9,0.2  l-1.6,6.7L77.2,374.2z M82.9,328.6c-2.1,0-4.2,0.5-6,1.6c-2.9,1.6-5,4.3-5.9,7.5c-0.9,3.2-0.5,6.6,1.1,9.5c2.2,4,6.4,6.4,10.9,6.4  c2.1,0,4.2-0.5,6-1.6c2.9-1.6,5-4.3,5.9-7.5c0.9-3.2,0.5-6.6-1.1-9.5C91.6,331.1,87.4,328.6,82.9,328.6z"></path>	<path d="M95.1,369.2l5.2-2.9l-1.8-6.2c1.1-0.9,2.1-1.8,3-2.8l6.1,2l3-5l-4.6-4.5c0.5-1.3,0.9-2.6,1.1-3.9l6.3-1.3l0.1-5.9l-6.2-1.5  c-0.2-1.3-0.6-2.7-1-4l4.8-4.3l-2.9-5.2l-6.2,1.8c-0.9-1.1-1.8-2.1-2.8-3l2-6.1l-5-3l-4.5,4.6c-1.3-0.5-2.6-0.9-3.9-1.1l-1.3-6.3  l-5.9-0.1l-1.5,6.2c-1.3,0.2-2.7,0.6-4,1l-4.3-4.8l-5.2,2.9l1.8,6.2c-1.1,0.9-2.1,1.8-3,2.8l-6.1-2l-3,5l4.6,4.5  c-0.5,1.3-0.9,2.6-1.1,3.9l-6.3,1.3l-0.1,5.9l6.2,1.5c0.2,1.3,0.6,2.7,1,4l-4.8,4.3l2.9,5.2l6.2-1.8c0.9,1.1,1.8,2.1,2.8,3l-2,6.1  l5,3l4.5-4.6c1.3,0.5,2.6,0.9,3.9,1.1l1.3,6.3l5.9,0.1l1.5-6.2c1.3-0.2,2.7-0.6,4-1L95.1,369.2z M69.6,348.4  c-4.1-7.3-1.4-16.6,5.9-20.6c7.3-4.1,16.6-1.4,20.6,5.9c4.1,7.3,1.4,16.6-5.9,20.6C82.9,358.4,73.7,355.7,69.6,348.4z"></path></g><g>	<path class="st0" d="M147.8,443.3l-2.2-10.7c-1.1-0.3-2.3-0.6-3.4-1l-7.6,7.9l-12-7.2l3.4-10.4c-0.8-0.8-1.7-1.7-2.5-2.6l-10.5,3.1  l-6.8-12.2l8.2-7.3c-0.3-1.1-0.6-2.3-0.9-3.4l-10.6-2.6l0.3-14l10.7-2.2c0.3-1.1,0.6-2.3,1-3.4l-7.9-7.6l7.2-12l10.4,3.4  c0.8-0.8,1.7-1.7,2.6-2.5l-3.1-10.5l12.2-6.8l7.3,8.2c1.1-0.3,2.3-0.6,3.4-0.9l2.6-10.6l14,0.3l2.2,10.7c1.1,0.3,2.3,0.6,3.4,1  l7.6-7.9l12,7.2l-3.4,10.4c0.8,0.8,1.7,1.7,2.5,2.6l10.5-3.1l6.8,12.2l-8.2,7.3c0.3,1.1,0.6,2.3,0.9,3.4l10.6,2.6l-0.3,14  l-10.7,2.2c-0.3,1.1-0.6,2.3-1,3.4l7.9,7.6l-7.2,12l-10.4-3.4c-0.8,0.8-1.7,1.7-2.6,2.5l3.1,10.5l-12.2,6.8l-7.3-8.2  c-1.1,0.3-2.3,0.6-3.4,0.9l-2.6,10.6L147.8,443.3z M155.7,368.9c-3.7,0-7.4,1-10.7,2.8c-10.6,5.9-14.5,19.4-8.6,30  c3.9,7,11.3,11.4,19.3,11.4c3.7,0,7.4-1,10.7-2.8c5.2-2.9,8.9-7.5,10.5-13.2c1.6-5.7,1-11.6-1.9-16.8  C171.2,373.2,163.8,368.9,155.7,368.9z"></path>	<path d="M175.7,436.8l8.4-4.7l-2.9-10.1c1.8-1.4,3.4-3,4.8-4.6l10,3.3l5-8.2l-7.6-7.3c0.8-2.1,1.4-4.2,1.9-6.4l10.3-2.1l0.2-9.6  l-10.2-2.5c-0.4-2.2-0.9-4.4-1.6-6.5l7.9-7l-4.7-8.4l-10.1,2.9c-1.4-1.8-3-3.4-4.6-4.8l3.3-10l-8.2-5l-7.3,7.6  c-2.1-0.8-4.2-1.4-6.4-1.9l-2.1-10.3l-9.6-0.2l-2.5,10.2c-2.2,0.4-4.4,0.9-6.5,1.6l-7-7.9l-8.4,4.7l2.9,10.1  c-1.8,1.4-3.4,3-4.8,4.6l-10-3.3l-5,8.2l7.6,7.3c-0.8,2.1-1.4,4.2-1.9,6.4l-10.3,2.1l-0.2,9.6l10.2,2.5c0.4,2.2,0.9,4.4,1.6,6.5  l-7.9,7l4.7,8.4l10.1-2.9c1.4,1.8,3,3.4,4.6,4.8l-3.3,10l8.2,5l7.3-7.6c2.1,0.8,4.2,1.4,6.4,1.9l2.1,10.3l9.6,0.2l2.5-10.2  c2.2-0.4,4.4-0.9,6.5-1.6L175.7,436.8z M134.1,402.9c-6.6-12-2.3-27.1,9.7-33.7c12-6.6,27.1-2.3,33.7,9.7c6.6,12,2.3,27.1-9.7,33.7  C155.8,419.2,140.7,414.9,134.1,402.9z"></path></g><g>	<g>		<path class="st0" d="M31.8,89.3l303.4,0c4.1,0,7.6,3.3,7.9,7.4l15.1,196.9c0.3,4.1-2.7,7.4-6.8,7.4l-303.4,0   c-4.1,0-7.6-3.3-7.9-7.4L25,96.7C24.7,92.6,27.7,89.3,31.8,89.3z"></path>		<path d="M351.4,301.5H48c-4.3,0-8.1-3.5-8.5-7.9L24.4,96.7c-0.2-2.1,0.5-4.1,1.9-5.6c1.4-1.5,3.3-2.3,5.4-2.3h303.4   c4.3,0,8.1,3.5,8.5,7.9l15.1,196.9c0.2,2.1-0.5,4.1-1.9,5.6C355.5,300.6,353.5,301.5,351.4,301.5z M31.8,89.8   c-1.8,0-3.5,0.7-4.6,2c-1.2,1.3-1.8,3-1.6,4.8l15.1,196.9c0.3,3.8,3.6,6.9,7.4,6.9h303.4c1.8,0,3.5-0.7,4.6-2   c1.2-1.3,1.8-3,1.6-4.8L342.6,96.7c-0.3-3.8-3.6-6.9-7.4-6.9H31.8z"></path>	</g>	<g>		<path d="M268.5,243.8c-0.3,0-0.5-0.2-0.5-0.5l-1-13.5c0-0.3,0.2-0.6,0.5-0.6c0.3,0,0.6,0.2,0.6,0.5l1,13.5   C269.1,243.5,268.9,243.8,268.5,243.8C268.6,243.8,268.6,243.8,268.5,243.8z"></path>		<path d="M260.4,289.7H68.8c-5.9,0-10.9-4.6-11.4-10.5l-3.8-49.4c0-0.3,0.2-0.6,0.5-0.6c0.3,0,0.6,0.2,0.6,0.5l3.8,49.4   c0.4,5.3,4.9,9.5,10.3,9.5h191.6c2.9,0,5.6-1.2,7.6-3.3c2-2.1,2.9-4.9,2.7-7.8l-1.2-16c0-0.3,0.2-0.6,0.5-0.6   c0.3,0,0.6,0.2,0.6,0.5l1.2,16c0.2,3.2-0.9,6.3-3,8.6C266.6,288.4,263.5,289.7,260.4,289.7z"></path>		<path d="M48.6,156.9c-0.3,0-0.5-0.2-0.5-0.5l-2.2-28.4c-0.2-3.2,0.9-6.3,3-8.6c2.1-2.3,5.2-3.6,8.4-3.6h6.9c0.3,0,0.5,0.2,0.5,0.5   c0,0.3-0.2,0.5-0.5,0.5h-6.9c-2.9,0-5.6,1.2-7.6,3.3c-2,2.1-2.9,4.9-2.7,7.8l2.2,28.4C49.2,156.6,48.9,156.9,48.6,156.9   C48.6,156.9,48.6,156.9,48.6,156.9z"></path>		<path d="M143.7,116.9H82.4c-0.3,0-0.5-0.2-0.5-0.5c0-0.3,0.2-0.5,0.5-0.5h61.3c0.3,0,0.5,0.2,0.5,0.5   C144.2,116.7,144,116.9,143.7,116.9z"></path>		<path d="M333.9,189.5h-53.2c-0.3,0-0.5-0.2-0.5-0.5l-1.4-18.3c0-0.2,0-0.3,0.1-0.4c0.1-0.1,0.2-0.2,0.4-0.2h53.2   c0.3,0,0.5,0.2,0.5,0.5l1.4,18.3c0,0.2,0,0.3-0.1,0.4C334.2,189.4,334,189.5,333.9,189.5z M281.2,188.4h52.1l-1.3-17.2h-52.1   L281.2,188.4z"></path>		<path d="M336.4,222.9h-53.2c-0.3,0-0.5-0.2-0.5-0.5l-1.4-18.3c0-0.2,0-0.3,0.1-0.4c0.1-0.1,0.2-0.2,0.4-0.2H335   c0.3,0,0.5,0.2,0.5,0.5l1.4,18.3c0,0.2,0,0.3-0.1,0.4C336.7,222.8,336.6,222.9,336.4,222.9z M283.8,221.8h52.1l-1.3-17.2h-52.1   L283.8,221.8z"></path>		<path d="M339,256.3h-53.2c-0.3,0-0.5-0.2-0.5-0.5l-1.4-18.3c0-0.2,0-0.3,0.1-0.4s0.2-0.2,0.4-0.2h53.2c0.3,0,0.5,0.2,0.5,0.5   l1.4,18.3c0,0.2,0,0.3-0.1,0.4S339.1,256.3,339,256.3z M286.3,255.2h52.1l-1.3-17.2H285L286.3,255.2z"></path>		<path d="M341.5,289.7h-53.2c-0.3,0-0.5-0.2-0.5-0.5l-1.4-18.3c0-0.2,0-0.3,0.1-0.4c0.1-0.1,0.2-0.2,0.4-0.2h53.2   c0.3,0,0.5,0.2,0.5,0.5l1.4,18.3c0,0.2,0,0.3-0.1,0.4C341.8,289.6,341.7,289.7,341.5,289.7z M288.9,288.6H341l-1.3-17.2h-52.1   L288.9,288.6z"></path>		<path d="M331.4,156.9h-53.2c-0.3,0-0.5-0.2-0.5-0.5l-3.1-40c0-0.2,0-0.3,0.1-0.4c0.1-0.1,0.2-0.2,0.4-0.2h53.2   c0.3,0,0.5,0.2,0.5,0.5l3.1,40c0,0.2,0,0.3-0.1,0.4C331.7,156.9,331.5,156.9,331.4,156.9z M278.7,155.8h52.1l-3-38.9h-52.1   L278.7,155.8z"></path>	</g></g><g>	<g>		<path class="st0" d="M252.4,145.1c0,0,24.6,9.5,54.2-14.6c13.6-11,21.9-27.3,23-44.8c0.2-3.4,1.8-6.6,4.3-8.9l18.4-11.7   c0.4-0.2,0.8-0.2,1.2,0.1c0.4,0.3,0.3,0.9,0.3,1.1c-0.2,2.1-5.9,7.3-8,11.9c-0.6,1.5-1.3,3.8-1,7.1c2.6-0.8,5.2-1.5,7.7-2.3   c0.6-0.2,1.2,0,1.5,0.4c0.5,0.5,0.4,1.3,0.3,1.6c-0.3,2.6-6.4,6.8-9.8,10.4c-1.4,1.5-3.4,3.9-5.1,7.6c0.7,8.8,1.1,28.8-10.5,48.9   c-21.7,37.6-65.7,42-70.3,42.4L252.4,145.1z"></path>		<path d="M258.8,194.8c-0.3,0-0.5-0.2-0.5-0.5l-6.3-49.2c0-0.2,0.1-0.4,0.2-0.5c0.1-0.1,0.4-0.1,0.5-0.1   c0.2,0.1,24.7,9.1,53.7-14.5c13.3-10.8,21.7-27,22.8-44.4c0.2-3.6,1.8-6.9,4.4-9.3c0,0,0,0,0.1-0.1L352,64.7   c0.6-0.4,1.3-0.3,1.8,0.1c0.6,0.5,0.5,1.3,0.5,1.6c-0.1,1.2-1.5,3-3.3,5.2c-1.7,2.2-3.7,4.6-4.7,6.9c-0.8,1.8-1.2,3.9-1,6.2   l7.1-2.1c0.8-0.2,1.6,0,2.1,0.6c0.6,0.7,0.5,1.6,0.5,2c-0.3,1.9-3.1,4.4-6.1,7.1c-1.4,1.2-2.8,2.5-3.9,3.6c-2,2.1-3.6,4.5-4.9,7.3   c1,12.3,0,30.8-10.6,49C307.9,189.7,263.8,194.4,258.8,194.8C258.8,194.8,258.8,194.8,258.8,194.8z M253.1,145.9l6.2,47.8   c6.9-0.7,48.6-6.1,69.3-42c10.4-18.1,11.4-36.4,10.4-48.6c0-0.1,0-0.2,0-0.3c1.3-3,3.1-5.6,5.2-7.7c1.1-1.2,2.6-2.5,3.9-3.7   c2.6-2.3,5.5-4.9,5.7-6.4c0-0.2,0.1-0.8-0.2-1.1c-0.3-0.3-0.6-0.4-1-0.3l-7.7,2.3c-0.2,0-0.3,0-0.5-0.1c-0.1-0.1-0.2-0.2-0.2-0.4   c-0.3-2.7,0.1-5.2,1.1-7.4c1.1-2.4,3.1-4.9,4.9-7.2c1.5-1.9,3-3.7,3.1-4.6c0-0.4,0-0.6-0.1-0.7c-0.1-0.1-0.4-0.1-0.5,0l-18.3,11.7   c-2.4,2.2-3.8,5.3-4.1,8.5c-1.2,17.7-9.6,34.2-23.2,45.2c-15.4,12.5-29.5,15.8-38.5,16.4C260.6,147.9,255.1,146.5,253.1,145.9z"></path>	</g>	<path d="M96,289.3h118.2c0.5-42.3,17.4-94,17.4-94l33,2.4l3.9-58.3c0,0-33.6-2.5-60.8-4.8c-18.4-1.6-52.4,5.1-72.6,9.6  c-10.3,2.3-19.5,8.2-25.8,16.7L90.3,186l20.5,11.6C93.2,227.3,93.4,265,96,289.3z"></path>	<g>		<g>			<path d="M177.6,206l5.1,83.7c0.1,1.3-0.6,2.5-1.7,3L83,338.4c-1,0.5-2,0.3-2.8-0.2c-0.8-0.5-3.1-2-3.1-2l-3.4-84.2    c-0.1-1.3,0.6-2.5,1.7-3l98.3-47.3c0,0,1.7,1.2,2.6,1.8C177,204.2,177.5,205,177.6,206z"></path>			<g>				<path class="st0" d="M174.5,204.2l5.1,83.7c0.1,1.3-0.6,2.5-1.7,3l-97.6,45.5c-1.9,0.9-4.1-0.5-4.2-2.6L70.8,250     c-0.1-1.3,0.6-2.5,1.7-3l97.6-45.5C172.1,200.6,174.3,202,174.5,204.2z"></path>				<path d="M78.9,337.2c-0.6,0-1.2-0.2-1.8-0.5c-1-0.6-1.7-1.7-1.8-2.9L70.3,250c-0.1-1.5,0.7-2.9,2.1-3.5L170,201     c1.1-0.5,2.2-0.4,3.3,0.2c1,0.6,1.7,1.7,1.8,2.9l5.1,83.7c0.1,1.5-0.7,2.9-2.1,3.5l-97.6,45.5C79.9,337,79.4,337.2,78.9,337.2z      M171.4,201.8c-0.3,0-0.7,0.1-1,0.2l-97.6,45.5c-0.9,0.4-1.5,1.4-1.4,2.5l5.1,83.7c0.1,0.9,0.5,1.6,1.2,2.1     c0.7,0.4,1.5,0.5,2.2,0.1l97.6-45.5c0.9-0.4,1.5-1.4,1.4-2.5l-5.1-83.7c-0.1-0.9-0.5-1.6-1.2-2.1     C172.3,201.9,171.9,201.8,171.4,201.8z"></path>			</g>		</g>		<g>			<path class="st0" d="M167.8,197.5l5.1,83.7c0.1,1.3-0.6,2.5-1.7,3l-97.6,45.5c-1.9,0.9-4.1-0.5-4.2-2.6l-5.1-83.7    c-0.1-1.3,0.6-2.5,1.7-3l97.6-45.5C165.5,194,167.7,195.4,167.8,197.5z"></path>			<path d="M72.2,330.5c-0.6,0-1.2-0.2-1.8-0.5c-1-0.6-1.7-1.7-1.8-2.9l-5.1-83.7c-0.1-1.5,0.7-2.9,2.1-3.5l97.6-45.5    c1.1-0.5,2.2-0.4,3.3,0.2c1,0.6,1.7,1.7,1.8,2.9l5.1,83.7c0.1,1.5-0.7,2.9-2.1,3.5l-97.6,45.5C73.2,330.4,72.7,330.5,72.2,330.5z     M164.8,195.2c-0.3,0-0.7,0.1-1,0.2l-97.6,45.5c-0.9,0.4-1.5,1.4-1.4,2.5l5.1,83.7c0.1,0.9,0.5,1.6,1.2,2.1    c0.7,0.4,1.5,0.5,2.2,0.1l97.6-45.5c0.9-0.4,1.5-1.4,1.4-2.5l-5.1-83.7c-0.1-0.9-0.5-1.6-1.2-2.1    C165.6,195.3,165.2,195.2,164.8,195.2z"></path>		</g>		<g>			<g>				<path class="st0" d="M162.2,204.8l4.5,73.8c0.1,1.1-0.5,2.2-1.5,2.6l-86,40.1c-1.7,0.8-3.6-0.4-3.7-2.3l-4.5-73.8     c-0.1-1.1,0.5-2.2,1.5-2.6l86-40.1C160.2,201.7,162.1,202.9,162.2,204.8z"></path>				<path d="M78,322c-0.6,0-1.1-0.2-1.6-0.4c-0.9-0.6-1.5-1.5-1.6-2.6l-4.5-73.8c-0.1-1.3,0.7-2.6,1.9-3.2l86-40.1     c1-0.4,2-0.4,2.9,0.2c0.9,0.6,1.5,1.5,1.6,2.6l4.5,73.8c0.1,1.3-0.7,2.6-1.9,3.2l-86,40.1C78.9,321.9,78.5,322,78,322z      M159.6,202.8c-0.3,0-0.6,0.1-0.9,0.2l-86,40.1c-0.8,0.4-1.3,1.2-1.2,2.1l4.5,73.8c0,0.7,0.4,1.4,1.1,1.8     c0.6,0.4,1.3,0.4,1.9,0.1l86-40.1c0.8-0.4,1.3-1.2,1.2-2.1l-4.5-73.8c0-0.7-0.4-1.4-1.1-1.8     C160.3,202.9,159.9,202.8,159.6,202.8z"></path>			</g>		</g>		<g>			<path d="M143.7,291.7c-0.2,0-0.4-0.1-0.5-0.3c-0.1-0.3,0-0.6,0.3-0.7l21.3-9.9c0.8-0.4,1.3-1.2,1.2-2.1l-0.5-8.2    c0-0.3,0.2-0.6,0.5-0.6c0.3,0,0.6,0.2,0.6,0.5l0.5,8.2c0.1,1.3-0.7,2.6-1.9,3.2l-21.3,9.9C143.8,291.7,143.7,291.7,143.7,291.7z"></path>			<path d="M75.3,241.9c-0.2,0-0.4-0.1-0.5-0.3c-0.1-0.3,0-0.6,0.3-0.7l14.1-6.6c0.3-0.1,0.6,0,0.7,0.3c0.1,0.3,0,0.6-0.3,0.7    l-14.1,6.6C75.5,241.8,75.4,241.9,75.3,241.9z"></path>		</g>	</g>	<g>		<path class="st0" d="M96.6,189.1l29.7,17.4c0,0-24.8,40.4,12.9,83.2l24.3-3c0,0-5.2,3.9-10.6,4.9c-5.4,1-6.5,6.7-6.5,6.7l11.1,6.1   c0,0-13.6,12.6-22.1,7.7C126.7,307.2,55.9,254.1,96.6,189.1z"></path>		<path d="M139.7,313.8c-1.7,0-3.3-0.4-4.8-1.2c-7.7-4.4-40.5-30-49.3-65.2c-4.9-19.9-1.4-39.6,10.4-58.6c0.2-0.2,0.5-0.3,0.7-0.2   l29.7,17.4c0.1,0.1,0.2,0.2,0.3,0.3c0,0.1,0,0.3-0.1,0.4c-0.1,0.1-6.2,10.2-7.6,25.4c-1.3,13.9,1.1,35.1,20.2,57l24-3   c0.2,0,0.5,0.1,0.6,0.3c0.1,0.2,0,0.5-0.2,0.6c-0.2,0.2-5.4,4-10.8,5c-4.2,0.8-5.6,4.7-6,5.9l10.7,5.9c0.2,0.1,0.3,0.2,0.3,0.4   c0,0.2,0,0.3-0.2,0.5C157.2,305.2,147.9,313.8,139.7,313.8z M96.7,189.8c-11.5,18.6-14.8,37.8-10,57.3   c8.6,34.8,41.2,60.1,48.7,64.5c7.1,4.1,18.3-4.9,20.9-7.1l-10.4-5.7c-0.2-0.1-0.3-0.4-0.3-0.6c0-0.1,1.3-6.1,7-7.1   c3.3-0.6,6.5-2.3,8.5-3.5l-22,2.7c-0.2,0-0.4,0-0.5-0.2c-19.6-22.3-22-43.9-20.7-58.1c1.3-13.5,6.2-23.1,7.5-25.3L96.7,189.8z"></path>	</g></g><g>	<path class="st0" d="M169.3,123.3c-1.3,0-2.6-0.2-3.8-0.6c-6.9-2.1-12.3-9.6-10.9-15.2c0.7-2.8,2.7-4.2,4.2-5.2  c1.3-0.9,1.8-1.3,2-2c0.1-0.6-0.1-1.1-1-2.4c-1-1.4-2.3-3.3-2.5-6.2c-0.2-3.5,1.4-7.4,4.3-10.6c2.9-3.2,6.6-5.1,10.1-5.2l0.3,0  c2.4,0,3.9,0.9,5.1,1.6c0.9,0.6,1.6,1,3,1.1c0.1,0,0.3,0,0.4,0c1.7,0,2.8-0.7,4.4-1.8c1.9-1.2,4.2-2.8,8-3.1  c0.5-0.1,1.1-0.1,1.6-0.1c4.7,0,8.5,2,11.5,3.6c5.3,2.8,9.1,4.7,9.6,8.7c0.5,4.2-3.3,6.4-7.7,8.9c-4.3,2.4-10.1,5.8-15.7,12.3  c-1.1,1.3-2,2.5-2.9,3.7c-2.3,3-4.5,5.9-8.8,8.6C177.9,120.9,174,123.3,169.3,123.3z"></path>	<path d="M179,117c-3,1.8-7.6,4.7-12.8,3.2c-5.5-1.6-10.1-7.8-9-12c0.9-3.6,5.5-3.6,6.3-7.3c0.7-3.6-3.2-4.9-3.5-9.3  c-0.4-5.8,6-12.8,11.8-13c3.6-0.1,4,2.4,8.1,2.7c5.7,0.3,6.8-4.3,13.2-4.9c4.6-0.4,8.4,1.5,11.6,3.2c4.7,2.5,7.8,4.1,8.1,6.6  c0.6,5.2-11.5,6-22.7,19.1C186.1,110,184.5,113.5,179,117z"></path>	<g>		<path class="st0" d="M198.1,121.3c4.4-11.9-5.2-26.9-5.9-28.2c0,0-5.4,4.5-12.6,4c-7.2-0.5-6.6,9.3-6.6,9.3   c-3.9-0.9-4.6,1.8-3.6,7.1c1,5.4,6.3,3.8,6.3,3.8c0.7,0.9,1.5,1.7,2.3,2.3l-9.1,13.5c-2.5,3.7-6,6.6-10,8.4l-3.7,1.6   c-1,0.4-0.8,1.9,0.3,2c7.2,1,24.2,2.2,37-5.2c0.8-0.4,0.6-1.6-0.3-1.8l-3-0.6c-2.1-0.4-3.2-2.8-2.2-4.7l4.6-8.9   c1.6-0.1,3-0.3,4-0.5C196.8,123.2,197.7,122.4,198.1,121.3z"></path>		<path d="M166.3,146.4c-4.5,0-8.4-0.4-10.9-0.7c-0.7-0.1-1.3-0.6-1.4-1.3c-0.1-0.7,0.3-1.4,0.9-1.7l3.7-1.6c4-1.8,7.4-4.6,9.8-8.2   l8.9-13.1c-0.6-0.6-1.2-1.2-1.8-1.8c-0.8,0.2-2.7,0.4-4.4-0.6c-1.2-0.7-2-2-2.3-3.7c-0.7-3.8-0.5-6.1,0.7-7.2   c0.7-0.7,1.6-0.9,2.9-0.7c0-1.6,0.3-5.3,2.5-7.5c1.2-1.2,2.8-1.7,4.7-1.6c6.9,0.5,12.1-3.8,12.2-3.9c0.1-0.1,0.3-0.1,0.4-0.1   c0.2,0,0.3,0.1,0.4,0.3c0,0.1,0.1,0.2,0.2,0.3c3.7,6.3,9.4,18.3,5.7,28.3c-0.5,1.3-1.6,2.3-2.9,2.5c-1.2,0.3-2.5,0.4-3.8,0.5   l-4.5,8.6c-0.4,0.8-0.4,1.6,0,2.4c0.4,0.8,1.1,1.3,1.9,1.5l3,0.6c0.6,0.1,1.1,0.6,1.2,1.3c0.1,0.6-0.2,1.2-0.7,1.5   C184.4,145.2,174.3,146.4,166.3,146.4z M175.8,116.8c0.2,0,0.3,0.1,0.4,0.2c0.7,0.8,1.4,1.6,2.3,2.3c0.2,0.2,0.3,0.5,0.1,0.7   l-9.1,13.5c-2.6,3.8-6.1,6.7-10.3,8.6l-3.7,1.6c-0.3,0.1-0.3,0.4-0.3,0.5c0,0.1,0.1,0.4,0.4,0.4c6.8,0.9,23.9,2.2,36.6-5.2   c0.2-0.1,0.2-0.3,0.2-0.4c0-0.1-0.1-0.3-0.3-0.4l-3-0.6c-1.2-0.3-2.1-1-2.6-2.1c-0.5-1.1-0.5-2.3,0.1-3.4l4.6-8.9   c0.1-0.2,0.3-0.3,0.5-0.3c1.3-0.1,2.7-0.2,3.9-0.5c1-0.2,1.8-0.9,2.1-1.8c3.6-9.8-2.5-22.1-5.5-27.2c-1.5,1.1-6.3,4.1-12.5,3.7   c-1.6-0.1-2.9,0.3-3.9,1.3c-2.4,2.4-2.2,7.3-2.1,7.4c0,0.2-0.1,0.3-0.2,0.4c-0.1,0.1-0.3,0.2-0.5,0.1c-1.3-0.3-2.1-0.2-2.6,0.3   c-0.8,0.8-1,2.8-0.3,6.2c0.3,1.4,0.8,2.4,1.8,3c1.6,1,3.8,0.4,3.8,0.4C175.7,116.8,175.7,116.8,175.8,116.8z M198.1,121.3   L198.1,121.3L198.1,121.3z"></path>	</g>	<path d="M190.4,124.6c-3.9,0-7.5-2.1-7.7-2.3c-0.3-0.2-0.3-0.5-0.2-0.7c0.2-0.3,0.5-0.3,0.7-0.2c0,0,4.2,2.5,8.2,2  c0.3,0,0.6,0.2,0.6,0.5c0,0.3-0.2,0.6-0.5,0.6C191.3,124.6,190.8,124.6,190.4,124.6z"></path></g><path class="st0" d="M171.8,153.4c-4.4,0-8.2-0.5-11.5-1.1c-10.1-2-16.1-5.8-16.3-6c-0.3-0.2-0.3-0.5-0.2-0.8 c0.2-0.3,0.5-0.3,0.8-0.2c0.2,0.2,24.2,15.4,56.6,0c0.3-0.1,0.6,0,0.7,0.3c0.1,0.3,0,0.6-0.3,0.7 C190.4,151.8,180.1,153.4,171.8,153.4z"></path><path class="st1" d="M353.6,178.2c-0.4,0-0.9,0-1.3,0c-0.3,0-0.5-0.3-0.5-0.6c0-0.3,0.2-0.5,0.5-0.5c0,0,0,0,0,0 c2.1,0,4.3,0,6.5-0.2c0.3,0,0.6,0.2,0.6,0.5c0,0.3-0.2,0.6-0.5,0.6C357.1,178.2,355.3,178.2,353.6,178.2z M345.8,177.9 C345.8,177.9,345.8,177.9,345.8,177.9c-2.2-0.2-4.4-0.5-6.6-0.9c-0.3-0.1-0.5-0.3-0.4-0.6c0.1-0.3,0.3-0.5,0.6-0.4 c2.1,0.4,4.3,0.7,6.4,0.9c0.3,0,0.5,0.3,0.5,0.6C346.3,177.7,346.1,177.9,345.8,177.9z M365.3,177.4c-0.3,0-0.5-0.2-0.5-0.5 c0-0.3,0.2-0.6,0.5-0.6c2.1-0.3,4.3-0.7,6.4-1.2c0.3-0.1,0.6,0.1,0.7,0.4c0.1,0.3-0.1,0.6-0.4,0.7 C369.7,176.6,367.6,177,365.3,177.4C365.4,177.4,365.3,177.4,365.3,177.4z M333,175.5c0,0-0.1,0-0.1,0c-2.1-0.6-4.2-1.2-6.3-2 c-0.3-0.1-0.4-0.4-0.3-0.7c0.1-0.3,0.4-0.4,0.7-0.3c2,0.7,4.1,1.4,6.2,2c0.3,0.1,0.5,0.4,0.4,0.7C333.4,175.3,333.2,175.5,333,175.5 z M378,174.4c-0.2,0-0.4-0.1-0.5-0.4c-0.1-0.3,0.1-0.6,0.3-0.7c2-0.7,4.1-1.4,6.1-2.3c0.3-0.1,0.6,0,0.7,0.3c0.1,0.3,0,0.6-0.3,0.7 c-2,0.9-4.1,1.6-6.1,2.3C378.1,174.3,378.1,174.4,378,174.4z M320.7,171c-0.1,0-0.2,0-0.2-0.1c-2-0.9-3.9-1.9-5.8-3 c-0.3-0.1-0.4-0.5-0.2-0.7c0.1-0.3,0.5-0.4,0.7-0.2c1.9,1.1,3.8,2.1,5.8,3c0.3,0.1,0.4,0.5,0.3,0.7C321.1,170.9,320.9,171,320.7,171 z M390,169.3c-0.2,0-0.4-0.1-0.5-0.3c-0.1-0.3,0-0.6,0.2-0.7c1.9-1,3.8-2.1,5.6-3.3c0.3-0.2,0.6-0.1,0.8,0.2 c0.2,0.3,0.1,0.6-0.2,0.8c-1.8,1.2-3.7,2.3-5.7,3.3C390.2,169.2,390.1,169.3,390,169.3z M309.4,164.5c-0.1,0-0.2,0-0.3-0.1 c-1.8-1.2-3.6-2.6-5.3-3.9c-0.2-0.2-0.3-0.5-0.1-0.8c0.2-0.2,0.5-0.3,0.8-0.1c1.7,1.4,3.4,2.7,5.2,3.9c0.2,0.2,0.3,0.5,0.1,0.8 C309.7,164.5,309.6,164.5,309.4,164.5z M401,162.2c-0.2,0-0.3-0.1-0.4-0.2c-0.2-0.2-0.1-0.6,0.1-0.8c1.7-1.3,3.4-2.7,5-4.1 c0.2-0.2,0.6-0.2,0.8,0c0.2,0.2,0.2,0.6,0,0.8c-1.6,1.5-3.3,2.9-5.1,4.2C401.2,162.2,401.1,162.2,401,162.2z M299.3,156.3 c-0.1,0-0.3-0.1-0.4-0.2c-1.6-1.5-3.1-3.1-4.5-4.8c-0.2-0.2-0.2-0.6,0.1-0.8c0.2-0.2,0.6-0.2,0.8,0.1c1.4,1.6,2.9,3.2,4.5,4.7 c0.2,0.2,0.2,0.6,0,0.8C299.6,156.2,299.4,156.3,299.3,156.3z M410.7,153.5c-0.1,0-0.3,0-0.4-0.1c-0.2-0.2-0.2-0.5,0-0.8 c1.5-1.6,2.9-3.2,4.2-4.9c0.2-0.2,0.5-0.3,0.8-0.1c0.2,0.2,0.3,0.5,0.1,0.8c-1.4,1.7-2.8,3.4-4.3,5 C411,153.4,410.8,153.5,410.7,153.5z M290.7,146.5c-0.2,0-0.3-0.1-0.4-0.2c-1.3-1.8-2.5-3.6-3.7-5.4c-0.2-0.3-0.1-0.6,0.2-0.7 c0.3-0.2,0.6-0.1,0.7,0.2c1.1,1.8,2.4,3.6,3.6,5.4c0.2,0.2,0.1,0.6-0.1,0.8C290.9,146.4,290.8,146.5,290.7,146.5z M418.8,143.2 c-0.1,0-0.2,0-0.3-0.1c-0.3-0.2-0.3-0.5-0.2-0.8c1.2-1.8,2.3-3.7,3.4-5.5c0.1-0.3,0.5-0.4,0.7-0.2c0.3,0.1,0.4,0.5,0.2,0.7 c-1.1,1.9-2.2,3.8-3.4,5.6C419.1,143.2,418.9,143.2,418.8,143.2z M283.8,135.4c-0.2,0-0.4-0.1-0.5-0.3c-1-1.9-1.9-4-2.7-6 c-0.1-0.3,0-0.6,0.3-0.7c0.3-0.1,0.6,0,0.7,0.3c0.8,2,1.7,4,2.7,5.9c0.1,0.3,0,0.6-0.2,0.7C284,135.4,283.9,135.4,283.8,135.4z  M425,131.8c-0.1,0-0.1,0-0.2,0c-0.3-0.1-0.4-0.4-0.3-0.7c0.9-2,1.7-4,2.4-6c0.1-0.3,0.4-0.4,0.7-0.3c0.3,0.1,0.4,0.4,0.3,0.7 c-0.7,2.1-1.5,4.1-2.4,6.1C425.4,131.7,425.2,131.8,425,131.8z M278.9,123.3c-0.2,0-0.4-0.1-0.5-0.4c-0.6-2.1-1.2-4.2-1.7-6.4 c-0.1-0.3,0.1-0.6,0.4-0.6c0.3-0.1,0.6,0.1,0.6,0.4c0.5,2.1,1,4.2,1.7,6.3c0.1,0.3-0.1,0.6-0.4,0.7 C279.1,123.3,279,123.3,278.9,123.3z M429.3,119.5c0,0-0.1,0-0.1,0c-0.3-0.1-0.5-0.4-0.4-0.7c0.5-2.1,1-4.2,1.3-6.3 c0-0.3,0.3-0.5,0.6-0.4c0.3,0,0.5,0.3,0.4,0.6c-0.4,2.2-0.8,4.3-1.4,6.4C429.8,119.3,429.6,119.5,429.3,119.5z M276.1,110.6 c-0.3,0-0.5-0.2-0.5-0.5c-0.3-2.2-0.5-4.4-0.6-6.5c0-0.3,0.2-0.6,0.5-0.6c0.3,0,0.6,0.2,0.6,0.5c0.1,2.2,0.3,4.3,0.6,6.5 C276.7,110.2,276.5,110.5,276.1,110.6C276.2,110.6,276.2,110.6,276.1,110.6z M431.5,106.6C431.5,106.6,431.4,106.6,431.5,106.6 c-0.3,0-0.6-0.3-0.5-0.6c0.2-2.1,0.3-4.3,0.3-6.5c0-0.3,0.2-0.5,0.5-0.5c0.3,0,0.5,0.2,0.5,0.5c0,2.2-0.1,4.4-0.3,6.6 C432,106.4,431.8,106.6,431.5,106.6z M431.7,98.7c-0.3,0-0.5-0.2-0.5-0.5c0-2.2-0.2-4.3-0.4-6.5c0-0.3,0.2-0.6,0.5-0.6 c0.3,0,0.6,0.2,0.6,0.5c0.2,2.2,0.3,4.4,0.4,6.6C432.3,98.5,432,98.7,431.7,98.7C431.7,98.7,431.7,98.7,431.7,98.7z M275.5,97.5 C275.5,97.5,275.5,97.5,275.5,97.5c-0.3,0-0.6-0.3-0.5-0.6c0.1-2.2,0.2-4.4,0.5-6.6c0-0.3,0.3-0.5,0.6-0.5c0.3,0,0.5,0.3,0.5,0.6 c-0.2,2.1-0.4,4.3-0.5,6.5C276,97.3,275.8,97.5,275.5,97.5z M430.4,85.7c-0.3,0-0.5-0.2-0.5-0.4c-0.4-2.1-0.9-4.2-1.4-6.3 c-0.1-0.3,0.1-0.6,0.4-0.7c0.3-0.1,0.6,0.1,0.7,0.4c0.6,2.1,1.1,4.3,1.5,6.4C431,85.4,430.8,85.7,430.4,85.7 C430.5,85.7,430.5,85.7,430.4,85.7z M277,84.6c0,0-0.1,0-0.1,0c-0.3-0.1-0.5-0.3-0.4-0.6c0.4-2.1,1-4.3,1.6-6.4 c0.1-0.3,0.4-0.5,0.7-0.4c0.3,0.1,0.5,0.4,0.4,0.7c-0.6,2.1-1.1,4.2-1.5,6.3C277.5,84.4,277.2,84.6,277,84.6z M427,73.2 c-0.2,0-0.4-0.1-0.5-0.4c-0.7-2-1.6-4-2.5-6c-0.1-0.3,0-0.6,0.3-0.7c0.3-0.1,0.6,0,0.7,0.3c0.9,2,1.8,4,2.5,6.1 c0.1,0.3,0,0.6-0.3,0.7C427.1,73.2,427,73.2,427,73.2z M280.6,72c-0.1,0-0.1,0-0.2,0c-0.3-0.1-0.4-0.4-0.3-0.7c0.8-2,1.7-4.1,2.6-6 c0.1-0.3,0.5-0.4,0.7-0.3c0.3,0.1,0.4,0.5,0.3,0.7c-0.9,1.9-1.8,3.9-2.6,5.9C281.1,71.9,280.8,72,280.6,72z M421.5,61.3 c-0.2,0-0.4-0.1-0.5-0.3c-1.1-1.9-2.2-3.7-3.5-5.5c-0.2-0.2-0.1-0.6,0.1-0.8c0.2-0.2,0.6-0.1,0.8,0.1c1.2,1.8,2.4,3.7,3.5,5.6 c0.1,0.3,0.1,0.6-0.2,0.7C421.7,61.3,421.6,61.3,421.5,61.3z M286.3,60.3c-0.1,0-0.2,0-0.3-0.1c-0.3-0.2-0.3-0.5-0.2-0.7 c1.1-1.9,2.3-3.7,3.6-5.5c0.2-0.2,0.5-0.3,0.8-0.1c0.2,0.2,0.3,0.5,0.1,0.8c-1.2,1.8-2.4,3.6-3.5,5.4 C286.7,60.2,286.5,60.3,286.3,60.3z M414.1,50.6c-0.2,0-0.3-0.1-0.4-0.2c-1.4-1.7-2.8-3.3-4.3-4.8c-0.2-0.2-0.2-0.6,0-0.8 c0.2-0.2,0.6-0.2,0.8,0c1.5,1.6,3,3.2,4.4,4.9c0.2,0.2,0.2,0.6-0.1,0.8C414.3,50.6,414.2,50.6,414.1,50.6z M293.9,49.7 c-0.1,0-0.2,0-0.4-0.1c-0.2-0.2-0.3-0.5-0.1-0.8c1.4-1.7,2.9-3.3,4.4-4.8c0.2-0.2,0.6-0.2,0.8,0c0.2,0.2,0.2,0.6,0,0.8 c-1.5,1.5-3,3.1-4.4,4.8C294.2,49.6,294,49.7,293.9,49.7z M405,41.2c-0.1,0-0.3,0-0.4-0.1c-1.6-1.4-3.3-2.8-5.1-4.1 c-0.2-0.2-0.3-0.5-0.1-0.8c0.2-0.2,0.5-0.3,0.8-0.1c1.8,1.3,3.5,2.7,5.1,4.1c0.2,0.2,0.2,0.5,0.1,0.8 C405.3,41.2,405.1,41.2,405,41.2z M303.1,40.4c-0.2,0-0.3-0.1-0.4-0.2c-0.2-0.2-0.2-0.6,0.1-0.8c1.7-1.4,3.4-2.8,5.2-4 c0.2-0.2,0.6-0.1,0.8,0.1c0.2,0.2,0.1,0.6-0.1,0.8c-1.7,1.2-3.5,2.6-5.1,4C303.4,40.4,303.2,40.4,303.1,40.4z M394.5,33.5 c-0.1,0-0.2,0-0.3-0.1c-1.8-1.1-3.7-2.2-5.7-3.2c-0.3-0.1-0.4-0.5-0.2-0.7c0.1-0.3,0.5-0.4,0.7-0.2c1.9,1,3.9,2.1,5.7,3.2 c0.3,0.2,0.3,0.5,0.2,0.7C394.9,33.4,394.7,33.5,394.5,33.5z M313.7,32.9c-0.2,0-0.4-0.1-0.5-0.3c-0.2-0.3-0.1-0.6,0.2-0.7 c1.9-1.1,3.8-2.2,5.8-3.1c0.3-0.1,0.6,0,0.7,0.3c0.1,0.3,0,0.6-0.3,0.7c-1.9,0.9-3.9,2-5.7,3.1C313.9,32.8,313.8,32.9,313.7,32.9z  M382.8,27.6c-0.1,0-0.1,0-0.2,0c-2-0.8-4.1-1.5-6.1-2.2c-0.3-0.1-0.4-0.4-0.4-0.7c0.1-0.3,0.4-0.5,0.7-0.4c2.1,0.6,4.2,1.4,6.2,2.2 c0.3,0.1,0.4,0.4,0.3,0.7C383.3,27.5,383.1,27.6,382.8,27.6z M325.5,27.2c-0.2,0-0.4-0.1-0.5-0.3c-0.1-0.3,0-0.6,0.3-0.7 c2-0.8,4.1-1.5,6.2-2.1c0.3-0.1,0.6,0.1,0.7,0.4c0.1,0.3-0.1,0.6-0.4,0.7c-2.1,0.6-4.1,1.3-6.1,2.1 C325.6,27.2,325.5,27.2,325.5,27.2z M370.4,23.8c0,0-0.1,0-0.1,0c-2.1-0.5-4.2-0.8-6.4-1.1c-0.3,0-0.5-0.3-0.5-0.6 c0-0.3,0.3-0.5,0.6-0.5c2.2,0.3,4.3,0.7,6.5,1.1c0.3,0.1,0.5,0.4,0.4,0.6C370.9,23.6,370.6,23.8,370.4,23.8z M338,23.5 c-0.3,0-0.5-0.2-0.5-0.4c-0.1-0.3,0.1-0.6,0.4-0.6c2.1-0.4,4.3-0.8,6.5-1c0.3,0,0.6,0.2,0.6,0.5c0,0.3-0.2,0.6-0.5,0.6 c-2.1,0.3-4.3,0.6-6.4,1C338,23.5,338,23.5,338,23.5z M357.5,22C357.4,22,357.4,22,357.5,22c-2.2-0.1-4.4-0.1-6.5,0c0,0,0,0,0,0 c-0.3,0-0.5-0.2-0.5-0.5c0-0.3,0.2-0.6,0.5-0.6c2.1-0.1,4.4-0.1,6.6,0c0.3,0,0.5,0.3,0.5,0.6C358,21.8,357.7,22,357.5,22z"></path><g>	<path class="st0" d="M353.6,32.8c-36.9,0-66.8,29.9-66.8,66.8s29.9,66.8,66.8,66.8c36.9,0,66.8-29.9,66.8-66.8  S390.5,32.8,353.6,32.8z M353.6,153.8c-30,0-54.3-24.3-54.3-54.3c0-30,24.3-54.3,54.3-54.3c30,0,54.3,24.3,54.3,54.3  C407.9,129.5,383.6,153.8,353.6,153.8z"></path>	<path class="st0" d="M353.6,168.2c-37.9,0-68.7-30.8-68.7-68.7s30.8-68.7,68.7-68.7s68.7,30.8,68.7,68.7S391.4,168.2,353.6,168.2z   M353.6,34.7c-35.8,0-64.9,29.1-64.9,64.9c0,35.8,29.1,64.9,64.9,64.9s64.9-29.1,64.9-64.9C418.5,63.8,389.4,34.7,353.6,34.7z   M353.6,155.7c-31,0-56.2-25.2-56.2-56.2s25.2-56.2,56.2-56.2s56.2,25.2,56.2,56.2S384.6,155.7,353.6,155.7z M353.6,47.2  c-28.9,0-52.4,23.5-52.4,52.4c0,28.9,23.5,52.4,52.4,52.4S406,128.4,406,99.6C406,70.7,382.5,47.2,353.6,47.2z"></path>	<path d="M353.6,166.9c-37.1,0-67.3-30.2-67.3-67.3s30.2-67.3,67.3-67.3c37.1,0,67.3,30.2,67.3,67.3S390.7,166.9,353.6,166.9z   M353.6,33.3c-36.5,0-66.2,29.7-66.2,66.2s29.7,66.2,66.2,66.2s66.2-29.7,66.2-66.2S390.1,33.3,353.6,33.3z M353.6,154.4  c-30.2,0-54.8-24.6-54.8-54.8s24.6-54.8,54.8-54.8c30.2,0,54.8,24.6,54.8,54.8S383.8,154.4,353.6,154.4z M353.6,45.8  c-29.6,0-53.7,24.1-53.7,53.7s24.1,53.7,53.7,53.7c29.6,0,53.7-24.1,53.7-53.7S383.2,45.8,353.6,45.8z"></path></g><g>	<g>		<path class="st0" d="M313.9,62.6l-8.8-8.8c-3,3.2-5.7,6.7-8.1,10.5l10.8,6.3C309.5,67.7,311.6,65,313.9,62.6z"></path>		<path d="M307.7,71.1c-0.1,0-0.2,0-0.3-0.1l-10.8-6.3c-0.1-0.1-0.2-0.2-0.3-0.3c0-0.1,0-0.3,0.1-0.4c2.4-3.8,5.1-7.3,8.1-10.5   c0.1-0.1,0.2-0.2,0.4-0.2c0.1,0,0.3,0.1,0.4,0.2l8.8,8.8c0.2,0.2,0.2,0.5,0,0.8c-2.3,2.4-4.3,5.1-6.1,7.8   C308.1,71,307.9,71.1,307.7,71.1z M297.7,64l9.9,5.8c1.6-2.5,3.5-4.9,5.5-7.2l-8.1-8.1C302.3,57.5,299.9,60.7,297.7,64z"></path>	</g>	<g>		<path class="st0" d="M355.5,32.8v12.5c13,0.5,24.8,5.5,33.9,13.5l8.6-9.1C386.7,39.6,371.8,33.3,355.5,32.8z"></path>		<path d="M389.4,59.4c-0.1,0-0.3,0-0.4-0.1c-9.3-8.2-21.2-12.9-33.6-13.4c-0.3,0-0.5-0.3-0.5-0.5V32.8c0-0.1,0.1-0.3,0.2-0.4   c0.1-0.1,0.3-0.2,0.4-0.2c15.8,0.5,31,6.5,42.8,17c0.1,0.1,0.2,0.2,0.2,0.4c0,0.1,0,0.3-0.1,0.4l-8.6,9.1   C389.7,59.3,389.6,59.4,389.4,59.4z M356.1,44.8c12.2,0.6,24,5.2,33.3,13.3l7.8-8.3c-11.4-10-26-15.8-41.2-16.4V44.8z"></path>	</g>	<path d="M392.3,61.5c9.6,9.8,15.6,23.2,15.6,38.1c0,4.7-0.6,9.2-1.7,13.6l11.9,3.7c1.5-5.5,2.3-11.3,2.3-17.2  c0-18.4-7.4-35.1-19.5-47.1L392.3,61.5z"></path>	<path d="M393.3,136.5l8.8,8.8c6.6-7,11.7-15.5,14.8-24.8l-11.9-3.7C402.5,124.3,398.5,130.9,393.3,136.5z"></path>	<path d="M314.9,137.6c-9.6-9.8-15.6-23.2-15.6-38.1c0-9.3,2.3-18,6.4-25.7L295,67.6c-5.2,9.5-8.1,20.4-8.1,32  c0,18.4,7.4,35.1,19.5,47.1L314.9,137.6z"></path>	<g>		<path class="st0" d="M390.6,139.3c-9.2,8.6-21.5,14-35,14.5v12.5c17-0.5,32.3-7.3,43.8-18.2L390.6,139.3z"></path>		<path d="M355.5,166.8c-0.1,0-0.3-0.1-0.4-0.2c-0.1-0.1-0.2-0.2-0.2-0.4v-12.5c0-0.3,0.2-0.5,0.5-0.5c12.9-0.5,25.2-5.6,34.7-14.4   c0.2-0.2,0.5-0.2,0.8,0l8.8,8.8c0.1,0.1,0.2,0.2,0.2,0.4c0,0.1-0.1,0.3-0.2,0.4C387.8,159.9,372.1,166.4,355.5,166.8   C355.6,166.8,355.6,166.8,355.5,166.8z M356.1,154.3v11.4c15.8-0.6,30.9-6.8,42.5-17.6l-8.1-8.1   C381.1,148.7,368.9,153.7,356.1,154.3z"></path>	</g>	<path d="M316.6,59.8c9.2-8.6,21.5-14,35-14.5V32.8c-17,0.5-32.3,7.3-43.8,18.2L316.6,59.8z"></path>	<g>		<path class="st0" d="M351.6,166.3v-12.5c-13-0.5-24.8-5.5-33.9-13.5l-8.6,9.1C320.5,159.5,335.3,165.8,351.6,166.3z"></path>		<path d="M351.6,166.8C351.6,166.8,351.6,166.8,351.6,166.8c-15.8-0.5-31-6.5-42.8-17c-0.1-0.1-0.2-0.2-0.2-0.4   c0-0.1,0-0.3,0.1-0.4l8.6-9.1c0.2-0.2,0.5-0.2,0.8,0c9.3,8.2,21.2,12.9,33.6,13.4c0.3,0,0.5,0.3,0.5,0.5v12.5   c0,0.1-0.1,0.3-0.2,0.4C351.9,166.8,351.8,166.8,351.6,166.8z M309.9,149.3c11.4,10,26,15.8,41.2,16.4v-11.4   c-12.2-0.6-24-5.2-33.3-13.3L309.9,149.3z"></path>	</g></g><g>	<path d="M353.6,142.9c-5.5,0-10.9-1-16.1-3.1c-0.3-0.1-0.4-0.4-0.3-0.7c0.1-0.3,0.4-0.4,0.7-0.3c5,2,10.2,3,15.7,3  c18.4,0,34.6-11.8,40.2-29.3c0.1-0.3,0.4-0.4,0.7-0.4c0.3,0.1,0.4,0.4,0.4,0.7C389.1,130.8,372.5,142.9,353.6,142.9z"></path>	<path d="M395.2,90.1c-0.2,0-0.5-0.2-0.5-0.4c-0.9-3.6-2.2-7.1-4-10.4c-0.1-0.3,0-0.6,0.2-0.7c0.3-0.1,0.6,0,0.7,0.2  c1.8,3.4,3.2,6.9,4.1,10.7c0.1,0.3-0.1,0.6-0.4,0.7C395.3,90.1,395.2,90.1,395.2,90.1z"></path>	<path d="M326.1,132.9c-0.1,0-0.2,0-0.3-0.1c-9.8-8.3-15.5-20.3-15.5-33.2c0-23.9,19.4-43.3,43.3-43.3c4.5,0,8.9,0.7,13.2,2  c0.3,0.1,0.4,0.4,0.4,0.7c-0.1,0.3-0.4,0.4-0.7,0.4c-4.1-1.3-8.5-2-12.9-2c-23.3,0-42.2,18.9-42.2,42.2c0,12.5,5.5,24.3,15.1,32.3  c0.2,0.2,0.3,0.5,0.1,0.8C326.4,132.8,326.3,132.9,326.1,132.9z"></path></g><g>	<g>		<polygon class="st0" points="425.7,313.3 173.4,313.3 173.4,323.1 212.8,323.1 182.1,451.4 188.8,451.4 216.7,335.5 244.7,451.4    251.4,451.4 220.7,323.1 425.7,323.1   "></polygon>		<path d="M251.4,452h-6.7c-0.3,0-0.5-0.2-0.5-0.4l-27.4-113.8l-27.4,113.8c-0.1,0.2-0.3,0.4-0.5,0.4h-6.7c-0.2,0-0.3-0.1-0.4-0.2   c-0.1-0.1-0.1-0.3-0.1-0.5l30.5-127.7h-38.7c-0.3,0-0.5-0.2-0.5-0.5v-9.9c0-0.3,0.2-0.5,0.5-0.5h252.3c0.3,0,0.5,0.2,0.5,0.5v9.9   c0,0.3-0.2,0.5-0.5,0.5H221.4l30.5,127.7c0,0.2,0,0.3-0.1,0.5C251.7,451.9,251.5,452,251.4,452z M245.1,450.9h5.6l-30.5-127.7   c0-0.2,0-0.3,0.1-0.5c0.1-0.1,0.3-0.2,0.4-0.2h204.5v-8.8H174v8.8h38.8c0.2,0,0.3,0.1,0.4,0.2c0.1,0.1,0.1,0.3,0.1,0.5   l-30.5,127.7h5.6l27.9-115.6c0.1-0.2,0.3-0.4,0.5-0.4c0.3,0,0.5,0.2,0.5,0.4L245.1,450.9z"></path>	</g>	<g>		<polygon class="st0" points="362.9,451.4 390.9,335.4 418.8,451.4 425.5,451.4 394.8,323 386.9,323 356.2,451.4   "></polygon>		<path d="M425.5,452h-6.7c-0.3,0-0.5-0.2-0.5-0.4l-27.4-113.8l-27.4,113.8c-0.1,0.2-0.3,0.4-0.5,0.4h-6.7c-0.2,0-0.3-0.1-0.4-0.2   c-0.1-0.1-0.1-0.3-0.1-0.5l30.7-128.4c0.1-0.2,0.3-0.4,0.5-0.4l7.9,0c0.3,0,0.5,0.2,0.5,0.4l30.7,128.4c0,0.2,0,0.3-0.1,0.5   C425.8,451.9,425.7,452,425.5,452z M419.3,450.9h5.6l-30.5-127.3l-7,0l-30.5,127.3h5.6l27.9-115.6c0.1-0.2,0.3-0.4,0.5-0.4   s0.5,0.2,0.5,0.4L419.3,450.9z"></path>	</g>	<path class="st0" d="M360.6,321.6c-0.3,0-0.5-0.2-0.5-0.5V315c0-0.3,0.2-0.5,0.5-0.5c0.3,0,0.5,0.2,0.5,0.5v6.1  C361.2,321.4,360.9,321.6,360.6,321.6z"></path></g><g>	<g>		<g>			<g>				<path class="st0" d="M343.7,426.2l-2.6,13c-0.1,0.4-0.5,0.7-0.9,0.6l-7.6-1.9c-0.3-0.1-0.5-0.4-0.5-0.8l2.2-11.6L343.7,426.2z"></path>				<path d="M340.3,440.4c-0.1,0-0.2,0-0.3,0l-7.6-1.9c-0.6-0.2-1-0.8-0.9-1.4l2.2-11.6c0.1-0.3,0.3-0.5,0.6-0.4l9.4,0.7     c0.2,0,0.3,0.1,0.4,0.2c0.1,0.1,0.1,0.3,0.1,0.4l-2.6,13c-0.1,0.4-0.3,0.7-0.6,0.9C340.8,440.3,340.5,440.4,340.3,440.4z      M334.7,426.1l-2.1,11.1c0,0.1,0,0.2,0.1,0.2l7.6,1.9c0,0,0.1,0,0.1,0c0.1,0,0.1-0.1,0.1-0.2l2.5-12.4L334.7,426.1z"></path>			</g>			<g>				<polygon class="st0" points="368.2,415.1 374.6,425.7 367.3,429.5 360.7,420.1     "></polygon>				<path d="M367.3,430.1c-0.2,0-0.3-0.1-0.4-0.2l-6.6-9.4c-0.1-0.1-0.1-0.3-0.1-0.4c0-0.1,0.1-0.3,0.2-0.4l7.5-5     c0.1-0.1,0.3-0.1,0.4-0.1c0.1,0,0.3,0.1,0.3,0.2l6.4,10.6c0.1,0.1,0.1,0.3,0.1,0.4c0,0.1-0.1,0.3-0.3,0.3l-7.3,3.9     C367.5,430.1,367.4,430.1,367.3,430.1z M361.5,420.2l6,8.6l6.4-3.4l-5.8-9.6L361.5,420.2z"></path>			</g>			<g>				<g>					<path class="st0" d="M343.8,433.5c0.5,1.9,1.6,7.1,2.1,10.3c0.3,2-1,3.9-2.9,4.4c-5.4,1.5-18.4,1.4-29.2,1.9      c-0.7,0-2.1-0.3-2.7-2.1c-2.1-6.1,9.3-8,20.5-14.1c0.2-0.1,0.5-0.1,0.7,0c0.1,0.1,0.3,0.2,0.5,0.3c2,1.2,5.2,1.2,7.2,0.1      l2.2-1.3C342.8,432.5,343.6,432.8,343.8,433.5z"></path>					<path d="M313.7,450.6c-1.1,0-2.5-0.6-3.1-2.5c-1.6-4.7,3.9-7.1,11-10.1c3-1.3,6.4-2.8,9.8-4.7c0.4-0.2,0.9-0.2,1.3,0.1      c0.1,0.1,0.3,0.2,0.5,0.3c1.8,1.1,4.8,1.1,6.6,0l2.2-1.3c0.4-0.3,1-0.3,1.4-0.1c0.5,0.2,0.8,0.6,1,1.1c0,0,0,0,0,0      c0.5,1.9,1.6,7.2,2.1,10.4c0.3,2.2-1.1,4.4-3.3,5c-4.1,1.1-12.2,1.4-20.8,1.6c-2.9,0.1-5.8,0.2-8.6,0.3      C313.7,450.6,313.7,450.6,313.7,450.6z M331.9,434.3C331.9,434.3,331.8,434.3,331.9,434.3c-3.5,1.9-6.9,3.4-10,4.7      c-7.4,3.2-11.6,5.2-10.4,8.8c0.6,1.7,1.9,1.8,2.2,1.8c2.8-0.1,5.7-0.2,8.6-0.3c8.1-0.2,16.5-0.5,20.5-1.6      c1.7-0.5,2.7-2.1,2.5-3.8c-0.4-3-1.5-8.3-2.1-10.2c0-0.2-0.2-0.3-0.3-0.4c-0.2-0.1-0.3,0-0.5,0l-2.2,1.3      c-2.2,1.3-5.6,1.3-7.8-0.1C332.2,434.5,332.1,434.4,331.9,434.3C331.9,434.3,331.9,434.3,331.9,434.3z"></path>				</g>				<g>					<path class="st0" d="M346.2,445.2c0,0.1,0,0.1,0,0.1c0.3,2-1.6,3.2-3.4,4.1c-5.3,2.5-26.9,1.1-27.8,1c0,0,0,0,0,0      c-0.3,0-3,0-3.8-1.7c-0.1-0.2-0.2-0.5-0.2-0.8c-0.1-0.5,0-0.9,0.1-1.4c0.1-0.4,0.4-0.6,0.8-0.5c4,1,13.4,1.7,22.7,0.3      c3.4-0.5,8.9-2,10.4-2.9c0.4-0.2,0.9,0,1,0.4C346,444.3,346.1,444.8,346.2,445.2z"></path>					<path d="M328.5,451.4c-6.7,0-13.1-0.4-13.6-0.5c-0.3,0-3.4,0-4.3-2c-0.1-0.2-0.2-0.6-0.2-0.9c-0.1-0.5,0-1,0.1-1.6      c0.1-0.3,0.3-0.6,0.5-0.8c0.3-0.2,0.6-0.2,0.9-0.1c3.5,0.9,12.7,1.8,22.5,0.3c3.4-0.5,8.8-2,10.2-2.8c0.3-0.2,0.7-0.2,1.1-0.1      c0.4,0.2,0.6,0.5,0.7,0.9l0.3,1.3c0,0,0,0,0,0l0,0.1c0.4,2.4-1.9,3.8-3.7,4.6C340.5,451.1,334.4,451.4,328.5,451.4z M315,449.9      C315,449.9,315,449.9,315,449.9c7.8,0.5,23.4,1,27.6-1c2.3-1.1,3.3-2.2,3.1-3.5l-0.3-1.4c0-0.1,0-0.1-0.1-0.1c0,0-0.1,0-0.1,0      c-1.5,0.9-7,2.5-10.6,3c-8.9,1.3-18.5,0.8-22.9-0.3c0,0-0.1,0-0.1,0c0,0,0,0-0.1,0.1c-0.1,0.4-0.1,0.8-0.1,1.2      c0,0.4,0.1,0.6,0.1,0.6C312.3,449.9,314.8,449.9,315,449.9C315,449.9,315,449.9,315,449.9z"></path>				</g>				<path d="M330.8,439.3c-0.1,0-0.2,0-0.3-0.1l-3.3-2.5c-0.2-0.2-0.3-0.5-0.1-0.8c0.2-0.2,0.5-0.3,0.8-0.1l3.3,2.5     c0.2,0.2,0.3,0.5,0.1,0.8C331.1,439.2,331,439.3,330.8,439.3z"></path>				<path d="M326.4,441c-0.1,0-0.2,0-0.3-0.1l-2.9-2.2c-0.2-0.2-0.3-0.5-0.1-0.8c0.2-0.2,0.5-0.3,0.8-0.1l2.9,2.2     c0.2,0.2,0.3,0.5,0.1,0.8C326.8,441,326.6,441,326.4,441z"></path>			</g>			<g>				<g>					<path class="st0" d="M366.8,427.3l8.4-1.2l5,10.6c0.7,1.6,0.2,3.6-1.3,4.6c-1.9,1.2-4.8,2.8-8.1,3.9c-6.3,2-12.5,7.8-17.9,4.9      c-5.4-2.8-5-3-5.3-5c-0.3-1.9,5.1-5.8,8.7-8.3C359.2,434.7,366.8,427.3,366.8,427.3z"></path>					<path d="M356,451.3c-1.2,0-2.3-0.2-3.4-0.8c-4.9-2.6-5.3-3.1-5.5-5c0-0.1,0-0.2,0-0.4c-0.3-2,3.4-4.9,8.9-8.8      c2.9-2,10.4-9.4,10.5-9.4c0.1-0.1,0.2-0.1,0.3-0.1l8.4-1.2c0.2,0,0.5,0.1,0.6,0.3l5,10.6c0.8,1.8,0.2,4.2-1.5,5.3      c-1.9,1.2-4.8,2.8-8.3,3.9c-1.9,0.6-3.9,1.6-5.8,2.6C362.1,449.8,359,451.3,356,451.3z M367.1,427.8c-1,1-7.7,7.5-10.5,9.4      c-2.1,1.5-8.7,6.1-8.4,7.8c0,0.1,0,0.3,0.1,0.4c0.2,1.4,0.2,1.7,5,4.2c3.4,1.8,7.3-0.2,11.5-2.3c1.9-1,4-2,6-2.7      c3.3-1.1,6.2-2.7,8-3.8c1.2-0.8,1.8-2.5,1.1-3.9l-4.8-10.2L367.1,427.8z"></path>				</g>				<path d="M364,436.5c-0.1,0-0.2,0-0.3-0.1l-3.8-2.5c-0.3-0.2-0.3-0.5-0.2-0.8c0.2-0.3,0.5-0.3,0.8-0.2l3.8,2.5     c0.3,0.2,0.3,0.5,0.2,0.8C364.4,436.4,364.2,436.5,364,436.5z"></path>				<path d="M361.3,439.3c-0.1,0-0.2,0-0.3-0.1l-3.8-2.5c-0.3-0.2-0.3-0.5-0.2-0.8c0.2-0.3,0.5-0.3,0.8-0.2l3.8,2.5     c0.3,0.2,0.3,0.5,0.2,0.8C361.7,439.2,361.5,439.3,361.3,439.3z"></path>				<g>					<path class="st0" d="M348,446.5c0,0,4.2,3.1,8.9,1.5c4.7-1.6,23.4-11.5,23.4-11.5l1,2.1c0.5,1.1,0.1,2.3-1,2.9      c-4.7,2.6-17.1,9.3-23.6,9.8C348.6,451.9,348,446.5,348,446.5z"></path>					<path d="M355.5,451.9c-7.4,0-8.1-5.3-8.1-5.3c0-0.2,0.1-0.4,0.3-0.5c0.2-0.1,0.4-0.1,0.6,0c0,0,4.1,2.9,8.4,1.4      c4.6-1.6,23.1-11.3,23.3-11.4c0.1-0.1,0.3-0.1,0.4,0c0.1,0,0.3,0.2,0.3,0.3l1,2.1c0.6,1.3,0.1,2.9-1.2,3.6      c-5,2.8-17.3,9.4-23.8,9.8C356.3,451.9,355.9,451.9,355.5,451.9z M349,447.7c0.7,1.4,2.7,3.4,7.7,3.1      c6.3-0.4,18.4-6.9,23.3-9.7c0.8-0.4,1.1-1.4,0.7-2.2l-0.7-1.6c-3.1,1.6-18.7,9.8-22.9,11.2C353.7,449.6,350.6,448.5,349,447.7z      "></path>				</g>			</g>			<g>				<g>					<path class="st0" d="M355.2,428.4l-0.4-1.3c-9.1-8.9-46.6-47.3-35.6-60.6c11-13.4,39.6-25.1,40.8-25.6l0.5-0.2l43.3-0.8l0,2.7      c0.1,9.9-4.1,28.7-20.2,29.2c-1.1,0-2.2,0.1-3.5,0.1c-2.1,0-4.5,0-6.9-0.1c-2.6,0-5.2-0.1-7.7-0.1c-10.3,0-12.6,0.9-13.1,1.3      c0,0,0,0,0,0c0.1,0.9,2.1,3.4,3.6,5.3c2.4,2.9,5.3,6.6,7.4,11.2l12.2,26.6v0.6c0,1.8,0,1.8-9,6.9c-8.2,4.7-8.5,4.7-9.3,4.7      C357.3,428.4,355.2,428.4,355.2,428.4z"></path>					<path d="M361.2,343.4c0,0-29.1,11.8-39.8,24.8c-10.2,12.4,35.9,57.5,35.9,57.5c0.1,0.2,15.7-8.6,15.7-8.9l-12-26.1      c-4.7-10.2-14.2-16-10.3-19.6c3.5-3.3,23-1.6,33-1.9c17.8-0.6,17.6-26.5,17.6-26.5L361.2,343.4z"></path>					<path class="st0" d="M341.6,431.9c-11.5,0-11.6-0.1-12.5-1.1l-0.8-0.8l0-1.2c0.6-16,2.9-44.3,5.5-54c2.1-8,6.3-12.9,11.7-13.9      l66.4-26.5l0.1,3.9c0,1.2,0.8,29.5-14.8,32.6c-1.6,0.3-4.4,0.4-8,0.5c-5.9,0.1-19.6,0.5-21.4,3.5c-6.2,10.6-17.8,52-18.3,54.5      C349.4,431.9,348.1,431.9,341.6,431.9C341.6,431.9,341.6,431.9,341.6,431.9z"></path>					<path d="M336.4,375.5c-2.5,9.4-4.9,37.6-5.4,53.4c0,0.2,16,0.4,16,0.1c0.2-1.4,12-44.1,18.6-55.4c3.5-6,26.1-4.3,31.2-5.3      c13.5-2.7,12.6-29.9,12.6-29.9l-63.1,25.2C340.9,364.4,337.9,370.2,336.4,375.5z"></path>				</g>			</g>		</g>		<g>			<g>				<path class="st0" d="M413.4,295.3c0,0-0.5-21.7-13.3-25.9c-1.1-0.4-2.2-0.5-3.4-0.6l-11.3-0.4c-3.3,0-6.1,0.8-9.7,2.1     c-3,1.1-6.3,3.1-8.3,4.9c-8.6,7.8-8.7,33.9-16.1,33.3c-2.5-0.2-6.7-4.4-10.8-9.4c-3.3-4.1-9-9.1-9-9.1l-9.9,5     c2.4,4,4.5,8.1,6.2,12.4c3.6,9,9.6,16.5,17,23c2.5,2.1,6,2.6,8.9,1.1c4.7-2.4,11.9-6.2,16.3-9.8c1.6,5.6,0.2,11.7-3.8,16.1     c-1.2,1.3-2.5,2.5-3.9,3.5c-1.3,1-1.7,2.9-0.7,4.2c1.5,2.2,4.5,4.8,10.2,4.2c7.5-0.8,28.8-0.7,38.2-0.6c2.5,0,4.5-2,4.5-4.6     L413.4,295.3z"></path>				<path d="M370.3,350.5c-4.9,0-7.5-2.4-9-4.5c-1.1-1.6-0.7-3.9,0.9-5c1.3-0.9,2.5-2,3.8-3.4c3.7-4,5.1-9.6,3.9-14.8     c-4.4,3.4-10.9,6.9-15.7,9.3c-3.1,1.6-6.9,1.1-9.5-1.2c-8-6.9-13.7-14.7-17.2-23.2c-1.6-4-3.6-8-6.2-12.4     c-0.1-0.1-0.1-0.3-0.1-0.4c0-0.1,0.1-0.3,0.3-0.3l9.9-5c0.2-0.1,0.4-0.1,0.6,0.1c0.1,0.1,5.8,5.1,9,9.1     c4.7,5.8,8.4,9.1,10.4,9.2c3.4,0.3,5.3-6.6,7.3-14c1.9-7.2,4.2-15.3,8.4-19.2c2.1-1.9,5.5-3.9,8.4-5c3.7-1.4,6.5-2.2,9.9-2.1     l11.3,0.4c1.3,0,2.4,0.3,3.5,0.6c13,4.3,13.7,25.5,13.7,26.4c0,0,0,0,0,0l1.1,49.3c0,1.4-0.5,2.7-1.4,3.6     c-0.9,1-2.2,1.5-3.6,1.5c-9-0.1-30.6-0.2-38.1,0.6C371.4,350.5,370.8,350.5,370.3,350.5z M370.2,321.4c0.1,0,0.1,0,0.2,0     c0.2,0.1,0.3,0.2,0.4,0.4c1.7,5.8,0.2,12.2-4,16.6c-1.3,1.4-2.6,2.6-4,3.5c-1.1,0.8-1.4,2.3-0.6,3.5c1.4,2.1,4.2,4.5,9.7,3.9     c7.6-0.8,29.2-0.7,38.2-0.6c1.1,0,2-0.4,2.8-1.2c0.8-0.8,1.2-1.8,1.1-2.9l-1.1-49.3c0-0.2-0.7-21.4-12.9-25.4     c-1-0.3-2.1-0.5-3.2-0.6l-11.3-0.4c-0.1,0-0.1,0-0.2,0c-3.1,0-5.7,0.7-9.3,2.1c-2.8,1-6.1,3-8.1,4.8c-4,3.6-6.2,11.6-8.1,18.6     c-2.2,8.1-4.1,15.2-8.4,14.8c-2.4-0.2-6.1-3.4-11.2-9.6c-2.8-3.5-7.5-7.7-8.6-8.8l-9.1,4.6c2.4,4.2,4.4,8.1,6,12     c3.4,8.3,9,16,16.9,22.8c2.3,2,5.6,2.4,8.3,1c5-2.5,11.9-6.2,16.2-9.7C370,321.4,370.1,321.4,370.2,321.4z"></path>			</g>			<path d="M370.1,322.6c-0.2,0-0.3-0.1-0.4-0.2c-0.2-0.2-0.1-0.6,0.1-0.8c1.3-1,5.1-4.6,7.2-7.6c0.2-0.2,0.5-0.3,0.8-0.1    c0.2,0.2,0.3,0.5,0.1,0.8c-2.1,3.1-6.1,6.8-7.4,7.8C370.3,322.5,370.2,322.6,370.1,322.6z"></path>			<g>				<path class="st0" d="M330.5,290.4l-1.5-8.2c0,0-1.2-6.2-2.8-7.1c-1.1-0.6-1.9,1.7-1.6,4.6c0,0.5-0.6,0.7-0.8,0.2     c-0.8-1.7-1.6-3.8-1.7-4.9c-0.1-2.1-0.6-6.4-2.5-6c-1.9,0.4-5.4,7.1-2.8,12.8c2.6,5.7,8.7,11,8.7,11L330.5,290.4z"></path>				<path d="M325.5,293.5c-0.1,0-0.3,0-0.4-0.1c-0.3-0.2-6.2-5.4-8.8-11.2c-1.7-3.8-0.9-8,0.4-10.6c0.8-1.6,1.8-2.7,2.7-2.9     c0.5-0.1,1,0,1.3,0.3c1,0.7,1.6,2.7,1.8,6.2c0,0.7,0.5,2.2,1.4,4.1c-0.1-1.8,0.2-3.9,1.2-4.5c0.4-0.2,0.8-0.3,1.2,0     c1.7,0.9,2.8,6.4,3,7.5l1.5,8.2c0,0.2-0.1,0.5-0.3,0.6l-5,2.5C325.7,293.5,325.6,293.5,325.5,293.5z M319.9,269.7     c0,0-0.1,0-0.1,0c-0.4,0.1-1.3,0.9-2,2.3c-1.2,2.4-2,6.2-0.4,9.7c2.2,4.8,7.1,9.4,8.3,10.5l4.3-2.1l-1.4-7.8     c-0.5-2.5-1.6-6.2-2.5-6.7c-0.1,0-0.1,0-0.1,0c-0.4,0.3-0.9,1.8-0.7,4.1c0,0.5-0.3,0.9-0.7,1c-0.5,0.1-0.9-0.1-1.1-0.5     c-1.1-2.4-1.7-4.1-1.7-5c-0.3-3.8-0.9-5-1.4-5.4C320.1,269.7,320,269.7,319.9,269.7z"></path>			</g>		</g>		<g>			<g>				<path class="st0" d="M381.5,271.7c-0.3-0.1-0.4-0.5-0.1-0.6c0.9-0.5,2.3-1.5,2.2-2.7l0.2-4.6c0-0.6-0.4-1-0.9-1.2l-3.3-1     c-0.5-0.2-0.9-0.6-0.8-1.2l0.1-4.9l-1.6-1.3c-0.1-0.1-0.1-0.3,0-0.4l2.3-3.1c0.8-1.1,1.4-3.9,2.1-3.7c0,0,13.7-2.2,14.8,4.6     c0.2,1-0.1,2.1-0.7,3l-1.2,1.8c-1.2,1.8-1.7,3.9-1.4,6c0.1,0.7,1.6,6.8,1.6,6.8s2.7,1.2,4.4,1.7c0.4,0.1,0.4,0.6,0,0.7l-3.1,0.7     c-3.1,0.7-6.3,0.8-9.4,0.2L381.5,271.7z"></path>				<path d="M390.9,273.6c-1.4,0-2.8-0.1-4.2-0.4l-5.3-1c-0.4-0.1-0.7-0.4-0.7-0.7c-0.1-0.4,0.1-0.7,0.4-0.9c1.3-0.7,2-1.5,1.9-2.2     c0,0,0,0,0-0.1l0.2-4.6c0-0.3-0.2-0.6-0.5-0.7l-3.3-1c-0.7-0.2-1.2-0.9-1.2-1.7l0.1-4.6l-1.4-1.1c-0.4-0.3-0.4-0.8-0.1-1.2     l2.3-3.1c0.2-0.4,0.5-1,0.8-1.6c0.6-1.3,1-2.4,1.8-2.3c1.3-0.2,14.2-1.9,15.3,5.1c0.2,1.2-0.1,2.3-0.7,3.4l-1.2,1.8     c-1.1,1.7-1.6,3.8-1.3,5.7c0.1,0.5,1,4,1.6,6.5c0.7,0.3,2.8,1.2,4.1,1.6c0.4,0.1,0.7,0.5,0.7,0.9c0,0.4-0.2,0.8-0.6,0.9     c0,0,0,0-0.1,0l-3.1,0.7C394.5,273.4,392.7,273.6,390.9,273.6z M382.1,271.3l4.8,0.9c3,0.6,6.1,0.5,9.1-0.2l2.5-0.6     c-1.7-0.5-3.8-1.5-3.9-1.6c-0.2-0.1-0.3-0.2-0.3-0.4c-0.2-0.6-1.6-6.2-1.7-6.8c-0.3-2.2,0.2-4.5,1.5-6.4l1.2-1.8     c0.5-0.8,0.7-1.7,0.6-2.6c-1-6.2-14-4.2-14.2-4.2c0,0,0,0-0.1,0c-0.2,0.2-0.6,1.1-0.8,1.6c-0.3,0.7-0.6,1.3-0.9,1.8l-2.2,2.9     l1.4,1.1c0.1,0.1,0.2,0.3,0.2,0.4l-0.1,4.9c0,0.3,0.2,0.6,0.5,0.6l3.3,1c0.8,0.2,1.3,0.9,1.3,1.7l-0.2,4.6     C384.2,269.6,383.2,270.6,382.1,271.3z M377.6,253.8L377.6,253.8C377.6,253.8,377.6,253.8,377.6,253.8z"></path>			</g>			<path d="M380.7,236.5c3.2-0.3-0.7,3.1,10.9-0.7c4.6-1.5,2.4,4,3.6,3.6c4.4-1.5,4.3-1.4,6.5-0.9c1.5,0.3,2.5,3,2.3,5    c-0.3,2.7-3.1,7-5.5,11.5c-1.3,2.3-3.7,2.7-6.8-0.6c-0.3-0.3,1.2-2.6,0.3-3.4c-2.3-2.3-3.1,1.4-4.9,0.3c-1.7-1-2.5-1.7-4.3-3.2    c-2.2-1.9-5.7,1.3-7.2-3C374.8,242.7,376.4,236.9,380.7,236.5z"></path>		</g>	</g>	<g>		<g>			<path class="st0" d="M411.3,439.3h-19v-69h-9.9v69h-19c-6,0-10.9,4.9-10.9,10.9v1.6h69.7v-1.6    C422.3,444.2,417.4,439.3,411.3,439.3z"></path>			<path d="M422.3,452.4h-69.7c-0.3,0-0.5-0.2-0.5-0.5v-1.6c0-6.3,5.2-11.5,11.5-11.5h18.4v-68.5c0-0.3,0.2-0.5,0.5-0.5h9.9    c0.3,0,0.5,0.2,0.5,0.5v68.5h18.4c6.3,0,11.5,5.2,11.5,11.5v1.6C422.8,452.1,422.6,452.4,422.3,452.4z M353.1,451.3h68.6v-1.1    c0-5.7-4.7-10.4-10.4-10.4h-19c-0.3,0-0.5-0.2-0.5-0.5v-68.5H383v68.5c0,0.3-0.2,0.5-0.5,0.5h-19c-5.7,0-10.4,4.7-10.4,10.4    V451.3z"></path>		</g>	</g>	<g>		<path class="st0" d="M417,296.9h-5c-13.3,0-24.8,9.3-27.6,22.4l-5.8,26.8c-1.4,6.3-6.8,10.7-13.2,10.7h-10.5   c-5.5,0-9.9,4.5-9.9,10c0,5.5,4.4,10,9.9,10h17l0,0h29.9c10.5,0,19.5-7.4,21.8-17.7l9.2-42.4C435,306.5,427.3,296.9,417,296.9z"></path>		<path d="M401.8,377.4h-29.9c-0.1,0-0.2,0-0.2,0h-16.8c-5.8,0-10.5-4.7-10.5-10.5s4.7-10.5,10.5-10.5h10.5c6,0,11.4-4.3,12.7-10.3   l5.8-26.8c2.9-13.2,14.7-22.9,28.1-22.9h5c5.1,0,9.8,2.3,13,6.2c3.2,4,4.5,9.2,3.4,14.3l-9.2,42.4   C421.9,369.8,412.5,377.4,401.8,377.4z M372.2,376.3h29.7c10.1,0,19.1-7.3,21.2-17.3l9.2-42.4c1-4.7-0.1-9.6-3.2-13.4   c-3-3.7-7.4-5.8-12.1-5.8h-5c-12.9,0-24.3,9.3-27.1,22l-5.8,26.8c-1.4,6.5-7.2,11.2-13.7,11.2h-10.5c-5.2,0-9.4,4.2-9.4,9.5   c0,5.2,4.2,9.5,9.4,9.5h17C372,376.2,372.1,376.3,372.2,376.3z"></path>	</g></g><g>	<g>		<g>			<path class="st0" d="M293.1,431.7c-2.5,0-4.7-1.7-5.4-4.1c-0.3-1.2-0.8-2.9-1.4-5c-4.3-14.9-13.3-46-10.4-59.1    c1.5-6.7,6.9-14.4,14.3-15.8l47.9-28.4l0.9,3.5c0.2,0.8,4.8,19.3-8.6,28.1c-1.2,0.8-2.4,1.5-3.7,2.2c-4.3,2.5-9.2,5.3-12,10.1    c-5.7,9.6-4.9,42.9-4.6,57.1c0.1,2.3,0.1,4.3,0.1,5.8c0,1.5-0.6,2.9-1.6,4c-1.1,1.1-2.5,1.7-4,1.7H293.1z"></path>			<path d="M278.5,364.1c-3.1,14.3,9.2,53.3,11.8,62.8c0.3,1.2,1.5,2.1,2.8,2.1h11.5c1.6,0,2.9-1.3,2.9-2.9    c-0.1-11.3-2.2-52.4,4.9-64.3c4.1-6.9,11.5-9.9,16.5-13.2c12-7.8,7.5-25.2,7.5-25.2l-45.2,26.8    C284.9,351.3,279.9,358,278.5,364.1z"></path>			<path class="st0" d="M255.4,431.7c-2.5,0-4.7-1.6-5.4-4c-4.9-16.7-20.1-72.2-8.3-86.3c13.1-15.6,52.3-16.1,54-16.2l37.1-0.5    l0.4,2.3c0.1,0.7,2.7,16.3-6.7,27.3c-5.8,6.8-14.7,10.3-26.5,10.3l-0.5,0c-4.1,0-7.8-0.4-11.1-0.6c-2.7-0.2-5-0.4-7-0.4    c-2.5,0-4.1,0.3-5.2,1c-1.2,0.7-2.1,1.1-2.8,1.3c0,0.1,0,62.5,0,62.5c0,1.8-1.5,3.3-3.3,3.3H255.4z"></path>			<path d="M295.7,328c0,0-39.5,0.4-51.9,15.2c-11.2,13.3,5.4,72,8.9,83.8c0.4,1.2,1.5,2.1,2.8,2.1h14.8c0.3,0,0.6-0.3,0.6-0.6    v-62.2c0-3.9,0.8-1.8,4.1-3.9c4.6-3,13.1-0.4,24.7-0.4c36.9,0.3,31-34.5,31-34.5L295.7,328z"></path>		</g>		<g>			<polygon class="st0" points="304.8,429.1 305.5,439.2 296.3,439.2 294.4,429.2    "></polygon>			<path d="M296.3,439.8c-0.3,0-0.5-0.2-0.5-0.4l-1.9-10c0-0.2,0-0.3,0.1-0.4c0.1-0.1,0.3-0.2,0.4-0.2l10.4-0.1c0,0,0,0,0,0    c0.3,0,0.5,0.2,0.5,0.5l0.8,10.1c0,0.2,0,0.3-0.1,0.4c-0.1,0.1-0.2,0.2-0.4,0.2L296.3,439.8C296.3,439.8,296.3,439.8,296.3,439.8    z M295.1,429.7l1.7,9l8.2,0l-0.7-9L295.1,429.7z"></path>		</g>		<g>			<polygon class="st0" points="268.3,429.1 268.1,439.2 258.6,439.2 256.9,429.2    "></polygon>			<path d="M258.6,439.8c-0.3,0-0.5-0.2-0.5-0.5l-1.7-10c0-0.2,0-0.3,0.1-0.4c0.1-0.1,0.3-0.2,0.4-0.2l11.3-0.1    c0.1,0,0.3,0.1,0.4,0.2c0.1,0.1,0.2,0.2,0.2,0.4l-0.1,10.1c0,0.3-0.2,0.5-0.5,0.5L258.6,439.8    C258.6,439.8,258.6,439.8,258.6,439.8z M257.6,429.7l1.5,9l8.5,0l0.1-9L257.6,429.7z"></path>		</g>		<g>			<path class="st0" d="M258.8,437.9h8.8c0.6,0,1.2,0.4,1.4,0.9c0.8,1.9,2.4,6.3,2.2,10.5c-0.1,1.1-1,2-2.2,2h-25.9    c-1.2,0-2.1-1.1-1.9-2.2c0.3-1.4,1.3-3.2,4.1-4.9c4.6-2.7,10.4-5.3,12.2-6.1C257.9,438,258.4,437.9,258.8,437.9z"></path>			<path d="M269,452h-25.9c-0.7,0-1.4-0.3-1.9-0.9c-0.5-0.6-0.6-1.3-0.5-2c0.3-1.4,1.3-3.4,4.4-5.2c4.7-2.7,10.6-5.4,12.3-6.2    c0.5-0.2,0.9-0.3,1.4-0.3h8.8c0.9,0,1.6,0.5,1.9,1.3c0.7,1.8,2.4,6.4,2.2,10.8C271.7,450.9,270.5,452,269,452z M258.8,438.5    c-0.3,0-0.7,0.1-1,0.2c-1.7,0.8-7.6,3.5-12.2,6.1c-2.2,1.3-3.5,2.8-3.9,4.5c-0.1,0.4,0,0.8,0.3,1.1c0.3,0.3,0.6,0.5,1.1,0.5H269    c0.9,0,1.6-0.7,1.6-1.5c0.2-4.1-1.4-8.6-2.1-10.3c-0.2-0.4-0.5-0.6-0.9-0.6H258.8z"></path>		</g>		<g>			<path class="st0" d="M296.6,437.9h8.8c0.6,0,1.2,0.4,1.4,0.9c0.8,1.9,2.4,6.3,2.2,10.5c-0.1,1.1-1,2-2.2,2h-25.9    c-1.2,0-2.1-1.1-1.9-2.2c0.3-1.4,1.3-3.2,4.1-4.9c4.6-2.7,10.4-5.3,12.2-6.1C295.8,438,296.2,437.9,296.6,437.9z"></path>			<path d="M306.9,452h-25.9c-0.7,0-1.4-0.3-1.9-0.9c-0.5-0.6-0.6-1.3-0.5-2c0.3-1.4,1.3-3.4,4.4-5.2c4.7-2.7,10.6-5.4,12.3-6.2    c0.5-0.2,0.9-0.3,1.4-0.3h8.8c0.9,0,1.6,0.5,1.9,1.3c0.7,1.8,2.4,6.4,2.2,10.8C309.5,450.9,308.3,452,306.9,452z M296.6,438.5    c-0.3,0-0.7,0.1-1,0.2c-1.7,0.8-7.6,3.5-12.2,6.1c-2.2,1.3-3.5,2.8-3.9,4.5c-0.1,0.4,0,0.8,0.3,1.1c0.3,0.3,0.6,0.5,1.1,0.5h25.9    c0.9,0,1.6-0.7,1.6-1.5c0.2-4.1-1.4-8.6-2.1-10.3c-0.2-0.4-0.5-0.6-0.9-0.6H296.6z"></path>		</g>	</g>	<g>		<g>			<path class="st0" d="M259.3,308.6l-4.7-1.7c-2-0.7-4.2-0.7-6.1,0.1c-2.4,1-5.8,2.6-8,4.8c-0.6,0.5-0.2,1.5,0.5,1.5H259    L259.3,308.6z"></path>			<path d="M259,313.8H241c-0.6,0-1.1-0.3-1.3-0.9c-0.2-0.6-0.1-1.2,0.3-1.6c2.3-2.2,5.8-3.9,8.2-4.9c2.1-0.9,4.4-0.9,6.5-0.1    l4.7,1.7c0.2,0.1,0.4,0.3,0.4,0.5l-0.2,4.7C259.6,313.6,259.3,313.8,259,313.8z M251.6,306.9c-1,0-2,0.2-3,0.6    c-2.4,1-5.6,2.6-7.9,4.7c-0.1,0.1-0.1,0.3-0.1,0.4c0,0.1,0.1,0.2,0.3,0.2h17.6l0.2-3.7l-4.3-1.6    C253.5,307,252.6,306.9,251.6,306.9z"></path>		</g>		<g>			<g>				<path class="st0" d="M338.9,287.8c0,0,0.5-18.1-12-20.3c0,0,0,0,0-0.1l-13.3-0.7c0,0-8.5-1.2-16.4,5.6     c-7.1,6.1-8.6,21.7-13.2,25.7c-3.9,3.4-20.8,7.9-25.2,9.1c-0.6,0.2-1.1,0.7-1.1,1.4l0,4.3h26.8c3.7,0,7.3-1.5,9.9-4.2     c1.6-1.6,3.5-3.6,5.6-5.8c0,1.4,0.1,3.7,1.1,6.2c2,5.1,1,10.9-2.7,14.9c-1.6,1.7-3.4,3.2-5.2,4.1c0,0,1.2,5.7,9.9,6     c3.5,0.2,12.9,0.5,19.9,0.1c9.5-0.5,16.5-2.3,16.5-2.3L338.9,287.8z"></path>				<path d="M315.4,334.8c-5.3,0-10.3-0.2-12.3-0.3c-9-0.4-10.4-6.2-10.4-6.5c-0.1-0.2,0.1-0.5,0.3-0.6c1.6-0.8,3.3-2.1,5.1-4     c3.5-3.8,4.6-9.3,2.6-14.4c-0.7-1.9-1-3.7-1.1-5.1c-1.6,1.7-3.1,3.2-4.3,4.5l-0.4,0.4c-2.7,2.8-6.4,4.3-10.3,4.3h-26.8     c-0.3,0-0.5-0.2-0.5-0.5l0-4.3c0-0.9,0.6-1.7,1.5-1.9c10.1-2.6,22-6.3,25-8.9c1.9-1.7,3.3-5.8,4.9-10.1c2-5.7,4.3-12.1,8.3-15.6     c7.9-6.8,16.4-5.8,16.8-5.7l13.2,0.7c0.1,0,0.2,0,0.3,0.1c12.4,2.4,12.2,20.2,12.2,20.8l0.7,43.9c0,0.3-0.2,0.5-0.4,0.5     c-0.1,0-7.2,1.8-16.6,2.3C320.7,334.7,318.1,334.8,315.4,334.8z M293.9,328.2c0.4,1.2,2.4,4.9,9.3,5.2     c2.8,0.1,12.7,0.5,19.8,0.1c8-0.5,14.4-1.8,16-2.2l-0.7-43.5c0,0,0,0,0,0c0-0.2,0.3-17.7-11.6-19.8c-0.1,0-0.1,0-0.2-0.1     l-13-0.7c-0.1,0-8.4-1.1-16,5.4c-3.8,3.3-6,9.6-8,15.2c-1.6,4.7-3,8.7-5.2,10.5c-4,3.5-20.5,7.9-25.5,9.2     c-0.4,0.1-0.7,0.4-0.7,0.8l0,3.7h26.2c3.6,0,7-1.5,9.5-4l0.4-0.4c1.5-1.5,3.3-3.4,5.2-5.4c0.2-0.2,0.4-0.2,0.6-0.1     c0.2,0.1,0.3,0.3,0.3,0.5c0,1.4,0.1,3.6,1.1,6c2.1,5.5,1,11.4-2.8,15.5C297.2,326,295.6,327.3,293.9,328.2z"></path>			</g>			<path d="M299.6,304.7c-0.1,0-0.3,0-0.4-0.1c-0.2-0.2-0.2-0.5,0-0.8c3.5-3.7,6.2-8,8-12.8c0.1-0.3,0.4-0.4,0.7-0.3    c0.3,0.1,0.4,0.4,0.3,0.7c-1.9,4.9-4.6,9.3-8.2,13.1C299.9,304.7,299.7,304.7,299.6,304.7z"></path>		</g>	</g>	<g>		<g>			<path class="st0" d="M305.8,243.7c0,0-0.5,4.4-2.7,6.9c-0.2,0.2-0.2,0.5-0.1,0.7l0.9,1.5c0.1,0.1,0.1,0.3,0.2,0.4l1.5,4.5    c0.1,0.4,0.5,0.7,0.9,0.7c1,0.1,3.4-0.3,3.6,0.3c0.2,0.7,0.1,6.4,0,8.9c0,0.7,0.4,1.2,1.1,1.4l5.1,0.9c2.3,0.4,4.7,0.1,6.8-0.8    c0.7-0.3,1-1.1,0.7-1.8c-1.2-2.5-3.8-8.5-3.4-12.2l2.3-6.4c-0.1-3.1-2.6-5.5-5.7-5.4L305.8,243.7z"></path>			<path d="M318.4,270.8c-0.7,0-1.5-0.1-2.2-0.2l-5.1-0.9c-0.9-0.2-1.6-1-1.5-1.9c0.2-5.5,0.2-8.1,0.1-8.7c-0.3-0.1-1.3-0.1-1.9-0.1    c-0.5,0-0.9,0-1.2,0c-0.6-0.1-1.2-0.5-1.4-1.1l-1.5-4.5c0-0.1-0.1-0.2-0.1-0.3l-0.9-1.5c-0.3-0.4-0.2-1,0.1-1.3    c2.1-2.3,2.6-6.5,2.6-6.6c0-0.3,0.3-0.5,0.5-0.5l11.2-0.3c1.7,0,3.2,0.6,4.4,1.7c1.2,1.1,1.8,2.6,1.9,4.3c0,0.1,0,0.1,0,0.2    l-2.3,6.3c-0.3,3.6,2.3,9.5,3.4,11.8c0.2,0.5,0.2,1,0.1,1.5c-0.2,0.5-0.5,0.9-1,1.1C321.8,270.4,320.1,270.8,318.4,270.8z     M308.7,257.9c1,0,1.7,0.1,1.9,0.8c0.2,0.6,0.2,3.6,0,9.1c0,0.4,0.3,0.7,0.7,0.8l5.1,0.9c2.2,0.4,4.5,0.1,6.5-0.8    c0.2-0.1,0.4-0.3,0.4-0.5c0.1-0.2,0.1-0.4,0-0.6c-1.2-2.5-3.8-8.6-3.5-12.5c0,0,0-0.1,0-0.1l2.3-6.3c0-1.3-0.6-2.5-1.5-3.4    c-1-0.9-2.3-1.4-3.6-1.4l-10.8,0.3c-0.2,1.2-0.9,4.6-2.8,6.7l0.9,1.6c0.1,0.2,0.2,0.3,0.2,0.5l1.5,4.5c0.1,0.2,0.3,0.4,0.5,0.4    c0.3,0,0.7,0,1.1,0C308,257.9,308.4,257.9,308.7,257.9z"></path>		</g>		<path d="M304.7,242.1c-0.5,0.7-0.2,1.6,0.6,2l0.5,0.2l8.8,4.3c0.2,0.1,0.5,0.1,0.7-0.1c0.4-0.3,1-0.6,1.7-0.2   c0.9,0.6,1.1,3.7-1.3,4.5c-0.3,0.1-0.5,0.4-0.4,0.7c0.1,0.3,0.3,0.8,0.6,1.2c2.1,3.6,7.2,3.8,9.7,0.5c1.8-2.4,3.5-6.5,1.4-12   C323.9,234.9,310.7,233,304.7,242.1z"></path>		<path d="M326.2,240.1c0,0,3.9-4.6,9.5-2.8c5.6,1.8,5.9,11.3,6.6,17.2c2.3,20.9,7.4,28.6,9.1,30.4c1.8,2.1-12.6,0.7-17.4-1   c-14-4.8-6.6-18.2-6-20.7c0.7-2.4,5.9-16-0.6-17.6L324,243L326.2,240.1z"></path>		<g>			<path class="st0" d="M328,246.7L328,246.7c-0.7,0.2-1.4-0.1-1.6-0.7l-1.7-4.6c-0.2-0.6,0.1-1.3,0.7-1.5l0.1,0    c0.6-0.2,1.3,0.1,1.5,0.7l1.7,4.6C328.9,245.8,328.6,246.5,328,246.7z"></path>			<path d="M327.5,247.3c-0.7,0-1.4-0.4-1.6-1.1l-1.7-4.6c-0.2-0.4-0.1-0.9,0.1-1.3c0.2-0.4,0.5-0.7,1-0.9l0.1,0    c0.9-0.3,1.9,0.1,2.2,1l1.7,4.6c0.2,0.4,0.1,0.9-0.1,1.3c-0.2,0.4-0.5,0.7-1,0.9l-0.1,0C327.9,247.3,327.7,247.3,327.5,247.3z     M325.9,240.3c-0.1,0-0.1,0-0.2,0l-0.1,0c-0.2,0.1-0.3,0.2-0.4,0.3c-0.1,0.2-0.1,0.3,0,0.5l1.7,4.6c0.1,0.3,0.5,0.5,0.8,0.4    l0.1,0c0,0,0,0,0,0c0.2-0.1,0.3-0.2,0.4-0.3c0.1-0.2,0.1-0.3,0-0.5l-1.7-4.6C326.4,240.5,326.1,240.3,325.9,240.3z"></path>		</g>	</g></g><g>	<g>		<path class="st0" d="M331.3,439.3h-19v-69h-9.9v69h-19c-6,0-10.9,4.9-10.9,10.9v1.6h69.7v-1.6   C342.3,444.2,337.4,439.3,331.3,439.3z"></path>		<path d="M342.3,452.4h-69.7c-0.3,0-0.5-0.2-0.5-0.5v-1.6c0-6.3,5.2-11.5,11.5-11.5h18.4v-68.5c0-0.3,0.2-0.5,0.5-0.5h9.9   c0.3,0,0.5,0.2,0.5,0.5v68.5h18.4c6.3,0,11.5,5.2,11.5,11.5v1.6C342.8,452.1,342.6,452.4,342.3,452.4z M273.1,451.3h68.6v-1.1   c0-5.7-4.7-10.4-10.4-10.4h-19c-0.3,0-0.5-0.2-0.5-0.5v-68.5H303v68.5c0,0.3-0.2,0.5-0.5,0.5h-19c-5.7,0-10.4,4.7-10.4,10.4V451.3   z"></path>	</g></g><g>	<g>		<g>			<path class="st0" d="M337,296.9h-5c-13.3,0-24.8,9.3-27.6,22.4l-5.8,26.8c-1.4,6.3-6.8,10.7-13.2,10.7h-10.5    c-5.5,0-9.9,4.5-9.9,10c0,5.5,4.4,10,9.9,10h17l0,0h29.9c10.5,0,19.5-7.4,21.8-17.7l9.2-42.4C355,306.5,347.3,296.9,337,296.9z"></path>			<path d="M321.8,377.4h-29.9c-0.1,0-0.2,0-0.2,0h-16.8c-5.8,0-10.5-4.7-10.5-10.5s4.7-10.5,10.5-10.5h10.5c6,0,11.4-4.3,12.7-10.3    l5.8-26.8c2.9-13.2,14.7-22.9,28.1-22.9h5c5.1,0,9.8,2.3,13,6.2c3.2,4,4.5,9.2,3.4,14.3l-9.2,42.4    C341.9,369.8,332.5,377.4,321.8,377.4z M292.1,376.3h29.7c10.1,0,19.1-7.3,21.2-17.3l9.2-42.4c1-4.7-0.1-9.6-3.2-13.4    c-3-3.7-7.4-5.8-12.1-5.8h-5c-12.9,0-24.3,9.3-27.1,22l-5.8,26.8c-1.4,6.5-7.2,11.2-13.7,11.2h-10.5c-5.2,0-9.4,4.2-9.4,9.5    c0,5.2,4.2,9.5,9.4,9.5h17C292,376.2,292.1,376.3,292.1,376.3z"></path>		</g>	</g></g><path class="st1" d="M439,290.2c0,0-0.1,0-0.1,0c-0.3-0.1-0.5-0.4-0.4-0.7c8.7-38.3,1.7-67.9-5.8-86c-8.1-19.7-18.4-30.4-18.5-30.5 c-0.2-0.2-0.2-0.6,0-0.8s0.6-0.2,0.8,0c0.1,0.1,10.5,11,18.7,30.8c7.5,18.3,14.7,48.2,5.9,86.7C439.5,290,439.2,290.2,439,290.2z"></path><path class="st1" d="M414.6,345.2c-0.1,0-0.1,0-0.2,0c-0.3-0.1-0.4-0.4-0.3-0.7c16.5-43.4,19.5-71.9,19.1-88.1 c-0.4-17.6-4.8-24.9-4.8-25c-0.2-0.3-0.1-0.6,0.2-0.7c0.3-0.2,0.6-0.1,0.7,0.2c0.2,0.3,4.5,7.6,5,25.4c0.4,16.3-2.6,45-19.2,88.6 C415,345.1,414.8,345.2,414.6,345.2z"></path><g>	<path class="st1" d="M79.4,70.6c-0.1,0-0.3-0.1-0.4-0.2c-0.2-0.2-0.2-0.6,0-0.8c0.4-0.4,37.3-35.9,77.5-43.5  c0.3-0.1,0.6,0.1,0.6,0.4c0.1,0.3-0.1,0.6-0.4,0.6c-39.9,7.5-76.5,42.8-76.9,43.2C79.6,70.5,79.5,70.6,79.4,70.6z"></path>	<path class="st1" d="M59.2,79.6c-0.1,0-0.3,0-0.4-0.1c-0.2-0.2-0.3-0.5-0.1-0.8c27-31.4,55-42.6,55.3-42.7c0.3-0.1,0.6,0,0.7,0.3  c0.1,0.3,0,0.6-0.3,0.7c-0.3,0.1-28.1,11.2-54.9,42.4C59.5,79.5,59.3,79.6,59.2,79.6z"></path></g></svg>