<svg xmlns="http://www.w3.org/2000/svg" xmlns:xlink="http://www.w3.org/1999/xlink" id="Layer_1" x="0px" y="0px" viewBox="0 0 468.7 478.4" style="enable-background:new 0 0 468.7 478.4;" xml:space="preserve"><style type="text/css">	.st0{fill:#D8D8D8;}	.st1{fill:#FFFFFF;}	.st2{fill:#010101;}</style><g>	<g>		<path class="st0" d="M226.1,433.4c-9.6,0-19.2-1.1-28.7-3.3c-0.3-0.1-0.4-0.3-0.4-0.6c0.1-0.3,0.3-0.4,0.6-0.4   c23.1,5.4,47,4.1,69.3-3.6c0.3-0.1,0.6,0,0.6,0.3c0.1,0.3,0,0.6-0.3,0.6C254,431.1,240.1,433.4,226.1,433.4z"></path>		<path class="st0" d="M267.2,426.5c-0.2,0-0.4-0.1-0.5-0.3c-0.1-0.3,0-0.6,0.3-0.6c1.1-0.4,2.1-0.8,3.2-1.2c0.3-0.1,0.6,0,0.7,0.3   c0.1,0.3,0,0.6-0.3,0.7c-1.1,0.4-2.1,0.8-3.2,1.2C267.3,426.5,267.2,426.5,267.2,426.5z"></path>		<path class="st0" d="M229.4,441c-14.2,0-28.4-2.1-42.1-6.3c-0.3-0.1-0.4-0.4-0.3-0.6c0.1-0.3,0.4-0.4,0.6-0.3   c30.9,9.4,64.2,8.1,93.8-3.6c0.3-0.1,0.6,0,0.7,0.3c0.1,0.3,0,0.6-0.3,0.7C265.1,437.7,247.3,441,229.4,441z"></path>		<path class="st0" d="M275.7,425.4C275.7,425.4,275.7,425.4,275.7,425.4c-0.2,0-0.4-0.1-0.4-0.3l-2.4-4.7c-0.1-0.2-0.1-0.4,0-0.5   c0.1-0.2,0.3-0.2,0.4-0.2l6.5,0.3c0.2,0,0.4,0.1,0.4,0.3c0.1,0.2,0,0.4-0.1,0.5l-4,4.4C276,425.4,275.9,425.4,275.7,425.4z    M274.1,420.7l1.7,3.3l2.8-3.1L274.1,420.7z"></path>	</g>	<g>		<path class="st0" d="M173.4,103.9c-0.1,0-0.3,0-0.4-0.1l-2.2-2.2c-0.2-0.2-0.2-0.5,0-0.7c0.2-0.2,0.5-0.2,0.7,0l2.2,2.2   c0.2,0.2,0.2,0.5,0,0.7C173.6,103.8,173.5,103.9,173.4,103.9z"></path>		<path class="st0" d="M181.2,111.7c-0.1,0-0.3,0-0.4-0.1l-2.2-2.2c-0.2-0.2-0.2-0.5,0-0.7c0.2-0.2,0.5-0.2,0.7,0l2.2,2.2   c0.2,0.2,0.2,0.5,0,0.7C181.4,111.6,181.3,111.7,181.2,111.7z"></path>		<path class="st0" d="M171.1,111.7c-0.1,0-0.3,0-0.4-0.1c-0.2-0.2-0.2-0.5,0-0.7l2.2-2.2c0.2-0.2,0.5-0.2,0.7,0   c0.2,0.2,0.2,0.5,0,0.7l-2.2,2.2C171.4,111.6,171.3,111.7,171.1,111.7z"></path>		<path class="st0" d="M178.9,103.9c-0.1,0-0.3,0-0.4-0.1c-0.2-0.2-0.2-0.5,0-0.7l2.2-2.2c0.2-0.2,0.5-0.2,0.7,0   c0.2,0.2,0.2,0.5,0,0.7l-2.2,2.2C179.2,103.8,179.1,103.9,178.9,103.9z"></path>	</g>	<path class="st0" d="M401.1,146.1c-1.1,0-2.1-0.4-3-1.2c-0.8-0.8-1.2-1.8-1.2-3c0-1.1,0.4-2.2,1.2-3c1.6-1.6,4.3-1.7,5.9,0  c0.8,0.8,1.2,1.8,1.2,3c0,1.1-0.4,2.2-1.2,3C403.3,145.7,402.2,146.1,401.1,146.1z M401.1,138.7c-0.8,0-1.6,0.3-2.3,0.9  c-0.6,0.6-0.9,1.4-0.9,2.3c0,0.8,0.3,1.6,0.9,2.2c1.2,1.2,3.3,1.2,4.5,0c0.6-0.6,0.9-1.4,0.9-2.3c0-0.8-0.3-1.6-0.9-2.2  c0,0,0,0,0,0C402.7,139,401.9,138.7,401.1,138.7z"></path></g><g>	<g>		<path class="st1" d="M408.6,389.6l-254.4,13.6c-8.1,0.4-14.7-6-14.7-14.4v-179c0-8.4,6.6-15.5,14.7-16l254.4-13.6   c8.1-0.4,14.7,6,14.7,14.4v179C423.4,382.1,416.8,389.2,408.6,389.6z"></path>		<path class="st2" d="M153.5,403.8c-3.7,0-7.2-1.4-9.8-3.9c-3-2.8-4.6-6.7-4.6-11v-179c0-8.6,6.8-16,15.2-16.5l254.4-13.6   c4-0.2,7.8,1.2,10.6,3.9c3,2.8,4.6,6.7,4.6,11v179c0,8.6-6.8,16-15.2,16.5l-254.4,13.6C154,403.8,153.7,403.8,153.5,403.8z    M409.4,180.8c-0.2,0-0.5,0-0.7,0l-254.4,13.6c-7.9,0.4-14.3,7.4-14.3,15.5v179c0,4,1.5,7.6,4.3,10.3c2.7,2.5,6.2,3.8,9.9,3.6   l254.4-13.6l0,0.5l0-0.5c7.9-0.4,14.3-7.4,14.3-15.5v-179c0-4-1.5-7.6-4.3-10.3C416.1,182.1,412.8,180.8,409.4,180.8z"></path>	</g>	<g>		<g>			<path class="st1" d="M390.4,81.9c13.4-8.3,20.3-19.2,23.7-41c2.3,7.7,3,13.4,1.9,19.4l7.3-4c0.2,5.9-1,13-5.9,17.5l9.1-4.2    c-4.5,10-9.8,28.7-29.7,20.4L390.4,81.9z"></path>			<path class="st2" d="M405.7,92.6c-2.7,0-5.8-0.6-9.3-2.1c-0.1,0-0.2-0.1-0.2-0.2l-6.3-8.1c-0.1-0.1-0.1-0.3-0.1-0.4    c0-0.1,0.1-0.3,0.2-0.3c13.8-8.6,20.2-19.6,23.4-40.6c0-0.2,0.2-0.4,0.5-0.4c0.2,0,0.4,0.1,0.5,0.4c2.3,7.6,2.9,13.1,2.1,18.6    l6.3-3.5c0.2-0.1,0.3-0.1,0.5,0c0.2,0.1,0.2,0.2,0.3,0.4c0.1,4.8-0.6,11.2-4.3,16l6.8-3.1c0.2-0.1,0.4,0,0.6,0.1    c0.1,0.1,0.2,0.4,0.1,0.6c-0.5,1-0.9,2.1-1.4,3.2C422,81.1,417.2,92.6,405.7,92.6z M397,89.6c17.4,7.1,23.3-6.8,27.6-16.9    c0.3-0.7,0.6-1.4,0.9-2l-7.9,3.7c-0.2,0.1-0.5,0-0.6-0.2c-0.1-0.2-0.1-0.5,0.1-0.7c4.8-4.3,5.8-11.1,5.8-16.3l-6.5,3.6    c-0.2,0.1-0.4,0.1-0.5,0c-0.2-0.1-0.2-0.3-0.2-0.5c1-5.1,0.6-10.2-1.2-17c-3.4,19.4-9.9,30.4-23,38.8L397,89.6z"></path>		</g>		<g>			<path class="st1" d="M347.8,87.5c-13.4-8.3-20.3-19.2-23.7-41c-2.3,7.7-3,13.4-1.9,19.4l-7.3-4c-0.2,5.9,1,13,5.9,17.5l-9.1-4.2    c4.5,10,9.8,28.7,29.7,20.4L347.8,87.5z"></path>			<path class="st2" d="M332.5,98.1c-11.5,0-16.3-11.4-19.7-19.5c-0.5-1.1-0.9-2.2-1.4-3.2c-0.1-0.2,0-0.4,0.1-0.6    c0.1-0.1,0.4-0.2,0.6-0.1l6.8,3.1c-3.8-4.8-4.4-11.2-4.3-16c0-0.2,0.1-0.3,0.3-0.4c0.2-0.1,0.3-0.1,0.5,0l6.3,3.5    c-0.9-5.5-0.2-10.9,2.1-18.6c0.1-0.2,0.3-0.4,0.5-0.4c0.2,0,0.4,0.2,0.5,0.4c3.3,21,9.6,32,23.4,40.6c0.1,0.1,0.2,0.2,0.2,0.3    s0,0.3-0.1,0.4l-6.3,8.1c-0.1,0.1-0.1,0.1-0.2,0.2C338.3,97.5,335.2,98.1,332.5,98.1z M312.8,76.2c0.3,0.6,0.6,1.3,0.9,2    c4.3,10.2,10.2,24.1,27.6,16.9l5.8-7.5c-13.1-8.3-19.7-19.4-23-38.8c-1.9,6.8-2.2,11.9-1.2,17c0,0.2,0,0.4-0.2,0.5    c-0.2,0.1-0.4,0.1-0.5,0l-6.5-3.6c0,5.2,1,12,5.8,16.3c0.2,0.2,0.2,0.4,0.1,0.7c-0.1,0.2-0.4,0.3-0.6,0.2L312.8,76.2z"></path>		</g>		<g>			<g>				<ellipse class="st2" cx="370.1" cy="98" rx="31.6" ry="31.5"></ellipse>			</g>			<g>				<ellipse class="st1" cx="371.4" cy="96.9" rx="30.6" ry="30.5"></ellipse>				<path class="st2" d="M371.3,127.9c-15.6,0-29.1-11.7-30.9-27.6c-0.9-8.2,1.4-16.3,6.6-22.8C352.2,71,359.6,67,367.9,66     c17.1-1.9,32.5,10.4,34.4,27.4c0.9,8.2-1.4,16.3-6.6,22.8c-5.2,6.5-12.6,10.6-20.8,11.5C373.7,127.9,372.5,127.9,371.3,127.9z      M371.4,66.8c-1.1,0-2.3,0.1-3.4,0.2c-8,0.9-15.2,4.8-20.2,11.1c-5,6.3-7.3,14.1-6.4,22.1c1.9,16.5,16.8,28.3,33.3,26.5     c8-0.9,15.2-4.8,20.2-11.1c5-6.3,7.3-14.1,6.4-22.1C399.5,78.2,386.5,66.8,371.4,66.8z"></path>			</g>			<ellipse class="st1" cx="371.4" cy="96.9" rx="25.7" ry="25.6"></ellipse>			<path class="st2" d="M394.4,108.8c-0.1,0-0.2,0-0.2-0.1c-0.2-0.1-0.4-0.4-0.2-0.7c1.1-2.2,1.8-4.4,2.2-6.8c0-0.3,0.3-0.5,0.6-0.4    c0.3,0,0.5,0.3,0.4,0.6c-0.4,2.5-1.2,4.8-2.3,7.1C394.7,108.7,394.6,108.8,394.4,108.8z"></path>			<path class="st2" d="M349.1,84.7c-0.1,0-0.2,0-0.3-0.1c-0.2-0.1-0.3-0.4-0.2-0.7c4.1-7.2,11.5-12.1,19.8-13    c10.1-1.1,19.7,3.5,25.1,12c0.1,0.2,0.1,0.5-0.2,0.7c-0.2,0.1-0.5,0.1-0.7-0.2c-5.2-8.2-14.4-12.6-24.1-11.5    c-7.9,0.9-15.1,5.6-19,12.5C349.4,84.6,349.2,84.7,349.1,84.7z"></path>			<path class="st2" d="M371.3,123c-13.1,0-24.5-9.9-26-23.2c-0.5-4.4,0.1-9,1.9-13.1c0.1-0.3,0.4-0.4,0.7-0.3    c0.3,0.1,0.4,0.4,0.3,0.7c-1.7,3.9-2.3,8.3-1.8,12.6c1.6,13.8,14,23.7,27.8,22.2c0.3,0,0.5,0.2,0.6,0.4c0,0.3-0.2,0.5-0.4,0.6    C373.3,123,372.3,123,371.3,123z"></path>			<g>				<g>					<path class="st2" d="M371,115.1l-0.5-4.2c-3,0.2-5.9-0.3-7.7-1.1l0.7-5.3c2,0.8,4.7,1.4,7.6,1.1c2.5-0.3,4.1-1.4,3.9-3.2      c-0.2-1.7-1.7-2.6-5.1-3.3c-4.9-1.1-8.4-2.9-8.9-7.2c-0.4-3.9,2-7.2,6.6-8.7l-0.5-4.2l4.3-0.5l0.4,3.9c3-0.2,5,0.2,6.6,0.7      l-0.7,5.1c-1.2-0.4-3.4-1.1-6.5-0.8c-2.9,0.3-3.7,1.7-3.5,2.9c0.2,1.5,1.8,2.2,5.7,3.2c5.5,1.3,7.9,3.4,8.3,7.4      c0.4,3.9-2,7.6-6.9,9l0.5,4.5L371,115.1z"></path>				</g>			</g>		</g>	</g>	<g>		<g>			<path class="st1" d="M319.4,184.3c16.5-10.3,25.1-23.8,29.3-50.7c2.8,9.5,3.7,16.5,2.3,24l9-5c0.2,7.3-1.2,16.1-7.3,21.7    l11.3-5.2c-5.6,12.4-12.1,35.5-36.8,25.2L319.4,184.3z"></path>			<path class="st2" d="M338.4,197.4c-3.5,0-7.3-0.9-11.5-2.6c-0.1,0-0.2-0.1-0.2-0.2l-7.7-10c-0.1-0.1-0.1-0.3-0.1-0.4    c0-0.1,0.1-0.3,0.2-0.3c16.9-10.5,25-24.7,29-50.3c0-0.2,0.2-0.4,0.5-0.4c0.2,0,0.5,0.1,0.5,0.4c2.9,9.5,3.6,16.4,2.5,23.2    l8.1-4.5c0.2-0.1,0.3-0.1,0.5,0c0.2,0.1,0.2,0.2,0.3,0.4c0.2,6.1-0.7,14.2-5.6,20.1l8.9-4.1c0.2-0.1,0.4,0,0.6,0.1    c0.1,0.1,0.2,0.4,0.1,0.6c-0.6,1.2-1.1,2.6-1.7,4c-2.6,6.3-5.9,14-11.3,19C347.6,195.7,343.3,197.4,338.4,197.4z M327.5,193.9    c21.6,8.9,28.9-8.4,34.3-21c0.4-1,0.8-1.9,1.2-2.8l-10.1,4.7c-0.2,0.1-0.5,0-0.6-0.2c-0.1-0.2-0.1-0.5,0.1-0.7    c6-5.5,7.2-14,7.2-20.5l-8.3,4.6c-0.2,0.1-0.4,0.1-0.5,0c-0.2-0.1-0.2-0.3-0.2-0.5c1.2-6.5,0.8-12.9-1.7-21.6    c-4.1,24.4-12.3,38.1-28.7,48.5L327.5,193.9z"></path>		</g>		<g>			<path class="st1" d="M269.3,175.7c-20-12.5-30.3-28.7-35.4-61.2c-3.4,11.4-4.5,20-2.8,29l-10.9-6c-0.3,8.8,1.5,19.5,8.8,26.2    l-13.6-6.3c6.8,14.9,14.6,42.8,44.5,30.5L269.3,175.7z"></path>			<path class="st2" d="M246.3,191.4c-5.9,0-11-2-15.5-6.1c-6.5-6-10.5-15.4-13.7-22.9c-0.7-1.7-1.4-3.3-2.1-4.8    c-0.1-0.2,0-0.4,0.1-0.6c0.1-0.1,0.4-0.2,0.6-0.1l11.2,5.2c-6.2-7.1-7.3-17.2-7.1-24.6c0-0.2,0.1-0.3,0.3-0.4    c0.2-0.1,0.3-0.1,0.5,0l9.9,5.5c-1.4-8.3-0.5-16.6,3-28.2c0.1-0.2,0.3-0.4,0.5-0.4c0.2,0,0.4,0.2,0.5,0.4    c4.8,31,14.7,48.1,35.1,60.9c0.1,0.1,0.2,0.2,0.2,0.3s0,0.3-0.1,0.4l-9.3,12.1c-0.1,0.1-0.1,0.1-0.2,0.2    C255.1,190.3,250.5,191.4,246.3,191.4z M216.5,158.3c0.5,1.1,1,2.4,1.5,3.6c6.5,15.3,15.3,36.2,41.6,25.4l8.9-11.5    c-19.9-12.6-29.8-29.3-34.8-59.1c-3,10.8-3.7,18.6-2.1,26.6c0,0.2,0,0.4-0.2,0.5c-0.2,0.1-0.4,0.1-0.5,0l-10.1-5.6    c-0.1,7.9,1.4,18.3,8.7,25c0.2,0.2,0.2,0.4,0.1,0.7c-0.1,0.2-0.4,0.3-0.6,0.2L216.5,158.3z"></path>		</g>		<g>			<g>				<ellipse class="st2" cx="289" cy="185" rx="44.3" ry="44.2"></ellipse>			</g>			<g>				<ellipse class="st1" cx="290.9" cy="183.7" rx="43" ry="42.9"></ellipse>				<path class="st2" d="M290.9,227.1c-24,0-43.5-19.5-43.5-43.4s19.5-43.4,43.5-43.4c24,0,43.5,19.5,43.5,43.4     S314.9,227.1,290.9,227.1z M290.9,141.4c-23.4,0-42.5,19-42.5,42.3c0,23.4,19,42.3,42.5,42.3s42.5-19,42.5-42.3     C333.4,160.3,314.3,141.4,290.9,141.4z"></path>			</g>			<ellipse class="st1" cx="290.9" cy="183.7" rx="36.1" ry="36"></ellipse>			<path class="st2" d="M321.2,203.7c-0.1,0-0.2,0-0.3-0.1c-0.2-0.2-0.3-0.5-0.1-0.7c1.8-2.9,3.3-5.9,4.2-9.2    c0.1-0.3,0.4-0.4,0.6-0.3c0.3,0.1,0.4,0.4,0.3,0.6c-1,3.3-2.4,6.5-4.3,9.4C321.6,203.6,321.4,203.7,321.2,203.7z"></path>			<path class="st2" d="M323.4,168.5c-0.2,0-0.4-0.1-0.5-0.3c-6-12.3-18.3-20-32-20c-11.3,0-22,5.4-28.7,14.5    c-0.2,0.2-0.5,0.3-0.7,0.1c-0.2-0.2-0.3-0.5-0.1-0.7c6.9-9.3,17.9-14.9,29.5-14.9c14.1,0,26.7,7.9,32.9,20.6    c0.1,0.3,0,0.6-0.2,0.7C323.5,168.5,323.5,168.5,323.4,168.5z"></path>			<path class="st2" d="M290.9,220.2c-20.2,0-36.6-16.4-36.6-36.5c0-6.2,1.6-12.4,4.7-17.8c0.1-0.2,0.4-0.3,0.7-0.2    c0.2,0.1,0.3,0.4,0.2,0.7c-3,5.3-4.5,11.3-4.5,17.3c0,19.6,15.9,35.5,35.5,35.5c0.3,0,0.5,0.2,0.5,0.5    C291.4,219.9,291.2,220.2,290.9,220.2z"></path>			<g>				<path class="st2" d="M287.6,209.1v-5.9c-4.2-0.2-8.2-1.3-10.6-2.7l1.9-7.3c2.6,1.4,6.3,2.7,10.4,2.7c3.6,0,6-1.4,6-3.9     c0-2.4-2-3.9-6.6-5.4c-6.7-2.2-11.2-5.4-11.2-11.4c0-5.5,3.9-9.8,10.5-11.1v-5.9h6.1v5.5c4.2,0.2,7,1.1,9,2.1l-1.8,7     c-1.6-0.7-4.5-2.1-9-2.1c-4.1,0-5.4,1.7-5.4,3.5c0,2.1,2.2,3.4,7.5,5.4c7.4,2.6,10.4,6,10.4,11.6c0,5.5-3.9,10.3-11.1,11.5v6.3     H287.6z"></path>			</g>		</g>	</g>	<g>		<g>			<path class="st1" d="M415.3,407.6H152.6c-8.4,0-15.1-6.8-15.1-15.1v-179c0-8.4,6.8-15.1,15.1-15.1h262.7    c8.4,0,15.1,6.8,15.1,15.1v179C430.4,400.8,423.7,407.6,415.3,407.6z"></path>			<path class="st2" d="M415.3,408.1H152.6c-8.6,0-15.7-7-15.7-15.7v-179c0-8.6,7-15.7,15.7-15.7h262.7c8.6,0,15.7,7,15.7,15.7v179    C431,401,423.9,408.1,415.3,408.1z M152.6,198.7c-8.1,0-14.6,6.6-14.6,14.6v179c0,8.1,6.6,14.6,14.6,14.6h262.7    c8.1,0,14.6-6.6,14.6-14.6v-179c0-8.1-6.6-14.6-14.6-14.6H152.6z"></path>		</g>		<path class="st2" d="M412.2,401h-6.1c-0.3,0-0.5-0.2-0.5-0.5c0-0.3,0.2-0.5,0.5-0.5h6.1c0.6,0,1.3-0.1,1.9-0.2   c0.3-0.1,0.5,0.1,0.6,0.4c0,0.3-0.1,0.5-0.4,0.6C413.6,400.9,412.9,401,412.2,401z M400,401H394c-0.3,0-0.5-0.2-0.5-0.5   c0-0.3,0.2-0.5,0.5-0.5h6.1c0.3,0,0.5,0.2,0.5,0.5C400.5,400.8,400.3,401,400,401z M387.9,401h-6.1c-0.3,0-0.5-0.2-0.5-0.5   c0-0.3,0.2-0.5,0.5-0.5h6.1c0.3,0,0.5,0.2,0.5,0.5C388.4,400.8,388.2,401,387.9,401z M375.8,401h-6.1c-0.3,0-0.5-0.2-0.5-0.5   c0-0.3,0.2-0.5,0.5-0.5h6.1c0.3,0,0.5,0.2,0.5,0.5C376.3,400.8,376.1,401,375.8,401z M363.7,401h-6.1c-0.3,0-0.5-0.2-0.5-0.5   c0-0.3,0.2-0.5,0.5-0.5h6.1c0.3,0,0.5,0.2,0.5,0.5C364.2,400.8,364,401,363.7,401z M351.6,401h-6.1c-0.3,0-0.5-0.2-0.5-0.5   c0-0.3,0.2-0.5,0.5-0.5h6.1c0.3,0,0.5,0.2,0.5,0.5C352.1,400.8,351.8,401,351.6,401z M339.4,401h-6.1c-0.3,0-0.5-0.2-0.5-0.5   c0-0.3,0.2-0.5,0.5-0.5h6.1c0.3,0,0.5,0.2,0.5,0.5C339.9,400.8,339.7,401,339.4,401z M327.3,401h-6.1c-0.3,0-0.5-0.2-0.5-0.5   c0-0.3,0.2-0.5,0.5-0.5h6.1c0.3,0,0.5,0.2,0.5,0.5C327.8,400.8,327.6,401,327.3,401z M315.2,401h-6.1c-0.3,0-0.5-0.2-0.5-0.5   c0-0.3,0.2-0.5,0.5-0.5h6.1c0.3,0,0.5,0.2,0.5,0.5C315.7,400.8,315.5,401,315.2,401z M303.1,401H297c-0.3,0-0.5-0.2-0.5-0.5   c0-0.3,0.2-0.5,0.5-0.5h6.1c0.3,0,0.5,0.2,0.5,0.5C303.6,400.8,303.4,401,303.1,401z M291,401h-6.1c-0.3,0-0.5-0.2-0.5-0.5   c0-0.3,0.2-0.5,0.5-0.5h6.1c0.3,0,0.5,0.2,0.5,0.5C291.5,400.8,291.3,401,291,401z M278.9,401h-6.1c-0.3,0-0.5-0.2-0.5-0.5   c0-0.3,0.2-0.5,0.5-0.5h6.1c0.3,0,0.5,0.2,0.5,0.5C279.4,400.8,279.1,401,278.9,401z M266.7,401h-6.1c-0.3,0-0.5-0.2-0.5-0.5   c0-0.3,0.2-0.5,0.5-0.5h6.1c0.3,0,0.5,0.2,0.5,0.5C267.2,400.8,267,401,266.7,401z M254.6,401h-6.1c-0.3,0-0.5-0.2-0.5-0.5   c0-0.3,0.2-0.5,0.5-0.5h6.1c0.3,0,0.5,0.2,0.5,0.5C255.1,400.8,254.9,401,254.6,401z M242.5,401h-6.1c-0.3,0-0.5-0.2-0.5-0.5   c0-0.3,0.2-0.5,0.5-0.5h6.1c0.3,0,0.5,0.2,0.5,0.5C243,400.8,242.8,401,242.5,401z M230.4,401h-6.1c-0.3,0-0.5-0.2-0.5-0.5   c0-0.3,0.2-0.5,0.5-0.5h6.1c0.3,0,0.5,0.2,0.5,0.5C230.9,400.8,230.7,401,230.4,401z M218.3,401h-6.1c-0.3,0-0.5-0.2-0.5-0.5   c0-0.3,0.2-0.5,0.5-0.5h6.1c0.3,0,0.5,0.2,0.5,0.5C218.8,400.8,218.5,401,218.3,401z M206.1,401h-6.1c-0.3,0-0.5-0.2-0.5-0.5   c0-0.3,0.2-0.5,0.5-0.5h6.1c0.3,0,0.5,0.2,0.5,0.5C206.6,400.8,206.4,401,206.1,401z M194,401H188c-0.3,0-0.5-0.2-0.5-0.5   c0-0.3,0.2-0.5,0.5-0.5h6.1c0.3,0,0.5,0.2,0.5,0.5C194.5,400.8,194.3,401,194,401z M181.9,401h-6.1c-0.3,0-0.5-0.2-0.5-0.5   c0-0.3,0.2-0.5,0.5-0.5h6.1c0.3,0,0.5,0.2,0.5,0.5C182.4,400.8,182.2,401,181.9,401z M169.8,401h-6.1c-0.3,0-0.5-0.2-0.5-0.5   c0-0.3,0.2-0.5,0.5-0.5h6.1c0.3,0,0.5,0.2,0.5,0.5C170.3,400.8,170.1,401,169.8,401z M157.7,401C157.7,401,157.7,401,157.7,401   c-2.1-0.1-4.2-0.8-6-2c-0.2-0.2-0.3-0.5-0.1-0.7c0.2-0.2,0.5-0.3,0.7-0.1c1.6,1.1,3.5,1.7,5.4,1.8c0.3,0,0.5,0.3,0.5,0.5   C158.2,400.8,157.9,401,157.7,401z M419.5,398.2c-0.1,0-0.3-0.1-0.4-0.2c-0.2-0.2-0.2-0.5,0-0.7c1.5-1.3,2.5-2.9,3.1-4.8   c0.1-0.3,0.4-0.4,0.6-0.3c0.3,0.1,0.4,0.4,0.3,0.6c-0.6,2-1.8,3.8-3.4,5.2C419.8,398.2,419.7,398.2,419.5,398.2z M148.1,394.5   c-0.2,0-0.4-0.1-0.5-0.3c-0.7-1.5-1.1-3.2-1.1-4.9v-1.2c0-0.3,0.2-0.5,0.5-0.5c0.3,0,0.5,0.2,0.5,0.5v1.2c0,1.6,0.3,3.1,1,4.5   c0.1,0.3,0,0.6-0.2,0.7C148.3,394.5,148.2,394.5,148.1,394.5z M423.4,387.2c-0.3,0-0.5-0.2-0.5-0.5v-6.1c0-0.3,0.2-0.5,0.5-0.5   s0.5,0.2,0.5,0.5v6.1C423.9,387,423.6,387.2,423.4,387.2z M147.1,382.5c-0.3,0-0.5-0.2-0.5-0.5v-6.1c0-0.3,0.2-0.5,0.5-0.5   c0.3,0,0.5,0.2,0.5,0.5v6.1C147.6,382.3,147.4,382.5,147.1,382.5z M423.4,375.1c-0.3,0-0.5-0.2-0.5-0.5v-6.1   c0-0.3,0.2-0.5,0.5-0.5s0.5,0.2,0.5,0.5v6.1C423.9,374.9,423.6,375.1,423.4,375.1z M147.1,370.4c-0.3,0-0.5-0.2-0.5-0.5v-6.1   c0-0.3,0.2-0.5,0.5-0.5c0.3,0,0.5,0.2,0.5,0.5v6.1C147.6,370.2,147.4,370.4,147.1,370.4z M423.4,363c-0.3,0-0.5-0.2-0.5-0.5v-6.1   c0-0.3,0.2-0.5,0.5-0.5s0.5,0.2,0.5,0.5v6.1C423.9,362.7,423.6,363,423.4,363z M147.1,358.3c-0.3,0-0.5-0.2-0.5-0.5v-6.1   c0-0.3,0.2-0.5,0.5-0.5c0.3,0,0.5,0.2,0.5,0.5v6.1C147.6,358,147.4,358.3,147.1,358.3z M423.4,350.8c-0.3,0-0.5-0.2-0.5-0.5v-6.1   c0-0.3,0.2-0.5,0.5-0.5s0.5,0.2,0.5,0.5v6.1C423.9,350.6,423.6,350.8,423.4,350.8z M147.1,346.2c-0.3,0-0.5-0.2-0.5-0.5v-6.1   c0-0.3,0.2-0.5,0.5-0.5c0.3,0,0.5,0.2,0.5,0.5v6.1C147.6,345.9,147.4,346.2,147.1,346.2z M423.4,338.7c-0.3,0-0.5-0.2-0.5-0.5   v-6.1c0-0.3,0.2-0.5,0.5-0.5s0.5,0.2,0.5,0.5v6.1C423.9,338.5,423.6,338.7,423.4,338.7z M147.1,334c-0.3,0-0.5-0.2-0.5-0.5v-6.1   c0-0.3,0.2-0.5,0.5-0.5c0.3,0,0.5,0.2,0.5,0.5v6.1C147.6,333.8,147.4,334,147.1,334z M423.4,326.6c-0.3,0-0.5-0.2-0.5-0.5V320   c0-0.3,0.2-0.5,0.5-0.5s0.5,0.2,0.5,0.5v6.1C423.9,326.4,423.6,326.6,423.4,326.6z M147.1,321.9c-0.3,0-0.5-0.2-0.5-0.5v-6.1   c0-0.3,0.2-0.5,0.5-0.5c0.3,0,0.5,0.2,0.5,0.5v6.1C147.6,321.7,147.4,321.9,147.1,321.9z M423.4,314.5c-0.3,0-0.5-0.2-0.5-0.5   v-6.1c0-0.3,0.2-0.5,0.5-0.5s0.5,0.2,0.5,0.5v6.1C423.9,314.3,423.6,314.5,423.4,314.5z M147.1,309.8c-0.3,0-0.5-0.2-0.5-0.5v-6.1   c0-0.3,0.2-0.5,0.5-0.5c0.3,0,0.5,0.2,0.5,0.5v6.1C147.6,309.6,147.4,309.8,147.1,309.8z M423.4,302.4c-0.3,0-0.5-0.2-0.5-0.5   v-6.1c0-0.3,0.2-0.5,0.5-0.5s0.5,0.2,0.5,0.5v6.1C423.9,302.1,423.6,302.4,423.4,302.4z M147.1,297.7c-0.3,0-0.5-0.2-0.5-0.5v-6.1   c0-0.3,0.2-0.5,0.5-0.5c0.3,0,0.5,0.2,0.5,0.5v6.1C147.6,297.5,147.4,297.7,147.1,297.7z M423.4,290.3c-0.3,0-0.5-0.2-0.5-0.5   v-6.1c0-0.3,0.2-0.5,0.5-0.5s0.5,0.2,0.5,0.5v6.1C423.9,290,423.6,290.3,423.4,290.3z M147.1,285.6c-0.3,0-0.5-0.2-0.5-0.5V279   c0-0.3,0.2-0.5,0.5-0.5c0.3,0,0.5,0.2,0.5,0.5v6.1C147.6,285.3,147.4,285.6,147.1,285.6z M423.4,278.1c-0.3,0-0.5-0.2-0.5-0.5   v-6.1c0-0.3,0.2-0.5,0.5-0.5s0.5,0.2,0.5,0.5v6.1C423.9,277.9,423.6,278.1,423.4,278.1z M147.1,273.4c-0.3,0-0.5-0.2-0.5-0.5v-6.1   c0-0.3,0.2-0.5,0.5-0.5c0.3,0,0.5,0.2,0.5,0.5v6.1C147.6,273.2,147.4,273.4,147.1,273.4z M423.4,266c-0.3,0-0.5-0.2-0.5-0.5v-6.1   c0-0.3,0.2-0.5,0.5-0.5s0.5,0.2,0.5,0.5v6.1C423.9,265.8,423.6,266,423.4,266z M147.1,261.3c-0.3,0-0.5-0.2-0.5-0.5v-6.1   c0-0.3,0.2-0.5,0.5-0.5c0.3,0,0.5,0.2,0.5,0.5v6.1C147.6,261.1,147.4,261.3,147.1,261.3z M423.4,253.9c-0.3,0-0.5-0.2-0.5-0.5   v-6.1c0-0.3,0.2-0.5,0.5-0.5s0.5,0.2,0.5,0.5v6.1C423.9,253.7,423.6,253.9,423.4,253.9z M147.1,249.2c-0.3,0-0.5-0.2-0.5-0.5v-6.1   c0-0.3,0.2-0.5,0.5-0.5c0.3,0,0.5,0.2,0.5,0.5v6.1C147.6,249,147.4,249.2,147.1,249.2z M423.4,241.8c-0.3,0-0.5-0.2-0.5-0.5v-6.1   c0-0.3,0.2-0.5,0.5-0.5s0.5,0.2,0.5,0.5v6.1C423.9,241.6,423.6,241.8,423.4,241.8z M147.1,237.1c-0.3,0-0.5-0.2-0.5-0.5v-6.1   c0-0.3,0.2-0.5,0.5-0.5c0.3,0,0.5,0.2,0.5,0.5v6.1C147.6,236.9,147.4,237.1,147.1,237.1z M423.4,229.7c-0.3,0-0.5-0.2-0.5-0.5   v-6.1c0-0.3,0.2-0.5,0.5-0.5s0.5,0.2,0.5,0.5v6.1C423.9,229.4,423.6,229.7,423.4,229.7z M147.1,225c-0.3,0-0.5-0.2-0.5-0.5v-6.1   c0-0.3,0.2-0.5,0.5-0.5c0.3,0,0.5,0.2,0.5,0.5v6.1C147.6,224.7,147.4,225,147.1,225z M423.4,217.5c-0.3,0-0.5-0.2-0.5-0.5v-0.2   c0-1.9-0.5-3.7-1.4-5.3c-0.1-0.2-0.1-0.6,0.2-0.7c0.2-0.1,0.6-0.1,0.7,0.2c1,1.8,1.6,3.8,1.6,5.8v0.2   C423.9,217.3,423.6,217.5,423.4,217.5z M148,213c-0.1,0-0.1,0-0.2,0c-0.3-0.1-0.4-0.4-0.3-0.7c0.8-2,2.2-3.6,3.9-4.9   c0.2-0.2,0.5-0.1,0.7,0.1c0.2,0.2,0.1,0.5-0.1,0.7c-1.6,1.1-2.8,2.7-3.5,4.5C148.4,212.9,148.2,213,148,213z M417.6,207.5   c-0.1,0-0.2,0-0.2-0.1c-1.6-0.9-3.4-1.4-5.2-1.4h-0.4c-0.3,0-0.5-0.2-0.5-0.5s0.2-0.5,0.5-0.5h0.4c2,0,4,0.5,5.7,1.5   c0.2,0.1,0.3,0.4,0.2,0.7C418,207.5,417.8,207.5,417.6,207.5z M157.3,206.2c-0.3,0-0.5-0.2-0.5-0.5c0-0.3,0.2-0.5,0.5-0.5   c0.3,0,0.7,0,1,0h5.1c0.3,0,0.5,0.2,0.5,0.5s-0.2,0.5-0.5,0.5h-5.1C158,206.1,157.7,206.1,157.3,206.2   C157.3,206.2,157.3,206.2,157.3,206.2z M405.7,206.1h-6.1c-0.3,0-0.5-0.2-0.5-0.5s0.2-0.5,0.5-0.5h6.1c0.3,0,0.5,0.2,0.5,0.5   S406,206.1,405.7,206.1z M393.6,206.1h-6.1c-0.3,0-0.5-0.2-0.5-0.5s0.2-0.5,0.5-0.5h6.1c0.3,0,0.5,0.2,0.5,0.5   S393.9,206.1,393.6,206.1z M381.5,206.1h-6.1c-0.3,0-0.5-0.2-0.5-0.5s0.2-0.5,0.5-0.5h6.1c0.3,0,0.5,0.2,0.5,0.5   S381.8,206.1,381.5,206.1z M369.4,206.1h-6.1c-0.3,0-0.5-0.2-0.5-0.5s0.2-0.5,0.5-0.5h6.1c0.3,0,0.5,0.2,0.5,0.5   S369.7,206.1,369.4,206.1z M357.3,206.1h-6.1c-0.3,0-0.5-0.2-0.5-0.5s0.2-0.5,0.5-0.5h6.1c0.3,0,0.5,0.2,0.5,0.5   S357.5,206.1,357.3,206.1z M345.1,206.1h-6.1c-0.3,0-0.5-0.2-0.5-0.5s0.2-0.5,0.5-0.5h6.1c0.3,0,0.5,0.2,0.5,0.5   S345.4,206.1,345.1,206.1z M333,206.1H327c-0.3,0-0.5-0.2-0.5-0.5s0.2-0.5,0.5-0.5h6.1c0.3,0,0.5,0.2,0.5,0.5   S333.3,206.1,333,206.1z M320.9,206.1h-6.1c-0.3,0-0.5-0.2-0.5-0.5s0.2-0.5,0.5-0.5h6.1c0.3,0,0.5,0.2,0.5,0.5   S321.2,206.1,320.9,206.1z M308.8,206.1h-6.1c-0.3,0-0.5-0.2-0.5-0.5s0.2-0.5,0.5-0.5h6.1c0.3,0,0.5,0.2,0.5,0.5   S309.1,206.1,308.8,206.1z M296.7,206.1h-6.1c-0.3,0-0.5-0.2-0.5-0.5s0.2-0.5,0.5-0.5h6.1c0.3,0,0.5,0.2,0.5,0.5   S296.9,206.1,296.7,206.1z M284.5,206.1h-6.1c-0.3,0-0.5-0.2-0.5-0.5s0.2-0.5,0.5-0.5h6.1c0.3,0,0.5,0.2,0.5,0.5   S284.8,206.1,284.5,206.1z M272.4,206.1h-6.1c-0.3,0-0.5-0.2-0.5-0.5s0.2-0.5,0.5-0.5h6.1c0.3,0,0.5,0.2,0.5,0.5   S272.7,206.1,272.4,206.1z M260.3,206.1h-6.1c-0.3,0-0.5-0.2-0.5-0.5s0.2-0.5,0.5-0.5h6.1c0.3,0,0.5,0.2,0.5,0.5   S260.6,206.1,260.3,206.1z M248.2,206.1h-6.1c-0.3,0-0.5-0.2-0.5-0.5s0.2-0.5,0.5-0.5h6.1c0.3,0,0.5,0.2,0.5,0.5   S248.5,206.1,248.2,206.1z M236.1,206.1H230c-0.3,0-0.5-0.2-0.5-0.5s0.2-0.5,0.5-0.5h6.1c0.3,0,0.5,0.2,0.5,0.5   S236.4,206.1,236.1,206.1z M224,206.1h-6.1c-0.3,0-0.5-0.2-0.5-0.5s0.2-0.5,0.5-0.5h6.1c0.3,0,0.5,0.2,0.5,0.5   S224.2,206.1,224,206.1z M211.8,206.1h-6.1c-0.3,0-0.5-0.2-0.5-0.5s0.2-0.5,0.5-0.5h6.1c0.3,0,0.5,0.2,0.5,0.5   S212.1,206.1,211.8,206.1z M199.7,206.1h-6.1c-0.3,0-0.5-0.2-0.5-0.5s0.2-0.5,0.5-0.5h6.1c0.3,0,0.5,0.2,0.5,0.5   S200,206.1,199.7,206.1z M187.6,206.1h-6.1c-0.3,0-0.5-0.2-0.5-0.5s0.2-0.5,0.5-0.5h6.1c0.3,0,0.5,0.2,0.5,0.5   S187.9,206.1,187.6,206.1z M175.5,206.1h-6.1c-0.3,0-0.5-0.2-0.5-0.5s0.2-0.5,0.5-0.5h6.1c0.3,0,0.5,0.2,0.5,0.5   S175.8,206.1,175.5,206.1z"></path>		<g>			<path class="st1" d="M431.5,323.1h-56.3c-5,0-9.1-4.1-9.1-9.1v-22.3c0-5,4.1-9.1,9.1-9.1h56.3c5,0,9.1,4.1,9.1,9.1V314    C440.6,319,436.5,323.1,431.5,323.1z"></path>			<path class="st2" d="M431.5,323.6h-56.3c-5.3,0-9.6-4.3-9.6-9.6v-22.3c0-5.3,4.3-9.6,9.6-9.6h56.3c5.3,0,9.6,4.3,9.6,9.6V314    C441.1,319.3,436.8,323.6,431.5,323.6z M375.2,283.2c-4.7,0-8.6,3.9-8.6,8.6V314c0,4.7,3.9,8.6,8.6,8.6h56.3    c4.7,0,8.6-3.9,8.6-8.6v-22.3c0-4.7-3.9-8.6-8.6-8.6H375.2z"></path>		</g>		<ellipse class="st2" cx="382.3" cy="302.9" rx="8.1" ry="8.1"></ellipse>		<path class="st2" d="M286.3,339.3c-0.1,0-0.2,0-0.3-0.1c-0.2-0.2-0.3-0.5-0.1-0.7l20.1-24.8c0.2-0.2,0.5-0.3,0.7-0.1   c0.2,0.2,0.3,0.5,0.1,0.7l-20.1,24.8C286.6,339.3,286.4,339.3,286.3,339.3z"></path>		<path class="st2" d="M310,310c-0.1,0-0.2,0-0.3-0.1c-0.2-0.2-0.3-0.5-0.1-0.7l24-29.7c0.2-0.2,0.5-0.3,0.7-0.1   c0.2,0.2,0.3,0.5,0.1,0.7l-24,29.7C310.3,309.9,310.1,310,310,310z"></path>		<path class="st2" d="M337.6,275.8c-0.1,0-0.2,0-0.3-0.1c-0.2-0.2-0.3-0.5-0.1-0.7l7.4-9.1c0.2-0.2,0.5-0.3,0.7-0.1   c0.2,0.2,0.3,0.5,0.1,0.7l-7.4,9.1C337.9,275.8,337.7,275.8,337.6,275.8z"></path>		<path class="st2" d="M206.7,336.8c-0.1,0-0.2,0-0.3-0.1c-0.2-0.2-0.3-0.5-0.1-0.7l14-17.4c0.2-0.2,0.5-0.3,0.7-0.1   c0.2,0.2,0.3,0.5,0.1,0.7l-14,17.4C207,336.7,206.8,336.8,206.7,336.8z"></path>		<path class="st2" d="M223.5,316c-0.1,0-0.2,0-0.3-0.1c-0.2-0.2-0.3-0.5-0.1-0.7l16.5-20.4c0.2-0.2,0.5-0.3,0.7-0.1   c0.2,0.2,0.3,0.5,0.1,0.7l-16.5,20.4C223.8,316,223.6,316,223.5,316z"></path>		<path class="st2" d="M245.2,289.2c-0.1,0-0.2,0-0.3-0.1c-0.2-0.2-0.3-0.5-0.1-0.7l17.4-21.5c0.2-0.2,0.5-0.3,0.7-0.1   c0.2,0.2,0.3,0.5,0.1,0.7L245.6,289C245.5,289.1,245.3,289.2,245.2,289.2z"></path>		<path class="st2" d="M273.1,387.1c-0.1,0-0.2,0-0.3-0.1c-0.2-0.2-0.3-0.5-0.1-0.7L298,355c0.2-0.2,0.5-0.3,0.7-0.1   c0.2,0.2,0.3,0.5,0.1,0.7l-25.2,31.2C273.4,387,273.3,387.1,273.1,387.1z"></path>		<path class="st2" d="M301,352.5c-0.1,0-0.2,0-0.3-0.1c-0.2-0.2-0.3-0.5-0.1-0.7l21.6-26.7c0.2-0.2,0.5-0.3,0.7-0.1   c0.2,0.2,0.3,0.5,0.1,0.7l-21.6,26.7C301.3,352.5,301.2,352.5,301,352.5z"></path>	</g>	<g>		<g>			<path class="st1" d="M270.6,66.8c11.4,10.8,16.1,22.8,15.1,44.8c3.8-7.1,5.6-12.5,5.7-18.6l6.3,5.4c1.3-5.7,1.6-13-2.3-18.4    l8.1,5.9c-2.4-10.7-3.9-30-25.1-25.9L270.6,66.8z"></path>			<path class="st2" d="M285.7,112.1c0,0-0.1,0-0.1,0c-0.2-0.1-0.4-0.3-0.4-0.5c1-21.2-3.1-33.3-14.9-44.4c-0.1-0.1-0.2-0.2-0.2-0.4    c0-0.1,0.1-0.3,0.2-0.4l7.7-6.7c0.1-0.1,0.1-0.1,0.2-0.1c19.5-3.8,22.8,12.2,25,22.8c0.2,1.2,0.5,2.4,0.7,3.4    c0,0.2,0,0.4-0.2,0.5c-0.2,0.1-0.4,0.1-0.6,0l-6-4.4c2.7,5.4,2.1,11.8,1,16.6c0,0.2-0.2,0.3-0.3,0.4c-0.2,0.1-0.4,0-0.5-0.1    l-5.5-4.7c-0.3,5.5-1.9,10.8-5.7,17.8C286,112,285.8,112.1,285.7,112.1z M271.4,66.8c11.2,10.8,15.5,22.9,14.9,42.6    c3.2-6.3,4.5-11.2,4.6-16.4c0-0.2,0.1-0.4,0.3-0.5c0.2-0.1,0.4-0.1,0.5,0.1l5.7,4.9c1.1-5.1,1.4-11.9-2.4-17.1    c-0.1-0.2-0.1-0.5,0.1-0.7c0.2-0.2,0.5-0.2,0.7-0.1l7,5.1c-0.1-0.7-0.3-1.4-0.4-2.2c-2.2-10.8-5.2-25.6-23.6-22L271.4,66.8z"></path>		</g>		<g>			<path class="st1" d="M230.2,53.1c-15.2,4.2-24.9,12.7-34.3,32.6c0-8,0.9-13.7,3.7-19.1l-8.1,1.8c1.5-5.7,4.6-12.2,10.7-15.1    l-9.9,1.5c7.2-8.3,17.5-24.7,34.3-11.1L230.2,53.1z"></path>			<path class="st2" d="M195.9,86.2c0,0-0.1,0-0.1,0c-0.2-0.1-0.4-0.3-0.4-0.5c0-8,0.9-13.4,3.3-18.4l-7.1,1.6c-0.2,0-0.4,0-0.5-0.1    c-0.1-0.1-0.2-0.3-0.1-0.5c1.2-4.7,3.7-10.6,8.7-14.1l-7.4,1.1c-0.2,0-0.4-0.1-0.5-0.3c-0.1-0.2-0.1-0.4,0.1-0.6    c0.7-0.8,1.5-1.7,2.3-2.7c6.9-8.4,17.3-21,32.8-8.5c0.1,0.1,0.1,0.1,0.2,0.2l3.7,9.5c0.1,0.1,0,0.3,0,0.4    c-0.1,0.1-0.2,0.2-0.3,0.3c-15.7,4.4-24.9,13.1-34,32.3C196.3,86.1,196.1,86.2,195.9,86.2z M199.6,66c0.2,0,0.3,0.1,0.4,0.2    c0.1,0.2,0.1,0.4,0,0.5c-2.4,4.6-3.5,9.6-3.7,16.6c8.7-17.7,18.2-26.4,33.1-30.7l-3.4-8.9c-14.6-11.7-24.2-0.1-31.2,8.4    c-0.5,0.6-0.9,1.2-1.4,1.7l8.6-1.3c0.2,0,0.5,0.1,0.6,0.4c0.1,0.2,0,0.5-0.3,0.6c-5.8,2.8-8.7,9-10.2,14l7.3-1.6    C199.5,66.1,199.6,66,199.6,66z"></path>		</g>		<g>			<g>				<ellipse class="st2" cx="249.3" cy="67.1" rx="33.9" ry="33.8"></ellipse>			</g>			<g>				<ellipse class="st1" cx="250.9" cy="66.4" rx="32.9" ry="32.8"></ellipse>				<path class="st2" d="M250.9,99.7c-1.9,0-3.8-0.2-5.7-0.5c-8.8-1.5-16.4-6.4-21.6-13.6c-5.1-7.3-7.1-16.1-5.6-24.9     c3.2-18.1,20.5-30.2,38.6-27.1c8.8,1.5,16.4,6.4,21.6,13.6c5.1,7.3,7.1,16.1,5.6,24.9C281,88.3,266.9,99.7,250.9,99.7z      M250.9,34.1c-15.4,0-29.1,11.1-31.9,26.7c-1.5,8.5,0.4,17.1,5.4,24.1c5,7.1,12.4,11.7,20.9,13.2c1.9,0.3,3.7,0.5,5.6,0.5     c15.4,0,29.1-11.1,31.9-26.7c1.5-8.5-0.4-17.1-5.4-24.1c-5-7.1-12.4-11.7-20.9-13.2C254.6,34.3,252.7,34.1,250.9,34.1z"></path>			</g>			<ellipse class="st1" cx="250.9" cy="66.4" rx="27.6" ry="27.5"></ellipse>			<path class="st2" d="M271.2,85.5c-0.1,0-0.2,0-0.3-0.1c-0.2-0.2-0.2-0.5,0-0.7c1.8-1.9,3.2-4,4.4-6.3c0.1-0.2,0.4-0.4,0.7-0.2    c0.2,0.1,0.4,0.4,0.2,0.7c-1.2,2.4-2.7,4.6-4.5,6.6C271.5,85.5,271.3,85.5,271.2,85.5z"></path>			<path class="st2" d="M277.4,59.3c-0.2,0-0.4-0.1-0.5-0.4c-2.9-10-11.1-17.4-21.4-19.2c-8.5-1.5-17.2,1.2-23.4,7.2    c-0.2,0.2-0.5,0.2-0.7,0c-0.2-0.2-0.2-0.5,0-0.7c6.4-6.2,15.5-8.9,24.3-7.4c10.5,1.8,19.2,9.6,22.2,19.9c0.1,0.3-0.1,0.5-0.3,0.6    C277.5,59.3,277.5,59.3,277.4,59.3z"></path>			<path class="st2" d="M246.2,94C246.2,94,246.1,94,246.2,94c-7.5-1.3-13.9-5.4-18.2-11.5c-4.3-6.1-6-13.6-4.7-20.9    c0.8-4.7,2.9-9.2,5.9-12.9c0.2-0.2,0.5-0.2,0.7-0.1c0.2,0.2,0.2,0.5,0.1,0.7c-2.9,3.6-4.9,7.9-5.7,12.4    c-1.2,7.1,0.4,14.3,4.5,20.2c4.2,5.9,10.4,9.8,17.5,11.1c0.3,0,0.5,0.3,0.4,0.6C246.7,93.8,246.4,94,246.2,94z"></path>			<g>				<g>					<path class="st2" d="M245.1,85.1l0.8-4.5c-3.1-0.7-6-2.1-7.6-3.4l2.4-5.2c1.8,1.4,4.4,2.9,7.4,3.4c2.7,0.5,4.7-0.2,5-2.1      c0.3-1.8-1-3.2-4.3-4.9c-4.7-2.6-7.8-5.5-7-10.1c0.7-4.1,4.2-6.9,9.4-7l0.8-4.5l4.6,0.8l-0.7,4.1c3.1,0.7,5.1,1.7,6.5,2.7      l-2.3,5.1c-1.1-0.7-3.1-2.2-6.5-2.8c-3.1-0.5-4.3,0.6-4.5,1.9c-0.3,1.5,1.2,2.8,4.9,5c5.3,2.9,7.1,5.9,6.3,10.1      c-0.7,4.2-4.3,7.2-9.9,7.2l-0.8,4.8L245.1,85.1z"></path>				</g>			</g>		</g>	</g></g><g>	<g>		<g>			<path class="st1" d="M134.5,413.8c0,0,3.4,10.4,6.8,13.5c3.4,3.2,16.9,9.4,17.1,16.1c0.2,7.9-4.4,9.3-16.6,6.5    c-8.8-2-16.1-7.4-18.8-10.5c-2.3-2.7-1-5-0.5-8.2c0.7-3.9,0.8-7.9,0.8-11.9v-6.5L134.5,413.8z"></path>			<path class="st2" d="M150.9,451.8c-2.4,0-5.4-0.5-9.3-1.3c-9-2.1-16.5-7.7-19-10.7c-2-2.4-1.5-4.5-1-6.8c0.1-0.6,0.3-1.2,0.4-1.8    c0.7-4.1,0.8-8.2,0.8-11.8v-6.5c0-0.1,0.1-0.3,0.2-0.4c0.1-0.1,0.2-0.1,0.4-0.1l11.2,1c0.2,0,0.4,0.2,0.4,0.3    c0,0.1,3.4,10.3,6.6,13.3c0.9,0.8,2.6,1.9,4.5,3.2c5.3,3.4,12.5,8.1,12.7,13.3c0.1,3.3-0.6,5.4-2.3,6.8    C155.3,451.3,153.5,451.8,150.9,451.8z M123.8,413.4v5.9c0,3.6-0.1,7.8-0.8,12c-0.1,0.7-0.3,1.3-0.4,1.9c-0.5,2.3-0.9,4,0.7,6    c2.5,2.9,9.7,8.3,18.5,10.4c7.6,1.8,11.9,1.8,14.1,0c1.4-1.1,2-3,1.9-6c-0.1-4.6-7.1-9.2-12.2-12.5c-2-1.3-3.7-2.4-4.7-3.3    c-3.1-2.9-6.2-11.6-6.8-13.4L123.8,413.4z"></path>		</g>		<path class="st2" d="M157.8,447.3C157.8,447.3,157.8,447.3,157.8,447.3l-4.4-0.3c-11.3-0.8-21.8-5.7-29.7-13.6   c-1.1-1.1-1.6-1.7-1.7-1.8c-0.2-0.2-0.2-0.5,0.1-0.7c0.2-0.2,0.5-0.2,0.7,0.1c0,0,0.6,0.7,1.6,1.7c7.7,7.8,18,12.5,29,13.3   l4.4,0.3c0.3,0,0.5,0.3,0.5,0.5C158.3,447.1,158.1,447.3,157.8,447.3z"></path>		<path class="st2" d="M131.5,430.6c-0.2,0-0.5-0.2-0.5-0.4c0-0.3,0.1-0.5,0.4-0.6c0.1,0,5.7-1,7.8-3.7c0.2-0.2,0.5-0.3,0.7-0.1   c0.2,0.2,0.3,0.5,0.1,0.7C137.7,429.6,131.9,430.6,131.5,430.6C131.6,430.6,131.6,430.6,131.5,430.6z"></path>		<path class="st2" d="M136.7,434.1c-0.2,0-0.4-0.2-0.5-0.4c-0.1-0.3,0.1-0.5,0.4-0.6c0.1,0,5.4-1.2,6.9-3.8   c0.1-0.2,0.5-0.3,0.7-0.2c0.2,0.1,0.3,0.5,0.2,0.7c-1.8,3-7.4,4.2-7.6,4.3C136.8,434.1,136.7,434.1,136.7,434.1z"></path>		<path class="st2" d="M142.3,437.4c-0.2,0-0.4-0.1-0.5-0.3c-0.1-0.3,0-0.6,0.3-0.6c0,0,4.4-1.7,5.6-4.3c0.1-0.3,0.4-0.4,0.7-0.2   c0.3,0.1,0.4,0.4,0.2,0.7c-1.4,3-6,4.7-6.2,4.8C142.4,437.4,142.3,437.4,142.3,437.4z"></path>	</g>	<g>		<g>			<path class="st1" d="M108.3,388.4c-0.4,0-6.3-0.6-9.7-0.9c-1.3-0.1-2.5,0.8-2.6,2.1l-0.7,6.2c-0.2,2.2-0.7,4.3-1.3,6.4    c-1.1,3.8-2.8,10.4-1.9,13.4c1,3.2,4,7.7,6,10.2c0.9,1.2,2.5,1.6,3.9,1.2c2.5-0.8,6.6-2.5,8.9-4.8c3.6-3.6-0.3-10.6-0.3-10.6    L108.3,388.4z"></path>			<path class="st2" d="M100.9,427.6c-1.2,0-2.4-0.6-3.2-1.5c-2.2-2.8-5.1-7.2-6.1-10.4c-0.9-3,0.5-9.1,1.9-13.7    c0.6-2.1,1-4.2,1.3-6.3l0.7-6.2c0.2-1.6,1.6-2.7,3.2-2.6c5.8,0.6,9.4,0.9,9.7,0.9c0.3,0,0.5,0.2,0.5,0.5l2.3,23    c0.5,0.9,3.8,7.5,0.2,11.1c-2.4,2.4-6.3,4-9.1,5C101.7,427.6,101.3,427.6,100.9,427.6z M98.4,387.9c-1,0-1.8,0.7-1.9,1.7    l-0.7,6.2c-0.2,2.2-0.7,4.4-1.3,6.5c-1.1,3.7-2.7,10.2-1.9,13.1c0.9,2.8,3.6,7.1,5.9,10.1c0.8,1,2.1,1.4,3.3,1    c2.3-0.8,6.4-2.4,8.8-4.7c3.3-3.3-0.3-9.9-0.4-10c0-0.1-0.1-0.1-0.1-0.2l-2.3-22.7c-1.4-0.1-5.7-0.5-9.3-0.9    C98.5,387.9,98.4,387.9,98.4,387.9z"></path>		</g>		<path class="st2" d="M103.6,426.6c-0.2,0-0.3-0.1-0.4-0.2c-7.2-10.1-6.7-12.8-5.7-18.6c0.2-1.2,0.5-2.5,0.7-4.1   c0.5-4.2,2.2-15.7,2.2-15.9c0-0.3,0.3-0.5,0.6-0.4c0.3,0,0.5,0.3,0.4,0.6c0,0.1-1.6,11.7-2.2,15.8c-0.2,1.6-0.5,3-0.7,4.2   c-1,5.5-1.5,8,5.5,17.8c0.2,0.2,0.1,0.5-0.1,0.7C103.8,426.6,103.7,426.6,103.6,426.6z"></path>		<path class="st2" d="M102.6,409c-0.2,0-0.5-0.2-0.5-0.4c0-0.3,0.2-0.5,0.4-0.6l6.6-1c0.3,0,0.5,0.2,0.6,0.4c0,0.3-0.2,0.5-0.4,0.6   L102.6,409C102.7,409,102.6,409,102.6,409z"></path>		<path class="st2" d="M103.3,413.7c-0.2,0-0.5-0.2-0.5-0.4c0-0.3,0.2-0.5,0.4-0.6l6.6-1c0.3,0,0.5,0.2,0.6,0.4   c0,0.3-0.2,0.5-0.4,0.6L103.3,413.7C103.4,413.7,103.3,413.7,103.3,413.7z"></path>	</g>	<g>		<path class="st1" d="M124.4,421.8c-7.3,0-12.2-2.3-15-4.2c-2.2-1.5-3.6-4.1-3.6-6.9c0.1-7.7,0-35.3-3.4-67.3   c-3.7-34.6,0.1-93.2,0.1-93.8l0.1-2.3l29.7,5.7l6,166.4l-1.5,0.4C132.5,421.2,128.3,421.8,124.4,421.8   C124.4,421.8,124.4,421.8,124.4,421.8z"></path>		<path class="st1" d="M134.8,394.3c-3.2,0-6.9-3-11.4-25c-2.6-12.5-5.2-29.9-7.7-51.7c-4.3-37.1-7-74.7-7.1-75.1l-0.1-1.6l48.1-16   l15.4,85.9l0,0.3c-1.5,20.2-25,75.7-34.9,82.5C136.4,394.1,135.6,394.3,134.8,394.3z"></path>		<path class="st2" d="M110.5,415.9c3.9,2.7,12.1,6.1,25.8,2l-5.9-163.3l-25.9-4.9c0,0-3.8,58.6-0.1,93.4c3.4,31.8,3.5,59,3.4,67.6   C107.8,412.8,108.8,414.8,110.5,415.9z"></path>		<path class="st2" d="M110.6,242.3l44.5-14.8L170,311c-1.5,20.5-25.1,74.9-34,81C122.1,401.5,110.6,242.3,110.6,242.3z"></path>		<path class="st1" d="M136.1,392.8C136.1,392.8,136.1,392.8,136.1,392.8c-0.3,0-0.5-0.2-0.5-0.5l2.9-114c0-0.3,0.2-0.5,0.5-0.5   c0,0,0,0,0,0c0.3,0,0.5,0.2,0.5,0.5l-2.9,114C136.6,392.6,136.4,392.8,136.1,392.8z"></path>	</g></g><g>	<g>		<path class="st1" d="M198.5,143.7c-0.4-0.1-0.6-0.4-0.6-0.7c0-1.9,0.4-7.4,3.6-10c3.8-3.1,7-10.2,9.3-9.5s-2.8,6.9-2.2,7.6   c0.6,0.7,4.6-3.2,5.9-5.5c1.3-2.3,2.8-6.8,4.6-6.6c2.5,0.2,3.1,4-0.3,11.4c-3.2,7.1-13.8,9-14.7,13.7c-0.1,0.4-0.5,0.7-0.9,0.6   L198.5,143.7z"></path>		<path class="st2" d="M203.4,145.1c-0.1,0-0.2,0-0.2,0l-4.8-0.9c-0.6-0.1-1-0.6-1-1.2c0-2.2,0.5-7.7,3.7-10.4   c1.6-1.3,3.1-3.3,4.4-5.1c2.1-2.8,3.7-5,5.4-4.5c0.4,0.1,0.7,0.4,0.9,0.7c0.4,1.1-0.4,2.8-1.7,5c-0.3,0.5-0.7,1.2-0.9,1.7   c1.1-0.7,3.8-3.3,4.8-5.2c0.3-0.5,0.6-1.2,0.9-1.9c1.2-2.5,2.4-5.2,4.2-5c0.9,0.1,1.5,0.5,2,1.2c1.1,1.9,0.5,5.8-1.8,10.9   c-1.7,3.9-5.5,6.2-8.9,8.3c-2.9,1.8-5.4,3.3-5.7,5.3c-0.1,0.3-0.2,0.6-0.5,0.8C203.9,145,203.7,145.1,203.4,145.1z M210.4,123.9   c-1,0-2.6,2.1-4.1,4.2c-1.4,1.8-2.9,3.9-4.6,5.3c-3,2.4-3.3,8-3.4,9.6c0,0.1,0.1,0.2,0.2,0.2c0,0,0,0,0,0l4.8,0.9   c0.1,0,0.1,0,0.2,0c0,0,0.1-0.1,0.1-0.1c0.4-2.5,3.1-4.1,6.2-6c3.2-2,6.9-4.2,8.5-7.8c3-6.8,2.3-9.2,1.9-10   c-0.3-0.5-0.7-0.7-1.2-0.7c0,0,0,0-0.1,0c-1,0-2.3,2.6-3.1,4.4c-0.3,0.7-0.6,1.4-1,1.9c-1.1,1.9-4.6,5.7-6,5.8   c-0.4,0-0.6-0.1-0.7-0.3c-0.4-0.5,0-1.3,1-3.1c0.7-1.3,1.9-3.5,1.6-4.2c0-0.1-0.1-0.1-0.2-0.2   C210.6,123.9,210.5,123.9,210.4,123.9z"></path>	</g>	<g>		<g>			<path class="st1" d="M204,143l-5.3-1.1c-1.2-0.2-2.3,0.5-2.6,1.7c-1.7,6.8-7.2,28.1-11.5,29.9c-5.1,2.1-9.2-3.2-17.9-7.5    c-4.6-2.3-11.7-3.2-17.2-3.5c-4.9-0.3-9.8,0.2-14.5,1.2l-15.2,3.4c-1.8,0.3-8.1,1.5-14.8,5.2c0.4,0.7-6.7,3.3-6.3,4    c5.3,10.1,5.8,24.9,4.7,36.3c5.2,7.6,13.8,10.7,10.4,15.9c-6.7,10.4-8.8,16.8-9,26.1c8.7-6.4,21.9-14.4,39.4-19.6    c9.8-2.9,18.7-4.3,26.1-4.8c-1.4-2.3-3.4-6.2-4.5-11.2c-1.7-7.5-0.3-11.6-1.4-20.2c-0.4-3.2-1.2-8-3.4-13.7c9.8,9,22.7,13,32.3,9    C207.6,188.3,216.1,164.9,204,143z"></path>			<path class="st2" d="M104.8,255.1c-0.1,0-0.2,0-0.2-0.1c-0.2-0.1-0.3-0.3-0.3-0.5c0.2-9.7,2.4-16.1,9.1-26.4    c1.8-2.8-0.1-4.8-4-8.3c-2.1-1.9-4.5-4.1-6.4-7c-0.1-0.1-0.1-0.2-0.1-0.3c0.7-6.9,1.5-24.2-4.6-36c-0.1-0.2-0.1-0.3,0-0.5    c0.2-0.5,1.1-1,3.4-2.2c1-0.5,2.5-1.3,2.9-1.6c0,0,0-0.1,0-0.1c0-0.1,0.1-0.2,0.2-0.3c6.2-3.4,12.1-4.8,15-5.3l15.2-3.4    c4.8-1.1,9.8-1.5,14.6-1.2c5.3,0.3,12.7,1.1,17.4,3.5c2.9,1.4,5.2,2.9,7.3,4.3c4.2,2.7,7,4.5,10.2,3.2    c3.2-1.3,7.9-16.1,11.2-29.5c0.4-1.4,1.8-2.3,3.2-2l5.3,1.1c0.1,0,0.3,0.1,0.3,0.2c6.2,11.2,7.6,24,3.7,35    c-2.8,8-8.1,14.2-14.6,16.8c-9.2,3.8-21.4,0.7-31.4-7.8c1.3,4,2.3,8,2.7,12c0.5,3.8,0.5,6.7,0.4,9.5c0,3.5,0,6.5,0.9,10.6    c0.9,3.9,2.4,7.6,4.5,11.1c0.1,0.1,0.1,0.3,0,0.5c-0.1,0.2-0.2,0.3-0.4,0.3c-8.8,0.7-17.6,2.3-26,4.8    c-14,4.2-27.2,10.7-39.2,19.5C105,255.1,104.9,255.1,104.8,255.1z M103.8,212.5c1.9,2.7,4.2,4.8,6.2,6.7c3.6,3.4,6.5,6,4.2,9.6    c-6.3,9.7-8.5,15.9-8.9,24.8c11.8-8.5,24.9-14.9,38.7-19c8.3-2.4,16.8-4.1,25.5-4.8c-1.9-3.4-3.3-7-4.2-10.7    c-1-4.2-1-7.5-0.9-10.9c0-2.8,0-5.6-0.4-9.4c-0.6-4.5-1.7-9.1-3.3-13.6c-0.1-0.2,0-0.5,0.2-0.6c0.2-0.1,0.5-0.1,0.6,0    c9.9,9.1,22.6,12.6,31.8,8.9c6.2-2.5,11.3-8.4,14-16.2c3.8-10.7,2.5-23.1-3.5-34l-5.1-1c-0.9-0.2-1.8,0.4-2,1.3    c-2.1,8.5-7.4,28.4-11.8,30.2c-3.7,1.5-6.8-0.5-11.1-3.3c-2-1.3-4.4-2.8-7.2-4.2c-4.6-2.3-11.8-3.1-17-3.4    c-4.8-0.3-9.6,0.1-14.4,1.2l-15.2,3.4c-2.9,0.5-8.5,1.8-14.5,5c-0.2,0.5-1.1,1-3.4,2.2c-1,0.5-2.4,1.2-2.8,1.5    C105.3,188.3,104.5,205.4,103.8,212.5z"></path>		</g>		<path class="st2" d="M143.1,231.4c-0.1,0-0.2,0-0.2-0.1c-0.2-0.1-0.4-0.4-0.2-0.7l13-26.5c0.1-0.3,0.4-0.4,0.7-0.2   c0.2,0.1,0.4,0.4,0.2,0.7l-13,26.5C143.4,231.3,143.3,231.4,143.1,231.4z"></path>		<path class="st2" d="M154.5,222.6c-0.1,0-0.1,0-0.2,0c-0.3-0.1-0.4-0.4-0.3-0.7l3.6-8.6c0.1-0.3,0.4-0.4,0.7-0.3   c0.3,0.1,0.4,0.4,0.3,0.7l-3.6,8.6C154.9,222.5,154.7,222.6,154.5,222.6z"></path>	</g>	<path class="st1" d="M104.9,172.3c0,0-51.8,24.2-37.1,53.4c11.5,22.9,40.4-4.6,40.4-4.6l-6.5-11.3c0,0-12.4,9.5-13.6,4.6  c-1.2-4.8,4.6-10.8,20.8-7.7l3.6,4.1c0,0,5.6-13.2-6.5-36.4L104.9,172.3z"></path>	<g>		<path class="st1" d="M103.3,212.6l7.2-7.7c6.5,0.3,11.4,1.8,15.2,4c1,0.6,0.8,2.2-0.4,2.4c-2.2,0.4-5.3,1.1-9.2,2.3   c-7.5,2.3-9.1,3.9-9.1,3.9L103.3,212.6z"></path>		<path class="st2" d="M107.1,218.1C107.1,218.1,107.1,218.1,107.1,218.1c-0.2,0-0.3-0.1-0.4-0.2l-3.8-5c-0.1-0.2-0.1-0.5,0-0.7   l7.2-7.7c0.1-0.1,0.2-0.2,0.4-0.2c6.2,0.3,11.3,1.6,15.5,4.1c0.7,0.4,1,1.1,0.9,1.9c-0.1,0.7-0.7,1.3-1.4,1.5   c-2,0.4-5.2,1.1-9.2,2.3c-7.1,2.2-8.9,3.8-8.9,3.8C107.4,218.1,107.2,218.1,107.1,218.1z M104,212.7l3.2,4.2   c0.9-0.6,3.3-2,8.8-3.7c4-1.2,7.2-2,9.3-2.4c0.5-0.1,0.6-0.5,0.6-0.6c0-0.3,0-0.6-0.4-0.8c-4-2.3-8.8-3.6-14.8-3.9L104,212.7z"></path>	</g>	<g>		<g>			<g>				<polygon class="st1" points="135.6,321.6 124.3,329.8 115.3,294.7 112.7,255.9 117.7,259.2     "></polygon>				<path class="st2" d="M124.3,330.3c-0.1,0-0.1,0-0.2,0c-0.2-0.1-0.3-0.2-0.3-0.3l-8.9-35.1c0,0,0-0.1,0-0.1l-2.6-38.8     c0-0.2,0.1-0.4,0.3-0.5c0.2-0.1,0.4-0.1,0.5,0l5,3.3c0.1,0.1,0.2,0.2,0.2,0.3l18,62.4c0.1,0.2,0,0.4-0.2,0.6l-11.4,8.1     C124.5,330.2,124.4,330.3,124.3,330.3z M115.8,294.6l8.7,34.3l10.5-7.5l-17.8-61.9l-4-2.7L115.8,294.6z"></path>			</g>			<g>				<polygon class="st1" points="53.5,334.6 68.9,257.2 112.7,255.9 124.3,329.8     "></polygon>				<path class="st2" d="M53.5,335.1c-0.1,0-0.3-0.1-0.4-0.2c-0.1-0.1-0.1-0.3-0.1-0.4l15.4-77.4c0-0.2,0.2-0.4,0.5-0.4l43.8-1.3     c0.2,0,0.5,0.2,0.5,0.4l11.6,73.9c0,0.1,0,0.3-0.1,0.4c-0.1,0.1-0.2,0.2-0.4,0.2L53.5,335.1C53.6,335.1,53.5,335.1,53.5,335.1z      M69.4,257.7l-15.2,76.4l69.5-4.7l-11.4-72.9L69.4,257.7z"></path>			</g>		</g>		<path class="st2" d="M105.1,260.9c-0.3,0-0.5-0.2-0.5-0.4l-3.9-32.9c0-0.3,0.2-0.5,0.4-0.6c0.3,0,0.5,0.2,0.6,0.4l3.9,32.9   C105.6,260.6,105.4,260.8,105.1,260.9C105.1,260.9,105.1,260.9,105.1,260.9z"></path>		<path class="st2" d="M77.6,260.5C77.6,260.5,77.6,260.5,77.6,260.5c-0.3,0-0.5-0.3-0.5-0.5c0.1-1.4,12.1-39.9,16.1-47   c0.8-1.4,2.3-1.2,3-1.1c0.1,0,0.3,0.1,0.3,0c0.3-0.1,0.5,0.1,0.6,0.4c0.1,0.3-0.1,0.5-0.4,0.6c-0.2,0-0.4,0-0.7,0   c-0.8-0.1-1.5-0.2-2,0.6c-4,6.9-15.8,44.9-16,46.5C78.1,260.3,77.8,260.5,77.6,260.5z"></path>	</g>	<g>		<g>			<g>				<polygon class="st1" points="87.3,312.5 71.9,318.8 76.9,293.7 88.1,262 90,265     "></polygon>				<path class="st2" d="M71.9,319.3c-0.1,0-0.2,0-0.3-0.1c-0.1-0.1-0.2-0.3-0.2-0.5l5-25.1c0,0,0,0,0-0.1l11.2-31.7     c0.1-0.2,0.2-0.3,0.4-0.3c0.2,0,0.4,0.1,0.5,0.2l1.9,3c0.1,0.1,0.1,0.2,0.1,0.3l-2.7,47.5c0,0.2-0.1,0.4-0.3,0.4l-15.4,6.3     C72,319.3,71.9,319.3,71.9,319.3z M77.4,293.8L72.5,318l14.3-5.8l2.7-47l-1.3-2L77.4,293.8z M87.3,312.5L87.3,312.5L87.3,312.5z     "></path>			</g>			<g>				<path class="st1" d="M56.2,247.4L88.1,262l-16.2,56.8l-48-28.2C23.8,290.6,48.1,265.4,56.2,247.4z"></path>				<path class="st2" d="M71.9,319.3c-0.1,0-0.2,0-0.3-0.1l-48-28.2c-0.1-0.1-0.2-0.2-0.2-0.4c0-0.2,0-0.3,0.1-0.4     c0.2-0.3,24.3-25.3,32.3-43.1c0.1-0.1,0.2-0.2,0.3-0.3c0.1,0,0.3,0,0.4,0l31.9,14.6c0.2,0.1,0.3,0.4,0.3,0.6l-16.2,56.8     c0,0.1-0.2,0.3-0.3,0.3C72,319.3,71.9,319.3,71.9,319.3z M24.6,290.5L71.6,318l15.9-55.8L56.4,248     C48.8,264.6,27.9,287,24.6,290.5z"></path>			</g>		</g>		<path class="st2" d="M81.2,266c0,0-0.1,0-0.1,0c-0.3-0.1-0.4-0.4-0.3-0.6l9.7-32.7c0.1-0.3,0.4-0.4,0.6-0.3   c0.3,0.1,0.4,0.4,0.3,0.6l-9.7,32.7C81.6,265.9,81.4,266,81.2,266z"></path>		<path class="st2" d="M61.5,255.8c-0.1,0-0.2,0-0.3-0.1c-0.2-0.2-0.3-0.5-0.1-0.7c1.1-1.6,26.6-40,29.4-43c1.6-1.7,3.5-2.4,5.1-1.9   c1.1,0.4,1.9,1.3,2.1,2.6c0,0.3-0.2,0.5-0.4,0.6c-0.3,0-0.5-0.2-0.6-0.4c-0.1-0.9-0.6-1.5-1.4-1.8c-0.9-0.3-2.5,0-4,1.6   c-2.7,2.9-29.1,42.4-29.3,42.8C61.9,255.7,61.7,255.8,61.5,255.8z"></path>	</g>	<path class="st2" d="M81.3,235.3c-0.9,0-1.9-0.1-2.8-0.2c-4.8-0.8-8.5-3.9-11.1-9.1c-3.1-6.1-3.5-12.5-1.2-18.9  c7-20.2,38.3-35,38.6-35.1c0.3-0.1,0.6,0,0.7,0.2c0.1,0.3,0,0.6-0.2,0.7c-0.3,0.1-31.2,14.7-38.1,34.5c-2.2,6.2-1.7,12.3,1.2,18.2  c2.5,4.9,6,7.8,10.4,8.6c0.8,0.1,1.7,0.2,2.6,0.2c11.2,0,24.2-11.4,26.3-13.3l-6-10.4c-2.1,1.5-9.4,6.7-12.5,5.6  c-0.7-0.3-1.2-0.8-1.4-1.6c-0.4-1.9,0.1-3.7,1.4-5.3c1.6-1.8,5.7-4.7,15.5-3.7c0.3,0,0.5,0.3,0.5,0.6c0,0.3-0.3,0.5-0.6,0.5  c-6.9-0.7-12.2,0.5-14.6,3.3c-1.1,1.3-1.6,2.8-1.2,4.4c0.1,0.5,0.4,0.8,0.8,0.9c2.5,0.9,9.5-3.9,12-5.8c0.1-0.1,0.3-0.1,0.4-0.1  c0.1,0,0.3,0.1,0.3,0.2l6.5,11.3c0.1,0.2,0.1,0.5-0.1,0.6C107.9,222.1,93.8,235.3,81.3,235.3z"></path></g><g>	<path class="st1" d="M133.8,155c0,0-1.7,1.8-5.2,1.2L133.8,155z"></path>	<path class="st2" d="M130.1,156.9c-0.5,0-1,0-1.5-0.1c-0.3-0.1-0.5-0.3-0.4-0.6c0.1-0.3,0.3-0.5,0.6-0.4c3.2,0.6,4.7-1,4.7-1  c0.2-0.2,0.5-0.2,0.7,0c0.2,0.2,0.2,0.5,0,0.7C134.1,155.4,132.8,156.9,130.1,156.9z"></path></g><g>	<path class="st2" d="M83.5,146.7c-0.3,0.3-0.5,0.8-0.7,1.2c-0.2-0.3-0.4-0.6-0.5-1c0,0,0.1,0,0.1,0  C82.8,146.9,83.2,146.8,83.5,146.7z"></path>	<path class="st2" d="M96.8,160.9C96.7,160.9,96.7,160.9,96.8,160.9C96.7,160.8,96.7,160.8,96.8,160.9  C96.7,160.8,96.7,160.9,96.8,160.9z"></path>	<path class="st2" d="M96.8,160.9C96.7,160.9,96.7,160.9,96.8,160.9C96.7,160.8,96.7,160.8,96.8,160.9  C96.7,160.8,96.7,160.9,96.8,160.9z"></path>	<path class="st2" d="M108.1,166.5c-0.3,0-0.5-0.1-0.8-0.1l-4.7-0.7l3.7-2.9c0.1-0.1,0.2-0.1,0.3-0.2l1.5-1.2l1.3,1.4  c0.1,0.1,0.2,0.2,0.2,0.2l5,4.3L108.1,166.5z"></path>	<path class="st2" d="M108.3,164.6c-0.3,0-0.5-0.1-0.8-0.1c0.1-0.1,0.2-0.2,0.4-0.3C108,164.3,108.2,164.4,108.3,164.6z"></path>	<path class="st2" d="M109.8,102.3C109.8,102.4,109.8,102.4,109.8,102.3C109.8,102.4,109.8,102.4,109.8,102.3L109.8,102.3z"></path>	<path class="st2" d="M80.1,142c-0.2-0.1-0.4-0.3-0.6-0.4c0.1-0.1,0.2-0.3,0.3-0.4C80,141.4,80.1,141.7,80.1,142z"></path>	<path class="st2" d="M88.5,155c-0.2,0-0.5,0.1-0.7,0.1c0-0.2,0-0.5,0.1-0.7C88.1,154.6,88.3,154.8,88.5,155z"></path>	<path class="st2" d="M88.5,155c-0.2,0-0.5,0.1-0.7,0.1c0-0.2,0-0.5,0.1-0.7C88.1,154.6,88.3,154.8,88.5,155z"></path>	<path class="st1" d="M113.4,168.5c-2,0-4-0.6-5.7-1.8c-1.3,0.7-2.8,1.1-4.3,1.1c-3.3,0-6.2-1.7-7.8-4.4c-0.6,0.1-1.1,0.2-1.7,0.2  c-2.2,0-4.2-0.8-5.8-2.4c-1.2-1.2-1.9-2.6-2.2-4.2c-3.2-0.7-5.6-3.6-5.6-7c0-0.5,0-0.9,0.1-1.4c-2.1-0.8-3.5-2.8-3.5-5.1  c0-0.6,0.1-1.2,0.3-1.7c-0.6-0.9-0.9-2-0.9-3.1c0-0.3,0-0.7,0.1-1c-1.6-1.5-2.5-3.7-2.5-5.9c0-2.5,1.1-4.9,3.1-6.4  c-0.3-2.2,0.3-4.4,1.6-6.2c-0.4-0.9-0.7-1.8-0.7-2.8c0-3.5,2.8-6.3,6.3-6.3c0,0,0.1,0,0.1,0c0.6-4,4.1-7.1,8.2-7.1  c1.5-1.7,3.6-2.6,5.9-2.6c1,0,1.9,0.2,2.8,0.5c1.4-1,3.1-1.5,4.9-1.5c1.1,0,2.1,0.2,3.1,0.6c1.2-1.1,2.9-1.8,4.6-1.8  c2.1,0,4,0.9,5.3,2.5c0.5-0.1,1-0.2,1.6-0.2c1.9,0,3.7,0.9,4.7,2.4c0.7-0.2,1.5-0.4,2.3-0.4c4.2,0,7.6,3.4,7.6,7.6c0,0,0,0,0,0.1  c2.7,1.3,4.6,4.1,4.6,7.2c0,0.1,0,0.2,0,0.2c2.2,1.4,3.6,3.8,3.6,6.5c0,1.5-0.4,2.9-1.2,4.1c0.4,0.9,0.5,1.8,0.5,2.8  c0,2-0.8,3.9-2.2,5.3c-1.7,11.2-8.4,24.2-19.8,28.9c-1.6,1.9-3.9,3.2-6.5,3.5C114.1,168.5,113.8,168.5,113.4,168.5z"></path>	<path class="st2" d="M140.1,127.8c0.6,0.8,0.9,1.9,0.9,3c0,1.7-0.8,3.3-2.1,4.2c-1.6,12.1-8.7,24.2-19.2,28.3  c-1.2,1.7-3.2,2.9-5.4,3.1c-2.2,0.2-4.3-0.5-5.9-1.9c-0.1-0.1-0.3-0.2-0.4-0.4c-0.1,0.1-0.2,0.2-0.4,0.3c-1.2,0.8-2.6,1.3-4.1,1.3  c-3.1,0-5.8-2.1-6.7-4.9c0,0,0,0,0,0c0,0,0,0,0,0c-2.3,1.1-5.2,0.8-7.1-1.2c-1.3-1.3-1.9-3-1.8-4.6c0.2,0,0.5,0,0.7-0.1  c-0.2-0.2-0.4-0.4-0.7-0.7c0,0.2-0.1,0.5-0.1,0.7c-0.1,0-0.2,0-0.3,0c-2.9,0-5.2-2.3-5.2-5.1c0-0.7,0.2-1.5,0.5-2.1  c0.2-0.4,0.4-0.8,0.7-1.2c-0.4,0.1-0.8,0.2-1.2,0.2c0,0-0.1,0-0.1,0c-1.8,0-3.3-1.5-3.3-3.4c0-0.7,0.2-1.4,0.6-2  c0.2,0.2,0.4,0.3,0.6,0.4c-0.1-0.3-0.2-0.5-0.3-0.8c-0.1,0.1-0.2,0.2-0.3,0.4c-0.8-0.7-1.2-1.7-1.2-2.8c0-0.6,0.1-1.2,0.4-1.7  c0.1,0.1,0.3,0.2,0.4,0.2c0-0.3-0.1-0.5-0.1-0.8c-0.1,0.2-0.2,0.4-0.3,0.6c-1.7-1.1-2.8-3-2.8-5.2c0-2.4,1.3-4.5,3.3-5.5  c0.1,0.4,0.3,0.9,0.5,1.3c0.1-0.6,0.3-1.1,0.4-1.7c-0.3,0.1-0.7,0.2-1,0.4c-0.7-2.3-0.1-4.9,1.7-6.8c0.1,0,0.1-0.1,0.2-0.1  c-0.7-0.8-1.2-1.8-1.2-2.9c0-2.4,1.9-4.3,4.3-4.3c0.8,0,1.6,0.2,2.2,0.6c0.1,0.3,0.1,0.6,0.3,0.8c0.1-0.1,0.2-0.3,0.3-0.4  c-0.2-0.2-0.4-0.3-0.6-0.4c-0.1-0.5-0.2-0.9-0.2-1.4c0-3.5,2.8-6.3,6.4-6.3c0.3,0,0.6,0,0.9,0.1c1-1.6,2.9-2.7,4.9-2.7  c1.1,0,2.2,0.3,3,0.9c-0.1,0.1-0.2,0.2-0.3,0.3c0.2-0.1,0.4-0.1,0.6-0.2c-0.1-0.1-0.2-0.1-0.3-0.2c1.2-1.2,2.8-1.9,4.6-1.9  c1.3,0,2.5,0.4,3.6,1c0,0,0,0,0.1,0c0,0,0,0,0,0c0.9-1.4,2.4-2.3,4.1-2.3c2,0,3.8,1.3,4.5,3c-0.2,0.1-0.3,0.2-0.4,0.4  c0.2,0,0.4,0.1,0.6,0.2c0-0.2-0.1-0.4-0.2-0.5c0.7-0.5,1.5-0.8,2.3-0.8c1.9,0,3.5,1.4,3.8,3.2c-0.1,0.1-0.3,0.2-0.4,0.3  c0.1,0.1,0.3,0.1,0.4,0.2c0-0.2,0-0.4-0.1-0.5c0.9-0.7,2.1-1.1,3.3-1.1c3.1,0,5.6,2.5,5.6,5.6c0,0.5-0.1,1-0.2,1.4  c2.7,0.5,4.8,3,4.8,5.8c0,0.5-0.1,1-0.2,1.4c-0.4-0.1-0.8-0.2-1.2-0.3c0.2,0.5,0.5,1,0.7,1.5c0.2-0.4,0.4-0.8,0.5-1.3  c2.2,0.8,3.8,2.9,3.8,5.3C141.6,125.5,141,126.8,140.1,127.8c-0.3-0.4-0.6-0.8-1-1.1c0.1,0.6,0.1,1.2,0.1,1.9  C139.5,128.4,139.8,128.1,140.1,127.8z"></path>	<path class="st2" d="M79.1,137.2c-0.1-0.1-0.3-0.2-0.4-0.2c0.1-0.2,0.2-0.4,0.3-0.6C79.1,136.7,79.1,137,79.1,137.2z"></path>	<path class="st2" d="M79.1,137.2c-0.1-0.1-0.3-0.2-0.4-0.2c0.1-0.2,0.2-0.4,0.3-0.6C79.1,136.7,79.1,137,79.1,137.2z"></path>	<path class="st2" d="M80.1,142c-0.2-0.1-0.4-0.3-0.6-0.4c0.1-0.1,0.2-0.3,0.3-0.4C80,141.4,80.1,141.7,80.1,142z"></path>	<path class="st2" d="M124.6,106c-0.2-0.1-0.3-0.1-0.4-0.2c0.1-0.1,0.2-0.2,0.4-0.3C124.6,105.7,124.6,105.8,124.6,106z"></path>	<path class="st2" d="M118.6,103.7c-0.2-0.1-0.4-0.1-0.6-0.2c0.1-0.1,0.3-0.3,0.4-0.4C118.5,103.3,118.6,103.5,118.6,103.7z"></path>	<path class="st2" d="M124.6,106c-0.2-0.1-0.3-0.1-0.4-0.2c0.1-0.1,0.2-0.2,0.4-0.3C124.6,105.7,124.6,105.8,124.6,106z"></path>	<path class="st2" d="M118.6,103.7c-0.2-0.1-0.4-0.1-0.6-0.2c0.1-0.1,0.3-0.3,0.4-0.4C118.5,103.3,118.6,103.5,118.6,103.7z"></path>	<path class="st2" d="M101.8,103.4c-0.2,0-0.4,0.1-0.6,0.2c0.1-0.1,0.2-0.2,0.3-0.3C101.7,103.2,101.8,103.3,101.8,103.4z"></path>	<path class="st2" d="M101.8,103.4c-0.2,0-0.4,0.1-0.6,0.2c0.1-0.1,0.2-0.2,0.3-0.3C101.7,103.2,101.8,103.3,101.8,103.4z"></path></g><g>	<g>		<path class="st1" d="M130.1,130.3c1.3,0.7,1.9,0.8,3,1.5c2.1,1.4,4.7,6.2,7.9,6.7c0.6,1.6-0.7,2.1-1,3.1c0.5,0.7,1.9,4.4,3,6.7   c0.4,0.8,0.1,1.7-0.6,2.2c-1.2,0.8-2.7,1.4-4.3,1.9c0,0-6.6,14.1,3.4,19.1l-21.2-1.8l5.7-18.6c-0.3,0-3.9-0.7-4.8-3.4   c-0.3-1-0.4-2.6,0.4-3.2c0.8-0.5,2.5,0.1,3.8,1.8c0.1-0.5,0.2-1.1,0.2-1.8c0.1-1,0.1-2.1-0.3-2.5   C133.3,138.1,124.2,131.4,130.1,130.3z"></path>		<path class="st2" d="M141.4,171.9C141.4,171.9,141.4,171.9,141.4,171.9l-21.3-1.8c-0.2,0-0.3-0.1-0.4-0.2   c-0.1-0.1-0.1-0.3-0.1-0.4l5.5-18.1c-1.2-0.3-3.8-1.2-4.6-3.6c-0.4-1.1-0.5-3.1,0.7-3.8c1-0.6,2.5-0.1,3.7,1.1   c0-0.2,0-0.5,0.1-0.7c0.1-1.6-0.1-2.1-0.2-2.2c-0.1-0.1-0.1-0.3-0.1-0.4c0-0.1,0.1-0.3,0.3-0.3c4-1.9,3.3-4.4,2.7-6.9   c-0.3-1.3-0.6-2.6,0-3.5c0.4-0.6,1.1-1,2.2-1.2c0.1,0,0.2,0,0.3,0.1c0.5,0.3,0.9,0.5,1.3,0.7c0.5,0.2,1,0.5,1.7,0.9   c0.8,0.5,1.7,1.5,2.6,2.6c1.5,1.7,3.2,3.7,5.1,4c0.2,0,0.3,0.1,0.4,0.3c0.5,1.3-0.1,2.1-0.5,2.7c-0.1,0.2-0.3,0.4-0.4,0.5   c0.3,0.5,0.7,1.5,1.3,2.8c0.5,1.2,1.1,2.6,1.6,3.6c0.5,1,0.2,2.2-0.8,2.8c-1.2,0.8-2.7,1.4-4.2,1.9c-0.7,1.7-5.5,13.8,3.3,18.2   c0.2,0.1,0.3,0.4,0.3,0.6C141.8,171.8,141.6,171.9,141.4,171.9z M120.9,169.1l18.5,1.6c-7.7-5.9-1.9-18.5-1.8-18.6   c0.1-0.1,0.2-0.2,0.3-0.3c1.5-0.4,2.9-1,4.2-1.8c0.5-0.3,0.7-1,0.4-1.5c-0.5-1.1-1.1-2.5-1.6-3.7c-0.5-1.2-1.1-2.5-1.3-2.9   c-0.1-0.1-0.1-0.3-0.1-0.4c0.1-0.4,0.4-0.8,0.6-1.1c0.4-0.5,0.6-0.8,0.5-1.4c-2.1-0.5-3.8-2.5-5.4-4.3c-0.9-1-1.7-1.9-2.4-2.4   c-0.6-0.4-1-0.6-1.5-0.8c-0.4-0.2-0.8-0.3-1.3-0.6c-0.7,0.1-1.1,0.4-1.3,0.7c-0.4,0.6-0.1,1.6,0.2,2.7c0.6,2.3,1.4,5.5-2.8,7.8   c0.2,0.5,0.2,1.3,0.1,2.4c0,0.6-0.1,1.3-0.3,1.9c0,0.2-0.2,0.3-0.4,0.4c-0.2,0-0.4,0-0.5-0.2c-1.2-1.6-2.6-2-3.1-1.7   c-0.5,0.3-0.5,1.6-0.2,2.6c0.8,2.4,4.2,3,4.4,3c0.1,0,0.3,0.1,0.3,0.2c0.1,0.1,0.1,0.3,0.1,0.4L120.9,169.1z"></path>	</g>	<g>		<path class="st1" d="M130.9,152.6c0,0,3.2,1.2,6.8-0.2L130.9,152.6z"></path>		<path class="st2" d="M134,153.6c-1.9,0-3.2-0.5-3.3-0.5c-0.3-0.1-0.4-0.4-0.3-0.7c0.1-0.3,0.4-0.4,0.7-0.3c0,0,3.1,1.1,6.4-0.2   c0.3-0.1,0.6,0,0.7,0.3c0.1,0.3,0,0.6-0.3,0.7C136.5,153.4,135.2,153.6,134,153.6z"></path>	</g></g><path class="st1" d="M139,278.9c-0.1,0-0.2,0-0.3-0.1c-0.2-0.2-0.3-0.5-0.1-0.7l6.2-8.6c0.2-0.2,0.5-0.3,0.7-0.1 c0.2,0.2,0.3,0.5,0.1,0.7l-6.2,8.6C139.3,278.8,139.2,278.9,139,278.9z"></path></svg>