<svg xmlns="http://www.w3.org/2000/svg" xmlns:xlink="http://www.w3.org/1999/xlink" id="Layer_1" x="0px" y="0px" viewBox="0 0 472 475" style="enable-background:new 0 0 472 475;" xml:space="preserve"><style type="text/css">	.st0{fill:#FFFFFF;}</style><g>	<g>		<g>			<path class="st0" d="M429.1,370.4H104.8c-9.1,0-16.4-7.4-16.4-16.4V101.5c0-9.1,7.4-16.4,16.4-16.4h324.3    c9.1,0,16.4,7.4,16.4,16.4v252.4C445.5,363,438.1,370.4,429.1,370.4z"></path>			<path d="M429.1,370.9H104.8c-9.3,0-16.9-7.6-16.9-16.9V101.5c0-9.3,7.6-16.9,16.9-16.9h324.3c9.3,0,16.9,7.6,16.9,16.9v252.4    C446,363.3,438.4,370.9,429.1,370.9z M104.8,85.6c-8.8,0-15.9,7.2-15.9,15.9v252.4c0,8.8,7.2,15.9,15.9,15.9h324.3    c8.8,0,15.9-7.2,15.9-15.9V101.5c0-8.8-7.2-15.9-15.9-15.9H104.8z"></path>		</g>		<path d="M413.2,355.6H118.6c-8.4,0-15.2-6.8-15.2-15.2V115.1c0-8.4,6.8-15.2,15.2-15.2h294.6c8.4,0,15.2,6.8,15.2,15.2v225.4   C428.4,348.8,421.6,355.6,413.2,355.6z M118.6,100.9c-7.8,0-14.2,6.4-14.2,14.2v225.4c0,7.8,6.4,14.2,14.2,14.2h294.6   c7.8,0,14.2-6.4,14.2-14.2V115.1c0-7.8-6.4-14.2-14.2-14.2H118.6z"></path>	</g>	<g>		<g>			<path class="st0" d="M233.8,236.1H38c-5.4,0-9.8-4.4-9.8-9.8V76.6c0-5.4,4.4-9.8,9.8-9.8h195.8c5.4,0,9.8,4.4,9.8,9.8v149.8    C243.6,231.8,239.2,236.1,233.8,236.1z"></path>			<path d="M233.8,236.6H38c-5.7,0-10.3-4.6-10.3-10.3V76.6c0-5.7,4.6-10.3,10.3-10.3h195.8c5.7,0,10.3,4.6,10.3,10.3v149.8    C244.1,232,239.5,236.6,233.8,236.6z M38,67.3c-5.1,0-9.3,4.2-9.3,9.3v149.8c0,5.1,4.2,9.3,9.3,9.3h195.8c5.1,0,9.3-4.2,9.3-9.3    V76.6c0-5.1-4.2-9.3-9.3-9.3H38z"></path>		</g>		<g>			<g>				<path d="M222.6,221.2c0,1.6-1.3,2.9-2.9,2.9h-8.2c-1.6,0-2.9-1.3-2.9-2.9c0-1.6,1.3-2.9,2.9-2.9h8.2     C221.3,218.2,222.6,219.5,222.6,221.2z"></path>				<path d="M222.6,208.9c0,1.6-1.3,2.9-2.9,2.9h-15.3c-1.6,0-2.9-1.3-2.9-2.9c0-1.6,1.3-2.9,2.9-2.9h15.3     C221.3,206,222.6,207.3,222.6,208.9z"></path>				<path d="M222.6,196.6c0,1.6-1.3,2.9-2.9,2.9h-24.5c-1.6,0-2.9-1.3-2.9-2.9s1.3-2.9,2.9-2.9h24.5     C221.3,193.7,222.6,195,222.6,196.6z"></path>			</g>		</g>		<g>			<path d="M93.1,194.1c-0.8,0-1.6-0.5-2.1-0.9c-1.3-1.2-3.6-6.1-4.7-9.1c-0.9-2.3-1.4-9.5-1.8-14.2c-0.1-1.4-0.2-2.6-0.3-3.3    c-0.2-2.3-1-2.6-3.5-3.5c-0.4-0.2-0.9-0.3-1.4-0.5c-2.2-0.9-4.1-3.6-4.8-6.6c-0.6-2.9,0.1-5.6,2-7.6c1.5-1.6,2.2-6.5,2.1-8.6    c-0.1-0.9,0.4-1.7,1.2-2.1c1.3-0.8,3.6-1.4,6.9-0.3c1.4,0.5,2,1.3,2.6,2c0.5,0.6,0.9,1.2,1.8,1.6c0.6,0.3,1.4,0.5,2.2,0.7    c1.6,0.4,3.6,0.9,3.2,3c-0.4,2,2.2,4.2,6.3,5.2c2.7,0.6,4.7,2.5,4.9,4.5c0.1,1.4-0.6,2.5-1.9,3.2c-3,1.5-2.8,2.4-2.5,3.9    c0.1,0.6,0.4,1.3,0.7,2c0.5,1.3,1,2.5,0.4,3.2c-0.8,0.9-3.3,1.8-4.1,2c-0.8,0.2-1.8,1.3-2,3.2c-0.2,2.2-3.4,7.8-5.3,10.3    c-1.6,2-0.9,3.6,0.7,7.1l0.4,0.9c0.8,1.9,0.8,3.2,0,3.8C93.7,194,93.4,194.1,93.1,194.1z M80.2,138.4c-0.4,0.2-0.7,0.7-0.6,1.2    c0.2,2.2-0.6,7.5-2.4,9.3c-1.7,1.8-2.3,4.2-1.7,6.7c0.6,2.6,2.3,5.1,4.2,5.9c0.5,0.2,0.9,0.4,1.3,0.5c2.6,1,3.9,1.5,4.2,4.4    c0.1,0.7,0.2,1.9,0.3,3.4c0.4,4.4,1,11.8,1.8,14c1.2,3.1,3.4,7.7,4.5,8.7c0.6,0.6,1.4,0.8,1.7,0.6c0.2-0.1,0.3-0.8-0.4-2.6    l-0.4-0.9c-1.6-3.7-2.4-5.7-0.5-8.2c2-2.5,4.9-7.9,5.1-9.8c0.2-2.4,1.5-3.8,2.7-4.1c1.1-0.3,3.1-1,3.6-1.6    c0.2-0.3-0.2-1.4-0.5-2.2c-0.3-0.7-0.5-1.4-0.7-2.1c-0.5-2-0.5-3.4,3-5.1c1-0.5,1.5-1.3,1.4-2.2c-0.1-1.3-1.5-3-4.1-3.7    c-4.8-1.1-7.6-3.7-7.1-6.3c0.2-1-0.6-1.3-2.5-1.8c-0.8-0.2-1.7-0.4-2.4-0.8c-1.1-0.5-1.6-1.3-2.1-1.9c-0.6-0.7-1.1-1.3-2.2-1.7    C83.3,137.2,81.4,137.8,80.2,138.4z"></path>			<path d="M74.8,140.5c-0.3,0-0.7-0.1-1.1-0.4c-0.9-0.5-2.8-2.8-4.6-5.5c0,0-0.1-0.1-0.1-0.1c-0.9-1-1.4-1.2-2.9-1.7    c-0.3-0.1-0.7-0.2-1.1-0.4c-2.9-1-11.7-8.2-13.4-21.5c-0.3-2.3,0.5-4.2,2.2-5.6c1.3-1,1.5-2,1.3-4.5c-0.1-1.5-0.6-2.1-1.2-2.7    c-0.3-0.3-0.6-0.6-0.8-1C53,96.9,53,96.4,53,96c-0.1-0.7-0.1-1.5-0.7-1.8c-0.5-0.3-1.3-0.4-2.4-0.1c-5,1.1-7.8,0.8-9-1    c-0.2-0.3-0.3-0.7-0.2-1.1c0.4-1.6,3.5-3.8,10-7.3c4.2-2.2,10.3,1.3,11.1,2.5c0.2,0.3,0.4,0.7,0.6,1.2c0.4,0.9,0.9,2,1.7,2.3    c0.5,0.2,1.3-0.6,2.3-1.5c1-1,2.2-2.2,3.9-3.1c1.1-0.6,2.1-0.9,3-0.6c1.3,0.4,2,1.5,2.5,2.5c0.4,0.7,1,1.1,1.8,1.2    c1.8,0.2,4.6,0.2,7.6-1.2c2.5-1.1,4-1.9,5-2.4c1.3-0.7,1.9-1,2.9-0.8c1.6,0.2,3.2,1.6,3.1,3.1c-0.2,2-2.1,3.1-5.6,3.1    c-2.4,0-3.7,1.8-4.1,2.5c-0.8,1.4-0.9,2.8-0.6,3.5c0.4,0.7,0.6,1,0.9,1c0.7,0.1,2.1-0.8,3.4-1.9c1.5-1.2,2.9-1.6,4.2-1.4    c1.3,0.2,2.1,1.2,2.3,1.6c0.7,1.1,0.8,4,0.2,6.1c0,0,0,0,0,0c-0.2,0.7,0.1,1.2,0.6,2c0.5,0.9,1.2,2,0.7,3.5    c-0.4,1.1-2.4,2.7-5.2,3.5c-0.8,0.2-1.7,0.3-2.6,0.4c-2,0.2-4,0.4-4.6,1.8c-0.7,1.5-1.9,2.4-2.9,3.1c-0.6,0.4-1.1,0.8-1.2,1.1    c-0.1,0.3-0.2,1-0.2,1.7c-0.1,1.5-0.1,3.2-1.2,3.9c-1.4,0.9-4-0.2-5.1-1.4c-0.3-0.4-0.8-0.6-1.2-0.5c-0.3,0.1-0.6,0.3-0.7,0.7    c-0.4,1.3-0.1,3,0.9,5.2c1.5,3.2,2.2,5.9,2.3,8.1c0.1,2.7-0.3,4.2-1.2,4.7C75.3,140.4,75.1,140.5,74.8,140.5z M51.2,92.8    c0.7,0,1.2,0.2,1.7,0.5c0.9,0.6,1,1.7,1.1,2.6c0,0.4,0.1,0.7,0.2,0.9c0.1,0.3,0.4,0.5,0.6,0.8c0.6,0.6,1.3,1.5,1.4,3.3    c0.1,2.3,0.1,4-1.7,5.3c-1.5,1.1-2.1,2.7-1.9,4.6c1.6,13,10.4,19.9,12.7,20.7c0.4,0.1,0.8,0.3,1.1,0.4c1.5,0.5,2.2,0.7,3.3,2    c0.1,0,0.1,0.1,0.1,0.1c2,2.9,3.7,4.9,4.4,5.3c0.4,0.2,0.6,0.3,0.8,0.2c0.2-0.1,0.8-0.8,0.7-3.8c0-2.1-0.8-4.6-2.2-7.7    c-1.1-2.4-1.4-4.4-1-5.9c0.2-0.7,0.8-1.2,1.5-1.4c0.8-0.2,1.6,0.1,2.1,0.8c0.9,1,2.9,1.8,3.7,1.3c0.6-0.4,0.7-1.9,0.7-3.1    c0-0.8,0.1-1.5,0.3-2c0.2-0.6,0.9-1,1.6-1.6c0.9-0.7,2-1.5,2.5-2.7c0.8-1.9,3.3-2.2,5.4-2.4c0.9-0.1,1.8-0.2,2.4-0.4    c2.8-0.8,4.4-2.3,4.6-2.9c0.4-1.1-0.1-1.8-0.6-2.7c-0.5-0.8-1-1.6-0.7-2.8c0.6-2,0.4-4.5-0.1-5.3c-0.2-0.3-0.7-1-1.6-1.1    c-1-0.2-2.1,0.2-3.4,1.2c-2.3,1.7-3.3,2.3-4.3,2.1c-0.8-0.2-1.3-0.9-1.6-1.5c-0.6-1.1-0.4-2.9,0.6-4.5c1.1-1.9,2.9-3,5-3    c2.9,0,4.5-0.8,4.6-2.2c0.1-0.8-1.1-1.8-2.3-2c-0.6-0.1-0.9,0-2.2,0.7c-1,0.5-2.5,1.3-5.1,2.5c-3.3,1.4-6.2,1.5-8.1,1.3    c-1.1-0.1-2-0.8-2.5-1.7c-0.4-0.8-1-1.7-1.9-2c-0.6-0.2-1.4,0-2.2,0.5c-1.6,0.9-2.7,2.1-3.7,3c-1.3,1.2-2.3,2.2-3.4,1.7    c-1.2-0.5-1.8-1.8-2.2-2.9c-0.2-0.4-0.3-0.8-0.5-1c-0.6-0.9-6.1-4.1-9.8-2.2c-6,3.2-9.2,5.4-9.5,6.6c0,0.2,0,0.2,0,0.3    c0.9,1.4,3.4,1.6,7.9,0.6C50.3,92.9,50.8,92.8,51.2,92.8z M96.6,102.3L96.6,102.3L96.6,102.3z"></path>			<path d="M106.7,102.5c-0.3,0-0.6,0-0.8-0.1c-1.9-1-1.7-4.5-1.6-7.3c0.1-1.2,0.1-2.5-0.1-2.9c-0.3-0.7-1.9-1.2-3.1-1.5    c-0.8-0.2-1.6-0.5-2-0.8c-0.3-0.2-0.6-0.6-0.9-1.2c-0.4-0.7-0.4-1.6-0.1-2.4c0.3-0.8,0.8-1.4,1.6-1.7c0.7-0.3,1.4-0.4,2.1-0.4    c0.9,0.1,2.4,0.6,4.2,1.3c2.4,0.8,5.3,1.9,7.3,2.1c2.1,0.2,4.8,0,7.3-0.2c1.8-0.2,3.4-0.3,4.5-0.2c0.8,0,1.3,0.3,1.5,0.9    c0.3,0.8,0,2.3-4.7,6.9C118.1,98.6,109.7,102.5,106.7,102.5z M100.2,85.4c-0.5,0.2-0.8,0.6-1,1.1c-0.2,0.5-0.2,1.1,0.1,1.6    c0.3,0.5,0.5,0.8,0.6,0.9c0.3,0.2,1,0.4,1.6,0.6c1.5,0.4,3.2,0.9,3.7,2.1c0.3,0.6,0.2,1.7,0.1,3.4c-0.1,2.4-0.3,5.7,1.1,6.4    c1.3,0.7,10.7-3.2,14.8-7.3c4.4-4.4,4.6-5.6,4.5-5.9c0-0.1-0.3-0.2-0.6-0.2c-1-0.1-2.6,0.1-4.3,0.2c-2.5,0.2-5.3,0.5-7.4,0.2    c-2.2-0.2-5-1.2-7.6-2.2c-1.7-0.6-3.3-1.2-4-1.2C101.3,85,100.7,85.1,100.2,85.4z"></path>			<path d="M223.1,179.3c-0.2,0-0.4-0.1-0.5-0.2c-0.5-0.4-0.4-1.2,0.1-3.2c0.5-1.9,2.8-5.2,3.8-5.3c0.2,0,0.6,0.1,0.9,0.6    c0.6,1.2,0.6,4.6-0.3,5.6c-1.1,1.3-2.3,1.8-3.1,2.1c-0.2,0.1-0.4,0.2-0.6,0.2C223.4,179.3,223.2,179.3,223.1,179.3z M226.5,171.7    c-0.6,0.4-2.4,2.8-2.8,4.5c-0.3,1.2-0.4,1.8-0.4,2c0.1-0.1,0.3-0.1,0.5-0.2c0.8-0.3,1.7-0.7,2.6-1.8    C227,175.6,226.9,172.4,226.5,171.7z"></path>			<path d="M146.4,169.3c-0.6,0-1.1-0.1-1.5-0.3c-3.7-1.7-7.2-13.3-8.6-23.8c-0.2-1.2-0.2-2.2-0.3-3c-0.1-1.7-0.1-2.7-1-4.1    c-0.5-0.7-2-0.5-3.8-0.3c-2.6,0.3-5.8,0.7-8.3-1.3c-4.8-3.8-4.5-8-2.2-15.5c2.5-8.4,11.2-8.1,15.9-8c3,0.1,3.4,1.5,3.7,2.9    c0.2,0.9,0.5,1.9,1.6,2.7c2.6,1.8,9,0.4,9.9,0.2c1.8-1.5,2.1-2.4,2-2.9c-0.1-0.7-0.9-1.1-1.8-1.6c-0.2-0.1-0.3-0.2-0.5-0.3    c-0.9-0.5-1.9-0.6-3-0.7c-1-0.1-2.1-0.2-3.1-0.7c-1.2-0.5-2.1-1.7-2.8-2.7c-0.3-0.4-0.8-1-1-1.2c-0.1,0.3-0.2,1-0.3,1.4    c-0.2,1.2-0.3,2.5-1.2,2.8c-0.3,0.1-0.6,0-0.9-0.1c-0.8-0.5-0.9-2.2-1-4.1c0-0.2,0-0.5-0.1-0.7c0-0.3-0.1-0.5-0.2-0.6    c-0.2-0.1-1,0.1-1.7,0.4c-0.7,0.3-1.7,0.6-2.7,0.7c-1.4,0.2-2.5,1.2-3.6,2.1c-0.9,0.8-1.8,1.6-2.8,1.8c-0.9,0.1-1.7-0.2-2.2-0.9    c-0.8-1.1-0.8-2.8-0.1-4.2c0.8-1.5,2.1-1,2.8-0.7c0.6,0.3,0.7,0.3,0.8,0.1c0.3-0.3,0.4-0.8,0.6-1.3c0.4-1,0.9-2.3,2.2-3.8    c1.3-1.3,2-1.3,2.8-1c0.4,0.1,0.6,0.2,1-0.1c0.6-0.4,0.7-0.9,0.9-1.4c0.2-0.7,0.5-1.6,1.7-2c0.8-0.3,1.5-0.1,2,0    c0.8,0.2,1.5,0.4,3.1-0.7c1.1-0.8,1.7-1.5,1.6-2c-0.1-0.4-0.5-0.6-0.8-0.7c-0.3-0.1-0.4,0.1-1,0.5c-0.6,0.5-1.6,1.3-3.2,1.8    c-2.5,0.8-3.3,0.6-4.5,0.2c-0.3-0.1-0.6-0.2-1.1-0.3c-0.6-0.1-1-0.4-1.1-0.8c-0.2-1,1.3-2.2,4.5-4.9l0.9-0.7    c4.4-3.5,6.8-3.5,10.3-3.1c1.4,0.2,2.3,1,3.3,1.9c1.7,1.6,3.7,3.4,9.1,2.3c6.6-1.3,8.2-2.4,9.5-3.4c0.4-0.3,0.8-0.6,1.3-0.8    c2.3-1.2,11.2-1.7,15.4-0.6c2.5,0.7,3.1,1.5,3.7,2.3c0.5,0.6,1,1.3,2.4,2c2.9,1.5,9.2,0.5,13.8-0.1c0.7-0.1,1.4-0.2,2.1-0.3    c4.3-0.6,7.5,0,9.6,1.8c0.7,0.6,2.5,0.6,4.1,0.5c1.7,0,3.3-0.1,4.1,0.5c0.4,0.3,0.7,0.7,0.7,1.2c0.2,1.9-2.1,4.6-3.1,5.6    c-0.7,0.8-0.6,2.3-0.5,3.6c0.1,1.2,0.2,2.2-0.4,2.7c-0.3,0.3-0.8,0.3-1.3,0.2c-1.9-0.5-2.4-3.2-2.9-5.3c-0.2-0.9-0.4-1.9-0.6-2.2    c-0.1,0.1-0.2,0.4-0.3,0.5c-0.4,0.7-1,1.9-2.4,1.9c-0.6,0-1.3-0.1-1.9-0.1c-1.3-0.1-2.5-0.3-3.5,0.3c-0.1,0.1-0.1,0.1-0.1,0.1    c0,0.3,1.1,1.2,1.9,1.8c0.9,0.7,1.9,1.5,2.7,2.4c2,2.3,1.2,4.1,0.2,6.4c-0.2,0.4-0.4,0.9-0.6,1.4c-0.7,1.7-0.2,3.1,0.1,4.1    c0.2,0.7,0.4,1.2,0.1,1.6c-0.1,0.2-0.3,0.3-0.7,0.4c-0.9,0.1-1.9-0.9-3.5-2.5c-0.8-0.9-1.7-1.7-2.4-2.2c-0.3-0.2-0.6-0.3-0.7-0.1    c-0.4,0.4-0.3,1.9,0.7,3c1.9,2.2,3.4,6.1,2.4,9.1c-0.7,2.1-3.1,1.8-5,1.6c-1.2-0.1-2.4-0.3-3.1,0.1c-0.8,0.5-0.2,1.7,0.9,3.5    c0.6,1.1,1.3,2.2,1.6,3.3c0.3,1.1-0.1,1.7-0.5,2c-1.3,0.9-4.2-0.4-5.4-1.2c-1.2-0.8-2.6-2.6-4-4.4c-0.9-1.1-1.8-2.2-2.4-2.8    c-0.9-0.8-1.5-0.3-3.3,1.3c-0.5,0.5-1,1-1.6,1.5c-1.2,1-1.6,3.1-1.9,4.8c-0.4,1.8-0.7,3.3-1.8,3.2c-1.5-0.1-2.4-2.7-3.4-5.6    c-0.3-0.8-0.5-1.5-0.8-2.2c-1.1-2.9-4.8-5.6-8.5-6.1c-2.5-0.3-3.1-1.2-3.6-1.9c-0.3-0.4-0.6-0.8-1.3-1c-0.4-0.1-0.5-0.1-0.6-0.1    c0,0.2,0.3,0.9,0.9,1.7c0.2,0.3,0.5,0.3,0.9,0.4c0.6,0.1,1.3,0.3,2,1c0.9,0.9,0.9,3,0.4,4.5c-0.3,1.1-0.9,1.8-1.5,1.9    c-0.7,0.2-1.3,0.6-2.1,1.1c-0.5,0.4-1.2,0.9-2.1,1.4c-0.6,0.4-1.2,0.5-1.9,0.3c-1.4-0.4-2.2-2-2.8-3.2c-0.1-0.3-0.3-0.5-0.4-0.7    c-0.4-0.6-0.5-1.6-0.7-2.5c-0.1-0.9-0.3-1.9-0.6-2.2c-0.1-0.1-0.1-0.1-0.1-0.1c-0.2,0-0.8,0.9-1,3.2c-0.2,2.5,3.9,6.3,5.5,6.8    c1.6,0.5,3.5,1.1,3.6,3.7c0,1.5-1.4,2.4-3.2,3.5c-1.3,0.8-2.7,1.7-3.9,3c-1.7,1.8-1.2,3.2-0.6,4.9c0.3,0.9,0.7,1.9,0.6,3    c-0.2,2.6-1.4,4.6-2.7,6.9c-0.5,0.9-1.1,1.8-1.6,2.9C152.8,167.5,149,169.3,146.4,169.3z M133.4,136.4c1.1,0,1.9,0.2,2.4,1    c1,1.6,1.1,2.9,1.2,4.6c0,0.8,0.1,1.8,0.3,3c1.7,11.8,5.1,21.7,8.1,23.1c1.8,0.8,6.4-0.9,8.3-4.5c0.6-1.1,1.1-2,1.7-2.9    c1.3-2.3,2.4-4,2.6-6.4c0.1-0.8-0.2-1.7-0.5-2.6c-0.6-1.7-1.3-3.7,0.8-5.9c1.3-1.4,2.8-2.3,4.1-3.2c1.5-1,2.7-1.7,2.7-2.6    c0-1.7-1.1-2.2-2.8-2.7c-1.9-0.6-6.6-4.7-6.3-7.9c0.1-1.3,0.5-3.7,1.7-4.1c0.2-0.1,0.7-0.1,1.2,0.4c0.6,0.6,0.7,1.7,0.9,2.8    c0.1,0.8,0.2,1.7,0.5,2.1c0.1,0.2,0.2,0.4,0.4,0.7c0.5,1,1.3,2.5,2.2,2.7c0.3,0.1,0.7,0,1.1-0.2c0.9-0.5,1.5-1,2.1-1.4    c0.9-0.6,1.5-1.1,2.4-1.3c0.2-0.1,0.6-0.5,0.8-1.2c0.4-1.3,0.3-3-0.2-3.5c-0.5-0.5-1-0.6-1.5-0.7c-0.5-0.1-1.1-0.2-1.5-0.8    c-0.6-0.7-1.5-2.1-1-2.9c0.4-0.7,1.4-0.4,1.7-0.3c1.1,0.3,1.5,0.8,1.9,1.3c0.5,0.6,0.9,1.2,3,1.5c4,0.6,8,3.4,9.3,6.7    c0.3,0.7,0.5,1.5,0.8,2.3c0.7,2.1,1.7,4.9,2.5,4.9c0.3-0.1,0.6-1.5,0.8-2.4c0.4-1.9,0.9-4.2,2.3-5.4c0.6-0.5,1.1-1,1.6-1.4    c1.6-1.5,3-2.9,4.7-1.3c0.7,0.7,1.6,1.8,2.5,2.9c1.3,1.6,2.8,3.5,3.8,4.2c1.4,0.9,3.7,1.7,4.3,1.2c0.2-0.2,0.2-0.6,0.1-0.9    c-0.3-1-0.9-2.1-1.5-3.1c-1.1-1.9-2.2-3.8-0.6-4.9c0.9-0.6,2.3-0.5,3.7-0.3c2.1,0.2,3.5,0.3,3.9-0.9c1-2.7-0.7-6.4-2.2-8.1    c-1.3-1.5-1.4-3.5-0.7-4.3c0.5-0.6,1.3-0.6,2.1-0.1c0.8,0.5,1.7,1.4,2.5,2.3c0.8,0.8,2,2.1,2.5,2.2c0-0.2-0.1-0.4-0.2-0.6    c-0.3-1-0.9-2.8-0.1-4.8c0.2-0.5,0.4-1,0.6-1.4c1-2.3,1.6-3.6,0-5.3c-0.7-0.8-1.7-1.6-2.5-2.3c-1.3-1.1-2.3-1.9-2.3-2.7    c0-0.3,0.1-0.6,0.7-0.9c1.3-0.7,2.7-0.6,4.1-0.4c0.6,0.1,1.2,0.1,1.8,0.1c0.7,0,1-0.6,1.5-1.4c0.3-0.5,0.6-1,1-1.1    c0.3,0,0.5,0,0.8,0.3c0.5,0.4,0.7,1.4,1,2.7c0.4,1.8,0.9,4.1,2.2,4.5c0.3,0.1,0.4,0,0.4,0c0.2-0.2,0.1-1.2,0-1.8    c-0.1-1.5-0.3-3.3,0.7-4.4c1.8-1.9,3-3.9,2.9-4.8c0-0.2-0.1-0.4-0.3-0.5c-0.6-0.4-2.1-0.4-3.5-0.4c-1.9,0-3.8,0.1-4.8-0.8    c-1.9-1.6-4.7-2.1-8.8-1.6c-0.6,0.1-1.3,0.2-2.1,0.3c-5,0.7-11.2,1.6-14.4,0c-1.7-0.8-2.3-1.6-2.8-2.3c-0.6-0.8-1-1.4-3.2-2    c-4.1-1.1-12.8-0.5-14.7,0.5c-0.4,0.2-0.8,0.5-1.2,0.8c-1.4,1-3.1,2.2-9.9,3.5c-5.9,1.1-8.2-0.9-10-2.6c-0.9-0.8-1.7-1.5-2.7-1.6    c-3.3-0.4-5.4-0.4-9.5,2.9l-0.9,0.7c-2,1.6-4,3.3-4.2,3.8c0,0,0.1,0.1,0.3,0.1c0.4,0.1,0.8,0.2,1.1,0.3c1.1,0.3,1.7,0.5,3.9-0.2    c1.5-0.5,2.3-1.1,2.9-1.6c0.6-0.5,1.1-0.9,1.9-0.7c0.6,0.2,1.4,0.6,1.5,1.5c0.2,1-0.5,2-2,3.1c-1.9,1.4-3,1.1-3.9,0.8    c-0.5-0.1-0.9-0.3-1.4-0.1c-0.7,0.3-0.8,0.7-1,1.3c-0.2,0.6-0.4,1.4-1.2,2c-0.8,0.6-1.4,0.4-1.9,0.3c-0.4-0.1-0.8-0.2-1.7,0.8    c-1.2,1.3-1.6,2.5-2,3.4c-0.2,0.6-0.4,1.1-0.8,1.6c-0.6,0.8-1.4,0.4-2,0.2c-0.9-0.4-1.2-0.4-1.5,0.3c-0.5,1-0.5,2.3,0,3.1    c0.3,0.4,0.7,0.6,1.2,0.5c0.7-0.1,1.5-0.8,2.3-1.5c1.1-1,2.4-2.1,4.1-2.3c0.9-0.1,1.7-0.4,2.5-0.7c1.1-0.4,1.9-0.7,2.6-0.3    c0.4,0.2,0.6,0.7,0.6,1.3c0,0.2,0,0.5,0.1,0.7c0.1,1.1,0.2,3.2,0.6,3.3c0.3-0.1,0.4-1.4,0.5-1.9c0.1-1,0.2-1.8,0.7-2.2    c0.2-0.1,0.4-0.2,0.6-0.2c0.6,0.1,1.2,0.8,1.8,1.7c0.7,0.9,1.5,2,2.4,2.4c0.8,0.4,1.8,0.5,2.8,0.6c1.1,0.1,2.3,0.3,3.4,0.9    c0.1,0.1,0.3,0.2,0.5,0.3c1,0.6,2.2,1.2,2.3,2.4c0.1,1.1-0.7,2.3-2.5,3.8c-0.1,0.1-0.1,0.1-0.2,0.1c-0.3,0.1-7.7,1.8-10.8-0.3    c-1.4-1-1.8-2.2-2-3.2c-0.3-1.3-0.5-2-2.7-2.1c-4.4-0.1-12.7-0.3-15,7.3c-2.4,8.1-2,11.3,1.9,14.5c2.2,1.7,5.2,1.4,7.6,1.1    C131.9,136.5,132.7,136.4,133.4,136.4z M152,119L152,119L152,119z"></path>			<path d="M215.1,175.1c-1.2,0-2.1-1.3-3.1-2.7c-0.8-1.2-1.7-2.5-2.7-2.6c-2.2-0.1-8.1,0.6-9.6,1.1c-1.7,0.5-2.5-0.7-2.6-1.2    c0,0,0,0,0,0c-0.1-0.4-2.6-8.8,1.7-10.5c1-0.4,2-0.8,3.1-1.1c3.4-1.2,7.2-2.5,8.7-4.3c1.3-1.5,3.5-3.1,5.8-3.1c0,0,0.1,0,0.1,0    c1.5,0,2.8,0.7,3.8,2c0.6,0.8,1.4,1.6,2.1,2.5c2.5,2.9,4.8,5.6,4,8C225.6,165.8,217.6,175.1,215.1,175.1    C215.2,175.1,215.2,175.1,215.1,175.1z M208.8,168.8c0.3,0,0.5,0,0.7,0c1.4,0.1,2.5,1.6,3.4,3c0.8,1.1,1.5,2.3,2.2,2.3    c0,0,0,0,0,0c1.6,0,9.5-8.6,10.4-11.4c0.6-1.9-1.6-4.5-3.8-7c-0.7-0.8-1.4-1.7-2.1-2.5c-0.8-1.1-1.8-1.6-3-1.7c0,0-0.1,0-0.1,0    c-2,0-3.9,1.5-5,2.7c-1.7,2-5.7,3.4-9.2,4.6c-1.1,0.4-2.2,0.8-3.1,1.1c-2.9,1.1-1.8,7.1-1.1,9.3c0.1,0.2,0.4,0.9,1.4,0.6    C200.9,169.5,206.1,168.8,208.8,168.8z"></path>		</g>	</g>	<g>		<g>			<rect x="268.7" y="73" class="st0" width="8.9" height="9.8"></rect>			<path d="M277.6,83.3h-8.9c-0.3,0-0.5-0.2-0.5-0.5V73c0-0.3,0.2-0.5,0.5-0.5h8.9c0.3,0,0.5,0.2,0.5,0.5v9.8    C278.1,83.1,277.9,83.3,277.6,83.3z M269.2,82.3h7.9v-8.8h-7.9V82.3z"></path>		</g>		<g>			<g>				<circle class="st0" cx="273.2" cy="51.8" r="23.5"></circle>				<path d="M273.2,75.8c-13.2,0-24-10.8-24-24c0-13.2,10.8-24,24-24c13.2,0,24,10.8,24,24C297.2,65.1,286.4,75.8,273.2,75.8z      M273.2,28.8c-12.7,0-23,10.3-23,23c0,12.7,10.3,23,23,23c12.7,0,23-10.3,23-23C296.2,39.2,285.8,28.8,273.2,28.8z"></path>			</g>			<g>				<circle class="st0" cx="273.2" cy="51.8" r="12"></circle>				<path d="M273.2,64.3c-6.9,0-12.5-5.6-12.5-12.5c0-6.9,5.6-12.5,12.5-12.5c6.9,0,12.5,5.6,12.5,12.5     C285.7,58.7,280.1,64.3,273.2,64.3z M273.2,40.3c-6.3,0-11.5,5.2-11.5,11.5c0,6.3,5.2,11.5,11.5,11.5c6.3,0,11.5-5.2,11.5-11.5     C284.7,45.5,279.5,40.3,273.2,40.3z"></path>			</g>			<circle cx="273.2" cy="51.8" r="8"></circle>			<circle class="st0" cx="275.2" cy="49.1" r="2"></circle>		</g>		<g>			<path class="st0" d="M289.3,85.1H257v-1.8c0-1.8,1.4-3.2,3.2-3.2h25.9c1.8,0,3.2,1.4,3.2,3.2V85.1z"></path>			<path d="M289.3,85.6H257c-0.3,0-0.5-0.2-0.5-0.5v-1.8c0-2,1.7-3.7,3.7-3.7h25.9c2,0,3.7,1.7,3.7,3.7v1.8    C289.8,85.4,289.6,85.6,289.3,85.6z M257.5,84.6h31.3v-1.3c0-1.5-1.2-2.7-2.7-2.7h-25.9c-1.5,0-2.7,1.2-2.7,2.7V84.6z"></path>		</g>	</g>	<g>		<g>			<g>				<path class="st0" d="M384.1,354.8c5.3-14.3,9.2-25.8,10.1-31.3c4.9-29.3-8-67.8-8-67.8l-31.3-2.5l-3.6,6.1l-43.2-0.7     c-0.7,1.3-8.6,46.3-6.3,96.5L384.1,354.8z"></path>				<path d="M301.8,355.6c-0.3,0-0.5-0.2-0.5-0.5c-2.2-49.1,5.5-95,6.4-96.7c0.1-0.2,0.3-0.3,0.5-0.3l42.9,0.7l3.4-5.8     c0.1-0.2,0.3-0.3,0.5-0.2l31.3,2.5c0.2,0,0.4,0.2,0.4,0.3c0.1,0.4,13,39,8,68.1c-0.8,4.9-4,14.9-10.1,31.4     c-0.1,0.2-0.3,0.3-0.5,0.3L301.8,355.6C301.8,355.6,301.8,355.6,301.8,355.6z M384.1,354.8L384.1,354.8L384.1,354.8z      M308.5,259.2c-1,4-8.3,47-6.2,95.4l81.5-0.3c6-16.2,9.1-26.1,10-30.9c4.6-27.4-6.7-63.5-7.9-67.3l-30.6-2.4l-3.4,5.8     c-0.1,0.2-0.3,0.2-0.4,0.2L308.5,259.2z"></path>			</g>			<path d="M331.7,353.1c0,0-0.1,0-0.1,0c-0.3-0.1-0.4-0.4-0.3-0.6l10-34.8c0.1-0.3,0.4-0.4,0.6-0.3c0.3,0.1,0.4,0.4,0.3,0.6    l-10,34.8C332.1,353,331.9,353.1,331.7,353.1z"></path>		</g>		<g>			<g>				<path class="st0" d="M224.9,113.4l-7.4-7.1c0,0-3.5,2.7,1.9,9.2c-1.5,0.1-3,0.1-5.4,0.3c-2,0.1-3.9-0.4-5.4-1.7     c-1.7-1.5-3.9-3.4-4.7-3.9c-1.4-0.9-3.3-2.3-5.2-2.3c-0.5,0-0.9,0.1-1.3,0.2c-1.4,0.4-1.9,2.1-1,3.3l5.2,6.9     c2.8,3.6,6.6,6.2,10.9,7.5l6.9,2c3.9,1.1,6.8,4.6,7.3,8.7l7.1,56.7c0.7,6,6.6,10,12.4,8.5l58.3-13.5l-2.3-35.4l-39.8,19.9     c-5,2.3-10.9-0.2-12.7-5.3c-3.9-11.1-10.5-29.2-15.3-40.2C232.1,121.9,228.9,117.3,224.9,113.4z"></path>				<path d="M243.6,202.4c-2.1,0-4.2-0.6-5.9-1.8c-2.5-1.7-4.1-4.4-4.5-7.4l-7.1-56.7c-0.5-4-3.2-7.3-6.9-8.3l-6.9-2     c-4.4-1.3-8.3-3.9-11.1-7.6l-5.2-6.9c-0.5-0.7-0.7-1.6-0.4-2.4c0.3-0.8,0.9-1.4,1.7-1.7c0.5-0.2,1-0.2,1.5-0.2     c1.8,0,3.5,1.1,4.9,2c0.2,0.1,0.4,0.3,0.6,0.4c0.7,0.4,2.3,1.8,4.8,4c1.3,1.1,3.1,1.7,5,1.6c1.9-0.1,3.3-0.2,4.4-0.3     c-1.8-2.4-2.6-4.6-2.4-6.5c0.2-1.8,1.2-2.6,1.3-2.7c0.2-0.2,0.5-0.1,0.7,0l7.4,7.1c4.1,3.9,7.3,8.6,9.6,13.7     c4.9,11.3,11.7,30.1,15.3,40.3c0.8,2.3,2.6,4.2,4.9,5.2c2.3,1,4.9,0.9,7.1-0.1l39.8-19.9c0.2-0.1,0.3-0.1,0.5,0     c0.1,0.1,0.2,0.2,0.3,0.4l2.3,35.4c0,0.2-0.1,0.5-0.4,0.5L246.2,202C245.3,202.3,244.5,202.4,243.6,202.4z M198.7,108.4     C198.7,108.4,198.6,108.4,198.7,108.4c-0.4,0-0.8,0.1-1.2,0.2c-0.5,0.2-0.9,0.5-1,1c-0.2,0.5-0.1,1,0.3,1.5l5.2,6.9     c2.7,3.6,6.4,6.1,10.6,7.3l6.9,2c4.1,1.2,7.1,4.8,7.6,9.2l7.1,56.7c0.3,2.7,1.8,5.1,4.1,6.7c2.3,1.5,5.1,2,7.7,1.4l57.9-13.4     l-2.2-34.2L262.6,173c-2.5,1.2-5.4,1.2-7.9,0.1c-2.5-1.1-4.5-3.2-5.4-5.8c-3.6-10.2-10.4-28.9-15.3-40.2     c-2.2-5-5.3-9.5-9.3-13.4l-7.1-6.8c-0.2,0.3-0.5,0.9-0.6,1.7c-0.2,1.8,0.8,4,2.8,6.5c0.1,0.1,0.2,0.4,0.1,0.5     c-0.1,0.2-0.3,0.3-0.4,0.3c-1.4,0-2.9,0.1-5.4,0.3c-2.2,0.2-4.3-0.5-5.8-1.8c-3.1-2.7-4.2-3.6-4.6-3.9c-0.2-0.1-0.4-0.3-0.6-0.4     C201.7,109.4,200.2,108.4,198.7,108.4z"></path>			</g>			<path d="M390.5,172.7c-2.4-13.3-7.4-22.3-24.5-29.5c-9.3-4-20.7-4.8-37.9-3.1c-12.6,1.2-44.7,12.4-57.5,24.4    c-0.8,0.8,16.2,32,16.2,32l10.3-1.3l-2.2,65.3c-0.1,3.8,2.1,7.3,5.6,8.7c8.2,3.4,27.1,6.4,68.2-3.8c0,0,18.4-7.3,24.7,21.1    c0,0,13.1-1.6,13-15.9C406.3,260,395.9,202,390.5,172.7z"></path>			<path class="st0" d="M377.5,200H373c-0.2,0-0.4-0.1-0.5-0.3l-6.9-18.5c-0.1-0.3,0-0.6,0.3-0.6c0.3-0.1,0.6,0,0.6,0.3l6.8,18.2    h4.1c0.3,0,0.5,0.2,0.5,0.5S377.8,200,377.5,200z"></path>			<path d="M382.1,198.7c0,0,30.4-0.1,30.4-0.5c0-1.1-11.3-46-53.5-57.3L382.1,198.7z"></path>			<g>				<path class="st0" d="M379.6,198.6c0,0,19.3,48,20.8,51.3c0,0,7.9,17.3,6.1,25.2c-1.2,5-0.7,14.8,5.9,21.3c1.4,1.4,3.7,0,3.2-1.9     c0,0,0-0.1,0-0.1c-0.8-2.7-2.3-6.1-2.3-6.1s4.1,0.7,7.8,4.8c3.7,4.1,11.8,11.7,14.1,10c3.8-3,4.4-18.1-10.7-30.3     c-3.7-3-5-5.2-5.9-9.3c0,0-4.5-28.3-8.3-46.3c-1-4.7-2.1-9.6-3.2-19.1L379.6,198.6z"></path>				<path d="M434.4,303.8c-4.2,0-13.6-10.2-13.7-10.4c-2.5-2.7-5.2-3.9-6.6-4.4c0.5,1.2,1.4,3.4,1.9,5.2l0,0.1     c0.3,1.1-0.2,2.1-1.1,2.7c-1,0.6-2.1,0.4-2.9-0.4c-7.1-7-7.1-17.3-6-21.8c1.8-7.7-6-24.7-6-24.9c-1.5-3.3-20-49.3-20.8-51.3     c-0.1-0.2,0-0.3,0-0.5c0.1-0.1,0.2-0.2,0.4-0.2l27.5-0.5c0,0,0,0,0,0c0.3,0,0.5,0.2,0.5,0.4c1,9.1,2.1,13.9,3.1,18.6l0.1,0.5     c3.8,17.7,8.3,46,8.3,46.3c0.9,4,2.1,6,5.7,9c12.3,10,13.2,20.8,13.1,23.9c0,3.3-1,6-2.5,7.1     C435.2,303.7,434.8,303.8,434.4,303.8z M413.3,287.8C413.3,287.8,413.3,287.8,413.3,287.8c0.3,0,4.4,0.8,8.2,5     c5.1,5.6,11.9,11.1,13.4,9.9c1.3-1,2-3.4,2.1-6.4c0-3-0.8-13.4-12.8-23.1c-3.8-3-5.2-5.3-6.1-9.6c0-0.3-4.5-28.6-8.3-46.3     l-0.1-0.5c-1-4.6-2-9.3-3-18.2l-26.3,0.4c2.4,5.9,19.1,47.5,20.5,50.6c0.3,0.7,8,17.5,6.1,25.6c-1,4.3-1.1,14.1,5.8,20.8     c0.6,0.6,1.3,0.5,1.7,0.2c0.5-0.3,0.9-0.8,0.7-1.6l0-0.1c-0.7-2.6-2.3-6-2.3-6.1c-0.1-0.2-0.1-0.4,0.1-0.5     C413,287.8,413.1,287.8,413.3,287.8z"></path>			</g>		</g>		<g>			<g>				<path class="st0" d="M323.8,133.9c-10.2,0-20.4-0.5-22.6-6.4c-1.3-3.4,0.8-6.2,3-9.1c2.2-3,4.7-6.3,4.8-11.2     c0.1-3.5-1.2-5.7-2.5-8c-1.5-2.5-3.1-5.4-2.6-9.7c1.1-9.6,11.1-15.5,15.3-17.6c4.7-2.3,10.4-3.7,15.5-3.7c0.8,0,1.5,0,2.2,0.1     c-0.2-3.1,0.2-6.7,2.3-9.6c1.8-2.6,4.7-4.2,8.4-4.8c0.8-0.1,1.6-0.2,2.4-0.2c5.2,0,7,3.1,7.7,5c1.9,5.3-1.4,13.1-5.8,17.5     c0.8,1.4,1.3,2.9,1.9,4.5c1,2.9,2.3,6.6,6.3,11.8c2.3,2.9,4.3,4.9,6.1,6.7c3.1,3.1,5.6,5.5,5.7,9.7c0.2,5.8-4.1,10.2-6.7,12.8     c-12.1,12.1-29.7,12.2-40.2,12.2L323.8,133.9z"></path>				<path d="M369.9,109c0.2,5-3.6,8.8-6.2,11.4c-11.5,11.5-28.4,11.5-38.8,11.6c-8.4,0-20,0-21.9-5.1c-1.9-5.1,7.8-9.3,7.9-19.6     c0.1-8.3-6-10.2-5.2-17.5c1.1-9.5,12.4-15.2,14.2-16c5.2-2.5,12.5-4.3,19.2-3.1c-0.8-4.5-0.9-13.2,8.7-14.7     c12.7-2,8.8,14.1,1.3,20c3.3,4,2.1,8.6,9.3,17.8C364.8,101.7,369.7,103.5,369.9,109z"></path>				<g>					<g>						<path class="st0" d="M348,139.2l-10.2-26.6c0,0-0.6-1.5,0-2.1c1.5-1.5,3.9-4.6,3.2-8.1c-0.3-1.8-1.6-4.3-3.3-4.4       c-1.2-0.1-2.6,1.1-3.5,3.2c-0.5,1.1-2,1.2-2.6,0.2c0,0,0,0,0,0c-0.6-1-1.3-2.1-1.5-3c-0.2-0.6-0.7-1-1.4-1.1       c-13.1-0.2-6.4-16-14.9-13.7c-0.3,0.1-0.7,0.4-0.9,0.7c-1.2,1.7-2,2.5-2.9,4.3c-1.9,3.7-1.9,12.2-5.6,16       c-0.4,0.4-0.6,1.1-0.4,1.6c0.6,1.4,1.9,1.6,3,2.2c0.4,0.2,0.7,0.7,0.7,1.2c0.1,2.1,0.7,6.9,1,10.6c0.2,2.3,2.1,4.1,4.4,4.1       c1.8,0,3.8-0.2,5.8-0.7c0.4-0.1,0.8,0,1.2,0.2c1.5,1,3.1,12.5,3.9,18.8c0.3,2.6,2.3,4.7,5,5.1c0.8,0.1,4.5,0.8,7.8,0.9       C347.2,149,349.5,142.9,348,139.2z"></path>						<path d="M337.6,149.2c-0.2,0-0.5,0-0.8,0c-2.8-0.1-6-0.6-7.3-0.8c-0.2,0-0.4-0.1-0.6-0.1c-2.8-0.4-5.1-2.7-5.4-5.6       c-1.6-12.9-2.9-18-3.7-18.5c-0.2-0.1-0.5-0.2-0.8-0.1c-2,0.5-4,0.7-5.9,0.7c0,0,0,0,0,0c-2.6,0-4.7-2-4.9-4.6       c-0.1-1.8-0.4-3.8-0.6-5.6c-0.2-2.1-0.4-3.9-0.5-5c0-0.3-0.2-0.6-0.5-0.8c-0.2-0.1-0.5-0.2-0.8-0.4c-0.9-0.4-1.9-0.8-2.5-2.1       c-0.3-0.7-0.1-1.6,0.5-2.2c2.2-2.2,3.1-6.3,3.8-9.9c0.5-2.3,0.9-4.5,1.7-6c0.6-1.1,1.1-1.9,1.7-2.6c0.4-0.5,0.8-1,1.2-1.7       c0.3-0.4,0.8-0.8,1.2-0.9c1.4-0.4,2.5-0.3,3.4,0.2c1.5,0.9,2.1,2.9,2.6,5.1c1,3.9,2.2,8.3,9,8.4c0.9,0,1.6,0.6,1.9,1.4       c0.2,0.7,0.7,1.7,1.5,2.9c0.2,0.3,0.6,0.5,0.9,0.5c0.4,0,0.7-0.3,0.8-0.6c0.9-2.2,2.5-3.6,3.9-3.5c2.1,0.1,3.4,3,3.8,4.8       c0.7,3.7-1.8,6.9-3.4,8.5c-0.2,0.2-0.1,1,0.1,1.6l10.2,26.6c0.8,2.1,0.5,4.4-0.8,6.2C346.4,147.1,343.6,149.2,337.6,149.2z        M319.3,123.1c0.4,0,0.8,0.1,1.1,0.3c0.5,0.3,2,1.3,4.1,19.2c0.3,2.4,2.2,4.3,4.5,4.7c0.1,0,0.3,0.1,0.6,0.1       c1.3,0.2,4.4,0.7,7.2,0.8c4.7,0.1,8.3-1.1,10-3.5c1.1-1.6,1.4-3.6,0.7-5.3l-10.2-26.6c-0.1-0.3-0.6-1.9,0.1-2.6       c1.4-1.4,3.7-4.3,3.1-7.6c-0.3-1.6-1.5-3.9-2.8-4c-1-0.1-2.2,1.1-3,2.9c-0.3,0.7-0.9,1.1-1.7,1.2c-0.7,0.1-1.4-0.3-1.8-0.9       c0,0,0,0,0,0c-0.8-1.2-1.4-2.3-1.6-3.1c-0.1-0.4-0.5-0.7-0.9-0.7c-7.5-0.1-8.9-5.2-9.9-9.2c-0.5-2-1-3.8-2.2-4.5       c-0.6-0.4-1.5-0.4-2.6-0.1c-0.2,0.1-0.5,0.3-0.6,0.5c-0.5,0.7-0.9,1.2-1.2,1.7c-0.6,0.8-1.1,1.5-1.7,2.5       c-0.7,1.3-1.2,3.5-1.6,5.7c-0.8,3.7-1.7,8-4.1,10.4c-0.3,0.3-0.4,0.7-0.3,1.1c0.4,0.9,1.1,1.2,1.9,1.6       c0.3,0.1,0.6,0.2,0.9,0.4c0.6,0.3,1,0.9,1,1.6c0,1.1,0.2,2.9,0.4,4.9c0.2,1.8,0.4,3.9,0.6,5.7c0.1,2,1.9,3.6,3.9,3.6       c0,0,0,0,0,0c1.8,0,3.8-0.2,5.7-0.7C319,123.1,319.2,123.1,319.3,123.1z"></path>					</g>					<path d="M319,124.2c-0.2,0-0.4-0.2-0.5-0.4c-0.1-0.3,0.1-0.5,0.4-0.6c6.2-1.3,10.1-6,10.1-6c0.2-0.2,0.5-0.2,0.7-0.1      c0.2,0.2,0.2,0.5,0.1,0.7c-0.2,0.2-4.1,5-10.7,6.4C319,124.2,319,124.2,319,124.2z"></path>				</g>			</g>		</g>	</g></g><g>	<path class="st0" d="M135.1,234.4v18.2c0,26,20.5,47.1,45.9,47.1s45.9,21.1,45.9,47.1c0,2.3-1.9,4.2-4.2,4.2H101.2  c-38,0-68.8-31.6-68.8-70.6V232c0-15.5,12.3-28.1,27.4-28.1h45.7C121.9,203.9,135.1,217.5,135.1,234.4z"></path>	<path d="M222.7,351.4H101.2C63,351.4,32,319.5,32,280.3V232c0-15.8,12.5-28.6,27.9-28.6h45.7c16.6,0,30.2,13.9,30.2,31v18.2  c0,25.7,20.4,46.6,45.4,46.6c25.6,0,46.4,21.4,46.4,47.6C227.4,349.3,225.3,351.4,222.7,351.4z M59.8,204.4  C45,204.4,33,216.8,33,232v48.3c0,38.7,30.6,70.1,68.3,70.1h121.5c2,0,3.7-1.7,3.7-3.7c0-25.7-20.4-46.6-45.4-46.6  c-25.6,0-46.4-21.4-46.4-47.6v-18.2c0-16.5-13.1-30-29.2-30H59.8z"></path></g><polygon class="st0" points="73.3,447.2 73.3,439.9 119.1,436 119.1,335.4 134.1,335.4 134.1,435.9 180.2,439.9 180.2,447.2 "></polygon><polygon points="178.2,441.8 178.2,445.2 75.3,445.2 75.3,441.8 121.1,437.8 121.1,337.4 132.1,337.4 132.1,437.7 "></polygon><g>	<g>		<path class="st0" d="M260.3,300h-93.2c-2,0-3.6-1.6-3.6-3.6v-1.8h100.5v1.8C263.9,298.3,262.3,300,260.3,300z"></path>		<path d="M260.3,300.5h-93.2c-2.3,0-4.1-1.9-4.1-4.1v-1.8c0-0.3,0.2-0.5,0.5-0.5h100.5c0.3,0,0.5,0.2,0.5,0.5v1.8   C264.4,298.6,262.6,300.5,260.3,300.5z M164,295.1v1.3c0,1.7,1.4,3.1,3.1,3.1h93.2c1.7,0,3.1-1.4,3.1-3.1v-1.3H164z"></path>	</g>	<g>		<path class="st0" d="M263.9,294.7h-57.5l17-50c1.1-1.7,3-2.7,5-2.7h48.6c2.2,0,3.6,2.1,2.9,4C279.7,246.7,263.9,294.7,263.9,294.7   z"></path>		<path d="M263.9,295.2h-57.5c-0.2,0-0.3-0.1-0.4-0.2c-0.1-0.1-0.1-0.3-0.1-0.5l17-50c0,0,0-0.1,0.1-0.1c1.2-1.8,3.2-2.9,5.5-2.9   h48.6c1.2,0,2.3,0.6,3,1.5c0.6,0.9,0.8,2.1,0.4,3.2c-0.2,0.6-10.6,32.1-16.1,48.7C264.3,295,264.2,295.2,263.9,295.2z    M207.1,294.2h56.4c1.5-4.7,15.7-47.6,16-48.4c0.3-0.7,0.2-1.6-0.3-2.2c-0.5-0.7-1.3-1.1-2.1-1.1h-48.6c-1.9,0-3.6,0.9-4.6,2.4   L207.1,294.2z"></path>	</g>	<ellipse transform="matrix(0.2872 -0.9579 0.9579 0.2872 -84.5595 427.4588)" cx="244.9" cy="270.5" rx="4.3" ry="3.7"></ellipse></g><g>	<g>		<polygon class="st0" points="97.2,344.5 84.2,353.3 90.8,361.1 105.8,353.7   "></polygon>		<path d="M90.8,361.6c-0.1,0-0.3-0.1-0.4-0.2l-6.6-7.8c-0.1-0.1-0.1-0.3-0.1-0.4c0-0.1,0.1-0.3,0.2-0.3l13-8.7   c0.2-0.1,0.5-0.1,0.6,0.1l8.6,9.2c0.1,0.1,0.2,0.3,0.1,0.4s-0.1,0.3-0.3,0.4l-15,7.3C91,361.5,90.9,361.6,90.8,361.6z M84.9,353.4   l6,7.1l14-6.9l-7.8-8.4L84.9,353.4z"></path>	</g>	<g>		<g>			<path class="st0" d="M86.4,349.3c-2,1.2-5.6,3.5-8.5,5.9c-1.9,1.5-2.3,4.2-1,6.2c3.6,5.7,12.5,18,21.7,27.2    c0.6,0.6,2.1,1.4,4.1,0.4c6.8-3.7-0.5-15.2-5.3-30l-3.5-0.4c-1.9-0.2-3.4-1.5-3.9-3.3l-1.5-5.2C88.1,349.2,87.2,348.9,86.4,349.3    z"></path>			<path d="M100.8,390c-1.1,0-2-0.5-2.5-1c-9.1-9.2-18-21.4-21.7-27.3c-1.4-2.2-0.9-5.2,1.1-6.8c3-2.4,6.7-4.8,8.6-5.9    c0.5-0.3,1.1-0.3,1.6-0.1c0.5,0.2,0.9,0.6,1.1,1.2l1.5,5.2c0.5,1.6,1.9,2.8,3.5,2.9l3.5,0.4c0.2,0,0.4,0.2,0.4,0.3    c1.2,3.7,2.6,7.2,3.8,10.4c3.8,9.6,6.7,17.2,1.3,20.2C102.2,389.8,101.4,390,100.8,390z M86.7,349.8c-1.9,1.2-5.5,3.5-8.5,5.9    c-1.6,1.3-2,3.7-0.9,5.5c3.7,5.9,12.5,18,21.6,27.1c0.2,0.2,1.5,1.4,3.5,0.3c4.7-2.5,2-9.4-1.7-18.9c-1.2-3.1-2.6-6.5-3.8-10.1    l-3.2-0.4c-2.1-0.2-3.8-1.7-4.4-3.7l-1.5-5.2c-0.1-0.2-0.2-0.4-0.5-0.5C87.2,349.6,86.9,349.6,86.7,349.8z"></path>		</g>		<g>			<path class="st0" d="M78.4,354.9c0,0-0.3,0.2-0.4,0.4c-1.9,1.5-2.3,4.2-1,6.2c3.6,5.7,12.5,18,21.7,27.2c0.6,0.6,2.1,1.4,4.1,0.4    c0.6-0.3,1.5-1.2,1.5-1.2l-0.6-0.7c-8.8-9.7-16.9-20-24.2-30.8L78.4,354.9z"></path>			<path d="M100.8,390c-1.1,0-2-0.5-2.5-1c-9.1-9.2-18-21.4-21.7-27.3c-1.4-2.2-0.9-5.2,1.1-6.8c0.1-0.1,0.4-0.4,0.4-0.4    c0.1-0.1,0.3-0.1,0.4-0.1c0.1,0,0.3,0.1,0.3,0.2l1,1.5c7.3,10.8,15.4,21.1,24.2,30.7l0.6,0.7c0.2,0.2,0.2,0.5,0,0.7    c0,0-0.9,0.9-1.6,1.2C102.2,389.8,101.4,390,100.8,390z M78.3,355.6C78.2,355.6,78.2,355.6,78.3,355.6c-1.7,1.3-2,3.7-0.9,5.5    c3.7,5.9,12.5,18,21.6,27.1c0.2,0.2,1.5,1.4,3.5,0.3c0.3-0.2,0.7-0.5,1-0.8l-0.3-0.3c-8.8-9.6-17-20-24.2-30.9L78.3,355.6z"></path>		</g>		<path d="M99.7,368C99.7,368,99.7,368,99.7,368l-6.7-0.5c-0.3,0-0.5-0.3-0.5-0.5c0-0.3,0.3-0.5,0.5-0.5l6.6,0.5   c0.3,0,0.5,0.3,0.5,0.5C100.2,367.8,100,368,99.7,368z"></path>		<path d="M95.5,372.6c-0.3,0-0.5-0.2-0.5-0.5c0-0.3,0.2-0.5,0.5-0.5l6.5,0c0,0,0,0,0,0c0.3,0,0.5,0.2,0.5,0.5   c0,0.3-0.2,0.5-0.5,0.5L95.5,372.6C95.5,372.6,95.5,372.6,95.5,372.6z"></path>	</g>	<path d="M190.3,287.2c5.3,0,23.5,3,24,19.6c0.2,5.6,4.7,16.1-29.2,22.7c-40.5,7.9-70.6,23.2-77.4,26.8c-1,0.5-2.1,0.6-3.2,0.3  c-3.4-1-10.6-3.9-11.5-10.1c-0.2-1.4,0.4-2.7,1.5-3.6l8.4-6.1l-7.9-4.2c-9-4.8-16.2-12.8-19.4-22.5c-2.9-8.7-4.3-23.6-4.3-23.6  L190.3,287.2z"></path>	<g>		<polygon class="st0" points="281.6,445.5 247.3,327 212.9,445.5 204.7,445.5 242.4,311.8 252.1,311.8 289.8,445.5   "></polygon>		<path d="M289.8,446h-8.2c-0.2,0-0.4-0.1-0.5-0.4l-33.8-116.8l-33.8,116.8c-0.1,0.2-0.3,0.4-0.5,0.4h-8.2c-0.2,0-0.3-0.1-0.4-0.2   c-0.1-0.1-0.1-0.3-0.1-0.4l37.7-133.7c0.1-0.2,0.3-0.4,0.5-0.4l9.7,0c0,0,0,0,0,0c0.2,0,0.4,0.2,0.5,0.4l37.7,133.7   c0,0.2,0,0.3-0.1,0.4C290.1,446,290,446,289.8,446z M282,445h7.2l-37.4-132.7l-8.9,0L205.4,445h7.2l34.2-118.2   c0.1-0.2,0.3-0.4,0.5-0.4c0.2,0,0.4,0.1,0.5,0.4L282,445z"></path>	</g>	<g>		<path class="st0" d="M196.3,415.6c1.3,4.9,1.6,9.9,1,14.9l19.5-3.2c-4.8-1.8-8.5-5.8-10-10.7l-1.1-3.8L196.3,415.6z"></path>		<path d="M197.3,431c-0.1,0-0.3-0.1-0.4-0.1c-0.1-0.1-0.2-0.3-0.1-0.4c0.7-4.9,0.3-9.9-0.9-14.7c-0.1-0.3,0.1-0.5,0.3-0.6l9.4-2.8   c0.1,0,0.3,0,0.4,0c0.1,0.1,0.2,0.2,0.2,0.3l1.1,3.8c1.4,4.8,5,8.6,9.7,10.4c0.2,0.1,0.3,0.3,0.3,0.5s-0.2,0.4-0.4,0.4L197.3,431   C197.3,431,197.3,431,197.3,431z M196.9,415.9c1.2,4.6,1.5,9.3,0.9,14L215,427c-4.2-2.1-7.4-5.8-8.7-10.3l-1-3.3L196.9,415.9z"></path>	</g>	<g>		<g>			<path class="st0" d="M196.6,424.2c-0.6,2.4-1.9,9.2-2.4,13.3c-0.3,2.6,1.4,5,3.9,5.6c7.1,1.7,24,1.3,38.1,1.6    c1,0,2.7-0.5,3.5-2.8c2.5-8-12.6-10.1-27.6-18c0,0-0.9,0.7-2.1,1.4c-2.1,1.2-5.7,1.1-7.8-0.1l-3.4-1.9    C197.8,422.9,196.8,423.3,196.6,424.2z"></path>			<path d="M236.1,445.3C236.1,445.3,236.1,445.3,236.1,445.3c-3.7-0.1-7.5-0.1-11.2-0.2c-11.1-0.1-21.7-0.2-27-1.5    c-2.8-0.7-4.6-3.3-4.3-6.1c0.5-4.1,1.8-10.9,2.4-13.4c0.2-0.6,0.6-1,1.1-1.3c0.6-0.2,1.2-0.2,1.7,0.1l3.4,1.9    c2,1.1,5.3,1.2,7.3,0.1c1.2-0.7,2.1-1.4,2.1-1.4c0.2-0.1,0.4-0.2,0.6-0.1c4.6,2.4,9.3,4.3,13.4,6c9.5,3.8,16.3,6.6,14.4,12.6    C239.3,444.5,237.5,445.3,236.1,445.3z M197.9,423.7c-0.1,0-0.2,0-0.4,0.1c-0.3,0.1-0.5,0.3-0.5,0.6c-0.6,2.5-1.9,9.2-2.4,13.3    c-0.3,2.3,1.2,4.5,3.5,5c5.2,1.3,15.7,1.4,26.8,1.5c3.7,0,7.6,0.1,11.2,0.2c0.4,0,2.2-0.1,3-2.5c1.6-5.1-4.9-7.7-13.8-11.3    c-4.1-1.6-8.6-3.5-13.2-5.9c-0.4,0.3-1.1,0.8-2,1.3c-2.3,1.2-6,1.2-8.3-0.2l-3.4-1.9C198.3,423.7,198.1,423.7,197.9,423.7z     M196.6,424.2L196.6,424.2L196.6,424.2z"></path>		</g>		<g>			<path class="st0" d="M193.8,439.4c0,0.1,0,0.1,0,0.1c-0.3,2.6,2.2,4.1,4.5,5.1c7.2,3.2,36.2,0.6,36.2,0.6s3.9,0,4.9-2.3    c0.2-0.3,0.2-0.9,0.3-1.3c0-0.5,0-0.9-0.1-1.4l-0.3-1c-4,1.6-21.7,2.8-34.7,1.2c-5.4-0.7-8.6-3-10.4-3.9    C194.3,436.6,194,438,193.8,439.4z"></path>			<path d="M213.1,446.8c-6.3,0-12.2-0.4-15-1.6c-2.3-1-5.2-2.7-4.8-5.7c0,0,0-0.1,0-0.2c0,0,0,0,0,0c0.3-1.5,0.5-2.9,0.5-2.9    c0-0.2,0.1-0.3,0.3-0.4c0.1-0.1,0.3-0.1,0.5,0c0.4,0.2,0.8,0.4,1.2,0.7c1.9,1.1,4.7,2.7,9,3.2c12.8,1.6,30.5,0.4,34.4-1.1    c0.1-0.1,0.3,0,0.4,0c0.1,0.1,0.2,0.2,0.3,0.3l0.3,1c0.1,0.5,0.2,1,0.1,1.5c-0.1,0.6-0.2,1.1-0.3,1.4c-1.2,2.6-5.2,2.6-5.4,2.6    C233.8,445.8,223,446.8,213.1,446.8z M194.3,439.5l0,0.1c-0.2,1.8,1.1,3.2,4.2,4.6c7,3.1,35.7,0.5,36,0.5c0.1,0,3.6,0,4.5-2    c0.1-0.2,0.2-0.6,0.2-1.1c0-0.4,0-0.8-0.1-1.2l-0.1-0.5c-4.9,1.5-21.9,2.6-34.4,1c-4.5-0.6-7.4-2.2-9.4-3.3    c-0.2-0.1-0.4-0.2-0.6-0.3C194.5,437.9,194.4,438.7,194.3,439.5z"></path>		</g>		<path d="M213.6,431.1c-0.1,0-0.3-0.1-0.4-0.2c-0.2-0.2-0.1-0.5,0.1-0.7l4.2-3.3c0.2-0.2,0.5-0.1,0.7,0.1c0.2,0.2,0.1,0.5-0.1,0.7   l-4.2,3.3C213.8,431.1,213.7,431.1,213.6,431.1z"></path>		<path d="M219.3,433.3c-0.2,0-0.3-0.1-0.4-0.2c-0.2-0.2-0.1-0.5,0.1-0.7l3.7-2.9c0.2-0.2,0.5-0.1,0.7,0.1c0.2,0.2,0.1,0.5-0.1,0.7   l-3.7,2.9C219.5,433.3,219.4,433.3,219.3,433.3z"></path>	</g>	<path class="st0" d="M200.7,419.9c-2.6,0-5-0.7-7.4-2.3c-2.6-1.7-6.5-9.4-13.7-24.1c-7.7-15.7-17.3-35.2-23.9-41.1  c-5.1-4.6-18.7-7.8-31.9-10.9c-17.1-4-34.8-8.2-40.5-16.3c-2.8-3.9-3.4-7.4-1.9-10.3c3.3-6.4,16.3-6.6,17.7-6.6l56.4,2.7l0.2,0  c0.6,0.1,15.3,3.4,26.6,11.2c9.9,6.8,20.3,19.1,29.7,86.7c0.8,5.5-3.8,9.6-7.3,10.4C203.3,419.7,202,419.9,200.7,419.9z"></path>	<path d="M155.3,313.1c0,0,14.8,3.3,25.9,10.9c9.6,6.6,19.7,19.2,28.8,85.3c0.6,4.4-3.2,7.6-5.8,8.2c-3.7,0.9-6.7,0.5-9.8-1.5  c-5.3-3.4-25.4-54.3-37.3-65.1c-11.9-10.8-62.4-13.1-72.1-26.8c-9.7-13.7,14.2-13.7,14.2-13.7L155.3,313.1z"></path>	<path class="st0" d="M116.7,353.1c-0.2,0-0.4-0.1-0.5-0.3c-0.1-0.2,0-0.6,0.2-0.7c3-1.5,6-3.1,8.8-4.6  c12.5-6.6,24.4-12.9,46.3-16.7c0.3,0,0.5,0.1,0.6,0.4c0,0.3-0.1,0.5-0.4,0.6c-21.8,3.8-33.5,10-46,16.6c-2.9,1.5-5.8,3.1-8.9,4.6  C116.9,353.1,116.8,353.1,116.7,353.1z"></path></g><g>	<polygon points="188.6,233.4 189,233.4 198.1,233.4 193.4,265.5 189,265.5 188.6,265.5 184.2,265.5 179.5,233.4  "></polygon>	<g>		<path class="st0" d="M50.1,226.3c2.5-5.5,9.2-9.1,14.4-11.1c3.6-1.4,7.4-2.2,11.2-2.3l13.6-0.5c5.1-0.4,11.2-0.1,17.8,1   c8.8,1.6,16.7,6.4,22.3,13.3c2.5,3.1,4.8,5.9,5,5.9c7.4,10.3,8.4,12.2,13.7,16c8.9,6.4,24.4,1.2,24.4,1.2c5.2-0.8,7.1,3.1,8,5.2   c1.1,2.6,0,5.7-1,7.8c-0.6,1.3-1.7,2.3-3.1,2.8c-6.7,2.7-29.4,11.2-39.8,5.3c-8.7-4.9-14.5-15.2-19.1-20.2   c-0.5-0.5-1.3-0.1-1.2,0.6c1,11.3,10.3,24.8,13.1,28.6c0.5,0.7,1.3,1.1,2.1,1.2l20.5,2.3c0.3,0,0.6,0.1,0.9,0.3   c1.3,0.7,2.2,2.1,2.4,3.6c0.3,2.4,0.1,6.9-0.6,8.4l-0.7,1.4c-0.6,1.1-1.7,1.8-3,1.8c-10.9,0.2-60.1,0.2-73.4,0.1   c-12.2-0.1-17.1-6.1-23.6-23.1C51.5,269.3,43.4,241.1,50.1,226.3z"></path>		<path d="M102.6,299.7c-10.6,0-20.1,0-24.9,0c-13-0.1-17.9-7.3-24.1-23.4c-2.6-6.8-10.9-35.1-4-50.1c2.6-5.7,9.4-9.3,14.7-11.4   c3.6-1.4,7.4-2.2,11.4-2.4l13.6-0.5c5.6-0.4,11.8,0,17.9,1.1c8.8,1.6,16.8,6.4,22.6,13.5c3.8,4.8,4.7,5.7,4.8,5.8   c0.1,0,0.1,0.1,0.1,0.1c0.8,1.1,1.4,2,2.1,2.9c5.5,7.7,6.8,9.6,11.5,13c8.6,6.2,23.8,1.2,24,1.1c0,0,0.1,0,0.1,0   c5.7-0.9,7.7,3.6,8.5,5.5c1.2,2.7,0.1,5.9-1,8.2c-0.7,1.4-1.9,2.5-3.3,3.1c-5.1,2.1-19.2,7.4-30.4,7.4c-3.7,0-7.2-0.6-9.8-2.1   c-6.3-3.5-11.1-9.9-14.9-14.9c-1.5-2-3-3.9-4.3-5.4c-0.1-0.1-0.2-0.1-0.2-0.1c-0.1,0-0.1,0.1-0.1,0.2c1,11.2,10.2,24.5,13.1,28.4   c0.4,0.6,1.1,1,1.8,1l20.5,2.3c0.3,0,0.7,0.1,1.1,0.4c1.5,0.8,2.5,2.3,2.7,4c0.3,2.4,0.2,7-0.7,8.7l-0.7,1.4   c-0.7,1.3-2,2.1-3.4,2.1C144.2,299.7,121.6,299.7,102.6,299.7z M50.1,226.3l0.5,0.2c-6.6,14.6,1.6,43.1,4,49.3   c6.8,17.8,11.8,22.7,23.2,22.8c13.5,0.1,62.6,0.1,73.4-0.1c1.1,0,2-0.6,2.5-1.6l0.7-1.4c0.7-1.3,0.9-5.7,0.6-8.1   c-0.2-1.4-1-2.6-2.2-3.2c-0.3-0.2-0.6-0.2-0.7-0.2l-20.5-2.3c-1-0.1-1.9-0.6-2.5-1.4c-2.9-3.9-12.2-17.4-13.2-28.9   c0-0.5,0.2-1,0.7-1.2c0.5-0.2,1-0.1,1.4,0.3c1.4,1.5,2.8,3.4,4.4,5.4c3.8,5,8.6,11.2,14.6,14.7c10.2,5.8,32.7-2.6,39.3-5.3   c1.2-0.5,2.2-1.4,2.8-2.6c1-2,2-5,1-7.3c-1.2-2.8-3.1-5.6-7.4-5c-1.1,0.4-16,5.1-24.9-1.3c-4.8-3.5-6.2-5.4-11.7-13.2   c-0.6-0.9-1.3-1.8-2-2.9c-0.4-0.3-1.4-1.5-5-5.9c-5.6-6.9-13.4-11.6-22-13.1c-6.1-1.1-12.2-1.4-17.7-1l-13.6,0.5   c-3.9,0.2-7.6,0.9-11.1,2.3c-5.1,2-11.7,5.5-14.1,10.9L50.1,226.3z"></path>	</g>	<g>		<path class="st0" d="M160.1,298.6H184c0-4-3.3-7.3-7.3-7.3h-9.2C163.4,291.2,160.1,294.5,160.1,298.6z"></path>		<path d="M184,299.1h-23.8c-0.3,0-0.5-0.2-0.5-0.5c0-4.3,3.5-7.8,7.8-7.8h9.2c4.3,0,7.8,3.5,7.8,7.8   C184.5,298.8,184.3,299.1,184,299.1z M160.7,298.1h22.8c-0.3-3.5-3.2-6.3-6.8-6.3h-9.2C163.9,291.7,160.9,294.5,160.7,298.1z"></path>	</g>	<g>		<path class="st0" d="M149.8,288.4c0.4-0.8,1.1-1.5,2-1.8c0.6-0.2,1.2-0.5,1.8-0.8l8.1-4.3c1.5-0.7,3.7,1,5.3,1.5   c4.8,1.6,14.6,5.2,13.8,8.7c-0.9,3.7-9.3,2-12.3,1.2c-0.7-0.2-6.9,2.1-8.9,2.2c-2.7,0.2-3.3-0.5-4.7-1.2c-0.6-0.3-1.3-0.5-2-0.5   c-1.1,0-2.2-0.5-2.9-1.4l0,0c-0.8-1-0.9-2.3-0.3-3.4L149.8,288.4z"></path>		<path d="M158.7,295.6c-1.7,0-2.5-0.4-3.4-1c-0.2-0.1-0.4-0.2-0.6-0.3c-0.5-0.3-1.1-0.4-1.8-0.4c-1.3,0-2.5-0.6-3.3-1.5   c-0.9-1.1-1.1-2.7-0.4-4l0.2-0.3c0,0,0,0,0,0c0.5-1,1.3-1.7,2.3-2c0.5-0.2,1.1-0.4,1.8-0.8l8.1-4.3c1.3-0.6,2.8,0.1,4.2,0.8   c0.5,0.3,1,0.5,1.5,0.7c6.9,2.3,15,5.7,14.1,9.3c-0.2,0.8-0.6,1.4-1.4,1.8c-2.7,1.6-8.4,0.5-11.6-0.3c0,0,0,0,0,0   c-0.3,0-2.1,0.5-3.5,0.9c-2,0.6-4.2,1.2-5.2,1.3C159.3,295.6,159,295.6,158.7,295.6z M150.3,288.6l-0.2,0.3   c-0.5,0.9-0.4,2,0.3,2.8c0.6,0.8,1.5,1.2,2.5,1.2c0.8,0,1.6,0.2,2.2,0.5c0.2,0.1,0.4,0.2,0.6,0.3c1,0.6,1.7,1,3.8,0.8   c1-0.1,3.1-0.7,5-1.3c2.6-0.8,3.6-1,4-0.9c1.9,0.5,8.3,1.9,10.8,0.4c0.5-0.3,0.8-0.7,0.9-1.2c0.5-2.1-4.7-5.2-13.5-8.1   c-0.5-0.2-1-0.4-1.6-0.7c-1.1-0.6-2.4-1.2-3.3-0.8l-8.1,4.3c-0.7,0.4-1.3,0.7-1.9,0.9C151.3,287.3,150.7,287.9,150.3,288.6z"></path>	</g>	<g>		<path class="st0" d="M195.8,244.4c-3.6,0-4.8-2.4-7.1-1.5c-2,0.8-7.7,7.1-13.8,8.4c-1.8,0.4-3.2,1.9-3.4,3.8   c-0.1,1.1-0.1,2.2,0.2,3.1c0.9,2.5,1.1,5.9,11.3,0.1c0,0,1.8-1.4,6.8-4.3c0,0,0.6,15.5,10.6,1.8   C202.2,253.4,202.8,244.3,195.8,244.4z"></path>		<path d="M174.7,262c-0.5,0-0.9-0.1-1.3-0.2c-1.3-0.5-1.7-1.8-2.1-2.9c-0.1-0.2-0.1-0.3-0.2-0.5c-0.3-0.9-0.4-2-0.2-3.4   c0.3-2.1,1.8-3.8,3.8-4.2c4-0.8,8-4.1,10.6-6.2c1.4-1.1,2.3-1.9,3-2.2c1.4-0.6,2.5-0.1,3.6,0.5c1,0.5,2.1,1,3.7,1   c3.1,0,4.6,1.6,5.4,3.1c1.6,3.1,0.8,7.5-0.4,9.2c-3.3,4.5-5.9,6.4-8,5.7c-2.6-0.8-3.3-5.1-3.4-7c-4.4,2.6-6,3.8-6.1,3.8   c0,0,0,0-0.1,0C179.3,260.9,176.6,262,174.7,262z M189.7,243.2c-0.3,0-0.5,0.1-0.8,0.2c-0.6,0.2-1.6,1.1-2.8,2   c-2.7,2.2-6.8,5.5-11.1,6.4c-1.6,0.3-2.8,1.7-3,3.3c-0.2,1.2-0.1,2.2,0.2,2.9c0.1,0.2,0.1,0.3,0.2,0.5c0.3,1,0.6,1.9,1.5,2.3   c1.5,0.6,4.4-0.4,8.9-2.9c0.3-0.2,2.1-1.6,6.8-4.3c0.2-0.1,0.3-0.1,0.5,0c0.2,0.1,0.3,0.2,0.3,0.4c0.1,1.7,0.7,6.2,2.8,6.9   c1.1,0.3,3.2-0.3,6.9-5.4c1.1-1.4,1.7-5.5,0.3-8.1c-0.9-1.7-2.3-2.5-4.4-2.5c0,0-0.1,0-0.1,0l0-0.5l0,0.5c0,0-0.1,0-0.1,0   c-1.8,0-3-0.6-4.1-1.1C190.9,243.5,190.3,243.2,189.7,243.2z"></path>	</g>	<path d="M122.9,280.9C122.8,280.9,122.8,280.9,122.9,280.9c-1.3-0.2-2.7-0.3-4.3-0.5c-14.2-1.4-40.5-4.1-49.7-31.9  c-0.1-0.3,0.1-0.5,0.3-0.6c0.3-0.1,0.5,0.1,0.6,0.3c8.9,27.3,34.9,29.9,48.8,31.3c1.6,0.2,3.1,0.3,4.3,0.5c0.3,0,0.5,0.3,0.4,0.6  C123.3,280.7,123.1,280.9,122.9,280.9z"></path>	<g>		<path d="M184.7,233.8c-0.2,0-0.4-0.1-0.5-0.4l-4.6-15.9l-8.1-4.1c-0.2-0.1-0.3-0.4-0.2-0.7c0.1-0.2,0.4-0.3,0.7-0.2l8.3,4.2   c0.1,0.1,0.2,0.2,0.3,0.3l4.6,16.1c0.1,0.3-0.1,0.5-0.3,0.6C184.8,233.8,184.8,233.8,184.7,233.8z"></path>		<path d="M198.1,233.4l-2.1,14.5c0,0,0,0.1,0,0.1c-0.3,0.9-1.4,1.7-2.1,2.3c-0.9,0.9-1.8,1.8-2.6,2.7c-0.8,0.9-1.7,1.9-2,3   c-0.3,0.7-0.3,1.5,0,2.2c0.1,0.5,0.3,0.9,0.6,1.3c0.7,1.6,2.4,2.8,4.1,3l-0.4,3h-9.2l-4.7-32.1H198.1z"></path>	</g>	<g>		<path class="st0" d="M174.4,251.5c0,0,6.7-1.7,8.4-5.9c2.1-5,6.7-2.4,6.1,1c-0.6,3.6-1.8,4.5-3.9,6c-2.1,1.5-3,1.4-3,1.4   L174.4,251.5z"></path>		<path d="M181.3,255c-0.2,0-0.4-0.1-0.5-0.4c-0.1-0.3,0.1-0.5,0.4-0.6c0,0,1.6-0.4,3.6-1.8c2.1-1.4,3.2-2.2,3.7-5.7   c0.2-1.6-0.7-2.8-1.8-3.2c-1.3-0.4-2.5,0.5-3.3,2.4c-1.8,4.4-8.5,6.1-8.8,6.2c-0.3,0.1-0.5-0.1-0.6-0.4c-0.1-0.3,0.1-0.5,0.4-0.6   c0.1,0,6.5-1.7,8.1-5.6c1.2-2.8,3.1-3.4,4.5-3c1.7,0.5,2.9,2.4,2.6,4.3c-0.6,3.8-2,4.8-4.1,6.3c-2.1,1.5-3.9,2-3.9,2   C181.4,255,181.4,255,181.3,255z"></path>	</g>	<path d="M189.9,256.8c-0.2,0-0.4-0.2-0.5-0.4c-0.7-3.8,4.2-6.8,4.4-6.9c0.2-0.1,0.5-0.1,0.7,0.2c0.1,0.2,0.1,0.5-0.2,0.7  c0,0-4.6,2.7-4,5.8C190.5,256.5,190.3,256.8,189.9,256.8C190,256.8,190,256.8,189.9,256.8z"></path></g><g>	<g>		<path class="st0" d="M96.2,208c0.2-0.7,0.8-1.2,1.6-1.3l5.6-0.2c0.7,0,1.3-0.5,1.5-1.2l1.5-6.3l2.5-1.1c0.2-0.1,0.3-0.3,0.2-0.5   l-2-4.7c-0.6-1.7-0.6-5.5-1.5-5.5c0,0-17-7.4-20.7,1.1c-0.6,1.3-0.6,2.7-0.1,4l0.9,2.7c0.9,2.7,0.9,5.7-0.2,8.3   c-0.2,0.5-1.1,2.3-2.5,4.5c-1.2,1.8-3.7,3.7-5.5,4.9c-1,0.7-1.1,2.1-0.1,2.9c1.8,1.5,4.6,3.6,6.6,4.4c4.7,1.9,7.1,2.4,9.5,2.1   c2.3-0.3,3.7-2.7,2.9-4.9C94.7,212.5,96.2,208,96.2,208z"></path>		<path d="M92.3,222.5c-2.2,0-4.6-0.6-8.5-2.2c-2-0.8-4.8-2.9-6.7-4.5c-0.6-0.5-0.9-1.2-0.9-1.9c0-0.7,0.4-1.4,1-1.8   c1.8-1.2,4.2-3,5.3-4.7c1.4-2.1,2.3-3.9,2.5-4.4c1-2.4,1.1-5.2,0.2-7.9l-0.9-2.7c-0.5-1.5-0.4-3,0.2-4.4c3.8-8.6,19.9-2,21.3-1.4   c0.9,0.1,1.1,1.6,1.4,3.4c0.1,0.9,0.3,1.8,0.5,2.4l2,4.7c0.2,0.5,0,1-0.5,1.2l-2.3,1l-1.4,6.1c-0.2,0.9-1,1.6-2,1.6l-5.6,0.2   c-0.5,0-1,0.4-1.1,0.9c0,0,0,0,0,0c0,0-1.4,4.4,0.2,8.8c0.5,1.3,0.3,2.6-0.4,3.7c-0.6,1-1.7,1.7-2.9,1.8   C93.2,222.5,92.7,222.5,92.3,222.5z M92.8,184.6c-3.2,0-6.1,0.9-7.4,3.7c-0.5,1.1-0.5,2.4-0.1,3.7l0.9,2.7c1,2.9,0.9,6-0.2,8.6   c-0.3,0.7-1.2,2.5-2.6,4.5c-1.2,1.8-3.7,3.7-5.6,5c-0.3,0.2-0.6,0.6-0.6,1c0,0.4,0.2,0.8,0.5,1.1c1.9,1.5,4.6,3.5,6.5,4.3   c4.5,1.8,6.9,2.4,9.3,2.1c0.9-0.1,1.7-0.6,2.2-1.4c0.5-0.8,0.6-1.9,0.3-2.8c-1.7-4.7-0.3-9.1-0.2-9.4c0.3-0.9,1.1-1.6,2-1.6   l5.6-0.2c0.5,0,0.9-0.4,1-0.8l1.5-6.3c0-0.2,0.1-0.3,0.3-0.3l2.4-1.1l-1.9-4.6c-0.2-0.7-0.4-1.7-0.5-2.6c-0.1-0.8-0.3-2.3-0.6-2.5   c0,0-0.1,0-0.1,0C105.3,187.5,98.5,184.6,92.8,184.6z M96.2,208L96.2,208L96.2,208z"></path>	</g>	<path d="M110.3,173.8c-4-1.4-0.1,4.3-13.8-4.6c-5.5-3.5-4.5,4.4-5.9,3.5c-5.2-3.4-5.1-3.3-8.1-3.4c-2-0.1-4.2,3-4.6,5.7  c-0.5,3.5,2.6,12,5.1,18.5c1.3,3.3,5.9,5,8,1.1c0.6-1.1-1.9-4.5,0-5.9c3.5-2.6,3.5,2.8,6.2,2c2.6-0.7,3.7-1.3,6.7-2.7  c3.5-1.7,7,3.7,10.3-1.5C115.9,183.7,115.8,175.7,110.3,173.8z"></path></g><g>	<g>		<polygon class="st0" points="106.1,444.6 71.8,326 37.5,444.6 29.2,444.6 67,310.8 76.6,310.8 114.3,444.6   "></polygon>		<path d="M114.3,445.1h-8.2c-0.2,0-0.4-0.1-0.5-0.4L71.8,327.9L38,444.7c-0.1,0.2-0.3,0.4-0.5,0.4h-8.2c-0.2,0-0.3-0.1-0.4-0.2   c-0.1-0.1-0.1-0.3-0.1-0.4l37.7-133.7c0.1-0.2,0.3-0.4,0.5-0.4l9.7,0c0.2,0,0.4,0.2,0.5,0.4l37.7,133.8c0,0.2,0,0.3-0.1,0.4   C114.6,445,114.5,445.1,114.3,445.1z M106.5,444.1h7.2L76.2,311.3l-8.9,0L29.9,444.1h7.2l34.2-118.2c0.1-0.2,0.3-0.4,0.5-0.4   c0.2,0,0.4,0.1,0.5,0.4L106.5,444.1z"></path>	</g>	<g>					<rect x="29.2" y="300" transform="matrix(-1 -1.224647e-16 1.224647e-16 -1 319.7281 612.7816)" class="st0" width="261.4" height="12.9"></rect>		<path d="M290.6,313.3H29.2c-0.3,0-0.5-0.2-0.5-0.5V300c0-0.3,0.2-0.5,0.5-0.5h261.4c0.3,0,0.5,0.2,0.5,0.5v12.9   C291.1,313.1,290.8,313.3,290.6,313.3z M29.7,312.3h260.4v-11.9H29.7V312.3z"></path>	</g>	<path d="M105.8,310.3c-0.3,0-0.5-0.2-0.5-0.5v-7.2c0-0.3,0.2-0.5,0.5-0.5s0.5,0.2,0.5,0.5v7.2C106.4,310.1,106.1,310.3,105.8,310.3  z"></path></g></svg>