<svg xmlns="http://www.w3.org/2000/svg" xmlns:xlink="http://www.w3.org/1999/xlink" id="Layer_1" x="0px" y="0px" viewBox="0 0 472 475" style="enable-background:new 0 0 472 475;" xml:space="preserve"><style type="text/css">	.st0{fill:#D7D7D7;}	.st1{fill:#FFFFFF;}</style><g>	<g>		<g>			<path class="st0" d="M278.2,201.8c-0.1,0-0.3-0.1-0.4-0.2c-0.2-0.2-0.2-0.5,0-0.7l1.6-1.6c0.2-0.2,0.5-0.2,0.7,0    c0.2,0.2,0.2,0.5,0,0.7l-1.6,1.6C278.4,201.8,278.3,201.8,278.2,201.8z"></path>		</g>		<g>			<path class="st0" d="M270.3,209.5c-0.1,0-0.3-0.1-0.4-0.2c-0.2-0.2-0.2-0.5,0-0.7l1.6-1.6c0.2-0.2,0.5-0.2,0.7,0    c0.2,0.2,0.2,0.5,0,0.7l-1.6,1.6C270.6,209.5,270.4,209.5,270.3,209.5z"></path>		</g>		<g>			<path class="st0" d="M272,201.8c-0.1,0-0.3-0.1-0.4-0.2L270,200c-0.2-0.2-0.2-0.5,0-0.7c0.2-0.2,0.5-0.2,0.7,0l1.6,1.7    c0.2,0.2,0.2,0.5,0,0.7C272.3,201.7,272.1,201.8,272,201.8z"></path>		</g>		<g>			<path class="st0" d="M279.7,209.7c-0.1,0-0.3-0.1-0.4-0.2l-1.6-1.7c-0.2-0.2-0.2-0.5,0-0.7c0.2-0.2,0.5-0.2,0.7,0l1.6,1.7    c0.2,0.2,0.2,0.5,0,0.7C280,209.6,279.8,209.7,279.7,209.7z"></path>		</g>	</g>	<g>		<g>			<path class="st0" d="M323.2,406.2c-0.3,0-0.5-0.2-0.5-0.5c0-0.3,0.2-0.5,0.5-0.5l2.3,0c0,0,0,0,0,0c0.3,0,0.5,0.2,0.5,0.5    c0,0.3-0.2,0.5-0.5,0.5L323.2,406.2C323.2,406.2,323.2,406.2,323.2,406.2z"></path>		</g>		<g>			<path class="st0" d="M312.2,406.2c-0.3,0-0.5-0.2-0.5-0.5c0-0.3,0.2-0.5,0.5-0.5l2.3,0c0,0,0,0,0,0c0.3,0,0.5,0.2,0.5,0.5    c0,0.3-0.2,0.5-0.5,0.5L312.2,406.2C312.2,406.2,312.2,406.2,312.2,406.2z"></path>		</g>		<g>			<path class="st0" d="M318.9,401.8c-0.3,0-0.5-0.2-0.5-0.5l0-2.3c0-0.3,0.2-0.5,0.5-0.5c0.3,0,0.5,0.2,0.5,0.5l0,2.3    C319.4,401.6,319.2,401.8,318.9,401.8z"></path>		</g>		<g>			<path class="st0" d="M318.9,412.9c-0.3,0-0.5-0.2-0.5-0.5l0-2.3c0-0.3,0.2-0.5,0.5-0.5c0.3,0,0.5,0.2,0.5,0.5l0,2.3    C319.4,412.7,319.2,412.9,318.9,412.9z"></path>		</g>	</g></g><g>	<path class="st1" d="M408.3,285.7c-5.9,0-12.3-1-19.2-2.9l-0.9-0.3l-36.3-87.2l2.7-0.1c0,0,3.7-1,5.1-10.6c0.1-1,0.3-2.1,0.4-3.1  c1.4-10.4,2.6-20.3,13.6-23.5c2.2-0.7,4.6-1,7-1c6,0,11.5,2.1,15,5.7c2.7,2.8,4.1,6.4,4,10.5c-0.4,12.6,1.9,20.2,7.3,24.2  c2.9,2.2,5.2,3.1,7.7,4.2c4.7,2,10.1,4.2,20.7,14.5c10.9,10.7,14.4,31.5,7.9,47.5C437.4,277.8,425,285.7,408.3,285.7z"></path>	<path d="M354.8,197.2c0,0,5.2-0.7,6.8-12.3c1.6-11.6,1.9-21.8,12.6-24.9c10.6-3.2,23.8,1.9,23.4,13.2c-0.3,11.2,1.3,20.9,8.1,25.8  c8.7,6.4,12.1,2.8,28.2,18.5c20.3,19.8,14.4,79.9-44.3,63.4L354.8,197.2z"></path></g><g>	<g>		<path class="st1" d="M369.3,187.3c0,0,1.7,1.9,5.4,1.3L369.3,187.3z"></path>	</g>	<g>		<path d="M373.2,189.2c-2.8,0-4.2-1.5-4.3-1.6c-0.2-0.2-0.2-0.5,0-0.7c0.2-0.2,0.5-0.2,0.7,0c0.1,0.1,1.6,1.7,4.9,1.1   c0.3-0.1,0.5,0.1,0.6,0.4s-0.1,0.5-0.4,0.6C374.2,189.1,373.7,189.2,373.2,189.2z"></path>	</g></g><g>	<g>		<g>			<g>				<path class="st1" d="M370.6,415.5c0,0-3,9.3-6.1,12.2c-3,2.9-15.2,8.5-15.3,14.6c-0.2,7.1,3.9,8.4,14.9,5.8     c8-1.8,14.5-6.7,16.9-9.5c2.1-2.5,0.9-4.5,0.4-7.4c-0.6-3.5-0.7-7.1-0.7-10.7v-5.9L370.6,415.5z"></path>			</g>			<g>				<path d="M355.8,449.8c-2.3,0-3.9-0.5-5.1-1.4c-1.5-1.2-2.1-3.2-2.1-6.1c0.1-4.7,6.7-8.9,11.4-12c1.8-1.1,3.3-2.1,4.1-2.9     c2.9-2.7,5.9-11.9,6-12c0.1-0.2,0.2-0.3,0.4-0.3l10-0.9c0.1,0,0.3,0,0.4,0.1c0.1,0.1,0.2,0.2,0.2,0.4v5.9     c0,3.2,0.1,6.9,0.7,10.6c0.1,0.6,0.2,1.1,0.3,1.6c0.5,2.1,0.9,4-0.9,6.2c-2.3,2.7-9,7.8-17.1,9.7     C360.7,449.4,358,449.8,355.8,449.8z M371,416c-0.6,1.7-3.3,9.4-6.1,12.1c-0.9,0.8-2.4,1.8-4.2,3c-4.6,3-10.8,7.1-11,11.2     c-0.1,2.6,0.5,4.3,1.7,5.3c1.9,1.6,5.8,1.6,12.6,0c7.9-1.8,14.4-6.7,16.6-9.3c1.5-1.8,1.1-3.3,0.7-5.3c-0.1-0.5-0.3-1.1-0.4-1.7     c-0.7-3.7-0.7-7.6-0.7-10.8v-5.3L371,416z"></path>			</g>		</g>		<g>			<path d="M349.6,445.7c-0.3,0-0.5-0.2-0.5-0.5c0-0.3,0.2-0.5,0.5-0.5l3.9-0.3c9.9-0.7,19.2-5,26.1-12c0.9-0.9,1.4-1.5,1.4-1.5    c0.2-0.2,0.5-0.2,0.7-0.1c0.2,0.2,0.2,0.5,0.1,0.7c0,0-0.5,0.6-1.5,1.6c-7.1,7.2-16.6,11.6-26.7,12.3L349.6,445.7    C349.7,445.7,349.6,445.7,349.6,445.7z"></path>		</g>		<g>			<path d="M373.3,430.7C373.2,430.7,373.2,430.7,373.3,430.7c-0.3,0-5.6-0.9-7.7-3.7c-0.2-0.2-0.1-0.5,0.1-0.7    c0.2-0.2,0.5-0.1,0.7,0.1c1.9,2.4,6.9,3.3,7,3.3c0.3,0,0.5,0.3,0.4,0.6C373.7,430.5,373.5,430.7,373.3,430.7z"></path>		</g>		<g>			<path d="M368.6,433.9c0,0-0.1,0-0.1,0c-0.2,0-5.2-1.1-6.9-3.9c-0.1-0.2-0.1-0.5,0.2-0.7c0.2-0.1,0.5-0.1,0.7,0.2    c1.4,2.4,6.2,3.4,6.2,3.4c0.3,0.1,0.4,0.3,0.4,0.6C369,433.7,368.8,433.9,368.6,433.9z"></path>		</g>		<g>			<path d="M363.6,436.8c-0.1,0-0.1,0-0.2,0c-0.2-0.1-4.3-1.6-5.6-4.4c-0.1-0.3,0-0.6,0.2-0.7c0.2-0.1,0.6,0,0.7,0.2    c1.1,2.4,5,3.8,5.1,3.8c0.3,0.1,0.4,0.4,0.3,0.6C364,436.7,363.8,436.8,363.6,436.8z"></path>		</g>	</g>	<g>		<g>			<g>				<path class="st1" d="M394.1,392.6c0.4,0,5.7-0.5,8.7-0.8c1.2-0.1,2.3,0.7,2.4,1.9l0.6,5.6c0.2,2,0.6,3.9,1.2,5.8     c1,3.4,2.5,9.4,1.7,12.1c-0.9,2.9-3.6,6.9-5.4,9.2c-0.8,1.1-2.2,1.5-3.5,1.1c-2.3-0.8-5.9-2.2-8-4.4c-3.3-3.3,0.3-9.6,0.3-9.6     L394.1,392.6z"></path>			</g>			<g>				<path d="M400.8,428c-0.4,0-0.8-0.1-1.2-0.2c-2.6-0.9-6.1-2.3-8.2-4.5c-3.3-3.3-0.3-9.2,0.1-10.1l2.1-20.7c0-0.3,0.2-0.5,0.5-0.5     c0.3,0,3.5-0.3,8.7-0.8c1.5-0.1,2.8,0.9,2.9,2.4l0.6,5.6c0.2,1.9,0.6,3.8,1.1,5.7c1.2,4.1,2.5,9.7,1.7,12.4     c-0.9,2.9-3.5,6.8-5.5,9.4C403,427.5,401.9,428,400.8,428z M394.6,393l-2.1,20.4c0,0.1,0,0.1-0.1,0.2c0,0.1-3.3,6-0.3,9     c2.1,2.1,5.8,3.6,7.9,4.2c1.1,0.4,2.2,0,2.9-0.9c2.1-2.7,4.5-6.5,5.3-9c0.8-2.6-0.7-8.5-1.7-11.8c-0.6-1.9-1-3.9-1.2-5.9     l-0.6-5.6c-0.1-0.9-0.9-1.6-1.8-1.5C398.4,392.7,395.6,393,394.6,393z M392,413.4L392,413.4L392,413.4z"></path>			</g>		</g>		<g>			<path d="M398.4,427.1c-0.1,0-0.2,0-0.3-0.1c-0.2-0.2-0.3-0.5-0.1-0.7c6.2-8.8,5.8-11.1,4.9-16c-0.2-1.1-0.4-2.3-0.6-3.8    c-0.5-3.8-2-14.2-2-14.3c0-0.3,0.2-0.5,0.4-0.6c0.3,0,0.5,0.2,0.6,0.4c0,0.1,1.5,10.5,2,14.3c0.2,1.4,0.4,2.6,0.6,3.7    c0.9,5.1,1.4,7.6-5.1,16.8C398.7,427,398.5,427.1,398.4,427.1z"></path>		</g>		<g>			<path d="M399.3,411.2C399.2,411.2,399.2,411.2,399.3,411.2l-6-0.9c-0.3,0-0.5-0.3-0.4-0.6c0-0.3,0.3-0.5,0.6-0.4l6,0.9    c0.3,0,0.5,0.3,0.4,0.6C399.7,411,399.5,411.2,399.3,411.2z"></path>		</g>		<g>			<path d="M398.6,415.5C398.6,415.5,398.6,415.5,398.6,415.5l-6-0.9c-0.3,0-0.5-0.3-0.4-0.6c0-0.3,0.3-0.5,0.6-0.4l6,0.9    c0.3,0,0.5,0.3,0.4,0.6C399.1,415.3,398.9,415.5,398.6,415.5z"></path>		</g>	</g>	<g>		<g>			<path class="st1" d="M375,401.2c-0.8,0-1.7-0.3-2.4-0.8c-8.1-5.5-18-19.2-24.9-29.6c-4.1-6.3-6.5-13.5-6.7-21l-2-63l60.1-3.4    l-0.2,2.3c0,0.3-2.5,28.8-6.5,57c-2.3,16.6-4.7,29.8-7,39.3C382.1,395.4,379,401.2,375,401.2C375,401.2,375,401.2,375,401.2z"></path>			<path d="M396.9,285.5l-55.8,3.1l1.9,61.1c0.2,7.1,2.4,14.1,6.4,20c6.3,9.5,16.4,23.6,24.4,29    C386.3,407.4,396.9,285.5,396.9,285.5z"></path>		</g>		<g>			<path class="st1" d="M379.7,422.9c-3.5,0-7.4-0.6-11.4-1.9l-1.5-0.5l5.8-133.2l27-5.3l0.2,2.3c0,0.3,3,32.9-0.3,65.3    c-3,29.9-3.1,55.6-3.1,62.8c0,2.7-1.2,5.1-3.3,6.6C390.7,420.8,386.3,422.9,379.7,422.9z"></path>			<path d="M392.2,417.2c-3.5,2.5-10.9,5.7-23.2,1.8l5.7-130l23.3-4.6c0,0,3,32.3-0.3,64.8c-3,29.7-3.1,55-3.1,63    C394.6,414.3,393.7,416.1,392.2,417.2z"></path>		</g>		<g>			<path class="st1" d="M369.1,396.7C369.1,396.7,369.1,396.7,369.1,396.7c-0.3,0-0.5-0.2-0.5-0.5l1.8-39.6c0-0.3,0.2-0.5,0.5-0.5    c0.3,0,0.5,0.2,0.5,0.5l-1.8,39.6C369.6,396.4,369.4,396.7,369.1,396.7z"></path>		</g>	</g></g><g>	<g>		<g>			<path class="st1" d="M305.2,185.4c0.4-0.1,0.6-0.4,0.6-0.8c0-1.9-0.4-7.8-3.7-10.5c-4-3.2-7.3-10.7-9.7-10    c-2.4,0.7,2.9,7.2,2.3,7.9c-0.6,0.7-1.9-1.7-3.2-4.1c-1.3-2.4-0.1-2.9-2.1-2.8c-2.6,0.2-4.4,0.6-0.9,8.4    c3.3,7.4,9.9,7.2,10.8,12.1c0.1,0.4,0.5,0.7,0.9,0.6L305.2,185.4z"></path>		</g>		<g>			<path d="M300.1,186.9c-0.3,0-0.5-0.1-0.7-0.2c-0.3-0.2-0.5-0.5-0.5-0.8c-0.4-2.2-2-3.2-4-4.6c-2.2-1.5-5-3.4-6.8-7.4    c-1.9-4.3-2.4-6.6-1.7-7.9c0.6-1,1.9-1.1,3-1.2c1.3-0.1,1.7,0.1,1.9,1.1c0.1,0.4,0.2,1,0.7,1.9l0.3,0.6c0.5,0.9,1.2,2.1,1.7,2.8    c-0.2-0.4-0.5-1-0.7-1.4c-1.3-2.4-2.2-4.1-1.8-5.3c0.2-0.4,0.5-0.6,0.9-0.8c1.7-0.5,3.4,1.8,5.6,4.7c1.4,1.9,3,4,4.6,5.3    c3.4,2.8,3.9,8.5,3.9,10.8c0,0.6-0.4,1.2-1,1.3c0,0,0,0,0,0l-5,1C300.2,186.9,300.1,186.9,300.1,186.9z M289.9,165.7    c-0.1,0-0.3,0-0.5,0c-1,0.1-1.9,0.2-2.2,0.7c-0.5,0.9,0,3.2,1.7,7c1.7,3.7,4.2,5.5,6.4,7c2.1,1.4,4,2.7,4.4,5.3    c0,0.1,0.1,0.1,0.1,0.2c0.1,0,0.1,0.1,0.2,0l5-1c0.1,0,0.2-0.1,0.2-0.3c0-1.7-0.4-7.5-3.5-10.1c-1.7-1.4-3.3-3.6-4.8-5.5    c-1.7-2.3-3.5-4.7-4.5-4.4c-0.2,0-0.2,0.1-0.2,0.2c-0.3,0.8,0.9,2.9,1.7,4.4c1.1,1.9,1.5,2.7,1,3.2c-0.2,0.2-0.4,0.3-0.7,0.3    c-0.8-0.1-1.6-1.4-3-4l-0.3-0.6c-0.6-1-0.7-1.7-0.8-2.2c0-0.1-0.1-0.3-0.1-0.3C290.1,165.7,290.1,165.7,289.9,165.7z     M305.2,185.4L305.2,185.4L305.2,185.4z"></path>		</g>	</g>	<g>		<g>			<path class="st1" d="M423.3,301c0.4-0.1,0.7,0.1,0.8,0.5c0.6,1.5,2.5,5.2,5.3,6.6c2,1,3.8,1.6,6.3,3.9s6.7,8.3,5.7,9.8    c-1.1,1.8-4.6,0-7.3-1.7c-2.7-1.6-5.3-5.6-8-6c-2.6-0.4,2.9,5.9,2.1,6.9c-0.8,1-3.6-0.5-5.4-3.5c-0.7-1.2-5-11.5-6.3-14.7    c-0.2-0.5,0.1-1,0.6-1.1L423.3,301z"></path>		</g>		<g>			<path d="M440,323.1c-1.7,0-4-1.2-6-2.5c-1.1-0.7-2.2-1.7-3.3-2.7c-1.5-1.4-3.1-2.9-4.5-3.1c-0.1,0-0.1,0-0.1,0    c0,0.5,0.9,2,1.4,2.9c1.2,2,1.8,3.2,1.3,3.9c-0.2,0.2-0.6,0.5-1.3,0.5c-1.5-0.1-3.6-1.8-5-4c-0.7-1.2-4.6-10.7-6.3-14.7    c-0.1-0.4-0.1-0.8,0.1-1.1c0.2-0.3,0.5-0.6,0.9-0.6l6-1c0.6-0.1,1.1,0.2,1.4,0.8c0.6,1.5,2.4,5.1,5.1,6.4    c0.3,0.2,0.6,0.3,0.9,0.5c1.6,0.8,3.3,1.6,5.4,3.6c1.9,1.8,7.1,8.4,5.8,10.5C441.4,322.9,440.8,323.1,440,323.1z M426,313.8    c0.1,0,0.2,0,0.3,0c1.7,0.3,3.4,1.9,5,3.4c1,1,2.1,2,3.1,2.6c3.7,2.3,5.9,2.9,6.6,1.8c0.6-1-2.8-6.5-5.7-9.2    c-2-1.9-3.5-2.6-5.2-3.4c-0.3-0.1-0.6-0.3-1-0.5c-3-1.5-4.9-5.3-5.5-6.9c0-0.1-0.2-0.2-0.3-0.2c0,0,0,0,0,0l-6,1    c-0.1,0-0.2,0.1-0.2,0.1c0,0-0.1,0.1,0,0.2c2.6,6.5,5.7,13.7,6.2,14.6c1.3,2.1,3.1,3.5,4.2,3.5c0.2,0,0.3,0,0.4-0.1    c0-0.4-0.8-1.9-1.4-2.7c-1.2-2.1-1.9-3.3-1.4-4C425.3,314,425.5,313.8,426,313.8z M423.3,301L423.3,301L423.3,301z"></path>		</g>	</g>	<g>		<g>			<g>				<path class="st1" d="M368.1,196.4c-5-1.1-8.7-2.2-13.8-1.9c-5.8,0.3-8.8-0.3-13.6,2.2c-9,4.5-12.6,16.9-17.9,14.7     c-5.3-2.2-16.2-30.5-16.2-30.5l-9.5,4c0,0,12.1,52.4,21.7,55.6c9.6,3.1,21.4-11.8,21.4-11.8s0.4,38-5.9,63.2     c0,0,9.9-0.1,16.4,2.6c34.4,14.3,49-2.6,49-2.6c-0.2-9.8-2.4-16.5-9.4-27.4c-3.8-6-5-15.6,2.7-24.3c0,0,18.6,57.3,22,64.1     c0.2,0.5,11.7-2.1,11.7-2.3c1.8-20.5-12.2-58.9-14.3-68.2c-0.6-2.8-1.4-5.6-2.6-8.3c-3.5-8.3-11.2-21.9-25.7-25.4L368.1,196.4z"></path>			</g>			<g>				<path d="M415.2,304.7c-0.6,0-0.6-0.1-0.7-0.3c-3.2-6.3-19.3-55.8-21.8-63.3c-7,8.5-5.5,17.6-2,23c7,10.8,9.3,17.5,9.5,27.6     c0,0.1,0,0.2-0.1,0.3c-0.2,0.2-3.8,4.4-11.8,6.8c-7.3,2.2-19.8,3.4-37.7-4.1c-6.3-2.6-16.1-2.6-16.2-2.6c0,0,0,0,0,0     c-0.2,0-0.3-0.1-0.4-0.2c-0.1-0.1-0.1-0.3-0.1-0.4c5.5-22.1,5.9-54.6,5.9-61.7c-2.6,3.1-10.5,11.4-18,11.4c-1,0-2-0.1-3-0.5     c-9.8-3.2-21.6-53.8-22-56c-0.1-0.2,0.1-0.5,0.3-0.6l9.5-4c0.1-0.1,0.3-0.1,0.4,0c0.1,0.1,0.2,0.2,0.3,0.3     c3,7.8,11.7,28.5,15.9,30.2c2.5,1,4.7-1.8,7.5-5.3c2.7-3.4,5.7-7.2,10-9.4c3.9-1.9,6.6-2,10.4-2.1c1.1,0,2.2-0.1,3.5-0.1     c4.5-0.2,8,0.6,12,1.5c0.6,0.1,1.3,0.3,1.9,0.4l15.9,3.6c14.8,3.5,22.7,17.6,26.1,25.7c1.1,2.6,1.9,5.3,2.6,8.3     c0.5,2.2,1.6,6,3.1,10.7c4.7,15.6,12.7,41.8,11.2,57.6c0,0.4,0,0.5-3,1.2c-1.6,0.4-3.5,0.8-5.1,1.1     C416.9,304.6,415.8,304.7,415.2,304.7z M392.9,239.6c0,0,0.1,0,0.1,0c0.2,0,0.3,0.2,0.4,0.3c0.2,0.6,18.2,56.2,21.9,63.8     c1.4,0,9.3-1.7,10.9-2.2c1.3-15.6-6.5-41.5-11.2-56.9c-1.5-4.8-2.6-8.6-3.1-10.8c-0.7-3-1.5-5.7-2.5-8.2     c-3.3-7.9-11-21.7-25.4-25.1l-15.9-3.6c-0.7-0.2-1.3-0.3-1.9-0.4c-4.1-1-7.3-1.7-11.7-1.5c-1.3,0.1-2.5,0.1-3.5,0.1     c-3.8,0.1-6.3,0.1-10,2c-4.1,2.1-7.1,5.8-9.7,9.1c-2.9,3.7-5.5,6.9-8.7,5.6c-5.1-2.1-14.7-26.4-16.2-30.3l-8.6,3.6     c1.2,4.9,12.5,51.9,21.3,54.8c9.2,3,20.7-11.5,20.8-11.7c0.1-0.2,0.4-0.2,0.6-0.2c0.2,0.1,0.3,0.3,0.3,0.5     c0,0.4,0.3,37.7-5.7,62.7c2.3,0,10.3,0.3,15.9,2.7c17.6,7.3,29.8,6.2,37,4c6.9-2.1,10.6-5.7,11.3-6.4     c-0.2-9.8-2.5-16.4-9.3-26.9c-3.7-5.8-5.3-15.8,2.7-24.9C392.7,239.7,392.8,239.6,392.9,239.6z"></path>			</g>		</g>		<g>			<path d="M362,291.2c-0.2,0-0.4-0.1-0.5-0.3l-13.6-27.8c-0.1-0.2,0-0.6,0.2-0.7c0.2-0.1,0.6,0,0.7,0.2l13.6,27.8    c0.1,0.2,0,0.6-0.2,0.7C362.2,291.2,362.1,291.2,362,291.2z"></path>		</g>		<g>			<path d="M350.1,282c-0.2,0-0.4-0.1-0.5-0.3l-3.7-9c-0.1-0.3,0-0.6,0.3-0.7c0.3-0.1,0.6,0,0.7,0.3l3.7,9c0.1,0.3,0,0.6-0.3,0.7    C350.2,282,350.1,282,350.1,282z"></path>		</g>	</g>	<g>		<g>			<path class="st1" d="M290.4,182.2c-1.9,0-3.4-1.5-3.5-3.3l-1.1-21.1c-0.1-1,0.3-1.9,1-2.6c0.7-0.7,1.6-1.1,2.6-1.1H303    c1,0,1.9,0.4,2.6,1.1c0.7,0.7,1,1.6,1,2.6l-1,21.1c-0.1,1.9-1.6,3.4-3.5,3.4H290.4z"></path>			<path d="M302,180.2h-11.6c-0.8,0-1.5-0.6-1.5-1.4l-1.1-21.1c0-0.9,0.6-1.6,1.5-1.6H303c0.9,0,1.6,0.7,1.5,1.6l-1,21.1    C303.5,179.6,302.8,180.2,302,180.2z"></path>		</g>		<g>			<path class="st1" d="M301.8,179.3c-0.8,0-1.6-0.4-2-1c-0.8-1.1-0.6-2.7,0.6-3.5c7-5.1,8.5-11.4,7.5-12.8    c-0.1-0.1-0.2-0.3-0.7-0.3s-1.8,0.2-4,1.5c-0.4,0.2-0.8,0.4-1.3,0.4c-0.9,0-1.7-0.5-2.2-1.2c-0.3-0.6-0.4-1.2-0.3-1.9    s0.6-1.2,1.1-1.5c2.5-1.5,4.7-2.2,6.6-2.2c2.1,0,3.9,0.9,4.9,2.5c3.2,4.8-0.8,13.8-8.8,19.6C302.8,179.2,302.3,179.3,301.8,179.3    z"></path>			<path d="M301.8,177.3c-0.2,0-0.3-0.1-0.4-0.2c-0.2-0.2-0.1-0.5,0.1-0.7c7.5-5.5,9.8-12.8,8-15.5c-1.2-1.7-3.9-1.5-7.5,0.6    c-0.2,0.1-0.5,0.1-0.7-0.2c-0.1-0.2-0.1-0.5,0.2-0.7c5.9-3.5,8.1-1.4,8.8-0.3c2.3,3.5-0.8,11.4-8.3,16.9    C302,177.3,301.9,177.3,301.8,177.3z"></path>		</g>	</g>	<g>		<g>			<path class="st1" d="M289,176.2c-5.2-7.7-4.2-11.3-1.3-13.5c0.2-0.1,0.4-0.1,0.6,0c5.7,4,7.1,8.5,3,13.6    C290.7,177,289.5,177,289,176.2z"></path>		</g>		<g>			<path d="M290.2,177.3C290.2,177.3,290.1,177.3,290.2,177.3c-0.7,0-1.3-0.3-1.6-0.9c-4.7-6.9-5-11.3-1.2-14.2    c0.3-0.3,0.8-0.3,1.2,0c3.3,2.3,5.2,4.8,5.5,7.3c0.3,2.3-0.5,4.6-2.4,7C291.3,177.1,290.8,177.3,290.2,177.3z M288,163.1    c-2.2,1.7-4.1,4.7,1.4,12.8c0.2,0.3,0.4,0.4,0.8,0.4c0.3,0,0.6-0.1,0.8-0.3c1.7-2.2,2.5-4.3,2.2-6.2    C292.8,167.4,291.1,165.2,288,163.1z"></path>		</g>	</g></g><g>	<g>		<path class="st1" d="M369.5,187.5c-3.6-2.4,0.5-17.1,4.5-19.3c4-2.2,12.5,0.2,12.5,0.2c-3.1,10.3,2.5,12.9,3.3,12.9   c0.8,0,3.3,0.1,1.7,3.5c-1.6,3.3-5.1,1.5-5.1,1.5c-0.7,0.6-2,1.3-3.7,1.9c-2,5.8,0.2,10.4,2,12.9c0.9,1.3,0.3,3.2-1.3,3.5   c-2.5,0.6-6.3,0.9-11.1-0.3c-3.7-1-6.1-2.3-7.8-3.5c-1.3-1-1.1-3.1,0.4-3.8C369.1,195.2,371.9,189.2,369.5,187.5z"></path>	</g>	<g>		<path d="M378.8,205.8c-1.9,0-4.1-0.2-6.5-0.9c-3.2-0.9-5.9-2.1-7.9-3.6c-0.8-0.6-1.2-1.5-1.1-2.5c0.1-1,0.7-1.8,1.6-2.2   c2.8-1.3,4.9-4.6,5.1-6.8c0.1-0.6,0-1.4-0.6-1.9c-1.2-0.8-1.7-2.7-1.6-5.5c0.3-5.3,3.1-13,6.1-14.6c4.2-2.2,12.5,0.1,12.9,0.2   c0.1,0,0.2,0.1,0.3,0.2c0.1,0.1,0.1,0.3,0,0.4c-1.7,5.6-0.7,8.7,0.4,10.4c1,1.4,2.2,1.9,2.4,1.9c1.5,0,2.1,0.6,2.4,1   c0.5,0.7,0.4,1.8-0.3,3.2c-0.5,1.1-1.2,1.8-2.2,2.1c-1.3,0.5-2.7,0-3.3-0.2c-0.8,0.6-2,1.2-3.4,1.7c-1.7,5.4,0.2,9.6,2,12.3   c0.5,0.8,0.7,1.7,0.3,2.6c-0.3,0.9-1,1.5-1.9,1.7C382.4,205.6,380.8,205.8,378.8,205.8z M369.8,187.1c0.8,0.5,1.2,1.5,1.1,2.8   c-0.2,2.5-2.4,6.2-5.6,7.6c-0.5,0.3-0.9,0.8-1,1.4c-0.1,0.6,0.2,1.2,0.7,1.6c1.9,1.5,4.5,2.6,7.6,3.5c4.8,1.3,8.6,0.9,10.9,0.3   c0.6-0.1,1-0.5,1.2-1.1c0.2-0.6,0.1-1.2-0.2-1.7c-2.1-2.9-4.1-7.5-2.1-13.4c0-0.1,0.2-0.3,0.3-0.3c1.5-0.6,2.9-1.3,3.5-1.8   c0.2-0.1,0.4-0.2,0.6-0.1c0,0,1.5,0.7,2.8,0.3c0.7-0.2,1.2-0.8,1.6-1.6c0.5-1,0.6-1.8,0.3-2.2c-0.2-0.4-0.8-0.6-1.6-0.6   c-0.5,0-1.9-0.5-3.1-2.1c-1.3-1.8-2.5-5.1-0.8-10.9c-1.8-0.5-8.4-1.9-11.6-0.1c-2.4,1.3-5.3,8.4-5.6,13.8   C368.6,184.9,369,186.5,369.8,187.1z"></path>	</g></g><g>	<g>		<g>			<g>				<path class="st1" d="M271.2,88.9c-0.7-8.5,0-20.7,7.3-30.8c20.2-28,79.3-23.9,90.7-1c5.8,11.6-0.5,28.3-9.9,37.5     c-13.9,13.6-37.4,13.5-51.7,5.3c-13.6-7.8-17.9-22.2-26.5-20.9C276.4,79.7,273.1,84.9,271.2,88.9z"></path>			</g>			<g>				<path d="M330.3,106c-8.2,0-16.4-2-22.9-5.7c-6.3-3.6-10.5-8.5-14.2-12.8c-4.2-4.9-7.5-8.7-12-8c-3.6,0.6-6.8,3.8-9.5,9.6     c-0.1,0.2-0.3,0.3-0.5,0.3c-0.2,0-0.4-0.2-0.4-0.5c-1-12.5,1.5-23,7.4-31.1c5.2-7.2,13.4-12.8,23.6-16.2     c9.1-3,19.9-4.2,30.4-3.4c18.2,1.5,32.6,8.6,37.6,18.6c6,11.9-0.4,28.7-10,38.1c-6.5,6.4-15.7,10.2-26,11     C332.6,105.9,331.5,106,330.3,106z M282.3,78.4c4.4,0,7.6,3.8,11.7,8.5c3.7,4.2,7.8,9.1,14,12.6c13.9,7.9,37.4,8.2,51.1-5.2     c9.1-8.9,15.5-25.6,9.8-36.9c-4.9-9.7-19-16.6-36.8-18c-17.1-1.4-41.3,2.8-53.1,19.2c-5.4,7.5-7.9,17.2-7.3,28.6     c2.7-5.1,5.9-8,9.5-8.5C281.5,78.4,281.9,78.4,282.3,78.4z"></path>			</g>		</g>		<g>			<path d="M349.2,65.8h-49.7c-0.3,0-0.5-0.2-0.5-0.5c0-0.3,0.2-0.5,0.5-0.5h49.7c0.3,0,0.5,0.2,0.5,0.5    C349.7,65.5,349.5,65.8,349.2,65.8z"></path>		</g>		<g>			<path d="M336,74.5h-25c-0.3,0-0.5-0.2-0.5-0.5s0.2-0.5,0.5-0.5h25c0.3,0,0.5,0.2,0.5,0.5S336.3,74.5,336,74.5z"></path>		</g>	</g>	<g>		<g>			<g>				<path class="st1" d="M401.6,143.3c1.3-1.8,15.5-22.5,6.6-46.2c-6.3-16.6-22.3-30.1-40.8-30.8c-3.1-0.1-22.9-0.9-33.5,14.9     c-7.1,10.6-7.9,25.5-1,36.2c8.2,12.8,24,14.7,26.3,14.9c16.3,1.6,25.4-8.8,34.3-3.8C398.9,131.6,400.8,138.5,401.6,143.3z"></path>			</g>			<g>				<path d="M401.6,143.8c0,0-0.1,0-0.1,0c-0.2,0-0.3-0.2-0.4-0.4c-1.2-7.3-3.8-12.1-7.9-14.4c-4.4-2.5-8.8-1-14.5,0.8     c-5.4,1.8-11.6,3.8-19.6,3c-4.3-0.4-18.8-2.8-26.7-15.1c-6.8-10.6-6.4-25.8,1-36.8c9.7-14.4,26.9-15.4,33.9-15.1     c9,0.4,17.7,3.7,25.3,9.6c7.1,5.6,12.8,13.2,16,21.6c9,23.7-5,44.4-6.6,46.7C401.9,143.7,401.7,143.8,401.6,143.8z M388.1,126.6     c1.9,0,3.7,0.4,5.6,1.5c4.1,2.3,6.8,7,8.1,13.9c3.2-4.9,13.8-23.6,5.8-44.7c-6.6-17.6-22.9-29.8-40.4-30.5     c-6.8-0.3-23.6,0.6-33,14.7c-7.2,10.7-7.6,25.4-1,35.7c7.9,12.3,23,14.4,25.9,14.7c7.8,0.8,13.9-1.2,19.2-3     C381.9,127.6,385.1,126.6,388.1,126.6z"></path>			</g>		</g>		<g>			<path d="M392.3,96.3h-46.7c-0.3,0-0.5-0.2-0.5-0.5c0-0.3,0.2-0.5,0.5-0.5h46.7c0.3,0,0.5,0.2,0.5,0.5    C392.8,96.1,392.6,96.3,392.3,96.3z"></path>		</g>		<g>			<path d="M377.2,102.4h-16.7c-0.3,0-0.5-0.2-0.5-0.5c0-0.3,0.2-0.5,0.5-0.5h16.7c0.3,0,0.5,0.2,0.5,0.5    C377.7,102.2,377.5,102.4,377.2,102.4z"></path>		</g>	</g></g><g>	<path class="st1" d="M58.6,431.4c-8.7,0-15.7-7.1-15.7-15.9L25.5,50.8c0-8.9,7-16,15.7-16H219c8.7,0,15.7,7.1,15.7,15.9l17.3,364.7  c0,8.9-7,16-15.7,16H58.6z"></path>	<path d="M58.6,429.4h177.8c7.6,0,13.7-6.2,13.7-13.9L232.7,50.7c0-7.7-6.1-13.9-13.7-13.9H41.2c-7.6,0-13.7,6.2-13.7,13.9  l17.3,364.8C44.9,423.2,51,429.4,58.6,429.4z"></path></g><g>	<path class="st1" d="M70.6,429.5h177.8c7.6,0,13.7-6.2,13.7-13.8L244.8,51.5c0-7.6-6.1-13.8-13.7-13.8H53.3  c-7.6,0-13.7,6.2-13.7,13.8l17.3,364.2C56.9,423.3,63,429.5,70.6,429.5z"></path></g><g>	<path d="M230.7,429.5h-36.6c-0.3,0-0.5-0.2-0.5-0.5c0-0.3,0.2-0.5,0.5-0.5h36.6c0.3,0,0.5,0.2,0.5,0.5  C231.2,429.3,231,429.5,230.7,429.5z"></path></g><g>	<path d="M174.9,429.5H70.6c-7.8,0-14.2-6.4-14.2-14.3l-6.6-123.3c0-0.3,0.2-0.5,0.5-0.5c0.3,0,0.5,0.2,0.5,0.5l6.6,123.3  c0,7.4,5.9,13.4,13.2,13.4h104.3c0.3,0,0.5,0.2,0.5,0.5C175.4,429.3,175.1,429.5,174.9,429.5z"></path></g><g>	<path d="M45.3,175.7c-0.3,0-0.5-0.2-0.5-0.5L39.1,51c0-7.9,6.4-14.4,14.2-14.4h177.8c7.8,0,14.2,6.4,14.2,14.3l1.3,33.1  c0,0.3-0.2,0.5-0.5,0.5c-0.3,0-0.5-0.2-0.5-0.5L244.3,51c0-7.4-5.9-13.4-13.2-13.4H53.3c-7.3,0-13.2,6-13.2,13.3l5.7,124.2  C45.8,175.4,45.6,175.7,45.3,175.7C45.3,175.7,45.3,175.7,45.3,175.7z"></path></g><g>	<g>		<path class="st1" d="M78.9,419.1h162.4c6.9,0,12.5-5.7,12.5-12.6L236.6,61.6c0-7-5.6-12.6-12.5-12.6H61.7   c-6.9,0-12.5,5.7-12.5,12.6l17.1,344.9C66.3,413.4,71.9,419.1,78.9,419.1z"></path>	</g>	<g>		<path d="M241.2,419.6H78.9c-7.2,0-13-5.9-13-13.1L48.7,61.6c0-7.3,5.8-13.2,13-13.2h162.4c7.2,0,13,5.9,13,13.1l17.1,344.8   C254.3,413.7,248.4,419.6,241.2,419.6z M61.7,49.4c-6.6,0-12,5.4-12,12.1l17.1,344.8c0,6.7,5.4,12.2,12,12.2h162.4   c6.6,0,12-5.4,12-12.1L236.1,61.6c0-6.7-5.4-12.2-12-12.2H61.7z"></path>	</g></g><g>	<path d="M61.1,159.1c-0.3,0-0.5-0.2-0.5-0.5L59,125.9c0-0.3,0.2-0.5,0.5-0.5c0.3,0,0.5,0.2,0.5,0.5l1.5,32.7  C61.6,158.9,61.4,159.1,61.1,159.1C61.1,159.1,61.1,159.1,61.1,159.1z"></path></g><g>	<path d="M232.5,129c-0.3,0-0.5-0.2-0.5-0.5l-2.9-60.9c0-6.5-5-11.7-11-11.7H68.3c-6.1,0-11,5.3-11,11.7l2.2,46.2  c0,0.3-0.2,0.5-0.5,0.5c-0.3,0-0.5-0.2-0.5-0.5l-2.2-46.2c0-7,5.4-12.7,12-12.7h149.8c6.6,0,12,5.7,12,12.7l2.9,60.8  C233.1,128.7,232.8,128.9,232.5,129C232.6,129,232.6,129,232.5,129z"></path></g><g>	<path class="st1" d="M245.4,348.8c-0.3,0-0.5-0.2-0.5-0.5l-2.4-51.3c0-0.3,0.2-0.5,0.5-0.5c0.3,0,0.5,0.2,0.5,0.5l2.4,51.3  C245.9,348.5,245.7,348.7,245.4,348.8C245.4,348.8,245.4,348.8,245.4,348.8z"></path></g><g>	<path d="M219.4,413.5h-96.6c-0.3,0-0.5-0.2-0.5-0.5c0-0.3,0.2-0.5,0.5-0.5h96.6c0.3,0,0.5,0.2,0.5,0.5  C219.9,413.3,219.6,413.5,219.4,413.5z"></path></g><g>	<path d="M110.7,413.5H84.1c-6.6,0-12-5.7-12-12.7L70,356.3c0-0.3,0.2-0.5,0.5-0.5c0.3,0,0.5,0.2,0.5,0.5l2.1,44.5  c0,6.5,5,11.7,11,11.7h26.6c0.3,0,0.5,0.2,0.5,0.5C111.2,413.3,111,413.5,110.7,413.5z"></path></g><g>	<path d="M172.3,37.6l-3.4,5.7c-2.1,3.5-5.6,5.5-9.3,5.5H125c-3.7,0-7.1-2-9.2-5.3l-3.7-5.9H172.3z"></path></g><g>	<path d="M254,254.7c-0.3,0-0.5-0.2-0.5-0.5l-2.5-49.8c0-0.3,0.2-0.5,0.5-0.5c0.3,0,0.5,0.2,0.5,0.5l2.5,49.8  C254.5,254.4,254.3,254.6,254,254.7C254,254.7,254,254.7,254,254.7z"></path></g><g>	<g>		<g>			<circle class="st1" cx="147.1" cy="212.9" r="89.5"></circle>		</g>		<g>			<path d="M147.1,302.9c-49.6,0-90-40.4-90-90s40.4-90,90-90s90,40.4,90,90S196.8,302.9,147.1,302.9z M147.1,123.9    c-49.1,0-89,39.9-89,89s39.9,89,89,89s89-39.9,89-89S196.2,123.9,147.1,123.9z"></path>		</g>	</g>	<g>		<path d="M196.9,275.2l-83.1,4.7c0,0,0,7.3-0.2,15.6c11.8,5.8,25,6.9,39.1,6.9c16.9,0,32.6-8.2,46.1-16.4L196.9,275.2z"></path>	</g>	<g>		<g>			<g>				<path class="st1" d="M267.5,114.3c-0.2-1.7,0.8-3.6,1.1-5.3c0.7-3.7,1.4-7.4,1.3-11.2c-0.1-3.3-0.2-6.3-1.6-9.3     c-0.9-2.1-2.4-4.6-5.3-4.4c-2.1,0.2-4,1.5-5.1,3.2c-1.6,2.3-1.9,5.3-1.9,8.1c0.1,2.5,1,5.6,0.5,8.1c-0.6,2.6-2.1,2.4-3.4,0.4     c-3.3-5.2-8.9-6.1-6.9-4.3c2,1.8,5.5,9.1,6.8,11.1c0.5,0.7,1.9,1.6,3.6,2.5c0,4.8-0.6,12.1-4,20.1c-4,9.5-10.4,16.1-15.6,20.3     c4.3,7.5,13.6,19.8,29.7,21.8c2.3-4.5,4-9.3,5.3-14.2c2.2-8.7,2.7-17.8,1.5-26.7c-0.6-4.5-1.7-8.9-3.1-13.2     c-0.7-2.2-1.8-4.2-2.5-6.4C267.5,114.8,267.5,114.6,267.5,114.3z"></path>			</g>			<g>				<path d="M266.5,176C266.4,176,266.4,176,266.5,176c-16.4-2.1-25.9-14.7-30.1-22.1c-0.1-0.2-0.1-0.5,0.1-0.6     c7-5.6,12.2-12.4,15.5-20.1c2.6-6.1,3.9-12.7,3.9-19.6c-1.9-1-3.1-1.8-3.5-2.5c-0.4-0.7-1.1-1.8-1.8-3.2     c-1.5-2.8-3.6-6.6-4.9-7.8c-0.2-0.2-0.7-0.7-0.5-1.2c0-0.1,0.2-0.4,0.7-0.5c1.3-0.2,5,1.5,7.5,5.4c0.7,1.1,1.3,1.4,1.6,1.3     c0.4-0.1,0.7-0.6,0.9-1.5c0.3-1.5,0.1-3.3-0.2-5c-0.1-1-0.3-2-0.3-2.9c-0.1-3.6,0.5-6.3,1.9-8.4c1.3-1.9,3.4-3.2,5.5-3.4     c3.1-0.3,4.7,2.3,5.8,4.7c1.4,3,1.5,6,1.7,9.5c0.1,3.6-0.4,7.1-1.3,11.3c-0.1,0.6-0.3,1.2-0.5,1.8c-0.3,1.1-0.7,2.3-0.6,3.3     c0,0.2,0.1,0.4,0.1,0.6c0.4,1,0.8,2.1,1.2,3.1c0.5,1.1,0.9,2.2,1.3,3.3c1.5,4.3,2.5,8.8,3.1,13.3c1.2,8.9,0.7,18.2-1.5,26.9     c-1.3,4.9-3,9.7-5.3,14.3C266.8,175.9,266.7,176,266.5,176z M237.5,153.8c4.2,7.2,13.3,19,28.7,21.2c2.2-4.4,3.9-9,5.1-13.7     c2.2-8.6,2.7-17.7,1.5-26.5c-0.6-4.4-1.6-8.9-3.1-13.1c-0.4-1.1-0.8-2.2-1.3-3.3c-0.4-1-0.9-2.1-1.2-3.1     c-0.1-0.3-0.2-0.5-0.2-0.8c-0.1-1.2,0.3-2.5,0.6-3.7c0.2-0.6,0.4-1.2,0.5-1.7c0.8-4.1,1.4-7.6,1.3-11.1     c-0.1-3.6-0.3-6.3-1.6-9.1c-0.9-2-2.3-4.3-4.8-4.1c-1.8,0.2-3.6,1.3-4.8,3c-1.3,1.9-1.9,4.5-1.8,7.8c0,0.9,0.2,1.8,0.3,2.8     c0.3,1.8,0.5,3.7,0.1,5.4c-0.4,1.7-1.1,2.2-1.7,2.3c-0.9,0.2-1.8-0.5-2.7-1.8c-2.1-3.2-4.9-4.6-6.1-4.9c1.4,1.4,3.4,5,5,8     c0.7,1.4,1.4,2.5,1.8,3.2c0.2,0.3,0.9,1,3.4,2.3c0.2,0.1,0.3,0.3,0.3,0.4c0,7.1-1.3,14-4,20.3     C249.6,141.3,244.4,148.1,237.5,153.8z M246.1,99L246.1,99L246.1,99z"></path>			</g>		</g>		<g>			<g>				<path class="st1" d="M236.8,153.7c-3.4,2.7-6.3,4.4-7.8,5.4c-25.5,15.1-41-2.2-82.8-1.1c-15.3,0.4-25.7-1.8-53,10.1     c0,0-49.6,15.9-49.6,66.7c0,14.3,9.4,26.3,20.5,30.2c9.9-12.4,13.1-19.4,20.8-22.5c-0.1-0.6-5.4-4.3-5.4-4.9     c1.3-12.9,5.7-16.6,10.7-19c2.3-1.1,5,0.2,5.3,2.8c1.2,11.1-0.5,19.9,2,46.3c1.4,15.3,3,17.6,4.4,19.1c9.7,9.9,26.3-3.3,65-3.9     c18.4-0.3,30.5,2.5,33.9-3.9c2.5-4.6-1.7-10-4.7-18c-3.7-9.8-6.3-25,0.2-47.5c25.8,2.9,51.1-8.7,65.6-30     c1.7-2.5,3.2-5.1,4.6-7.8C250.5,173.4,241.1,161.2,236.8,153.7z"></path>			</g>			<g>				<path d="M111.5,290.8c-4,0-7.3-1-10-3.8c-1.7-1.7-3.2-4.3-4.6-19.4c-1.5-15.6-1.5-25-1.5-32.6c0-5.1,0-9.2-0.5-13.7     c-0.1-1-0.6-1.8-1.5-2.3c-0.9-0.5-2.1-0.5-3-0.1c-4.5,2.1-9,5.3-10.4,18.5c0.3,0.4,1.7,1.5,2.6,2.3c2.1,1.7,2.7,2.2,2.7,2.6     c0,0.2-0.1,0.4-0.3,0.5c-5.5,2.2-8.6,6.4-13.8,13.4c-1.9,2.6-4.1,5.6-6.8,8.9c-0.1,0.2-0.4,0.2-0.6,0.2     c-12-4.2-20.8-17.1-20.8-30.7c0-26.4,13.6-43.3,25-52.8c12.3-10.3,24.9-14.4,25-14.4c23-10,34.3-10,46.3-10c2.2,0,4.5,0,6.8-0.1     c17.1-0.5,29.6,2.1,40.7,4.4c15.7,3.3,27,5.6,41.9-3.2c1.5-0.9,4.4-2.6,7.8-5.3c0.1-0.1,0.3-0.1,0.4-0.1c0.1,0,0.3,0.1,0.3,0.2     c4.1,7.2,13.4,19.5,29.3,21.6c0.2,0,0.3,0.1,0.4,0.3c0.1,0.1,0.1,0.3,0,0.5c-1.4,2.7-2.9,5.4-4.6,7.9     c-14.6,21.4-39.7,33-65.6,30.3c-5.1,17.8-5.1,33.6-0.1,46.8c0.8,2.1,1.7,4,2.5,5.8c2.3,5,4.1,9,2.1,12.5c-2.7,4.9-10,4.7-21,4.3     c-3.9-0.1-8.4-0.3-13.3-0.2c-17.2,0.3-30.3,3.1-39.8,5.2C120.7,289.7,115.7,290.8,111.5,290.8z M91.9,217.7     c0.7,0,1.4,0.2,2.1,0.5c1.1,0.6,1.9,1.8,2,3.1c0.5,4.5,0.5,8.6,0.5,13.8c0,7.5,0,16.9,1.5,32.5c1.4,14.7,2.8,17.2,4.3,18.7     c5.2,5.3,12.5,3.7,24.6,1.1c9.6-2.1,22.7-4.9,40-5.2c4.9-0.1,9.4,0.1,13.4,0.2c10.7,0.3,17.8,0.6,20.1-3.8     c1.7-3.1,0-6.9-2.2-11.6c-0.8-1.8-1.7-3.8-2.5-5.9c-5.1-13.6-5.1-29.7,0.2-47.9c0.1-0.2,0.3-0.4,0.5-0.4     c25.7,2.8,50.6-8.6,65.1-29.8c1.5-2.3,3-4.7,4.2-7.1c-15.5-2.3-24.8-14.2-29-21.5c-3.2,2.5-5.9,4.1-7.4,5     c-15.2,9-26.7,6.7-42.6,3.4c-11-2.3-23.4-4.9-40.4-4.4c-2.4,0.1-4.7,0.1-6.9,0.1c-11.8,0-23,0-45.9,10     c-0.2,0.1-12.5,4.1-24.7,14.3c-11.2,9.4-24.6,26-24.6,52c0,13,8.3,25.4,19.8,29.6c2.6-3.2,4.7-6.1,6.6-8.6     c5.1-6.9,8.2-11.1,13.6-13.4c-0.5-0.4-1.3-1.1-2-1.7c-2.6-2.1-3.1-2.5-3-3c1.4-13.7,6.4-17.2,11-19.4     C90.6,217.8,91.2,217.7,91.9,217.7z M80,237.4L80,237.4L80,237.4z"></path>			</g>		</g>		<g>			<g>				<path d="M130.3,239.3c-0.1,0-0.2,0-0.3-0.1c-10.2-6.3-14.9-16.1-12.3-20.8c0.8-1.4,3.4-4.3,11.2-0.4c0.2,0.1,0.3,0.4,0.2,0.7     c-0.1,0.2-0.4,0.3-0.7,0.2c-4.9-2.5-8.5-2.5-9.9,0c-2,3.7,1.6,13.1,11.9,19.4c0.2,0.1,0.3,0.5,0.2,0.7     C130.6,239.2,130.4,239.3,130.3,239.3z"></path>			</g>			<g>				<path d="M130.4,243.2l14.9-1.1c1-0.1,1.8-1,1.8-2l-0.7-27.3c0-1.1-1-2-2.1-1.9l-17.6,1.4c-1.1,0.1-1.9,1.1-1.8,2.2l3.4,27.1     C128.4,242.5,129.3,243.2,130.4,243.2z"></path>			</g>		</g>		<g>			<g>				<g>					<path class="st1" d="M141.7,227.2c-0.1-0.2-0.2-0.4-0.3-0.6c-2.7-3.5-8.5,0.1-11.6,1.1c-2.4,0.8-4.8,1.5-7.2,2.3l-9.1,10.8      c-4.9,1.3-20,6.4-31-0.8c-3.5-2.3-8.3-1.3-10.8,2.1c-3.8,5.1-7.3,11.7-9.5,22c17.7,5.3,42.9-1.2,54.2-11.3      c5.2,0.2,9.2-4.8,12.3-8.3c1.7-2,3.4-4.3,5.6-5.7c2-1.3,4.5-2.1,6-4.1c1-1.3,1.4-2.9,1.6-4.5      C142.1,229.2,142.1,228.1,141.7,227.2z"></path>				</g>				<g>					<path d="M76.4,266.5c-5,0-9.8-0.6-14.3-1.9c-0.3-0.1-0.4-0.3-0.3-0.6c2-8.9,5-15.9,9.6-22.2c2.7-3.6,7.7-4.6,11.5-2.2      c9.9,6.5,23.5,2.7,29.2,1.1c0.4-0.1,0.8-0.2,1.2-0.3l9-10.7c0.1-0.1,0.1-0.1,0.2-0.2l7.2-2.3c0.6-0.2,1.3-0.5,2.1-0.8      c3.2-1.4,7.6-3.2,10-0.1c0.2,0.2,0.3,0.4,0.4,0.7c0.4,0.9,0.5,1.9,0.3,3.3c-0.2,2-0.8,3.5-1.7,4.7c-1.1,1.5-2.7,2.3-4.2,3.1      c-0.6,0.3-1.3,0.7-1.9,1.1c-1.6,1-2.9,2.6-4.2,4.2c-0.4,0.5-0.8,1-1.3,1.5l-0.6,0.7c-3.1,3.4-6.8,7.7-11.7,7.7c0,0-0.1,0-0.1,0      C108.2,260.7,91.9,266.5,76.4,266.5z M62.8,263.7c18.1,5.2,42.5-1.7,53.3-11.3c0.1-0.1,0.2-0.1,0.4-0.1c4.6,0.2,8.3-4,11.3-7.4      l0.6-0.7c0.4-0.5,0.8-1,1.2-1.5c1.3-1.6,2.7-3.2,4.5-4.3c0.6-0.4,1.3-0.8,2-1.1c1.5-0.8,2.9-1.6,3.9-2.8c0.8-1,1.3-2.4,1.5-4.2      c0.1-1.2,0.1-2.1-0.2-2.7c0,0,0,0,0,0c-0.1-0.2-0.2-0.3-0.3-0.5c-1.9-2.5-5.7-0.9-8.8,0.4c-0.8,0.3-1.6,0.7-2.2,0.9l-7,2.2      l-9,10.7c-0.1,0.1-0.2,0.1-0.3,0.2c-0.4,0.1-0.8,0.2-1.3,0.4c-5.9,1.6-19.7,5.5-30-1.2c-3.3-2.1-7.7-1.3-10.1,1.9      C67.7,248.4,64.8,255.2,62.8,263.7z"></path>				</g>			</g>		</g>	</g>	<g>		<g>			<path d="M138.9,134.4c-3,1.5-5.3,1.7-7,1.7c-6-0.3-9.8-5.1-10.5-6.1c-3.9-5-5.9-13.1-2.5-17.9c2.4-3.4,5.4-2.1,8.2-6    c3.2-4.4-0.1-7.9,2.8-11.8c3.3-4.4,10.7-4.1,12-4c4.6,0.2,5.1,2.5,9.4,2.3c4.4-0.1,5-2.3,9-2.3c3.2,0,7.9,1.3,10,5    c2.6,4.6-0.1,10.8-3.2,14c-3.7,3.9-6.4,1.8-11.6,5C146.5,119.7,148.6,129.5,138.9,134.4z"></path>		</g>		<g>			<g>				<path class="st1" d="M155.8,155l-2.5-15.3c0.5-0.1,5.1-0.8,5.6-1.1c4.2-2.1,3-12.6,3-12.6l2.3-2.8l-7-15.6     c-7.4,6.2-10,0.1-17.3,3.1c-7.3,3-3.3,11.2-3.3,11.2s-6-2.6-4.7,3.1c1,4.4,4.1,4.6,6.2,4.5l-3.9,26.2c0,0-7.6,2.2-12.1,3.4     c-0.7,0.2-0.7,1.1,0,1.3c7,1.7,24.6,6.7,44.4-0.6c0.8-0.3,0.8-1.5-0.1-1.7L155.8,155z"></path>			</g>			<g>				<path d="M144.6,164.3c-9.5,0-17.2-2-21.6-3l-0.9-0.2c-0.5-0.1-0.9-0.6-0.9-1.1c0-0.5,0.3-1,0.9-1.2c4-1.1,10.3-2.9,11.8-3.3     l3.8-25.3c-3.3,0.1-5.4-1.6-6.1-4.9c-0.4-1.8-0.2-3.1,0.7-3.8c1-0.8,2.6-0.6,3.6-0.3c-0.5-1.5-1.2-4.2-0.2-6.7     c0.7-1.8,2.1-3.2,4.2-4.1c3.3-1.4,5.7-1,7.9-0.6c2.8,0.5,5.3,0.9,9.3-2.5c0.1-0.1,0.3-0.1,0.4-0.1c0.2,0,0.3,0.1,0.3,0.3l7,15.6     c0.1,0.2,0,0.4-0.1,0.5l-2.2,2.6c0.1,1.6,0.8,10.8-3.3,12.9c-0.5,0.3-3.9,0.9-5.2,1.1l2.3,14.5l10.4,3.1c0.6,0.2,1,0.7,1,1.3     c0,0.6-0.3,1.2-0.9,1.4C158.8,163.4,151.3,164.3,144.6,164.3z M138.2,129.1c0.1,0,0.3,0.1,0.4,0.2c0.1,0.1,0.2,0.3,0.1,0.4     l-3.9,26.2c0,0.2-0.2,0.4-0.4,0.4c0,0-7.6,2.2-12.1,3.4c-0.1,0-0.1,0.1-0.1,0.2c0,0.1,0,0.1,0.1,0.2l0.9,0.2     c7.3,1.8,24.3,6.1,43.1-0.8c0.3-0.1,0.3-0.3,0.3-0.4c0-0.1,0-0.3-0.3-0.4l-10.7-3.2c-0.2-0.1-0.3-0.2-0.4-0.4l-2.5-15.3     c0-0.1,0-0.3,0.1-0.4c0.1-0.1,0.2-0.2,0.3-0.2c0.6-0.1,5-0.8,5.4-1.1c3.2-1.6,3.1-9.3,2.7-12.1c0-0.1,0-0.3,0.1-0.4l2.1-2.5     l-6.6-14.7c-4.1,3.2-6.8,2.7-9.6,2.3c-2.1-0.4-4.3-0.7-7.3,0.5c-1.9,0.8-3.1,2-3.7,3.5c-1.2,3.2,0.6,6.9,0.6,7     c0.1,0.2,0.1,0.4-0.1,0.6c-0.1,0.2-0.4,0.2-0.6,0.1c-0.7-0.3-2.7-1-3.7-0.2c-0.7,0.6-0.6,1.8-0.3,2.8     C133.1,128.1,135,129.4,138.2,129.1C138.2,129.1,138.2,129.1,138.2,129.1z"></path>			</g>		</g>		<g>			<path d="M151.7,140.4c-6.2,0-9.1-4.8-9.1-4.9c-0.1-0.2-0.1-0.5,0.2-0.7c0.2-0.1,0.5-0.1,0.7,0.2c0.1,0.2,3.2,5.2,9.9,4.3    c0.3,0,0.5,0.2,0.6,0.4c0,0.3-0.2,0.5-0.4,0.6C152.8,140.3,152.2,140.4,151.7,140.4z"></path>		</g>	</g></g><g>	<g>		<path d="M127.4,340.7c-6,0-10.8-4.8-10.8-10.8s4.8-10.8,10.8-10.8c6,0,10.8,4.8,10.8,10.8S133.3,340.7,127.4,340.7z M127.4,320.1   c-5.4,0-9.8,4.4-9.8,9.8s4.4,9.8,9.8,9.8c5.4,0,9.8-4.4,9.8-9.8S132.8,320.1,127.4,320.1z"></path>	</g>	<g>		<path d="M156.4,340.7c-6,0-10.8-4.8-10.8-10.8s4.8-10.8,10.8-10.8s10.8,4.8,10.8,10.8S162.4,340.7,156.4,340.7z M156.4,320.1   c-5.4,0-9.8,4.4-9.8,9.8s4.4,9.8,9.8,9.8s9.8-4.4,9.8-9.8S161.8,320.1,156.4,320.1z"></path>	</g>	<g>		<path d="M186,339.6c-6,0-10.8-4.8-10.8-10.8c0-6,4.8-10.8,10.8-10.8c6,0,10.8,4.8,10.8,10.8C196.8,334.8,192,339.6,186,339.6z    M186,319c-5.4,0-9.8,4.4-9.8,9.8c0,5.4,4.4,9.8,9.8,9.8c5.4,0,9.8-4.4,9.8-9.8C195.8,323.4,191.4,319,186,319z"></path>	</g></g><g>	<g>		<g>			<g>				<path class="st1" d="M258.3,417.4c0,0,11.5-3.6,30.4-40.2c15.9-30.9,1.7-60.7-1.1-80.7c-0.3-2-3.1-2.3-3.8-0.4     c-4.8,13.4-12.4,37.8-11.2,52.8C274.3,370.6,258.3,417.4,258.3,417.4z"></path>			</g>			<g>				<path d="M258.3,417.9c-0.1,0-0.3-0.1-0.4-0.2c-0.1-0.1-0.2-0.3-0.1-0.5c0.2-0.5,16-46.9,14.2-68.2c-1.3-15.1,6.5-39.7,11.2-53     c0.4-1.1,1.4-1.7,2.5-1.6c1.1,0.1,2,1,2.2,2.1c0.6,4.5,1.9,9.6,3.2,15c4.6,18.7,10.3,42-2.1,66c-18.7,36.3-30.2,40.3-30.7,40.4     C258.4,417.9,258.3,417.9,258.3,417.9z M285.5,295.3c-0.5,0-1.1,0.3-1.3,1c-4.7,13.2-12.4,37.7-11.2,52.6     c1.6,19.6-11.5,60.2-13.9,67.5c3.2-1.8,13.7-9.7,29.1-39.4c12.2-23.7,6.6-46.8,2-65.3c-1.3-5.4-2.6-10.5-3.2-15.1     c-0.1-0.8-0.8-1.2-1.3-1.3C285.6,295.3,285.6,295.3,285.5,295.3z"></path>			</g>		</g>		<g>			<g>				<path class="st1" d="M270.7,397.4l4.1-32.4c1.8-14.1-0.5-28.4-6.6-41.1c-8.9-18.6-9.6-40.2-1.9-59.3l6.6-16.4     c0.8-2.1-1.8-3.8-3.3-2.1l-9.2,10.2c-21,23.1-28.1,55.7-18.5,85.6l17,53.4L270.7,397.4z"></path>			</g>			<g>				<path d="M270.7,397.9C270.7,397.9,270.7,397.9,270.7,397.9l-12-2.3c-0.2,0-0.3-0.2-0.4-0.3l-17-53.4c-9.5-29.9-2.4-62.9,18.7-86     l9.2-10.2c1-1.1,2.3-1,3.2-0.4c0.9,0.6,1.5,1.7,1,3.1l-6.6,16.4c-7.6,19-6.9,40.5,1.9,58.9c6.2,12.9,8.5,27.2,6.7,41.4     l-4.1,32.4c0,0.1-0.1,0.3-0.2,0.3C270.9,397.9,270.8,397.9,270.7,397.9z M259.2,394.7l11.1,2.1l4-31.9c1.8-14-0.5-28.1-6.6-40.9     c-8.9-18.7-9.6-40.5-1.9-59.7l6.6-16.4c0.3-0.9-0.1-1.5-0.6-1.9c-0.5-0.3-1.3-0.4-1.9,0.3l-9.2,10.2     c-20.8,22.9-27.9,55.5-18.4,85.1L259.2,394.7z"></path>			</g>		</g>		<g>			<g>				<path class="st1" d="M265.5,398.4l-14.2-36.3c-4-10.3-12.6-18.2-23.1-21.4l-9.7-2.9c-2.4-0.7-3.9,2.4-2,3.9l6,4.6     c6.5,5,10.3,12.7,10.5,21c0.1,4.8,1.5,9.6,4,13.7l9.6,15.8L265.5,398.4z"></path>			</g>			<g>				<path d="M265.5,398.9C265.4,398.9,265.4,398.9,265.5,398.9l-19-1.7c-0.2,0-0.3-0.1-0.4-0.2l-9.6-15.8c-2.6-4.2-4-9-4.1-13.9     c-0.2-8.1-3.9-15.6-10.3-20.6l-6-4.6c-1.2-1-1.3-2.4-0.7-3.4c0.5-1,1.7-1.8,3.2-1.4l9.7,2.9c10.8,3.3,19.3,11.2,23.4,21.7     l14.2,36.3c0.1,0.2,0,0.3-0.1,0.5C265.8,398.9,265.6,398.9,265.5,398.9z M246.8,396.3l17.9,1.6l-13.9-35.6     c-4-10.3-12.3-18-22.8-21.1l-9.7-2.9c-1-0.3-1.7,0.3-2,0.9c-0.3,0.6-0.4,1.5,0.5,2.2l6,4.6c6.6,5.1,10.5,12.9,10.7,21.3     c0.1,4.7,1.5,9.4,3.9,13.4L246.8,396.3z"></path>			</g>		</g>		<g>			<path d="M263.4,381.9C263.3,381.9,263.3,381.9,263.4,381.9c-0.3,0-0.5-0.3-0.5-0.5c2.2-23.2-2.5-38.1-6.6-51.3    c-1.9-6.1-3.7-11.8-4.8-18c-5-29.2,12.1-54.5,12.3-54.8c0.2-0.2,0.5-0.3,0.7-0.1c0.2,0.2,0.3,0.5,0.1,0.7    c-0.2,0.2-17.1,25.2-12.1,54c1.1,6.1,2.8,11.8,4.7,17.9c4.1,13.3,8.8,28.3,6.6,51.7C263.8,381.7,263.6,381.9,263.4,381.9z"></path>		</g>		<g>			<path d="M282.3,366.4C282.3,366.4,282.2,366.4,282.3,366.4c-0.4-0.1-0.5-0.3-0.5-0.6c3.9-22.9,2.5-58.2,2.5-58.5    c0-0.3,0.2-0.5,0.5-0.5c0.3,0,0.5,0.2,0.5,0.5c0,0.4,1.4,35.7-2.5,58.7C282.7,366.2,282.5,366.4,282.3,366.4z"></path>		</g>		<g>			<path d="M248.3,385.4c-0.3,0-0.5-0.2-0.5-0.5c-0.3-28.5-23.1-41.1-23.3-41.2c-0.2-0.1-0.3-0.4-0.2-0.7c0.1-0.2,0.4-0.3,0.7-0.2    c0.2,0.1,23.6,12.9,23.8,42.1C248.8,385.1,248.6,385.4,248.3,385.4C248.3,385.4,248.3,385.4,248.3,385.4z"></path>		</g>		<g>			<path d="M251.4,332c-0.1,0-0.3-0.1-0.4-0.2c-6.2-7.9-8.9-18.6-8.9-18.7c-0.1-0.3,0.1-0.5,0.4-0.6c0.3-0.1,0.5,0.1,0.6,0.4    c0,0.1,2.7,10.6,8.7,18.4c0.2,0.2,0.1,0.5-0.1,0.7C251.6,331.9,251.5,332,251.4,332z"></path>		</g>	</g>	<g>		<g>			<path class="st1" d="M263.4,440.7h-2.6c-14.2,0-25.6-11.5-25.6-25.6v-25.3H289V415C289,429.2,277.5,440.7,263.4,440.7z"></path>		</g>		<g>			<path d="M263.4,441.2h-2.6c-14.4,0-26.1-11.7-26.1-26.1v-25.3c0-0.3,0.2-0.5,0.5-0.5H289c0.3,0,0.5,0.2,0.5,0.5V415    C289.5,429.4,277.8,441.2,263.4,441.2z M235.7,390.2V415c0,13.9,11.3,25.1,25.1,25.1h2.6c13.9,0,25.1-11.3,25.1-25.1v-24.8H235.7    z"></path>		</g>	</g>	<g>		<path d="M283.7,399.2h-43.3c-0.3,0-0.5-0.2-0.5-0.5c0-0.3,0.2-0.5,0.5-0.5h43.3c0.3,0,0.5,0.2,0.5,0.5   C284.2,398.9,284,399.2,283.7,399.2z"></path>	</g></g></svg>