<svg xmlns="http://www.w3.org/2000/svg" xmlns:xlink="http://www.w3.org/1999/xlink" id="Layer_1" x="0px" y="0px" viewBox="0 0 472 475" style="enable-background:new 0 0 472 475;" xml:space="preserve"><style type="text/css">	.st0{opacity:0.21;fill:none;stroke:#1C1C1B;stroke-miterlimit:10;stroke-dasharray:3,3;}	.st1{opacity:0.21;fill:#CCCCCC;}	.st2{opacity:0.21;fill:none;stroke:#D8D8D8;stroke-miterlimit:10;stroke-dasharray:3,3;}	.st3{fill:#D8D8D8;}	.st4{fill:#FFFFFF;}	.st5{fill:#FFFFFF;stroke:#1C1C1B;stroke-linecap:round;stroke-linejoin:round;stroke-miterlimit:10;}	.st6{fill:none;stroke:#FFFFFF;stroke-linecap:round;stroke-linejoin:round;stroke-miterlimit:10;}	.st7{fill:none;stroke:#000000;stroke-miterlimit:10;}	.st8{fill:#FFFFFF;stroke:#000000;stroke-linecap:round;stroke-linejoin:round;stroke-miterlimit:10;}	.st9{fill:#1A1A1A;}	.st10{fill:#FFFFFF;stroke:#000000;stroke-miterlimit:10;}	.st11{opacity:0.3;fill:#CCCCCC;}	.st12{fill:none;stroke:#1C1C1B;stroke-linecap:round;stroke-linejoin:round;stroke-miterlimit:10;}	.st13{fill:#EFEFEF;stroke:#000000;stroke-linecap:round;stroke-linejoin:round;stroke-miterlimit:10;}	.st14{fill:#000100;}	.st15{fill:#C9C9C9;}	.st16{fill:#1C1C1B;stroke:#1C1C1B;stroke-linecap:round;stroke-linejoin:round;stroke-miterlimit:10;}	.st17{fill:none;stroke:#000000;stroke-linecap:round;stroke-linejoin:round;stroke-miterlimit:10;}	.st18{fill:#1A1A1A;stroke:#1A1A1A;stroke-miterlimit:10;}	.st19{stroke:#000000;stroke-linecap:round;stroke-linejoin:round;stroke-miterlimit:10;}	.st20{fill:#1C1C1B;}	.st21{fill:none;stroke:#FFFFFF;stroke-width:0.5;stroke-linecap:round;stroke-linejoin:round;stroke-miterlimit:10;}	.st22{fill:none;stroke:#000000;stroke-width:0.5;stroke-linecap:round;stroke-linejoin:round;stroke-miterlimit:10;}	.st23{fill:#000100;stroke:#000100;stroke-width:0.25;stroke-miterlimit:10;}	.st24{fill:#FFFFFF;stroke:#000000;stroke-width:1.4524;stroke-linecap:round;stroke-linejoin:round;stroke-miterlimit:10;}	.st25{fill:none;stroke:#000000;stroke-width:1.4524;stroke-linecap:round;stroke-linejoin:round;stroke-miterlimit:10;}	.st26{fill:#FFFFFF;stroke:#000000;stroke-width:1.116;stroke-linecap:round;stroke-linejoin:round;stroke-miterlimit:10;}	.st27{fill:#253269;}	.st28{stroke:#000000;stroke-miterlimit:10;}	.st29{stroke:#000000;stroke-width:0.25;stroke-miterlimit:10;}	.st30{fill:#E88B28;}	.st31{stroke:#000000;stroke-width:0.5;stroke-miterlimit:10;}	.st32{fill:none;}	.st33{fill:none;stroke:#000000;stroke-width:0.5841;stroke-linecap:round;stroke-linejoin:round;stroke-miterlimit:10;}</style><g>	<g>		<g>							<ellipse transform="matrix(0.9789 -0.2043 0.2043 0.9789 -32.5508 18.3845)" class="st0" cx="72.8" cy="166.9" rx="46.5" ry="46.5"></ellipse>			<path class="st1" d="M24.6,120.4c-0.2-2.4,1.5-4.5,3.9-4.8c2.4-0.2,4.5,1.5,4.8,3.9c0.2,2.4-1.5,4.5-3.9,4.8    C26.9,124.5,24.8,122.8,24.6,120.4z"></path>		</g>		<g>							<ellipse transform="matrix(0.7071 -0.7071 0.7071 0.7071 -15.3774 339.1487)" class="st2" cx="401.7" cy="188.1" rx="46.5" ry="46.5"></ellipse>			<path class="st1" d="M443.7,135.9c2.4-0.5,4.6,1.1,5.1,3.4c0.5,2.4-1.1,4.6-3.4,5.1c-2.4,0.5-4.6-1.1-5.1-3.4    C439.8,138.7,441.3,136.4,443.7,135.9z"></path>		</g>		<g>							<ellipse transform="matrix(0.4696 -0.8829 0.8829 0.4696 -256.6161 335.42)" class="st2" cx="150.8" cy="381.3" rx="35.4" ry="35.4"></ellipse>			<path class="st1" d="M196.2,404.5c0.7,1.7-0.1,3.6-1.8,4.3c-1.7,0.7-3.6-0.1-4.3-1.8c-0.7-1.7,0.1-3.6,1.8-4.3    C193.6,402.1,195.5,402.9,196.2,404.5z"></path>		</g>		<g>							<ellipse transform="matrix(0.2412 -0.9705 0.9705 0.2412 -154.5389 551.6228)" class="st2" cx="275.5" cy="374.6" rx="46.5" ry="46.5"></ellipse>			<path class="st1" d="M318.2,322.8c2.4,0,4.3,1.9,4.3,4.3c0,2.4-1.9,4.3-4.3,4.3c-2.4,0-4.3-1.9-4.3-4.3    C313.8,324.7,315.8,322.8,318.2,322.8z"></path>		</g>		<g>							<ellipse transform="matrix(0.9465 -0.3227 0.3227 0.9465 -7.6903 78.7704)" class="st2" cx="233.7" cy="62.6" rx="29.7" ry="29.7"></ellipse>			<path class="st1" d="M273,35.8c-1.6,2.3-4.8,2.9-7.2,1.3c-2.3-1.6-2.9-4.8-1.3-7.2c1.6-2.3,4.8-2.9,7.2-1.3    C274.1,30.3,274.6,33.5,273,35.8z"></path>		</g>	</g>	<rect x="35.8" y="426.5" class="st3" width="404.9" height="3.7"></rect>	<line class="st4" x1="35.8" y1="428.4" x2="440.7" y2="428.4"></line></g><path class="st4" d="M318,358c-6.8,0-12.4-5.6-12.4-12.4v-268c0-6.8,5.6-12.4,12.4-12.4h105.6c6.8,0,12.4,5.6,12.4,12.4v268 c0,6.8-5.6,12.4-12.4,12.4H318z"></path><path d="M423.6,356.1H318c-5.8,0-10.6-4.8-10.6-10.6v-268c0-5.8,4.8-10.6,10.6-10.6h105.6c5.8,0,10.6,4.8,10.6,10.6v268 C434.2,351.4,429.4,356.1,423.6,356.1z"></path><g>	<path class="st5" d="M424.9,68.4c0-7.9-6.4-14.3-14.3-14.3H57.1c-7.9,0-14.3,6.4-14.3,14.3v13.7h382.1V68.4z"></path>	<path class="st6" d="M42.8,82.1v254.4c0,7.9,6.4,14.3,14.3,14.3h353.5c7.9,0,14.3-6.4,14.3-14.3V82.1H42.8z"></path></g><path class="st5" d="M42.8,82.1v254.4c0,7.9,6.4,14.3,14.3,14.3h353.5c7.9,0,14.3-6.4,14.3-14.3V82.1H42.8z"></path><line class="st7" x1="54.6" y1="123.2" x2="413.1" y2="123.2"></line><line class="st7" x1="233.9" y1="93.3" x2="233.9" y2="339.6"></line><line class="st7" x1="323.1" y1="93.5" x2="323.1" y2="339.8"></line><line class="st7" x1="143.8" y1="93.5" x2="143.8" y2="339.8"></line><rect x="149" y="98.9" class="st8" width="78.8" height="17.2"></rect><rect x="59.2" y="98.9" class="st8" width="78.8" height="17.2"></rect><rect x="328.6" y="98.9" class="st8" width="78.8" height="17.2"></rect><rect x="238.8" y="98.9" class="st8" width="78.8" height="17.2"></rect><g>	<circle class="st9" cx="65" cy="69.4" r="7.4"></circle>	<circle class="st9" cx="87.2" cy="69.4" r="7.4"></circle>	<circle class="st9" cx="109.5" cy="69.4" r="7.4"></circle></g><g>	<path class="st10" d="M399.4,234.1l-56-6c-6.2-0.7-10.6-6.2-10-12.4l4.5-42.4c0.7-6.2,6.2-10.6,12.4-10l56,6  c6.2,0.7,10.6,6.2,10,12.4l-4.5,42.4C411.1,230.3,405.6,234.8,399.4,234.1z"></path>	<path class="st11" d="M399.4,234.1l-56-6c-6.2-0.7-10.6-6.2-10-12.4l4.5-42.4c0.7-6.2,6.2-10.6,12.4-10l56,6  c6.2,0.7,10.6,6.2,10,12.4l-4.5,42.4C411.1,230.3,405.6,234.8,399.4,234.1z"></path>			<rect x="346.4" y="173.3" transform="matrix(0.9943 0.1062 -0.1062 0.9943 20.9 -39.0769)" class="st10" width="61.6" height="6.5"></rect>	<path class="st12" d="M357.2,187c-0.2,2.3-2.3,3.9-4.6,3.7c-2.3-0.2-3.9-2.3-3.7-4.6c0.2-2.3,2.3-3.9,4.6-3.7  C355.8,182.6,357.4,184.7,357.2,187z"></path>	<path class="st12" d="M355.6,201.7c-0.2,2.3-2.3,3.9-4.6,3.7c-2.3-0.2-3.9-2.3-3.7-4.6c0.2-2.3,2.3-3.9,4.6-3.7  C354.2,197.4,355.9,199.4,355.6,201.7z"></path>	<path class="st12" d="M354,216.5c-0.2,2.3-2.3,3.9-4.6,3.7c-2.3-0.2-3.9-2.3-3.7-4.6c0.2-2.3,2.3-3.9,4.6-3.7  C352.6,212.2,354.3,214.2,354,216.5z"></path>	<line class="st5" x1="360.7" y1="190.9" x2="402" y2="195.3"></line>	<line class="st5" x1="359.2" y1="205.7" x2="400.5" y2="210.1"></line>	<line class="st5" x1="357.6" y1="220.5" x2="398.9" y2="224.9"></line>	<g>		<g>			<line x1="347.1" y1="194.4" x2="355.8" y2="208.2"></line>			<path d="M355.7,208.9c-0.2,0-0.4-0.1-0.5-0.3l-8.7-13.9c-0.2-0.3-0.1-0.7,0.2-0.9c0.3-0.2,0.7-0.1,0.9,0.2l8.7,13.9    c0.2,0.3,0.1,0.7-0.2,0.9C356,208.9,355.9,208.9,355.7,208.9z"></path>		</g>		<g>			<line x1="359.5" y1="195.3" x2="346.6" y2="205.2"></line>			<path d="M346.5,205.9c-0.2,0-0.3-0.1-0.5-0.3c-0.2-0.3-0.2-0.7,0.1-0.9l13-9.9c0.3-0.2,0.7-0.2,0.9,0.1c0.2,0.3,0.2,0.7-0.1,0.9    l-13,9.9C346.8,205.9,346.7,205.9,346.5,205.9z"></path>		</g>	</g>	<g>		<path d="M349.7,218.5C349.6,218.5,349.6,218.5,349.7,218.5c-0.3-0.1-0.4-0.2-0.5-0.3l-1.6-3c-0.2-0.3-0.1-0.7,0.3-0.9   c0.3-0.2,0.7-0.1,0.9,0.3l1.2,2.3l7.6-5.2c0.3-0.2,0.7-0.1,0.9,0.2c0.2,0.3,0.1,0.7-0.2,0.9l-8.2,5.6   C350,218.5,349.8,218.5,349.7,218.5z"></path>	</g>	<g>		<path d="M353,188.7C353,188.7,353,188.7,353,188.7c-0.3-0.1-0.4-0.2-0.5-0.3l-1.6-3c-0.2-0.3-0.1-0.7,0.3-0.9   c0.3-0.2,0.7-0.1,0.9,0.3l1.2,2.3l7.6-5.2c0.3-0.2,0.7-0.1,0.9,0.2c0.2,0.3,0.1,0.7-0.2,0.9l-8.2,5.6   C353.4,188.7,353.2,188.7,353,188.7z"></path>	</g>	<path class="st12" d="M362.3,189c1.3-0.3,2.6-0.6,3.4-1.6c0.8-1,0.5-2.9-0.8-3.1c-1.4-0.2-2.2,1.9-1.4,3c0.8,1.2,2.3,1.6,3.6,1.9  c1.1,0.2,2.2,0.5,3.3,0.3c1.1-0.2,2.2-0.8,2.6-1.9c0.4-1.1-0.3-2.4-1.4-2.6c-1.6-0.2-2.5,2.2-1.5,3.5c0.9,1.3,2.7,1.8,4.2,2.1  c1.4,0.3,2.8,0.6,4.2,0.3c1.4-0.3,2.7-1.2,3.1-2.6c0.3-1.4-0.9-3-2.3-2.8c-1.2,0.2-1.9,1.6-1.7,2.8c0.3,1.2,1.3,2.1,2.4,2.5  c1.1,0.4,2.4,0.4,3.6,0.5c1.1,0,2.2,0,3.2-0.3c1-0.3,1.9-1.1,2.1-2.2c0.2-1-0.6-2.3-1.6-2.3c-1,0-1.8,1.1-1.8,2.1  c0.1,1,0.8,1.9,1.6,2.5c2.9,2.1,7.5,1,9.2-2.1c0.6-1.2,0.6-3.1-0.7-3.5c-1-0.3-2,0.5-2.3,1.5c-0.2,1,0.2,2,0.8,2.9  c1.8,2.5,5.2,3.6,8.1,2.7"></path>	<path class="st12" d="M361.4,203.2c1.4,0.5,3.1-0.4,3.5-1.8c0.4-1.4-0.7-4.2-1.9-3.4c-1.8,1.1,0.4,4.4,2.1,5.7  c1.7,1.3,4.1,1.6,6.1,0.6c1.1-0.5,2-1.5,2.1-2.7c0.1-1.2-1-2.5-2.2-2.2c-1.5,0.3-1.7,2.6-0.6,3.7c1.1,1.1,2.8,1.2,4.3,1.3  c1.1,0.1,2.3,0.1,3.4-0.3s2-1.4,2-2.5c0-1.1-1.4-2.1-2.4-1.6c-1.2,0.7-0.8,2.5,0.1,3.5c1.7,2,4.8,2.8,7.3,1.9  c2.5-1,4.3-3.6,4.2-6.3c-1.9,0.1-3.2,2.3-2.7,4.2c0.5,1.8,2.4,3.1,4.3,3.3s3.8-0.5,5.5-1.4c1.4-0.8,2.9-2.4,2.1-3.8  c-0.7-1.4-3.2-0.9-3.8,0.6c-0.5,1.5,0.4,3.2,1.8,4c1.4,0.8,3,0.9,4.6,1"></path>	<path class="st12" d="M358.9,218c2.1,0.3,4.2-1.8,4-3.9c-1-0.4-2,0.6-2,1.7c0,1,0.9,1.9,1.8,2.3c1,0.4,2,0.4,3.1,0.3  c1.6,0,3.3-0.1,4.5-1.2c1.2-1.1,1.2-3.4-0.4-3.9c-1.2-0.3-2.4,0.9-2.4,2.1c0,1.2,0.9,2.3,2.1,2.9c1.1,0.5,2.4,0.7,3.6,0.8  c1.2,0.1,2.4,0.2,3.5-0.2c1.1-0.4,2.1-1.3,2.2-2.5c0.1-1.2-1.1-2.4-2.2-2c-1.5,0.5-1.2,2.8-0.2,4c2.5,3.1,7.8,3.2,10.5,0.3  c0.9-0.9,1.4-2.5,0.6-3.4c-0.8-0.9-2.5-0.4-3,0.8c-0.4,1.1,0.2,2.5,1.1,3.2s2.2,1,3.4,1.1c1.8,0.2,3.9,0,5.2-1.3  c1.3-1.3,1.1-4.1-0.7-4.5c-1.6-0.4-3,1.4-2.8,3c0.3,1.6,1.8,2.7,3.3,3.1c1.6,0.4,3.2,0.1,4.8-0.2"></path></g><g>	<path class="st10" d="M218.2,310.2l-56.3,3c-6.2,0.3-11.5-4.4-11.8-10.6l-2.2-42.6c-0.3-6.2,4.4-11.5,10.6-11.8l56.3-3  c6.2-0.3,11.5,4.4,11.8,10.6l2.2,42.6C229.2,304.6,224.4,309.9,218.2,310.2z"></path>			<rect x="156.4" y="253.7" transform="matrix(0.9986 -5.251522e-02 5.251522e-02 0.9986 -13.2378 10.1867)" class="st13" width="61.6" height="6.5"></rect>			<rect x="157" y="265.6" transform="matrix(0.9986 -5.251522e-02 5.251522e-02 0.9986 -13.7973 10.2309)" class="st13" width="61.6" height="4.1"></rect>			<rect x="157.3" y="272.3" transform="matrix(0.9986 -5.251522e-02 5.251522e-02 0.9986 -14.1466 10.2585)" class="st13" width="61.6" height="4.1"></rect>			<rect x="157.7" y="279.6" transform="matrix(0.9986 -5.251616e-02 5.251616e-02 0.9986 -14.5461 9.6535)" class="st13" width="37.4" height="4.1"></rect>			<rect x="158" y="286.1" transform="matrix(0.9986 -5.251605e-02 5.251605e-02 0.9986 -14.8891 9.7607)" class="st13" width="40.5" height="4.1"></rect>			<rect x="158.4" y="292.9" transform="matrix(0.9986 -5.251616e-02 5.251616e-02 0.9986 -15.2448 9.7087)" class="st13" width="37.4" height="4.1"></rect>			<rect x="158.7" y="299.4" transform="matrix(0.9986 -5.251580e-02 5.251580e-02 0.9986 -15.5806 9.906)" class="st13" width="43.9" height="4.1"></rect></g><g>	<path class="st8" d="M302.8,230.8l-56-6c-6.2-0.7-10.6-6.2-10-12.4l4.5-42.4c0.7-6.2,6.2-10.6,12.4-10l56,6  c6.2,0.7,10.6,6.2,10,12.4l-4.5,42.4C314.5,227,308.9,231.5,302.8,230.8z"></path>			<rect x="249.8" y="170.1" transform="matrix(0.9943 0.1062 -0.1062 0.9943 20.0052 -28.8299)" class="st10" width="61.6" height="6.5"></rect>			<rect x="245.2" y="213.9" transform="matrix(0.9943 0.1062 -0.1062 0.9943 24.4505 -26.9681)" class="st10" width="40.4" height="4.1"></rect>			<rect x="245.8" y="208.3" transform="matrix(0.9943 0.1062 -0.1062 0.9943 23.9154 -28.1081)" class="st10" width="59.9" height="4.1"></rect>			<rect x="246.5" y="201.3" transform="matrix(0.9943 0.1062 -0.1062 0.9943 23.1519 -27.8326)" class="st10" width="52.5" height="4.1"></rect>			<rect x="247.2" y="194.9" transform="matrix(0.9943 0.1062 -0.1062 0.9943 22.4876 -28.1697)" class="st10" width="56.8" height="4.1"></rect>			<rect x="248" y="188.1" transform="matrix(0.9943 0.1062 -0.1062 0.9943 21.7506 -28.0583)" class="st10" width="52.5" height="4.1"></rect>			<rect x="248.6" y="181.9" transform="matrix(0.9943 0.1062 -0.1062 0.9943 21.1273 -28.6493)" class="st10" width="61.6" height="4.1"></rect></g><g>	<g>		<path class="st14" d="M389.2,223.5c0,0,16.3,0.4,13.5,8.5c0,0,13.6,4.3,9.4,11.3c0,0,9.4,10,2.5,13.6c0,0,9.4,9.1,1.4,15.7   c0,0,5.9,9.6-2.3,10.6c0,0,1.3,10.9-7,7.3c0,0-8.5,8.5-12.8,1.4c0,0-4.9,6-13.5-0.7c0,0-9.6,1.3-13-2.7L389.2,223.5z"></path>		<path class="st14" d="M389.2,223.5c0,0-25-13.1-29.2,0.9c0,0-17.5-0.3-15.2,7.5c0,0-15.6,6.5-10.5,15.3c0,0-11.4,6.6-5.1,14.9   c0,0-7.1,8.2-0.3,10.9c0,0-1.1,10.4,6.7,9.2c0,0,3.6,7.4,9,3.2c0,0,5.1,6.7,14.7,3.3c0,0,9,3.6,13.3,0.5L389.2,223.5z"></path>	</g>	<g>		<path class="st15" d="M365.7,439.6c2.6-0.5,5.1-0.3,7.4,0.3c0.9,0.3,1.8,0.8,1.7,1.8c-0.2,0.9-1.1,1.5-2,1.8   c-4.2,1.6-11.7,0.8-11.4-2.4c1.4-0.2,2.7-0.4,4.1-0.6"></path>		<path class="st15" d="M337.5,441.2c2.6-0.5,5.1-0.3,7.4,0.3c0.9,0.3,1.8,0.8,1.7,1.8c-0.2,0.9-1.1,1.5-2,1.8   c-4.2,1.6-11.7,0.8-11.4-2.4c1.4-0.2,2.7-0.4,4.1-0.6"></path>		<path class="st15" d="M292,428.3c2.6-0.5,5.1-0.3,7.4,0.3c0.9,0.3,1.8,0.8,1.7,1.8c-0.2,0.9-1.1,1.5-2,1.8   c-4.2,1.6-11.7,0.8-11.4-2.4c1.4-0.2,2.7-0.4,4.1-0.6"></path>		<path class="st15" d="M255.6,441.3c2.6-0.5,5.1-0.3,7.4,0.3c0.9,0.3,1.8,0.8,1.7,1.8c-0.2,0.9-1.1,1.5-2,1.8   c-4.4,1.2-12-1-11.7-4.2c1.4-0.2,3,1.4,4.4,1.2"></path>		<path class="st15" d="M394.8,432c2.6-0.5,5.1-0.3,7.4,0.3c0.9,0.3,1.8,0.8,1.7,1.8c-0.2,0.9-1.1,1.5-2,1.8   c-4.2,1.6-11.7,0.8-11.4-2.4c1.4-0.2,2.7-0.4,4.1-0.6"></path>		<path class="st15" d="M417.7,439.9c2.6-0.5,5.1-0.3,7.4,0.3c0.9,0.3,1.8,0.8,1.7,1.8c-0.2,0.9-1.1,1.5-2,1.8   c-4.2,1.6-11.7,0.8-11.4-2.4c1.4-0.2,2.7-0.4,4.1-0.6"></path>	</g>	<g>		<path class="st16" d="M380.3,395.3l6.4-1.1l4.1,15.9c-1.9,1.1-3.9,1.9-5.9,2.5L380.3,395.3z"></path>		<path class="st5" d="M390.8,410.2l5.8,22.5c0,0-2.3,3.4-6.2,1.5l-5.6-21.5C386.9,412.1,388.9,411.3,390.8,410.2z"></path>		<path class="st16" d="M345.5,410.5l3.1-16.8l6.2,1.7l-2.9,15.2C349.9,410.7,347.7,410.6,345.5,410.5z"></path>		<path class="st5" d="M352,410.7l-4.5,23.8c0,0-3.6,2.1-6.2-1.3l4.2-22.7C347.7,410.6,349.9,410.7,352,410.7z"></path>		<path class="st5" d="M411.2,405.4l9.1,35c0,0-2.5,3.6-6.6,1.6l-8.7-33C407.1,407.9,409.1,406.7,411.2,405.4z"></path>		<path class="st16" d="M402.9,400.7l6.8-1.1l1.5,5.9c-2.1,1.3-4.1,2.5-6.1,3.5L402.9,400.7z"></path>		<path class="st5" d="M374,410.7l-5.9,31.6c0,0-3.8,2.2-6.6-1.4l5.5-30C369.3,411,371.7,410.7,374,410.7z"></path>		<path class="st16" d="M375.8,400.7l-1.9,9.9c-2.3,0.1-4.7,0.4-7,0.3l2.2-12.1L375.8,400.7z"></path>	</g>	<path d="M358.6,405.4c0,0,28.3,5.9,64.6-6.3c0,0,7.7-37.7,8.6-60.4c0.9-22.6-6.3-44.1-29.4-44.3c-23.1-0.2-41.8,34.4-44.5,54.2  c0,0-23.1,0.9-26.9,14.9c-3.8,14,2.5,38,2.5,38S355.2,405.4,358.6,405.4z"></path>	<g>		<line class="st8" x1="309.1" y1="276.6" x2="300.7" y2="282.2"></line>		<path class="st8" d="M300.7,282.2c5.8,15,13.6,22.7,16.2,25c6.6,6,18.5,5.1,27.2,5l7.2-18.9c-0.1,0-0.1,0-0.2,0.1   c-8.6-0.2-21.9,0.1-26.6,0.5c-3.3-4.2-10.8-12.7-15.3-17.2"></path>		<path class="st8" d="M301,283.1c-2.1-3.3-3.8-4.4-3.8-4.4c-0.9-1.2-1.8-1.7-3-4.2c-0.5-1-1-2.3-0.8-3.3c1.2-6,8.5-3.4,8.5-3.4   s-4.6-7.6-2.8-8.1c1.8-0.5,6.5,9.6,6.5,9.6c1.6,3,3.5,7.6,3.5,7.6l3.4,3.3"></path>		<path class="st17" d="M303,269.7c0,0-4.6-1.7-4.2,0.5c0.4,2.2,8.9,5.9,8.9,5.9"></path>		<path class="st17" d="M300.8,272.4c0,0-1.6,1.5-1.9,3.7"></path>		<path class="st17" d="M294.6,268.9c0,0-0.7,2.9,1.6,4.9c1.2,1,2.3,0.5,2-0.7"></path>		<path class="st17" d="M296.4,267.6c0,0-1.8,2.5,0.7,4.8c1.4,1.4,2.9-0.2,1.2-1.8c-1.2-1.1-0.4-3.2-0.4-3.2"></path>		<path class="st17" d="M296.9,274.2c0,0,0.4,0.9-0.3,1.3c-0.8,0.4-2.2-0.8-2.8-2.5"></path>	</g>	<path class="st5" d="M369.8,288.1c0,0-6.1,1-12.9,2.5c-5.5,1.2-12.4-1.2-23,2.1c0,0-0.8,17.8,6.6,23.5c4.6,2.4,9.6,4.1,12.5,4.2  c0,0-0.6,17,0.8,22.5c1.4,5.5,37.5,7,45.5,0.5l-1.4-23.1c0,0,10.4,0.5,15.1-5.7c0,0-6.4-22.2-17.7-25.3  C384,286.2,369.8,288.1,369.8,288.1z"></path>	<path class="st5" d="M360.9,291.5c0.1-0.4,14.1-1.9,20.7-1.8c0,0-0.8,6.3-10.2,7C363.4,297.3,360.9,291.5,360.9,291.5z"></path>	<path class="st5" d="M378.9,292.7c0.1-0.2,0.1-0.2,0.1-0.2l0-6.7l0-1.6c-4.3,2-11.3,2.8-14.7,3.1l0.6,5.4"></path>	<path class="st18" d="M378.9,279.1l-15.3,1.9l0.5,4.7l0.2,1.7c3.4-0.3,10.4-1.1,14.7-3.1L378.9,279.1z"></path>	<g>		<path class="st19" d="M338.6,413c4.4-1.8,8.7-3.8,12.9-5.8c0.9,3.9,1.8,7.7,2.5,10.9c-3.4,2.7-7.6,4.3-11.9,5.2   C341,420.3,339.9,416.8,338.6,413z"></path>		<path class="st4" d="M329.5,446.3c-2.6,0-4-0.8-4.4-2.4c-0.7-3,4.9-8.1,16.7-15.1c-0.4-1.2-0.9-2.6-1.4-4l-1.4-5.1l1.4-0.3   l1.4,2.9c4.4-0.9,8.2-2.5,11.1-4.8l2.3-1.8l3.1,13.6c2,3.4,2.3,6.2,1,8.4c-2,3.6-7.5,4-9.7,4c0,0,0,0-0.1,0   C347.4,442.5,335.2,446.3,329.5,446.3z"></path>		<path class="st5" d="M344,428.7c-0.6-1.6-1.2-3.4-1.9-5.4c4.3-0.9,8.4-2.5,11.9-5.2c1.5,6.6,2.5,11.1,2.5,11.1   c6.3,10.5-7.3,9.9-7.3,9.9s-21.5,6.9-22.3,3.5C326.1,439.1,344,428.7,344,428.7z"></path>		<g>			<g>				<path class="st16" d="M358.7,434.3c0.1,0.8,0.2,1.6,0.2,2.5c0,0-4.1,2.5-16.2,5.3c-13.6,3.1-15.7,1.8-15.7,1.8s-0.2-0.6-0.2-1.7     C341.8,441.6,352.9,437.2,358.7,434.3z"></path>			</g>			<path class="st16" d="M348.3,439.4c0,0-3.8-6.8-7.5-8.9l-2.9,1.9c0,0,4.7,4.1,5.9,8.1L348.3,439.4z"></path>			<path class="st16" d="M340.8,441.1c0,0-2.1-4.7-5.7-6.8l-2.6,1.9c0,0,2.6,2.1,3.9,6.1L340.8,441.1z"></path>		</g>	</g>	<g>		<path class="st19" d="M317.3,395.8c4.6,1.2,9.2,2.2,13.8,3.2c-1.5,3.3-2.9,6.4-4.1,9.2c-4.4-0.4-8.6-1.9-12.4-4.1   C315.4,401.6,316.3,398.8,317.3,395.8z"></path>		<path class="st4" d="M316.8,427.9c-3.4,0-7.4-1.5-8.4-2.3c-5.9-2.1-18.4-8-20-11.8c-0.3-0.7-0.3-1.5,0-2.2   c0.9-1.9,3.6-2.7,9.6-2.7c4.7,0,10.2,0.5,12.8,0.8c0.6-1.8,1.2-3.8,2-6.1l1.6-4l1,3c3.8,2.2,7.8,3.5,11.7,3.8l2.6,0.2l-6.1,13.5   C322.7,426.9,319,427.9,316.8,427.9z"></path>		<path class="st5" d="M290.1,412.3c1.5-3.2,22-0.6,22-0.6c0.7-2.1,1.5-4.7,2.4-7.6c3.8,2.2,8,3.7,12.4,4.1   c-3,6.7-5.2,11.4-5.2,11.4c-1.3,12.2-11.8,3.5-11.8,3.5S288.6,415.5,290.1,412.3z"></path>		<g>			<g>				<path class="st16" d="M320.4,424.9c-0.4,0.7-0.8,1.4-1.3,2.1c0,0-4.8-0.5-16.2-5.6c-12.7-5.7-13.6-8.1-13.6-8.1s0.2-0.6,0.9-1.4     C302.5,420.6,314,423.7,320.4,424.9z"></path>			</g>			<path class="st16" d="M309.1,422.7c0,0,1.1-7.7-0.6-11.6l-3.4-0.2c0,0,1.2,6.1-0.2,10L309.1,422.7z"></path>			<path class="st16" d="M302,419.5c0,0,1.2-5-0.4-8.8l-3.2-0.1c0,0,0.8,3.3-0.6,7.2L302,419.5z"></path>		</g>	</g>	<path class="st5" d="M388.6,288c0,0-2.3,11.5-0.6,23.2c0,0,2.9,7.7,8.1,9l3.3,22.5c0,0,7.8,11.8,1.8,23.4c-6,11.6-44,23.8-44,23.8  s4.5,19.7,4.8,20.9c0.3,1.2-14.8,12.5-33,6.9l-1.8-10.7c0,0-9.5-2.4-13.7-8.6c-4.2-6.2,12.8-31.3,12.8-31.3s0.5-15.8,19-20.3  l7.5-2.6c0,0-3.8-27.4,2.6-53.9l3.5-0.7c0,0-1.8,15.5-1.4,20c0,0,15.7-1.3,25.2-1.1c0,0-1.2-12.8,1.7-20.9  C384.5,287.5,386.9,287.7,388.6,288z"></path>	<path class="st16" d="M402.8,349.6c0,0-2.4,3-9.1,3c-6.6,0-22.8-8.7-22.8-8.7L402.8,349.6z"></path>	<path class="st20" d="M368.6,371.4c0,0-8.1,6-13.9,7.6l3,12.9"></path>	<path class="st5" d="M326.4,367.1c0,0-2.3,17.6,0.9,39.9"></path>	<g>		<path class="st5" d="M329,371.4l11.5,68.9c0,0-3.1,7.1-8.2,3.1l-11.5-68.5C323.5,373.9,326.3,372.7,329,371.4z"></path>		<path class="st5" d="M271.3,375.7l-11.7,67.7c-5.1,3.9-8.2-3-8.2-3l11.1-65C265.4,375.5,268.3,375.6,271.3,375.7z"></path>		<path class="st16" d="M288.3,359.3l8.7,0.3l-0.3,23.1c-2.9,0.7-5.9,1.2-8.8,1.9L288.3,359.3z"></path>		<path class="st5" d="M296.8,374.6l-0.5,55.8c-4.4,5-8.9-0.1-8.9-0.1l0.6-53.5C290.9,376.1,293.9,375.4,296.8,374.6z"></path>		<path class="st10" d="M229.9,364.2c0,7.3,29.7,13.3,66.3,13.3c36.6,0,66.3-5.9,66.3-13.3c0-1.6,0-9,0-9   c-9.2-5.1-37.5-4.2-66.3-4.2c-26.6,0-55.7-0.3-66.3,4.2C229.9,355.2,229.9,362.2,229.9,364.2z"></path>		<ellipse class="st10" cx="296.2" cy="355.2" rx="66.3" ry="13.3"></ellipse>	</g>	<path class="st16" d="M332.3,364.1c0,0,18.9-6.6,22.1-9.5c3.2-3-5-7.9-5-7.9L332.3,364.1z"></path>	<g>		<path class="st8" d="M332.3,364.1c0,0,16.5-8.5,21.2-12.1c6-4.6-38.2-18.6-46.3-19.7c-3-0.4-19.6,9.1-26,12.7L332.3,364.1z"></path>		<path class="st8" d="M329.8,363.6c0,0,17.9-8.8,22.5-12.4c5.8-4.6-38-18-45.7-19c-2.9-0.4-19,9-25.2,12.5L329.8,363.6z"></path>		<path class="st8" d="M327.6,362.6c0,0,14.9-7.7,19.2-11.1c5.4-4.2-35.1-16.6-42.3-17.6c-2.7-0.4-17.6,8.3-21.7,11.2L327.6,362.6z"></path>		<line class="st8" x1="345.8" y1="352.2" x2="300.8" y2="335.4"></line>		<line class="st8" x1="340.5" y1="355.3" x2="295.7" y2="337.5"></line>		<line class="st8" x1="335.2" y1="358.3" x2="290.5" y2="340.6"></line>		<line class="st8" x1="326.6" y1="340.5" x2="306.6" y2="354.6"></line>		<line class="st8" x1="335.4" y1="344" x2="316.4" y2="357.8"></line>		<line class="st8" x1="343" y1="346.9" x2="323" y2="361"></line>	</g>	<g>		<path class="st5" d="M325.9,337.5c-1.8,0.4-4.2,0.9-4.6,1c0,0-2.4,3.3-3.6,3.2c-1.2-0.1-0.9-2.1,1.9-4.9c1.5-1.5,3.6-2.1,5.3-2.3"></path>		<path class="st5" d="M327.4,338.2c-1.7,0.5-4.8,1.5-5.2,1.7c0,0-2.1,3.5-3.3,3.6c-1.2,0-1.1-2,1.4-5.1c1.2-1.5,3.1-2.4,4.8-2.8"></path>		<path class="st5" d="M330.6,340.1c0,0-4.8,1.2-5.4,1.5c0,0-3,3-4.1,2.9c-1.1-0.1-0.7-2,1.9-4.7c1.3-1.4,3.1-2.2,4.6-2.4"></path>		<path class="st5" d="M333.2,340.7c0,0-2.9,2.7-5.7,3.5c-1.2,0.3-2.1,0-1.8-1c0.5-1.3,2.8-3.1,3.9-4.2"></path>	</g>	<g>		<path class="st4" d="M376.6,408.6c-10.4,0-17.1-1.2-18.2-1.4c0,0-1.5-0.1-1.5-0.1l-0.3-1.4c-1-5.3-3-19.2,1.2-32.5   c3.6-11.3,13.9-12.6,21.4-12.6c3,0,5.9,0.2,8.8,0.4c2.6,0.2,5.1,0.4,7.3,0.4c0.6,0,1.3,0,1.9,0c4.2-0.2,22-6.9,26.6-33.3   c2.9-16.7-4.6-25.5-11.4-30l1.7-3.2c13.4,5.5,20.5,21.5,19.6,44c-0.9,22.5-8.5,60.3-8.6,60.6l-0.2,1l-1,0.3   C404.5,407.3,387.5,408.6,376.6,408.6z"></path>		<path d="M359.5,373.8c5.2-16.5,25.8-9.9,37.7-10.6c5.9-0.3,23.7-8.5,28.3-34.8c3.1-18-5.4-27.3-12.2-31.8   c14.5,5.9,19.2,23.7,18.5,42.2c-0.9,22.6-8.6,60.4-8.6,60.4c-36.4,12.2-64.6,6.3-64.6,6.3c-0.1,0-0.2,0-0.3,0   C357.3,400.2,355.4,386.7,359.5,373.8z"></path>	</g>	<g>		<path class="st5" d="M359.1,336c0,0-7.8-0.5-9,0c-1.3,0.5-0.7,1.9-0.2,2.6C350.4,339.2,359.1,336,359.1,336z"></path>		<path class="st5" d="M358.7,336c0,0-10.3,1.6-12.1,2.9c-1.7,1.3-2.7,5.1-2.1,5.7c0.6,0.5,1.2,0.8,3.1-2l9.9-3.2L358.7,336z"></path>		<path class="st5" d="M355.4,338.6c0,0-5.7,1.4-6.9,2.1c-1.2,0.8-3.7,4.4-3.4,5.9c0.3,1.4,2,1.3,3.9-0.8c2-2,7.2-4.7,7.2-4.7l1.6-2   L355.4,338.6z"></path>		<path class="st5" d="M357.3,339.4c0,0-6.3,1.7-7.8,3.6c-1.5,1.9-2.8,5.7-2,6.2c1.9,1,2.6-2,5.9-5.2l6.2-1.6L357.3,339.4z"></path>		<path class="st5" d="M351.1,337.5c1-0.2,10.5-2.2,11.6-2.3c0,0,19.9-3.2,35.3-2.5l-1.9-12.5c0,0,5.9,1.2,15.7-4.1   c0,0,3,16.7,2.9,21.2c-0.1,4.5-3.3,15.1-22.2,11.7c-16-2.9-21.4-5.1-21.4-5.1s-4.9,4.3-15.2,1.9c0,0-3.7,5.3-5.4,4.6   c-1.7-0.6,1.3-5.4,2-6.6c0.6-1.2,4.8-1.8,4.8-1.8"></path>	</g>	<g>		<path class="st8" d="M332.3,364.1l3.4-36.1c0,0,1.8-6.9-4.4-9.3c-6.1-2.4-42.4-9.6-42.4-9.6s-4.5-0.4-6.3,6.7   c-1.8,7.1-1.7,29-2.4,34.8C280.2,350.5,318.7,361.6,332.3,364.1z"></path>		<g>			<image style="overflow:visible;" width="126" height="126" transform="matrix(1 0 0 1 244 274)">			</image>		</g>		<g>			<image style="overflow:visible;" width="126" height="126" transform="matrix(1 0 0 1 244 274)">			</image>		</g>		<path class="st17" d="M332.3,364.1l3.4-36.1c0,0,1.8-6.9-4.4-9.3c-6.1-2.4-42.4-9.6-42.4-9.6s-4.5-0.4-6.3,6.7   c-1.8,7.1-1.7,29-2.4,34.8C280.2,350.5,318.7,361.6,332.3,364.1z"></path>		<path class="st8" d="M301.3,335.9c-0.1,2.7,2,5,4.6,5.1c2.7,0.1,5-2,5.1-4.6c0.1-2.7-2-5-4.6-5.1   C303.7,331.1,301.5,333.2,301.3,335.9z"></path>	</g>	<path class="st21" d="M377.4,365.2c-6.2,0.4-12.5,2.2-14.5,8.1c-3.8,11.3-3.2,23.5-2.3,28.9"></path>	<path class="st21" d="M425.7,308.2c0,0,10.2,19.3-4.3,40.9c-12,17.7-26,17.4-30.3,17c-1.4-0.1-4.5-0.6-8.2-0.8"></path>	<path class="st16" d="M396.1,320.2l0.7,4.2c0,0,8.5-0.7,15.3-6l-0.3-2.2C411.8,316.2,403.5,321,396.1,320.2z"></path>	<path class="st22" d="M383.7,290.6c-0.1,0.1-2.1,7.7-10.9,8.5c-8.8,0.7-12.5-3.7-13.9-6.2"></path>	<path class="st22" d="M412.5,313.2c0,0-6,6-18.2,6.2"></path>	<path class="st22" d="M376.6,330c-5.7-2.1-11-5.4-15.4-9.6"></path>	<path class="st22" d="M369.1,331.5c-5-2.6-9.4-6.4-12.7-11"></path>	<path class="st5" d="M374.5,345.1c3.1-5.5-0.7-11.2-0.7-11.2H372c0,0,3.8,5.2,0.7,10.7L374.5,345.1z"></path>	<g>		<g>			<path class="st5" d="M352,265.7l0.7-10.2c0,0-11.3-4.9-13,4.6C338.1,269.7,348.1,271.4,352,265.7z"></path>			<g>				<g>					<g>						<path class="st4" d="M348.8,276.1c-0.2,0-0.4,0-0.6,0c-0.7-0.1-1.4-0.3-2-0.7c-1.1-0.7-1.9-1.8-2.2-3.1       c-0.6-2.3,0.6-4.7,2.7-5.7c0.1-0.1,0.3-0.1,0.4-0.1c0.1,0,0.2,0,0.4,0.1c0.3,0.1,0.5,0.3,0.6,0.5c0.1,0.3,0.1,0.5,0,0.8       c-0.1,0.3-0.3,0.5-0.5,0.6c-1.2,0.6-1.9,2-1.6,3.3c0.2,0.8,0.6,1.4,1.3,1.8c0.5,0.3,1,0.4,1.5,0.4c0.2,0,0.5,0,0.7-0.1       c1.1-0.3,1.9-1.1,2.2-2.2c0.1-0.3,0.2-1,0.8-1c0,0,0.1,0,0.1,0c0.1,0,0.3,0.1,0.3,0.2l0.6,0.9c0.1,0.1,0.1,0.2,0.1,0.4       c-0.4,1.9-1.7,3.2-3.6,3.7C349.6,276.1,349.2,276.1,348.8,276.1z"></path>						<path class="st20" d="M347.1,267c0.1,0,0.1,0,0.2,0c0.1,0,0.2,0.1,0.3,0.3c0.1,0.1,0.1,0.3,0,0.4c0,0.1-0.1,0.2-0.3,0.3       c-1.5,0.7-2.2,2.3-1.9,3.9c0.2,0.9,0.8,1.6,1.5,2.1c0.5,0.3,1.1,0.5,1.8,0.5c0.3,0,0.5,0,0.8-0.1c1.3-0.3,2.2-1.3,2.5-2.6       c0.1-0.3,0.1-0.6,0.3-0.6c0,0,0,0,0,0l0.6,0.9c-0.4,1.7-1.5,2.9-3.2,3.3c-0.3,0.1-0.7,0.1-1.1,0.1c-0.2,0-0.4,0-0.5,0       c-0.6-0.1-1.2-0.3-1.8-0.6c-1-0.6-1.7-1.6-2-2.8c-0.5-2.1,0.5-4.2,2.4-5.1C347,267,347,267,347.1,267 M347.2,267.7       C347.2,267.7,347.2,267.7,347.2,267.7C347.2,267.7,347.2,267.7,347.2,267.7 M347.1,266c-0.2,0-0.5,0.1-0.7,0.1       c-2.3,1.1-3.6,3.7-3,6.2c0.3,1.4,1.2,2.6,2.5,3.4c0.7,0.4,1.4,0.7,2.2,0.8c0.2,0,0.4,0,0.7,0c0.4,0,0.9-0.1,1.3-0.2       c2.1-0.5,3.5-2,4-4.1c0.1-0.3,0-0.5-0.1-0.8l-0.6-0.9c-0.2-0.2-0.4-0.4-0.7-0.5c-0.1,0-0.1,0-0.2,0c-0.5,0-1.1,0.2-1.3,1.4       c-0.2,0.9-0.9,1.6-1.8,1.8c-0.2,0-0.4,0.1-0.6,0.1c-0.4,0-0.9-0.1-1.2-0.4c-0.5-0.3-0.9-0.9-1.1-1.5c-0.3-1.1,0.3-2.3,1.3-2.7       c0.4-0.2,0.7-0.5,0.8-0.9c0.1-0.4,0.1-0.8-0.1-1.2c-0.2-0.4-0.5-0.7-0.9-0.8C347.5,266,347.3,266,347.1,266L347.1,266z"></path>					</g>				</g>			</g>			<g>				<path d="M348.7,265.8C348.7,265.8,348.6,265.8,348.7,265.8c-0.2-0.1-0.2-0.2-0.1-0.3c0,0,2.7-4.4-0.3-7c-1-0.9-2.1-1.3-3.2-1.2     c-1.9,0.2-3.2,1.8-3.3,1.8c-0.1,0.1-0.2,0.1-0.3,0c-0.1-0.1-0.1-0.2,0-0.3c0.1-0.1,1.4-1.8,3.5-2c1.2-0.1,2.4,0.3,3.5,1.3     c3.2,2.8,0.4,7.4,0.4,7.5C348.8,265.8,348.8,265.8,348.7,265.8z"></path>			</g>			<g>				<path d="M344.4,261.5c-0.1,0-0.1,0-0.1-0.1c-0.1-0.1,0-0.2,0.1-0.3c0,0,3.6-2,5.7,0.7c0.1,0.1,0.1,0.2,0,0.3     c-0.1,0.1-0.2,0.1-0.3,0c-1.9-2.4-5.2-0.6-5.2-0.6C344.5,261.5,344.4,261.5,344.4,261.5z"></path>			</g>			<g>				<g>					<g>						<path class="st5" d="M348.2,237.9c0,0-3.6,7.8-3.7,19.8c-0.1,11,7.1,22.9,20.3,25.4c12.4,2.3,23.8-1.5,29.8-18.6       c6-17.1,1.4-30.7-14.3-35.9C364.8,223.5,352.5,227.9,348.2,237.9z"></path>					</g>					<path class="st14" d="M383.5,233.1c0,0,0.1,6.1-9.2,7.1c0,0-2.6,6.9-10,4.1c0,0-3.9,7.3-11.7,7.4c0,0-1.3,5.3-8.7,3.4      c0,0-2.3-41.8,40.2-27.7L383.5,233.1z"></path>					<path class="st14" d="M381.3,234.7c0,0,0,8,7.7,9.8c0,0-1.9,5.6,4,8.9c0,0-2.8,4.8,2.3,9.1l4.3,0.5c0,0,11.5-28-15.4-35.6"></path>					<g>						<path class="st5" d="M392.6,260.9c0,0,9.8-2.3,9.1,7.4c-0.6,9.1-9.6,9-12.8,3.6"></path>						<g>							<path d="M391.7,271.8C391.7,271.8,391.7,271.8,391.7,271.8c0.2,0,0.2-0.1,0.2-0.3c0,0-1.5-4.9,2-6.7c1.2-0.6,2.4-0.8,3.4-0.4        c1.8,0.6,2.7,2.5,2.7,2.6c0,0.1,0.2,0.1,0.3,0.1c0.1,0,0.1-0.2,0.1-0.3c0-0.1-1-2.1-2.9-2.8c-1.2-0.4-2.4-0.3-3.7,0.4        c-3.8,1.9-2.2,7.1-2.2,7.2C391.5,271.7,391.6,271.8,391.7,271.8z"></path>						</g>						<g>							<path d="M396.9,268.6c0.1,0,0.1,0,0.2-0.1c0.1-0.1,0.1-0.2,0-0.3c0,0-3-2.8-5.7-0.7c-0.1,0.1-0.1,0.2,0,0.3        c0.1,0.1,0.2,0.1,0.3,0c2.4-1.9,5.2,0.6,5.2,0.6C396.8,268.6,396.8,268.6,396.9,268.6z"></path>						</g>					</g>					<g>						<g>							<path class="st23" d="M365.2,270.1c3,0.4,3.6-2.1,3.6-2.1c0-0.1,0-0.2-0.1-0.2c-0.1,0-0.2,0-0.2,0.1c0,0.1-0.6,2.4-3.7,1.7        c-0.1,0-0.2,0-0.2,0.1c0,0.1,0,0.2,0.1,0.2C364.9,270,365.1,270,365.2,270.1z"></path>						</g>						<path class="st14" d="M384.5,255.7c0,0,2.1-1.5-1.7-4.1c-3.8-2.6-5.3-2.3-6.1-1.3c-0.7,0.9,0,2.5,2.2,3.9       C381.5,255.9,383.3,256.6,384.5,255.7z"></path>						<path class="st14" d="M376.3,261.8c-0.2,1.3,0.6,2.5,1.7,2.6c1.1,0.1,2.1-0.8,2.2-2.1c0.2-1.3-0.6-2.5-1.7-2.6       C377.4,259.5,376.4,260.5,376.3,261.8z"></path>						<path class="st14" d="M355.4,259.3c-0.2,1.3,0.6,2.5,1.7,2.6c1.1,0.1,2.1-0.8,2.2-2.1c0.2-1.3-0.6-2.5-1.7-2.6       C356.6,257,355.6,258,355.4,259.3z"></path>						<path class="st14" d="M353.1,251.6c0,0-1.7-1.9,2.6-3.6c4.3-1.6,5.7-1,6.2,0.1c0.5,1-0.6,2.4-3.1,3.3       C356,252.5,354.1,252.7,353.1,251.6z"></path>						<g>							<path class="st23" d="M365.1,265.3c0.1,0,0.1,0,0.2-0.1c0.1-0.1,0-0.2-0.1-0.3c0,0-1.5-0.9-2-2.4c-0.4-1.2,0-2.8,0.8-3.4        c0.5-0.4,1.1-0.3,1.7,0.1c0,0,0.1,0,0.1,0.1c2.2,1.7,3.4,1.2,3.9,0.5c1.1-1.3,1-7.3,1-8.6c0-0.1-0.1-0.2-0.2-0.2        c-0.1,0-0.2,0.1-0.2,0.2c-0.2,3.4-0.1,7.3-1,8.4c-0.7,0.8-1.8,0.7-3.4-0.5c0,0-0.1-0.1-0.1-0.1c-0.8-0.5-1.6-0.6-2.2-0.1        c-0.9,0.7-1.4,2.5-0.9,3.8C363.5,264.3,365,265.2,365.1,265.3C365.1,265.3,365.1,265.3,365.1,265.3z"></path>						</g>					</g>				</g>			</g>			<g>				<g>					<g>						<path class="st4" d="M391.6,281.8c-0.2,0-0.4,0-0.6,0c-0.6-0.1-1.2-0.2-1.7-0.5c-1.7-0.9-2.7-2.5-2.6-4.4       c0-0.1,0.1-0.3,0.2-0.3l0.8-0.7c0.1-0.1,0.2-0.1,0.3-0.1c0,0,0,0,0,0c0.5,0,0.7,0.4,0.7,1.2c0,1.1,0.6,2.1,1.6,2.6       c0.4,0.2,0.9,0.3,1.3,0.3c0.3,0,0.6,0,0.9-0.1c0.7-0.2,1.3-0.7,1.7-1.4c0.6-1.2,0.3-2.7-0.7-3.6c-0.2-0.2-0.4-0.4-0.4-0.7       s0-0.5,0.2-0.8c0.2-0.2,0.4-0.4,0.7-0.4c0,0,0.1,0,0.1,0c0.2,0,0.5,0.1,0.7,0.2c1.8,1.5,2.4,4.1,1.3,6.2       c-0.6,1.2-1.6,2.1-2.9,2.5C392.6,281.7,392.1,281.8,391.6,281.8z"></path>						<path class="st20" d="M394,273.2c0.1,0,0.2,0,0.3,0.1c1.6,1.3,2.1,3.7,1.2,5.5c-0.6,1.1-1.5,1.8-2.6,2.2       c-0.4,0.1-0.9,0.2-1.4,0.2c-0.2,0-0.4,0-0.5,0c-0.5-0.1-1-0.2-1.5-0.5c-1.5-0.8-2.4-2.2-2.3-4l0.8-0.7c0.2,0,0.2,0.4,0.2,0.6       c0,1.3,0.7,2.5,1.8,3.1c0.5,0.3,1,0.4,1.6,0.4c0.3,0,0.7-0.1,1-0.2c0.9-0.3,1.6-0.9,2-1.7c0.7-1.4,0.4-3.2-0.9-4.2       c-0.1-0.1-0.2-0.2-0.2-0.4c0-0.1,0-0.3,0.1-0.4C393.7,273.3,393.8,273.2,394,273.2C394,273.2,394,273.2,394,273.2 M394,273.8       C394,273.8,394,273.8,394,273.8C394,273.8,394,273.8,394,273.8 M394,272.2c-0.1,0-0.1,0-0.2,0c-0.4,0-0.8,0.2-1,0.6       c-0.3,0.3-0.4,0.7-0.3,1.1c0,0.4,0.2,0.8,0.6,1c0.9,0.7,1.1,2,0.6,3c-0.3,0.6-0.8,1-1.4,1.2c-0.2,0.1-0.5,0.1-0.7,0.1       c-0.4,0-0.8-0.1-1.1-0.3c-0.8-0.4-1.3-1.3-1.3-2.2c0-1.4-0.8-1.6-1.1-1.7c0,0-0.1,0-0.1,0c-0.3,0-0.5,0.1-0.7,0.3l-0.8,0.7       c-0.2,0.2-0.3,0.4-0.3,0.7c0,2.1,1,3.9,2.9,4.9c0.6,0.3,1.2,0.5,1.9,0.6c0.2,0,0.4,0,0.7,0c0.6,0,1.1-0.1,1.7-0.3       c1.4-0.4,2.5-1.4,3.2-2.7c1.2-2.3,0.6-5.2-1.4-6.8C394.7,272.3,394.4,272.2,394,272.2L394,272.2z"></path>					</g>				</g>			</g>		</g>	</g>	<path class="st22" d="M335.4,292.4c0,0-0.1,16.6,6.9,23.9"></path>	<g>		<path class="st21" d="M359.5,373.8c5.2-16.5,25.8-9.9,37.7-10.6c5.9-0.3,23.7-8.5,28.3-34.8c3.1-18-5.4-27.3-12.2-31.8"></path>	</g></g><g>	<path class="st24" d="M161.3,224.7c6.6-7.2,9.3-19,9.3-19c6.3-5.3,9-15.3,8.2-15.8c-1.4-0.7-3.6,5.5-3.6,5.5s2.8-8.5,1.2-8.8  c-1.9-0.3-3.9,7.2-3.9,7.2s2.3-9.9,0.8-9.7c-1,0.2-2.7,4.3-3.6,6.8c-0.4,1.2-0.7,2-0.7,2s0.3-0.8,0.7-2c0.9-2.6,2-6.9,0.5-6.6  c-2.2,0.5-4.9,10.4-4.9,10.4s-2-7.8-3.6-4.8c-1.7,3-1.6,10.4-1.6,10.4s-2.9,5-10.1,16.2l8.5,7.7"></path>	<path class="st25" d="M167.2,195.1c1.7,1.8,2.6,4.2,2.6,6.7"></path>	<g>		<path class="st10" d="M205.6,191.7l-56.3,3c-6.2,0.3-11.5-4.4-11.8-10.6l-2.2-42.6c-0.3-6.2,4.4-11.5,10.6-11.8l56.3-3   c6.2-0.3,11.5,4.4,11.8,10.6l2.2,42.6C216.5,186,211.8,191.3,205.6,191.7z"></path>		<path class="st11" d="M205.6,191.7l-56.3,3c-6.2,0.3-11.5-4.4-11.8-10.6l-2.2-42.6c-0.3-6.2,4.4-11.5,10.6-11.8l56.3-3   c6.2-0.3,11.5,4.4,11.8,10.6l2.2,42.6C216.5,186,211.8,191.3,205.6,191.7z"></path>					<rect x="143.8" y="135.1" transform="matrix(0.9986 -5.251521e-02 5.251521e-02 0.9986 -7.0276 9.3588)" class="st10" width="61.6" height="6.5"></rect>		<path class="st12" d="M156.4,151.8c0.1,2.3-1.6,4.3-3.9,4.4c-2.3,0.1-4.3-1.6-4.4-3.9c-0.1-2.3,1.6-4.3,3.9-4.4   C154.4,147.7,156.3,149.5,156.4,151.8z"></path>		<path class="st12" d="M157.2,166.6c0.1,2.3-1.6,4.3-3.9,4.4c-2.3,0.1-4.3-1.6-4.4-3.9c-0.1-2.3,1.6-4.3,3.9-4.4   C155.1,162.6,157.1,164.3,157.2,166.6z"></path>		<path class="st12" d="M158,181.4c0.1,2.3-1.6,4.3-3.9,4.4c-2.3,0.1-4.3-1.6-4.4-3.9c-0.1-2.3,1.6-4.3,3.9-4.4   C155.9,177.4,157.9,179.1,158,181.4z"></path>		<line class="st5" x1="160.6" y1="155.2" x2="202.1" y2="153"></line>		<line class="st5" x1="161.4" y1="170" x2="202.8" y2="167.8"></line>		<line class="st5" x1="162.1" y1="184.8" x2="203.6" y2="182.6"></line>		<g>			<g>				<line x1="148.7" y1="175.6" x2="159.4" y2="187.9"></line>				<path d="M159.4,188.6c-0.2,0-0.4-0.1-0.5-0.2L148.2,176c-0.2-0.3-0.2-0.7,0.1-0.9c0.3-0.2,0.7-0.2,0.9,0.1l10.7,12.3     c0.2,0.3,0.2,0.7-0.1,0.9C159.7,188.5,159.6,188.6,159.4,188.6z"></path>			</g>			<g>				<line x1="161" y1="174.6" x2="149.8" y2="186.4"></line>				<path d="M149.9,187.1c-0.2,0-0.4-0.1-0.5-0.2c-0.3-0.3-0.3-0.7,0-0.9l11.2-11.9c0.3-0.3,0.7-0.3,0.9,0c0.3,0.3,0.3,0.7,0,0.9     l-11.2,11.9C150.2,187,150,187.1,149.9,187.1z"></path>			</g>		</g>		<g>			<path d="M153.4,168.9C153.4,169,153.3,169,153.4,168.9c-0.3,0-0.5-0.1-0.6-0.3l-2-2.7c-0.2-0.3-0.2-0.7,0.1-0.9    c0.3-0.2,0.7-0.2,0.9,0.1l1.6,2.1l6.7-6.3c0.3-0.3,0.7-0.2,0.9,0c0.3,0.3,0.2,0.7,0,0.9l-7.2,6.8    C153.7,168.9,153.6,168.9,153.4,168.9z"></path>		</g>		<g>			<path d="M152.6,154.1C152.6,154.1,152.6,154.1,152.6,154.1c-0.3,0-0.5-0.1-0.6-0.3l-2-2.7c-0.2-0.3-0.2-0.7,0.1-0.9    c0.3-0.2,0.7-0.2,0.9,0.1l1.6,2.1l6.7-6.3c0.3-0.3,0.7-0.2,0.9,0c0.3,0.3,0.2,0.7,0,0.9L153,154    C152.9,154.1,152.8,154.1,152.6,154.1z"></path>		</g>		<path class="st12" d="M161.8,153c1.2-0.5,2.5-1,3.1-2.1c0.6-1.1,0-3-1.3-2.9c-1.4,0-1.9,2.2-0.9,3.2c0.9,1.1,2.5,1.2,3.9,1.3   c1.1,0.1,2.3,0.1,3.3-0.2c1.1-0.3,2-1.2,2.2-2.3c0.2-1.1-0.7-2.4-1.8-2.3c-1.6,0-2.1,2.6-1,3.7c1.1,1.2,2.9,1.3,4.5,1.4   c1.4,0.1,2.9,0.1,4.2-0.4c1.3-0.5,2.5-1.6,2.6-3s-1.3-2.8-2.7-2.4c-1.1,0.4-1.7,1.9-1.2,3c0.5,1.1,1.6,1.8,2.8,2.1   c1.2,0.2,2.4,0.1,3.6-0.1c1.1-0.1,2.1-0.3,3.1-0.8c0.9-0.5,1.7-1.4,1.8-2.5c0-1.1-0.9-2.2-2-2c-1,0.2-1.6,1.4-1.4,2.4   c0.2,1,1.1,1.8,2,2.2c3.2,1.6,7.6-0.2,8.7-3.6c0.4-1.3,0.1-3.1-1.2-3.3c-1-0.2-1.9,0.8-2,1.8c-0.1,1,0.5,2,1.3,2.7   c2.1,2.1,5.7,2.7,8.4,1.4"></path>		<path class="st12" d="M163.1,167.2c1.4,0.2,3-0.9,3.2-2.3c0.2-1.4-1.3-4-2.4-3.1c-1.6,1.4,1.1,4.3,3,5.3c1.9,1,4.3,0.9,6.1-0.4   c1-0.7,1.8-1.8,1.7-3c-0.1-1.2-1.4-2.3-2.5-1.8c-1.4,0.5-1.2,2.9,0,3.8c1.3,0.9,2.9,0.8,4.5,0.6c1.1-0.1,2.3-0.3,3.3-0.8   c1-0.6,1.8-1.7,1.5-2.8s-1.7-1.9-2.6-1.2c-1.1,0.8-0.4,2.6,0.6,3.5c2,1.7,5.2,2,7.5,0.7c2.3-1.4,3.6-4.2,3.1-6.9   c-1.9,0.4-2.8,2.8-2,4.6c0.8,1.7,2.8,2.7,4.8,2.6c1.9-0.1,3.7-1.1,5.2-2.3c1.3-1,2.5-2.8,1.5-4.1c-0.9-1.3-3.3-0.4-3.6,1.1   c-0.3,1.6,1,3.1,2.4,3.7c1.5,0.6,3.2,0.4,4.7,0.3"></path>		<path class="st12" d="M163.1,182.2c2.1-0.1,3.9-2.4,3.4-4.5c-1-0.2-1.9,1-1.7,2c0.2,1,1.2,1.7,2.2,1.9c1,0.2,2.1,0,3.1-0.1   c1.6-0.3,3.3-0.6,4.3-1.9c1-1.2,0.6-3.6-1-3.8c-1.2-0.2-2.3,1.2-2.1,2.5c0.2,1.2,1.3,2.2,2.5,2.5c1.2,0.4,2.5,0.3,3.7,0.2   c1.2-0.1,2.4-0.2,3.4-0.7c1-0.5,1.9-1.6,1.8-2.8c-0.1-1.2-1.5-2.1-2.5-1.6c-1.4,0.8-0.7,2.9,0.5,4c3,2.6,8.2,1.9,10.5-1.4   c0.7-1,1-2.7,0-3.4c-1-0.7-2.6,0.1-2.8,1.3c-0.3,1.2,0.6,2.4,1.6,3c1.1,0.6,2.4,0.6,3.6,0.6c1.8-0.1,3.8-0.6,4.9-2.1   c1.1-1.5,0.4-4.2-1.4-4.3c-1.6-0.1-2.8,1.8-2.3,3.4c0.5,1.5,2.2,2.4,3.8,2.5c1.6,0.1,3.2-0.4,4.7-1"></path>	</g>	<path class="st24" d="M165.4,194.8c0,0-2-7.8-3.6-4.8c-1.7,3-1.6,10.4-1.6,10.4"></path>	<path class="st24" d="M117.3,277.8c13.1-8.9,19.1-13,33-29.4c6.9-8.1,20.2-39.1,20.2-39.1s0,0-13.2-4.3c0,0-14.9,19.8-19.8,24.3  c-4.2,3.8-18.3,11.7-18.3,11.7"></path>	<g>		<path class="st26" d="M168.1,208.9l-4.1,6.6c0,0-6.3-2.5-10.2-8l4-5.4C157.8,202.1,163,206.6,168.1,208.9z"></path>		<path class="st26" d="M168.1,208.9l-0.7,7.3c0,0,1.9,0,2.9-0.6l0.2-6.3C170.5,209.3,169.3,209.4,168.1,208.9z"></path>	</g>	<g>		<path class="st26" d="M104.5,430.6l-5.5-101.6l29.1-3.5c0,0-6.1,76.3-10.4,102.1c0,0,20.1,7.7,20,11.5c-0.1,3.8-23.4,0.5-23.4,0.5   S99.9,443,104.5,430.6z"></path>	</g>	<g>		<path class="st26" d="M70.6,433.6c0,0-1.1-70.7-1.3-122.1c0-7.7,27.7,12.9,27.7,12.9s-9,80.4-13.3,106.2c0,0,19.5,7.5,19.3,11.3   c-0.1,3.8-22.7,0.7-22.7,0.7S66,446,70.6,433.6z"></path>	</g>	<g>		<g>			<path class="st26" d="M96.4,435.5c6.1,3.1,8,5.9,8,5.9s-0.3,0.9-9.1,1.5C94.8,440.3,95.2,437.7,96.4,435.5z"></path>			<path class="st26" d="M70.3,432.3c8,4.7,17.9-0.1,17.9-0.1c3.4,1,6.1,2.2,8.3,3.3c-1.2,2.2-1.6,4.8-1.1,7.4    c-2.3,0.2-5.1,0.3-8.6,0.4c-17.1,0.5-17.7-3.9-17.7-3.9C69.1,435.1,70.3,432.6,70.3,432.3z"></path>		</g>		<g>			<path class="st26" d="M69.1,439.4c0,0.8,0.1,1.7,0.2,2.7c0,0,4.9,1.9,18.3,2.4c15,0.6,17-1.3,17-1.3s0.1-0.7-0.1-1.8    C88.4,443.9,75.8,441.4,69.1,439.4z"></path>		</g>		<g>			<path d="M90.4,439.3c-0.2,0-0.3-0.1-0.3-0.3c-0.2-3.7,2.6-5.3,2.7-5.3c0.1-0.1,0.3,0,0.4,0.1c0.1,0.1,0,0.3-0.1,0.4    c-0.1,0.1-2.5,1.4-2.4,4.8C90.7,439.2,90.6,439.3,90.4,439.3C90.4,439.3,90.4,439.3,90.4,439.3z"></path>		</g>		<g>			<path d="M87.5,438.2C87.5,438.2,87.5,438.2,87.5,438.2c-0.2,0-0.3-0.1-0.3-0.3c0.1-3.9,2.5-5.3,2.6-5.3c0.1-0.1,0.3,0,0.4,0.1    c0.1,0.1,0,0.3-0.1,0.4c-0.1,0-2.2,1.3-2.3,4.8C87.8,438.1,87.6,438.2,87.5,438.2z"></path>		</g>		<g>			<path d="M88.7,434.3C88.7,434.3,88.7,434.3,88.7,434.3c-0.1,0-0.2-0.1-0.3-0.2c-0.1-0.3-1.2-3.4-0.4-4.4c0.1-0.2,0.4-0.4,0.9-0.4    c0.4,0,0.7,0.2,0.9,0.5c0.7,1.2-0.6,4-0.8,4.3C89,434.2,88.9,434.3,88.7,434.3z M88.8,429.9c-0.2,0-0.3,0.1-0.3,0.1    c-0.4,0.5-0.1,1.9,0.3,3.1c0.4-1.1,0.8-2.5,0.5-3C89.2,430,89.1,429.9,88.8,429.9C88.9,429.9,88.9,429.9,88.8,429.9z"></path>		</g>		<g>			<path d="M88.7,434.3C88.7,434.3,88.7,434.3,88.7,434.3c-0.4,0-3.6-0.4-4.2-1.6c-0.1-0.2-0.2-0.6,0.1-1c0.2-0.3,0.5-0.5,0.9-0.5    c0,0,0,0,0.1,0c1.3,0,3.2,2.4,3.4,2.6c0.1,0.1,0.1,0.2,0,0.3C89,434.3,88.9,434.3,88.7,434.3z M85.6,431.8    C85.6,431.8,85.5,431.8,85.6,431.8c-0.1,0-0.3,0-0.4,0.3c-0.1,0.2-0.1,0.3,0,0.4c0.3,0.5,1.7,0.9,2.9,1.1    C87.2,432.7,86.2,431.8,85.6,431.8z"></path>		</g>	</g>	<g>		<path class="st4" d="M80,432.6c-6.6,0-10.9-0.8-13.2-2.4l-0.7-0.5l0-0.9c0-0.8-2.6-76.9,0.2-119.4l0.1-1.8l65.9,3.3l-9,118.9   l-1.4,0.2c-0.1,0-3,0.5-7.7,0.5c-4.6,0-9.2-0.4-13.7-1.3l-1.5-0.3l-1-66.1l-8.4,69.4l-1.5,0.1C87.9,432.3,84.3,432.6,80,432.6z"></path>		<path d="M130.2,312.5l-8.7,115.6c0,0-9,1.4-20.7-0.8L99.3,336l0,0l-11.5,94.4c0,0-15.4,1.6-20.1-1.7c0,0-2.6-76.3,0.2-119.2   L130.2,312.5z"></path>		<g>			<path class="st4" d="M87.4,337.8c-0.1,0-0.2-0.1-0.2-0.2c0-0.1,0.1-0.2,0.2-0.2c9.6-0.1,23.2-2.7,23.3-2.7c0.1,0,0.2,0.1,0.2,0.2    c0,0.1-0.1,0.2-0.2,0.2C110.7,335.1,97,337.7,87.4,337.8C87.4,337.8,87.4,337.8,87.4,337.8z"></path>		</g>		<g>			<path class="st4" d="M70.6,428.4c-0.1,0-0.2-0.1-0.2-0.2c0-0.1-0.2-8.2,0.3-110.3c0-0.1,0.1-0.2,0.2-0.2c0.1,0,0.2,0.1,0.2,0.2    c-0.5,102-0.3,110.2-0.3,110.3C70.8,428.3,70.7,428.4,70.6,428.4C70.6,428.4,70.6,428.4,70.6,428.4z"></path>		</g>		<g>			<path class="st4" d="M103.6,426.7c-0.1,0-0.2-0.1-0.2-0.2l0.1-90.1c0-0.1,0.1-0.2,0.2-0.2c0.1,0,0.2,0.1,0.2,0.2l-0.1,90.1    C103.8,426.6,103.7,426.7,103.6,426.7C103.6,426.7,103.6,426.7,103.6,426.7z"></path>		</g>		<g>			<path class="st4" d="M101.3,332.4c-0.1,0-0.2-0.1-0.2-0.2l0.6-15.2c0-0.1,0.1-0.2,0.2-0.2c0.1,0,0.2,0.1,0.2,0.2l-0.6,15.2    C101.5,332.3,101.4,332.4,101.3,332.4z"></path>		</g>		<g>			<path class="st4" d="M71.3,331.7c-0.1,0-0.1,0-0.1-0.1c-0.1-0.1-0.1-0.2,0-0.3c5.8-5.5,9.1-13.6,8.7-21.6c0-0.1,0.1-0.2,0.2-0.2    c0.1,0,0.2,0.1,0.2,0.2c0.3,8.1-3,16.3-8.8,21.9C71.4,331.7,71.3,331.7,71.3,331.7z"></path>		</g>		<g>			<path class="st4" d="M127.9,331.8C127.9,331.8,127.9,331.8,127.9,331.8c-3.3-1.1-5.9-4.2-7-8c-1.1-3.9-0.6-8.1-0.1-10.8    c0-0.1,0.1-0.2,0.2-0.2c0.1,0,0.2,0.1,0.2,0.2c-0.5,2.7-1,6.8,0.1,10.6c1,3.7,3.6,6.7,6.7,7.8c0.1,0,0.2,0.2,0.1,0.3    C128.1,331.8,128,331.8,127.9,331.8z"></path>		</g>		<g>			<path class="st4" d="M101.3,331.6c-0.1,0-2.8-0.2-3.3-5.6c-0.4-5.3-0.3-12.4-0.3-12.5c0-0.1,0.1-0.2,0.2-0.2    c0.1,0,0.2,0.1,0.2,0.2c0,0.1-0.1,7.2,0.3,12.4c0.4,5.1,2.8,5.2,2.9,5.2c0.1,0,0.2,0.1,0.2,0.2    C101.5,331.5,101.4,331.6,101.3,331.6z"></path>		</g>	</g>	<g>		<g>			<path class="st26" d="M130.6,432.6c6.1,3.1,8,5.9,8,5.9s-0.3,0.9-9.1,1.5C129,437.4,129.4,434.7,130.6,432.6z"></path>			<path class="st26" d="M104.4,429.4c8,4.7,17.9-0.1,17.9-0.1c3.4,1,6.1,2.2,8.3,3.3c-1.2,2.2-1.6,4.8-1.1,7.4    c-2.3,0.2-5.1,0.3-8.6,0.4c-17.1,0.5-17.7-3.9-17.7-3.9C103.3,432.1,104.5,429.6,104.4,429.4z"></path>		</g>		<g>			<path class="st26" d="M103.2,436.5c0,0.8,0.1,1.7,0.2,2.7c0,0,4.9,1.9,18.3,2.4c15,0.6,17-1.3,17-1.3s0.1-0.7-0.1-1.8    C122.6,440.9,109.9,438.4,103.2,436.5z"></path>		</g>		<g>			<path d="M124.5,436.3c-0.2,0-0.3-0.1-0.3-0.3c-0.2-3.7,2.6-5.3,2.7-5.3c0.1-0.1,0.3,0,0.4,0.1c0.1,0.1,0,0.3-0.1,0.4    c-0.1,0.1-2.5,1.4-2.4,4.8C124.9,436.2,124.7,436.3,124.5,436.3C124.5,436.3,124.5,436.3,124.5,436.3z"></path>		</g>		<g>			<path d="M121.6,435.2C121.6,435.2,121.6,435.2,121.6,435.2c-0.2,0-0.3-0.1-0.3-0.3c0.1-3.9,2.5-5.3,2.6-5.3    c0.1-0.1,0.3,0,0.4,0.1c0.1,0.1,0,0.3-0.1,0.4c-0.1,0-2.2,1.3-2.3,4.8C121.9,435.1,121.8,435.2,121.6,435.2z"></path>		</g>		<g>			<path d="M122.9,431.3C122.9,431.3,122.9,431.3,122.9,431.3c-0.1,0-0.2-0.1-0.3-0.2c-0.1-0.3-1.2-3.4-0.4-4.4    c0.1-0.2,0.4-0.4,0.9-0.4c0.4,0,0.7,0.2,0.9,0.5c0.7,1.2-0.6,4-0.8,4.3C123.1,431.2,123,431.3,122.9,431.3z M123,426.9    c-0.2,0-0.3,0.1-0.3,0.1c-0.4,0.5-0.1,1.9,0.3,3.1c0.4-1.1,0.8-2.5,0.5-3C123.4,427,123.3,426.9,123,426.9    C123,426.9,123,426.9,123,426.9z"></path>		</g>		<g>			<path d="M122.9,431.3C122.9,431.3,122.9,431.3,122.9,431.3c-0.4,0-3.6-0.4-4.2-1.6c-0.1-0.2-0.2-0.6,0.1-1    c0.2-0.3,0.5-0.5,0.9-0.5c1.3-0.1,3.3,2.4,3.5,2.6c0.1,0.1,0.1,0.2,0,0.3C123.1,431.3,123,431.3,122.9,431.3z M119.7,428.8    C119.7,428.8,119.7,428.8,119.7,428.8c-0.1,0-0.3,0-0.4,0.3c-0.1,0.2-0.1,0.3,0,0.4c0.3,0.5,1.7,0.9,2.9,1.1    C121.4,429.8,120.4,428.8,119.7,428.8z"></path>		</g>	</g>	<g>		<path class="st27" d="M91.8,299.7c0,0-0.1,0-0.1-0.1c0-0.1,0-0.2,0-0.2c6.4-4.1,12-9.5,16.2-15.8c0-0.1,0.1-0.1,0.2,0   c0.1,0,0.1,0.1,0,0.2C103.9,290.1,98.3,295.6,91.8,299.7C91.8,299.7,91.8,299.7,91.8,299.7z"></path>	</g>	<g>		<path class="st27" d="M101.2,303.7c0,0-0.1,0-0.1,0c-0.1-0.1-0.1-0.2,0-0.2c4.5-4.7,8.1-10.4,10.5-16.5c0-0.1,0.1-0.1,0.2-0.1   c0.1,0,0.1,0.1,0.1,0.2c-2.4,6.1-6,11.9-10.6,16.6C101.3,303.7,101.2,303.7,101.2,303.7z"></path>	</g>	<g>		<path class="st28" d="M92.2,225.5l0.2,5.2c5.4,1.6,11.1,2,16.4,1.1l0.4-7.4L92.2,225.5z"></path>		<path class="st28" d="M108.7,235.2l0.2-3.4c-5.3,0.9-10.9,0.6-16.4-1.1l0.2,3.5C97.7,236.1,103.2,236.1,108.7,235.2z"></path>		<path class="st8" d="M97.8,243.5c0,0,1.4,3.9,2.3,13.7c0.7,7.7-1.9,46.8-3.1,62.9c-0.3,4.3-2.2,7.2-2.2,7.2s-23.5-3.2-30.5-17.1   c0,0,2.3-15.8,7.1-39.2c0,0,6.6-33.1,9.1-33.5c7.5-1.1,9.4-0.7,9.4-0.7L97.8,243.5z"></path>		<path class="st26" d="M124.8,239.1c-5.9-2-12.9-1.4-12.9-1.4l-8.7,6c0,0-1.7,3.7-3.4,13.4c-1.3,7.7-2.4,46.2-2.8,62   c-0.2,0.5,2.5,7.8,2.5,7.8s24.9-0.7,32.9-13.9c0,0,1.1-14.4-1.9-38.2c0,0-0.2-4-0.8-9.2"></path>		<g>			<path class="st29" d="M103.2,325.4c-0.1,0-0.2-0.1-0.2-0.2c0,0-1.3-4.5-2.1-8.9c-0.5-2.9-0.1-15.3,0.4-28.5    c0.2-7.3,0.5-14.9,0.6-21.1c0.3-17,4.2-22.7,4.4-23c0.1-0.1,0.2-0.1,0.3-0.1c0.1,0.1,0.1,0.2,0.1,0.3c0,0.1-4.1,5.9-4.3,22.7    c-0.1,6.2-0.4,13.8-0.6,21.1c-0.4,13.1-0.8,25.5-0.4,28.4c0.7,4.4,2,8.8,2,8.9C103.5,325.2,103.4,325.3,103.2,325.4    C103.3,325.4,103.3,325.4,103.2,325.4z"></path>		</g>		<path class="st8" d="M82,237.2c0,0-8.2,0.4-15.3,8.6c-19.4,22.5-26,61.6-26,61.6s3.7-0.9,12.4,2.2c0,0,9.6-10.1,16.7-28.1   c0,0,5-9.8,7.3-20.8"></path>		<path class="st26" d="M108.5,239.1l0.2-4c-5.5,1-10.9,0.9-16-1l0.2,4.4"></path>	</g>	<g>		<g>			<path class="st30" d="M73.3,211C73.3,211,73.3,211,73.3,211C73.3,211,73.3,211,73.3,211z"></path>		</g>	</g>	<g>		<g>			<path class="st30" d="M126.7,222.7C126.7,222.7,126.7,222.7,126.7,222.7C126.7,222.7,126.7,222.7,126.7,222.7z"></path>		</g>	</g>	<path class="st26" d="M91.9,234.2c0,0-3.5,0-4.7,1.3c-2,2.2-3,3.7-3,3.7s3.1,6.9,9.8,9.3c0,0,1.6-4.8,3.5-5.7c0,0-4-1.9-5.2-4.2  C91.9,237.6,91.9,234.2,91.9,234.2z"></path>	<path class="st26" d="M109.3,234.7c0,0,3.9,0.4,5,1.8c1.8,2.3,2.7,3.9,2.7,3.9s-3.6,6.7-10.5,8.5c0,0-1.2-4.9-3.1-5.9  c0,0,4.1-1.6,5.5-3.8C109.4,238.3,109.3,234.7,109.3,234.7z"></path>	<g>		<g>			<path class="st31" d="M117.4,276.7c-2.9-0.1-6.9-4.3-7.1-4.5c0,0-0.1-0.1-0.1-0.1l0.1-8.6c0-0.1,0.1-0.2,0.2-0.2l13.1,0.2    c0.1,0,0.2,0.1,0.2,0.2l0.4,8.9c0,0,0,0.1-0.1,0.1c-0.1,0.1-3.5,3.6-6.4,4C117.7,276.7,117.5,276.7,117.4,276.7z M110.6,272    c0.5,0.5,4.7,4.6,7.1,4.3c2.5-0.3,5.6-3.3,6-3.8l-0.4-8.7l-12.6-0.2L110.6,272z"></path>		</g>		<g>			<path class="st31" d="M110.8,266.5c-0.1,0-0.2-0.1-0.2-0.2c0-0.1,0.1-0.2,0.2-0.2l12.9,0.3c0,0,0,0,0,0c0.1,0,0.2,0.1,0.2,0.2    c0,0.1-0.1,0.2-0.2,0.2L110.8,266.5C110.8,266.5,110.8,266.5,110.8,266.5z"></path>		</g>	</g>	<path d="M104,249.1c0,0.6-0.5,1-1.1,1c-0.6,0-1-0.5-1-1.1c0-0.6,0.5-1,1.1-1C103.6,248,104.1,248.5,104,249.1z"></path>	<path d="M102,262.6c0,0.6-0.5,1-1.1,1c-0.6,0-1-0.5-1-1.1c0-0.6,0.5-1,1.1-1S102,262,102,262.6z"></path>	<path d="M101.4,277.9c0,0.6-0.5,1-1.1,1c-0.6,0-1-0.5-1-1.1c0-0.6,0.5-1,1.1-1C101,276.8,101.5,277.3,101.4,277.9z"></path>	<path d="M101.1,293c0,0.6-0.5,1-1.1,1c-0.6,0-1-0.5-1-1.1c0-0.6,0.5-1,1.1-1C100.7,291.9,101.1,292.4,101.1,293z"></path>	<path d="M100.5,310.3c0,0.6-0.5,1-1.1,1c-0.6,0-1-0.5-1-1.1c0-0.6,0.5-1,1.1-1C100,309.2,100.5,309.7,100.5,310.3z"></path>	<g>		<path class="st8" d="M104.5,342l-55.3,10.8c-6.1,1.2-12-2.8-13.2-8.9L27.8,302c-1.2-6.1,2.8-12,8.9-13.2L92,278.1   c6.1-1.2,12,2.8,13.2,8.9l8.1,41.8C114.5,334.9,110.6,340.8,104.5,342z"></path>					<rect x="35.5" y="290.3" transform="matrix(0.9816 -0.1911 0.1911 0.9816 -54.867 18.0842)" class="st10" width="61.6" height="6.5"></rect>					<rect x="37.8" y="304" transform="matrix(0.9816 -0.1911 0.1911 0.9816 -57.4131 16.711)" class="st10" width="40.4" height="4.1"></rect>					<rect x="38.9" y="308.7" transform="matrix(0.9816 -0.1911 0.1911 0.9816 -58.1072 18.8742)" class="st10" width="59.9" height="4.1"></rect>					<rect x="40.2" y="316" transform="matrix(0.9816 -0.1911 0.1911 0.9816 -59.5357 18.5588)" class="st10" width="52.5" height="4.1"></rect>					<rect x="41.5" y="322.1" transform="matrix(0.9816 -0.1911 0.1911 0.9816 -60.647 19.3152)" class="st10" width="56.8" height="4.1"></rect>					<rect x="42.8" y="329.1" transform="matrix(0.9816 -0.1911 0.1911 0.9816 -61.9911 19.2872)" class="st10" width="52.5" height="4.1"></rect>					<rect x="44" y="334.7" transform="matrix(0.9816 -0.1911 0.1911 0.9816 -62.9701 20.4878)" class="st10" width="61.6" height="4.1"></rect>	</g>	<g>		<g>			<path class="st32" d="M77.9,313.7c-1.2-0.8-2-1.3-2-1.3S76.7,313,77.9,313.7z"></path>			<path class="st8" d="M58.4,257.4c0,0-2.6,4.1-7.7,15.7c-1.1,2.4-5.5,15.5-5.8,17.4c-0.5,3.4,0.8,7,3.2,9.6    c6.9,7.4,18.1,14,18.1,14c5,6.9,15.1,10.1,15.6,9.3c0.8-1.4-5.4-4.2-5.4-4.2s8.5,3.7,8.9,2.1c0.5-1.9-7.1-4.7-7.1-4.7    s10,3.3,9.8,1.8c-0.1-1.1-4.2-3.1-6.7-4.3c-1.1-0.5-2-0.9-2-0.9s0.8,0.4,2,0.9c2.6,1.1,6.9,2.7,6.7,1.2    c-0.3-2.2-10.3-5.9-10.3-5.9s8.1-1.2,5.1-3.2c-2.9-2-10.6-2.1-10.6-2.1s-3.4-4.9-12.9-15.1l3.6,3.9c0,0,8.5-13.3,10.9-21.3"></path>		</g>	</g>	<g>		<path class="st26" d="M63.5,310.3l-6.3-4.4c0,0,2.8-6.1,8.6-9.8l5.1,4.3C70.9,300.4,66.1,305.3,63.5,310.3z"></path>		<path class="st26" d="M63.5,310.3l-7.2-1.1c0,0-0.1,1.9,0.4,3l6.3,0.5C62.9,312.6,63,311.4,63.5,310.3z"></path>	</g>	<path class="st24" d="M119.3,177c3.5,5.8,5.4,10.2,7.3,25.9c1.5,12.2-6.8,25.4-21.6,28.2c-13.9,2.6-29.2-1.2-36-20.4  c-6.8-19.1-2.5-35.6,14.8-42.1C101.2,162,115.2,170.2,119.3,177z"></path>	<path class="st9" d="M115.2,167.2c17.8,12.1,13.1,39.8,11.6,37.4c-7.9-12.1-12.3-26.5-12.3-26.5c-1.3-2.1-7.2-6.5-7.3-9  c0-2.6,1.7-5.2,4-5.2"></path>	<path class="st33" d="M126.6,205.5c3.2-7.1,3.5-15.5,0.8-22.8c-2.7-7.3-8.5-13.5-15.6-16.7"></path>	<path class="st9" d="M69.6,207.8c0,0,8.2-11.7,8.5-21.2c0,0,26.5,8.1,39.8-7.4c2.7-3.2,4.6-12.3,0.1-13c0,0,0.8-12.9-12.5-9.4  s-15.8,1.6-23.6,2.9c-7.8,1.4-13.5,11.1-13.5,11.1c-16.9,13.8-7.5,35.3-5,37.8C69.9,214.9,69.6,207.8,69.6,207.8z"></path>	<path class="st33" d="M69.7,171.5c-5.5,3.2-9.7,8.6-11.3,14.8c-1.6,6.2-0.6,12.9,2.7,18.4c1.3,2.2,3.2,4.3,5.6,5.1"></path>	<path class="st9" d="M68.2,172.6c-1.8-0.6-5-2.7-3.7-4c0.8-0.8,2.2,0.9,2.9,1.8c-0.4-1-0.7-2.1-1.1-3.1c-0.1-0.3-0.2-0.5-0.2-0.8  c0-0.3,0.2-0.6,0.4-0.6c0.4-0.1,0.8,0.2,1,0.6c1.2,1.6,2,3.4,2.5,5.3"></path>	<g>		<path class="st14" d="M105.5,216.1c-3.3,0.4-4-2.3-4-2.3c0-0.1,0-0.2,0.2-0.3c0.1,0,0.2,0,0.3,0.2c0,0.1,0.7,2.7,4.2,1.9   c0.1,0,0.2,0,0.3,0.2c0,0.1,0,0.2-0.2,0.3C105.9,216,105.7,216.1,105.5,216.1z"></path>	</g>	<path class="st24" d="M71.8,206.9c0,0-11-2.5-10.2,8.3c0.7,9.1,9.5,10.1,13.7,5.9"></path>	<path class="st9" d="M83.5,200.7c0,0-2.4-1.6,1.9-4.6c4.3-3,5.9-2.6,6.8-1.5c0.8,1,0,2.8-2.5,4.4C86.8,200.8,84.8,201.6,83.5,200.7  z"></path>	<path class="st14" d="M93.6,207.5c0.2,1.5-0.7,2.8-1.9,2.9c-1.2,0.1-2.3-0.9-2.5-2.4c-0.2-1.5,0.7-2.8,1.9-2.9  C92.3,205,93.4,206,93.6,207.5z"></path>	<path class="st9" d="M118.6,195c0,0,1.9-2.2-2.9-4c-4.8-1.8-6.4-1.1-7,0.2c-0.5,1.2,0.7,2.7,3.4,3.7  C115.4,196,117.6,196.3,118.6,195z"></path>	<path class="st14" d="M111.5,202.8c0.2,1.5,1.3,2.5,2.5,2.4c1.2-0.1,2-1.5,1.9-2.9c-0.2-1.5-1.3-2.5-2.5-2.4  C112.1,200.1,111.3,201.4,111.5,202.8z"></path>	<g>		<path class="st14" d="M72.8,219.1C72.8,219.1,72.8,219.1,72.8,219.1c-0.2,0-0.3-0.2-0.2-0.3c0-0.1,1.7-5.5-2.2-7.5   c-1.4-0.7-2.7-0.8-3.8-0.4c-2,0.7-3,2.8-3,2.9c-0.1,0.1-0.2,0.2-0.3,0.1c-0.1-0.1-0.2-0.2-0.1-0.3c0-0.1,1.1-2.3,3.3-3.1   c1.3-0.5,2.7-0.3,4.2,0.4c4.3,2.1,2.5,8,2.5,8C73,219,72.9,219.1,72.8,219.1z"></path>	</g>	<g>		<path class="st14" d="M67,215.5c-0.1,0-0.1,0-0.2-0.1c-0.1-0.1-0.1-0.2,0-0.3c0,0,3.3-3.1,6.4-0.8c0.1,0.1,0.1,0.2,0,0.3   c-0.1,0.1-0.2,0.1-0.3,0c-2.7-2.1-5.8,0.7-5.8,0.7C67.1,215.5,67,215.5,67,215.5z"></path>	</g>	<g>		<path class="st14" d="M105.6,210.8c-0.1,0-0.2,0-0.2-0.1c-0.1-0.1,0-0.2,0.1-0.3c0,0,1.6-1,2.2-2.7c0.5-1.3,0-3.1-0.9-3.8   c-0.5-0.4-1.2-0.4-1.9,0.1c0,0-0.1,0-0.1,0.1c-2.5,1.9-3.8,1.3-4.4,0.5c-1.2-1.4-1.8-14-1.9-15.4c0-0.1,0.1-0.2,0.2-0.2   c0.1,0,0.2,0.1,0.2,0.2c0.2,3.8,0.9,14,1.8,15.1c0.8,0.9,2,0.7,3.8-0.6c0.1,0,0.1-0.1,0.1-0.1c0.9-0.6,1.7-0.6,2.4-0.1   c1.1,0.8,1.5,2.8,1,4.3C107.4,209.6,105.7,210.7,105.6,210.8C105.6,210.8,105.6,210.8,105.6,210.8z"></path>	</g>	<g>		<g>			<path class="st9" d="M107.4,203.6c-1.4-6.3,2.6-12.6,8.9-14c6.3-1.4,12.6,2.6,14,8.9c1.4,6.3-2.6,12.6-8.9,14    C115.1,213.9,108.8,209.9,107.4,203.6z M108,203.5c1.3,6,7.2,9.8,13.2,8.5c6-1.3,9.8-7.2,8.5-13.2c-1.3-6-7.2-9.8-13.2-8.5    C110.5,191.6,106.7,197.5,108,203.5z"></path>		</g>		<g>			<path class="st9" d="M76.1,210.4c-1.4-6.3,2.6-12.6,8.9-14c6.3-1.4,12.6,2.6,14,8.9c1.4,6.3-2.6,12.6-8.9,14    C83.8,220.8,77.5,216.7,76.1,210.4z M76.7,210.3c1.3,6,7.2,9.8,13.2,8.5c6-1.3,9.8-7.2,8.5-13.2c-1.3-6-7.2-9.8-13.2-8.5    C79.2,198.4,75.4,204.3,76.7,210.3z"></path>		</g>		<g>			<path class="st9" d="M98.4,204.2c0.1,0,0.1,0,0.1-0.1c3.8-3.5,8.8-1.9,8.8-1.9c0.2,0.1,0.3,0,0.4-0.2c0.1-0.2,0-0.3-0.2-0.4    c-0.1,0-5.4-1.7-9.4,2.1c-0.1,0.1-0.1,0.3,0,0.4C98.2,204.2,98.3,204.2,98.4,204.2z"></path>		</g>	</g></g></svg>