<svg xmlns="http://www.w3.org/2000/svg" xmlns:xlink="http://www.w3.org/1999/xlink" id="Layer_1" x="0px" y="0px" viewBox="0 0 472 475" style="enable-background:new 0 0 472 475;" xml:space="preserve"><style type="text/css">	.st0{fill:#FFFFFF;}	.st1{fill:#D7D7D7;}</style><g>	<g>		<g>			<path class="st0" d="M96.6,40.6h250.1c5,0,10,4.3,10.6,9.3l26.8,195.9c0.6,4.4-2.3,7.8-6.8,7.8H69.2c-5,0-10-4.3-10.6-9.3    L31.8,48.4c-0.6-4.4,2.3-7.8,6.8-7.8H96.6z"></path>			<path d="M377.4,254.1H69.2c-5.3,0-10.4-4.5-11.1-9.8L31.3,48.4c-0.3-2.3,0.3-4.4,1.6-6c1.4-1.6,3.4-2.4,5.6-2.4h308.1    c5.3,0,10.4,4.5,11.1,9.8l26.8,195.9c0.3,2.3-0.3,4.4-1.6,6C381.7,253.2,379.7,254.1,377.4,254.1z M38.6,41.1    c-2,0-3.7,0.7-4.9,2.1c-1.2,1.3-1.7,3.2-1.4,5.2l26.8,195.9c0.6,4.7,5.4,8.9,10.1,8.9h308.1c2,0,3.7-0.7,4.9-2.1    c1.2-1.3,1.7-3.2,1.4-5.2L356.8,50c-0.6-4.7-5.4-8.9-10.1-8.9H38.6z"></path>		</g>	</g>	<g>		<path class="st0" d="M101.4,33.1h250.1c5,0,10,4.3,10.6,9.3L389,238.3c0.6,4.4-2.3,7.8-6.8,7.8H74.1c-5,0-10-4.3-10.6-9.3   L36.6,40.9c-0.6-4.4,2.3-7.8,6.8-7.8H101.4z"></path>		<path d="M382.2,246.6H74.1c-5.3,0-10.4-4.5-11.1-9.8L36.1,40.9c-0.3-2.3,0.3-4.4,1.6-6c1.4-1.6,3.4-2.4,5.6-2.4h308.1   c5.3,0,10.4,4.5,11.1,9.8l26.8,195.9c0.3,2.3-0.3,4.4-1.6,6C386.5,245.7,384.5,246.6,382.2,246.6z M43.4,33.6   c-2,0-3.7,0.7-4.9,2.1c-1.2,1.3-1.7,3.2-1.4,5.2L64,236.7c0.6,4.7,5.4,8.9,10.1,8.9h308.1c2,0,3.7-0.7,4.9-2.1   c1.2-1.3,1.7-3.2,1.4-5.2L361.7,42.5c-0.6-4.7-5.4-8.9-10.1-8.9H43.4z"></path>	</g>	<path d="M364.6,233.8H85.8c-5.1,0-10.1-4.3-10.8-9.4l-0.9-7.5c-0.3-2.2,0.3-4.3,1.6-5.8c1.3-1.5,3.2-2.3,5.5-2.3h278.7  c5.1,0,10.1,4.3,10.8,9.4l0.9,7.5c0.3,2.2-0.3,4.3-1.6,5.8C368.7,232.9,366.8,233.8,364.6,233.8z M81.1,209.7c-1.9,0-3.6,0.7-4.7,2  c-1.1,1.3-1.6,3.1-1.3,5l0.9,7.5c0.6,4.6,5.2,8.6,9.8,8.6h278.7c1.9,0,3.6-0.7,4.7-2c1.1-1.3,1.6-3.1,1.3-5l-0.9-7.5  c-0.6-4.6-5.2-8.6-9.8-8.6H81.1z"></path>	<g>		<path d="M146.1,116.8H72.9c-5.1,0-10.1-4.3-10.8-9.4l-6.6-49.5c-0.3-2.2,0.3-4.3,1.6-5.8c1.3-1.5,3.2-2.3,5.5-2.3h73.1   c5.1,0,10.1,4.3,10.8,9.4l6.6,49.5c0.3,2.2-0.3,4.3-1.6,5.8C150.2,116,148.3,116.8,146.1,116.8z M62.6,50.8c-1.9,0-3.6,0.7-4.7,2   c-1.1,1.3-1.6,3.1-1.3,5l6.6,49.5c0.6,4.6,5.2,8.6,9.8,8.6h73.1c1.9,0,3.6-0.7,4.7-2c1.1-1.3,1.6-3.1,1.3-5l-6.6-49.5   c-0.6-4.6-5.2-8.6-9.8-8.6H62.6z"></path>		<g>			<path d="M107.6,69.7h-9.4c-0.9,0-1.7-0.7-1.8-1.6l-0.9-6.4c-0.1-0.4,0.1-0.8,0.3-1.1c0.3-0.3,0.6-0.5,1-0.5h9.4    c0.9,0,1.7,0.7,1.8,1.6l0.9,6.4c0.1,0.4-0.1,0.8-0.3,1.1C108.4,69.6,108.1,69.7,107.6,69.7z M96.9,61.3c-0.1,0-0.2,0-0.3,0.1    c-0.1,0.1-0.1,0.2-0.1,0.3l0.8,6.4c0.1,0.4,0.4,0.7,0.8,0.7h9.4c0.1,0,0.2,0,0.3-0.1c0.1-0.1,0.1-0.2,0.1-0.3l-0.9-6.4    c-0.1-0.4-0.4-0.7-0.8-0.7H96.9z"></path>			<path d="M122.7,69.7h-9.4c-0.9,0-1.7-0.7-1.8-1.6l-0.9-6.4c-0.1-0.4,0.1-0.8,0.3-1.1c0.3-0.3,0.6-0.5,1-0.5h9.4    c0.9,0,1.7,0.7,1.8,1.6l0.8,6.4c0.1,0.4-0.1,0.8-0.3,1.1C123.5,69.6,123.1,69.7,122.7,69.7z M112,61.3c-0.1,0-0.2,0-0.3,0.1    c-0.1,0.1-0.1,0.2-0.1,0.3l0.9,6.4c0.1,0.4,0.4,0.7,0.8,0.7h9.4c0.1,0,0.2,0,0.3-0.1c0.1-0.1,0.1-0.2,0.1-0.3l-0.9-6.4    c-0.1-0.4-0.4-0.7-0.8-0.7H112z"></path>			<path class="st0" d="M79.1,81.4h-9.4c-0.6,0-1.2-0.5-1.3-1.2l-0.9-6.4c-0.1-0.5,0.3-1,0.8-1h9.4c0.6,0,1.2,0.5,1.3,1.2l0.9,6.4    C80,81,79.7,81.4,79.1,81.4z"></path>			<path class="st0" d="M94.2,81.4h-9.4c-0.6,0-1.2-0.5-1.3-1.2l-0.9-6.4c-0.1-0.5,0.3-1,0.8-1h9.4c0.6,0,1.2,0.5,1.3,1.2l0.9,6.4    C95.1,81,94.7,81.4,94.2,81.4z"></path>			<path class="st0" d="M109.3,81.4h-9.4c-0.6,0-1.2-0.5-1.3-1.2l-0.9-6.4c-0.1-0.5,0.3-1,0.8-1h9.4c0.6,0,1.2,0.5,1.3,1.2l0.9,6.4    C110.2,81,109.8,81.4,109.3,81.4z"></path>			<path d="M124.3,81.9h-9.4c-0.9,0-1.7-0.7-1.8-1.6l-0.9-6.4c-0.1-0.4,0.1-0.8,0.3-1.1c0.3-0.3,0.6-0.5,1-0.5h9.4    c0.9,0,1.7,0.7,1.8,1.6l0.9,6.4c0.1,0.4-0.1,0.8-0.3,1.1C125.1,81.7,124.8,81.9,124.3,81.9z M113.6,73.4c-0.1,0-0.2,0-0.3,0.1    c-0.1,0.1-0.1,0.2-0.1,0.3l0.9,6.4c0.1,0.4,0.4,0.7,0.8,0.7h9.4c0.1,0,0.2,0,0.3-0.1c0.1-0.1,0.1-0.2,0.1-0.3l-0.9-6.4    c-0.1-0.4-0.4-0.7-0.8-0.7H113.6z"></path>			<path class="st0" d="M80.7,93.5h-9.4c-0.6,0-1.2-0.5-1.3-1.2L69.2,86c-0.1-0.5,0.3-1,0.8-1h9.4c0.6,0,1.2,0.5,1.3,1.2l0.9,6.4    C81.7,93.1,81.3,93.5,80.7,93.5z"></path>			<path class="st0" d="M95.8,93.5h-9.4c-0.6,0-1.2-0.5-1.3-1.2L84.2,86c-0.1-0.5,0.3-1,0.8-1h9.4c0.6,0,1.2,0.5,1.3,1.2l0.9,6.4    C96.7,93.1,96.4,93.5,95.8,93.5z"></path>			<path class="st0" d="M110.9,93.5h-9.4c-0.6,0-1.2-0.5-1.3-1.2L99.3,86c-0.1-0.5,0.3-1,0.8-1h9.4c0.6,0,1.2,0.5,1.3,1.2l0.9,6.4    C111.8,93.1,111.4,93.5,110.9,93.5z"></path>			<path class="st0" d="M126,93.5h-9.4c-0.6,0-1.2-0.5-1.3-1.2l-0.9-6.4c-0.1-0.5,0.3-1,0.8-1h9.4c0.6,0,1.2,0.5,1.3,1.2l0.9,6.4    C126.9,93.1,126.5,93.5,126,93.5z"></path>			<path d="M137.9,69.7h-9.4c-0.9,0-1.7-0.7-1.8-1.6l-0.9-6.4c-0.1-0.4,0.1-0.8,0.3-1.1c0.3-0.3,0.6-0.5,1-0.5h9.4    c0.9,0,1.7,0.7,1.8,1.6l0.9,6.4c0.1,0.4-0.1,0.8-0.3,1.1C138.7,69.6,138.3,69.7,137.9,69.7z M127.1,61.3c-0.1,0-0.2,0-0.3,0.1    c-0.1,0.1-0.1,0.2-0.1,0.3l0.8,6.4c0.1,0.4,0.4,0.7,0.8,0.7h9.4c0.1,0,0.2,0,0.3-0.1c0.1-0.1,0.1-0.2,0.1-0.3l-0.8-6.4    c-0.1-0.4-0.4-0.7-0.8-0.7H127.1z"></path>			<path d="M139.5,81.9h-9.4c-0.9,0-1.7-0.7-1.8-1.6l-0.9-6.4c-0.1-0.4,0.1-0.8,0.3-1.1c0.3-0.3,0.6-0.5,1-0.5h9.4    c0.9,0,1.7,0.7,1.8,1.6l0.9,6.4c0.1,0.4-0.1,0.8-0.3,1.1C140.3,81.7,139.9,81.9,139.5,81.9z M128.8,73.4c-0.1,0-0.2,0-0.3,0.1    c-0.1,0.1-0.1,0.2-0.1,0.3l0.9,6.4c0.1,0.4,0.4,0.7,0.8,0.7h9.4c0.1,0,0.2,0,0.3-0.1c0.1-0.1,0.1-0.2,0.1-0.3l-0.9-6.4    c-0.1-0.4-0.4-0.7-0.8-0.7H128.8z"></path>			<path class="st0" d="M141.1,93.5h-9.4c-0.6,0-1.2-0.5-1.3-1.2l-0.9-6.4c-0.1-0.5,0.3-1,0.8-1h9.4c0.6,0,1.2,0.5,1.3,1.2l0.9,6.4    C142.1,93.1,141.7,93.5,141.1,93.5z"></path>			<path class="st0" d="M82.2,105.9h-9.4c-0.6,0-1.2-0.5-1.3-1.2l-0.9-6.4c-0.1-0.5,0.3-1,0.8-1h9.4c0.6,0,1.2,0.5,1.3,1.2l0.9,6.4    C83.1,105.5,82.8,105.9,82.2,105.9z"></path>			<path class="st0" d="M97.3,105.9h-9.4c-0.6,0-1.2-0.5-1.3-1.2l-0.9-6.4c-0.1-0.5,0.3-1,0.8-1H96c0.6,0,1.2,0.5,1.3,1.2l0.9,6.4    C98.2,105.5,97.8,105.9,97.3,105.9z"></path>			<path class="st0" d="M112.4,105.9H103c-0.6,0-1.2-0.5-1.3-1.2l-0.9-6.4c-0.1-0.5,0.3-1,0.8-1h9.4c0.6,0,1.2,0.5,1.3,1.2l0.9,6.4    C113.3,105.5,112.9,105.9,112.4,105.9z"></path>			<path class="st0" d="M127.5,105.9H118c-0.6,0-1.2-0.5-1.3-1.2l-0.9-6.4c-0.1-0.5,0.3-1,0.8-1h9.4c0.6,0,1.2,0.5,1.3,1.2l0.9,6.4    C128.4,105.5,128,105.9,127.5,105.9z"></path>		</g>	</g>	<g>		<path d="M346.4,116.8h-173c-5.1,0-10.1-4.3-10.8-9.4L156,57.9c-0.3-2.2,0.3-4.3,1.6-5.8c1.3-1.5,3.2-2.3,5.5-2.3h173   c5.1,0,10.1,4.3,10.8,9.4l6.6,49.5c0.3,2.2-0.3,4.3-1.6,5.8C350.6,116,348.6,116.8,346.4,116.8z M163,50.8c-1.9,0-3.6,0.7-4.7,2   c-1.1,1.3-1.6,3.1-1.3,5l6.6,49.5c0.6,4.6,5.2,8.6,9.8,8.6h173c1.9,0,3.6-0.7,4.7-2c1.1-1.3,1.6-3.1,1.3-5l-6.6-49.5   c-0.6-4.6-5.2-8.6-9.8-8.6H163z"></path>		<g>			<path d="M192.6,69.7h-23.4c-0.9,0-1.7-0.7-1.8-1.6l-0.9-6.4c-0.1-0.4,0.1-0.8,0.3-1.1c0.3-0.3,0.6-0.5,1-0.5h23.4    c0.9,0,1.7,0.7,1.8,1.6l0.9,6.4c0.1,0.4-0.1,0.8-0.3,1.1C193.4,69.6,193,69.7,192.6,69.7z M167.9,61.3c-0.1,0-0.2,0-0.3,0.1    c-0.1,0.1-0.1,0.2-0.1,0.3l0.9,6.4c0.1,0.4,0.4,0.7,0.8,0.7h23.4c0.1,0,0.2,0,0.3-0.1c0.1-0.1,0.1-0.2,0.1-0.3l-0.9-6.4    c-0.1-0.4-0.4-0.7-0.8-0.7H167.9z"></path>			<path d="M225.8,81.9h-54.9c-0.9,0-1.7-0.7-1.8-1.6l-0.9-6.4c-0.1-0.4,0.1-0.8,0.3-1.1c0.3-0.3,0.6-0.5,1-0.5h54.9    c0.9,0,1.7,0.7,1.8,1.6l0.9,6.4c0.1,0.4-0.1,0.8-0.3,1.1C226.5,81.7,226.2,81.9,225.8,81.9z M169.5,73.4c-0.1,0-0.2,0-0.3,0.1    c-0.1,0.1-0.1,0.2-0.1,0.3l0.8,6.4c0.1,0.4,0.4,0.7,0.8,0.7h54.9c0.1,0,0.2,0,0.3-0.1c0.1-0.1,0.1-0.2,0.1-0.3l-0.9-6.4    c-0.1-0.4-0.4-0.7-0.8-0.7H169.5z"></path>			<path d="M264.1,94.1h-91.7c-0.9,0-1.7-0.7-1.8-1.6l-0.9-6.4c-0.1-0.4,0.1-0.8,0.3-1.1c0.3-0.3,0.6-0.5,1-0.5h91.7    c0.9,0,1.7,0.7,1.8,1.6l0.9,6.4c0.1,0.4-0.1,0.8-0.3,1.1C264.9,93.9,264.5,94.1,264.1,94.1z M171.1,85.6c-0.1,0-0.2,0-0.3,0.1    c-0.1,0.1-0.1,0.2-0.1,0.3l0.9,6.4c0.1,0.4,0.4,0.7,0.8,0.7h91.7c0.1,0,0.2,0,0.3-0.1c0.1-0.1,0.1-0.2,0.1-0.3l-0.9-6.4    c-0.1-0.4-0.4-0.7-0.8-0.7H171.1z"></path>		</g>	</g>	<g>		<path d="M255,195.2H82c-5.1,0-10.1-4.3-10.8-9.4l-6.6-49.5c-0.3-2.2,0.3-4.3,1.6-5.8c1.3-1.5,3.2-2.3,5.5-2.3h173   c5.1,0,10.1,4.3,10.8,9.4l6.6,49.5c0.3,2.2-0.3,4.3-1.6,5.8C259.1,194.4,257.2,195.2,255,195.2z M71.6,129.2c-1.9,0-3.6,0.7-4.7,2   c-1.1,1.3-1.6,3.1-1.3,5l6.6,49.5c0.6,4.6,5.2,8.6,9.8,8.6h173c1.9,0,3.6-0.7,4.7-2c1.1-1.3,1.6-3.1,1.3-5l-6.6-49.5   c-0.6-4.6-5.2-8.6-9.8-8.6H71.6z"></path>	</g></g><g>	<ellipse cx="389.2" cy="103.4" rx="38.4" ry="38.7"></ellipse>	<ellipse class="st0" cx="389.2" cy="103.4" rx="32.8" ry="33"></ellipse>	<path d="M402.7,119.1c-0.1,0-0.3-0.1-0.4-0.2l-13.4-15.2c-0.1-0.1-0.1-0.2-0.1-0.4l0.5-15.6c0-0.3,0.3-0.5,0.5-0.5  c0.3,0,0.5,0.2,0.5,0.5l-0.5,15.3l13.3,15.1c0.2,0.2,0.2,0.5,0,0.7C402.9,119.1,402.8,119.1,402.7,119.1z"></path>	<g>		<path d="M386.3,77.3c0.2,1.1-0.5,2.2-1.7,2.5c-1.1,0.2-2.2-0.5-2.4-1.7c-0.2-1.1,0.5-2.2,1.7-2.5C385,75.4,386.1,76.1,386.3,77.3z   "></path>		<path d="M373.7,82.3c0.8,0.9,0.7,2.2-0.2,3c-0.9,0.8-2.2,0.7-3-0.2c-0.8-0.9-0.7-2.2,0.2-3C371.6,81.3,372.9,81.4,373.7,82.3z"></path>		<path d="M365.3,92.9c1.1,0.4,1.7,1.6,1.3,2.7c-0.4,1.1-1.6,1.7-2.7,1.3c-1.1-0.4-1.7-1.6-1.3-2.7C363,93.1,364.2,92.5,365.3,92.9z   "></path>		<path d="M363.3,106.3c1.1-0.2,2.2,0.5,2.4,1.7c0.2,1.1-0.5,2.2-1.7,2.5c-1.1,0.2-2.2-0.5-2.4-1.7   C361.4,107.7,362.1,106.6,363.3,106.3z"></path>		<path d="M368.2,119c0.9-0.8,2.2-0.7,3,0.2s0.7,2.2-0.2,3c-0.9,0.8-2.2,0.7-3-0.2C367.2,121.1,367.3,119.8,368.2,119z"></path>		<path d="M378.8,127.5c0.4-1.1,1.6-1.7,2.7-1.3c1.1,0.4,1.7,1.6,1.3,2.7c-0.4,1.1-1.6,1.7-2.7,1.3   C379,129.8,378.4,128.6,378.8,127.5z"></path>		<path d="M392.2,129.5c-0.2-1.1,0.5-2.2,1.7-2.5c1.1-0.2,2.2,0.5,2.4,1.7s-0.5,2.2-1.7,2.5C393.5,131.4,392.4,130.6,392.2,129.5z"></path>		<path d="M404.8,124.5c-0.8-0.9-0.7-2.2,0.2-3c0.9-0.8,2.2-0.7,3,0.2c0.8,0.9,0.7,2.2-0.2,3C406.8,125.5,405.5,125.4,404.8,124.5z"></path>		<path d="M413.2,113.9c-1.1-0.4-1.7-1.6-1.3-2.7c0.4-1.1,1.6-1.7,2.7-1.3c1.1,0.4,1.7,1.6,1.3,2.7   C415.5,113.7,414.3,114.3,413.2,113.9z"></path>		<path d="M415.2,100.4c-1.1,0.2-2.2-0.5-2.4-1.7c-0.2-1.1,0.5-2.2,1.7-2.5c1.1-0.2,2.2,0.5,2.4,1.7   C417.1,99.1,416.3,100.2,415.2,100.4z"></path>		<path d="M410.2,87.8c-0.9,0.8-2.2,0.7-3-0.2c-0.8-0.9-0.7-2.2,0.2-3c0.9-0.8,2.2-0.7,3,0.2C411.2,85.7,411.1,87,410.2,87.8z"></path>		<path d="M399.7,79.3c-0.4,1.1-1.6,1.7-2.7,1.3c-1.1-0.4-1.7-1.6-1.3-2.7c0.4-1.1,1.6-1.7,2.7-1.3C399.5,77,400,78.2,399.7,79.3z"></path>	</g></g><g>	<g>		<g>			<path class="st0" d="M131.4,82c0,0-1.9,0.8-4.7,0.5c-2.4-0.3-17.9-4.9-24.3-25.5c0,0-32.6,5.5-49.2,4.2    c-16.6-1.3-25.5-2.6-25.5-2.6s9.9,51.5,46.4,48.9c0,0,10.6-0.7,10.7-0.7c1.5-0.1,20.9-1.8,27.8-2.3c7.2-0.5,26.6,2.3,40.9-2.3    c14.2-4.7,21.5-11.7,45.5-22.9c3.5-1.6,13.8-4.7,13.8-4.7c2.7,5.1,4.2,11.7,4.7,20.5c3.3,54.1,14.2,67,23.6,66.2    c0,0,5.6-0.7,5.8-0.7c2.6-0.3,18-1.9,39.9-2.7c0,0,2.6-0.1,2.6-0.1l0,0c-1.1,13.3-5.7,29.1-16.1,45.1c-23.5,36.1-27.7,92-11.8,90    c0,0,18.8-1.5,38.8-1.4c0.1,0,119-1.1,119-1.1s40.5-89.1-34.1-78.1c-0.9,0.1-2,0.2-2.8,0.2c0,0,9-20.2,13.7-45.7    c3-16.2-2.3-40.3-28-40.6c-15.6-0.2-50.9,3.2-50.9,3.2s-2.2-2.9-2.3-3c-1.3-2-14.5-18.9-25.3-46.7C278.5,51.1,229,64,202.6,62    c-0.2,0-10.2-0.8-10.2-0.8C175.7,60.1,152.9,70.8,131.4,82L131.4,82z"></path>			<path d="M260.8,293.5c-2.3,0-4.3-1.2-5.8-3.6c-8.3-13.2-1.1-57.9,18-87.2c11.4-17.5,15-33.7,16-44.3c-0.2,0-0.5,0-0.7,0    c-0.6,0-1.2,0-1.3,0c-21.8,0.8-37,2.4-39.9,2.7c-0.3,0-5.8,0.7-5.8,0.7c-2.8,0.2-5.5-0.7-7.9-2.9c-8.6-7.5-14.1-29-16.2-63.8    c-0.5-8.6-2-15-4.5-20c-1.9,0.6-10.3,3.1-13.3,4.5c-11.1,5.2-18.7,9.5-24.8,13c-7.3,4.1-13,7.4-20.7,10    c-10.3,3.4-23.1,2.9-32.4,2.5c-3.5-0.1-6.6-0.3-8.6-0.1c-7.1,0.5-27,2.3-27.8,2.3c-0.1,0-7.5,0.5-10.7,0.7    c-15.1,1.1-28-7.1-37.4-23.7c-7-12.5-9.6-25.4-9.6-25.6c0-0.2,0-0.3,0.1-0.4c0.1-0.1,0.3-0.2,0.4-0.2c0.1,0,9.1,1.3,25.4,2.6    c16.3,1.3,48.7-4.1,49-4.2c0.3,0,0.5,0.1,0.6,0.4c6.8,22,23.7,25.1,23.9,25.1c2.5,0.3,4.2-0.4,4.4-0.5c0,0,0,0,0,0    c22-11.4,44.6-21.9,61.3-20.8c0,0,10,0.7,10.2,0.8c6.8,0.5,15,0,23.8-0.4c25.9-1.5,55.2-3.1,63.7,18.6    c6.4,16.3,14.6,31.5,24.4,45.3c0.5,0.6,0.8,1.1,0.9,1.3c0.1,0.1,1.2,1.6,2.1,2.7c3.4-0.3,35.9-3.3,50.6-3.1    c9.4,0.1,16.8,3.3,22,9.6c7.5,9.1,8.3,22.3,6.6,31.6c-4.2,22.5-11.8,41.1-13.4,45c0.7,0,1.4-0.1,2-0.2    c18.9-2.8,32.2,0.6,39.4,10.1c8.6,11.4,6.8,29.4,3.8,42.6c-3.2,14.2-8.5,25.9-8.5,26c-0.1,0.2-0.3,0.3-0.5,0.3    c-12.2,0.1-118.9,1.1-119,1.1c-19.7,0-38.5,1.4-38.7,1.4C261.4,293.4,261.1,293.5,260.8,293.5z M290.1,157.9    c-0.9,10.7-4.5,27.3-16.2,45.3c-20.3,31.1-25.4,74.4-18,86.1c1.5,2.3,3.4,3.4,5.7,3.1c0.2,0,19.1-1.5,38.8-1.4    c0.3,0,111.7-1.1,118.7-1.1c1.7-4,20-47,4.7-67.3c-6.9-9.2-19.9-12.5-38.4-9.7c-0.9,0.1-1.9,0.2-2.8,0.2l-0.1,0    c-0.2,0-0.3-0.1-0.4-0.2c-0.1-0.1-0.1-0.3,0-0.5c0.1-0.2,9-20.4,13.7-45.6c1.7-9.1,0.9-21.9-6.3-30.8c-4.9-6-12.1-9.1-21.2-9.2    c-15.4-0.2-50.5,3.1-50.8,3.2c-0.2,0-0.3-0.1-0.5-0.2c-1.5-1.9-2.2-2.9-2.3-3c-0.1-0.2-0.5-0.7-0.9-1.3    c-9.9-13.8-18.1-29.1-24.5-45.5c-8.2-21-37.1-19.4-62.6-17.9c-8.8,0.5-17.1,1-24,0.4c-0.2,0-10.2-0.8-10.2-0.8    c-16.4-1.1-38.9,9.3-60.7,20.6c0,0,0,0-0.1,0c-0.1,0-2,0.9-5,0.6c-3.6-0.4-18.3-5.8-24.6-25.4c-3.9,0.6-33.5,5.3-48.8,4.1    c-13.8-1.1-22.3-2.2-24.8-2.5C29,62,31.7,73,37.7,83.7c9.2,16.4,21.5,24.3,36.4,23.2c3.6-0.2,10.6-0.7,10.7-0.7    c0.8-0.1,20.7-1.8,27.9-2.3c2.1-0.1,5.2,0,8.7,0.1c9.2,0.4,21.9,0.9,32-2.4c7.6-2.5,13.3-5.8,20.6-9.9c6.2-3.5,13.8-7.9,24.9-13    c3.5-1.6,13.4-4.6,13.9-4.7c0.2-0.1,0.5,0,0.6,0.3c2.7,5.2,4.2,11.8,4.8,20.8c2.7,43.1,10.1,58.1,15.9,63.1    c2.2,1.9,4.6,2.8,7.2,2.6c0,0,5.6-0.7,5.8-0.7c2.8-0.3,18.1-1.9,39.9-2.7c0,0,0.6,0,1.3,0c0.5,0,1.1,0,1.2,0c0,0,0.1,0,0.1,0    c0.3,0,0.5,0.2,0.5,0.5C290.1,157.8,290.1,157.9,290.1,157.9z"></path>		</g>		<path d="M361,214.7c-24.3,0-52.7-4.9-53-4.9c-0.3,0-0.5-0.3-0.4-0.6c0-0.3,0.3-0.5,0.6-0.4c0.4,0.1,45,7.7,70.1,3.8   c0.3,0,0.5,0.1,0.6,0.4c0,0.3-0.1,0.5-0.4,0.6C373.3,214.4,367.3,214.7,361,214.7z"></path>		<path d="M313.6,130c-8.4,0-17.6-1.8-28.2-5.5c-0.3-0.1-0.4-0.4-0.3-0.6c0.1-0.3,0.4-0.4,0.6-0.3c12.1,4.2,22.5,6,31.7,5.3   c0.3,0,0.5,0.2,0.5,0.5c0,0.3-0.2,0.5-0.5,0.5C316.3,130,315,130,313.6,130z"></path>		<path d="M317.2,266.3c0,0-0.1,0-0.1,0c-0.3-0.1-0.4-0.4-0.3-0.6c4.6-15.6,7.6-37.8,0.7-49c-2.3-3.8-5.6-6.1-9.7-6.9   c-10.7-2-15.1,8.3-19.1,26.7c-0.1,0.3-0.3,0.4-0.6,0.4c-0.3-0.1-0.4-0.3-0.4-0.6c3.3-15.2,7.6-29.9,20.3-27.5   c4.4,0.8,7.9,3.3,10.4,7.3c7,11.6,4.1,34.1-0.6,49.9C317.6,266.1,317.4,266.3,317.2,266.3z"></path>		<path d="M260.8,293.5c-1.2,0-2.3-0.3-3.3-1c-7.6-5-7.8-28.8-0.3-54.2c0.1-0.3,0.4-0.4,0.6-0.3c0.3,0.1,0.4,0.4,0.3,0.6   c-7.2,24.6-7.2,48.4-0.1,53.1c2.6,1.7,5.9,0.8,10-2.6c10.7-8.9,14.5-27.9,17.9-44.7c0.6-2.8,1.1-5.4,1.7-8.1   c0.1-0.3,0.3-0.4,0.6-0.4c0.3,0.1,0.4,0.3,0.4,0.6c-0.6,2.6-1.1,5.2-1.7,8c-3.4,16.9-7.3,36.1-18.2,45.3   C265.8,292.2,263.1,293.5,260.8,293.5z"></path>		<path d="M257.6,238.9c0,0-0.1,0-0.1,0c-0.3-0.1-0.4-0.4-0.3-0.6c3.9-13.2,9.4-25.6,15.9-35.6c20-30.7,18.7-61.9,11.5-74.3   c-1.7-2.9-3.6-4.4-5.4-4.3c-6,0.4-12.8,10.3-18.7,19.1c-3.2,4.7-6.3,9.2-9,12c-1.8,1.8-8.1,7.4-15,4.7   c-10.8-4.2-17.5-26.6-19.3-64.8c0-0.3,0.2-0.5,0.5-0.5c0.3,0,0.5,0.2,0.5,0.5c2.3,47.7,11.4,61.1,18.7,63.9   c6.3,2.4,12.2-2.8,13.9-4.5c2.7-2.7,5.7-7.1,8.9-11.8c6.4-9.4,12.9-19.1,19.5-19.5c2.2-0.2,4.5,1.5,6.4,4.8   c7.4,12.6,8.7,44.3-11.5,75.4c-6.5,10-12,22.2-15.8,35.4C258,238.7,257.8,238.9,257.6,238.9z"></path>		<path d="M212.7,74.7c-0.2,0-0.3-0.1-0.4-0.2c0,0-0.1-0.1-0.2-0.3c-0.2-0.4-0.7-1.3-0.9-1.6c-3.4-5-8.6-10.2-21.6-10.9   c-0.3,0-0.5-0.3-0.5-0.5c0-0.3,0.3-0.5,0.5-0.5c13.4,0.7,18.8,6.1,22.4,11.3c0.2,0.3,0.6,1,0.9,1.6c0.1,0.1,0.1,0.2,0.2,0.3   c0.1,0.2,0.1,0.5-0.2,0.7C212.9,74.7,212.8,74.7,212.7,74.7z"></path>		<path d="M68.5,107.8c-0.1,0-0.1,0-0.2,0c-0.3,0-0.5-0.2-0.5-0.5c0-0.3,0.2-0.5,0.5-0.5c0,0,0,0,0,0c2.2,0,10.4-0.5,18.1-3.3   c7.9-2.8,19-8.6,30.7-14.8c4.8-2.5,9.7-5.1,14.4-7.4c0.3-0.1,0.6,0,0.7,0.2c0.1,0.3,0,0.6-0.2,0.7c-4.7,2.3-9.6,4.9-14.4,7.4   c-11.8,6.2-22.9,12-30.8,14.8C79.1,107.3,71,107.8,68.5,107.8z"></path>		<path d="M315.1,127.1c-0.2,0-0.4-0.1-0.5-0.3c-0.1-0.1-0.5-0.7-0.9-1.3c-9.9-13.8-18.1-29.1-24.5-45.5   c-8.2-21-37.1-19.4-62.6-17.9c-9.1,0.5-17.7,1-24.7,0.4c-0.3,0-0.5-0.3-0.5-0.6c0-0.3,0.3-0.5,0.6-0.5c6.9,0.6,15.5,0.1,24.5-0.4   c25.9-1.5,55.2-3.1,63.7,18.6c6.4,16.3,14.6,31.5,24.4,45.3c0.8,1.2,1,1.4,1.1,1.6c0.1,0.3-0.1,0.6-0.3,0.6   C315.2,127.1,315.2,127.1,315.1,127.1z"></path>		<path d="M246.7,161.1c-0.3,0-0.5-0.2-0.5-0.5c0-0.3,0.2-0.5,0.4-0.6c0.2,0,16.6-1.9,40.4-2.8c0.3,0,0.5,0.2,0.5,0.5   c0,0.3-0.2,0.5-0.5,0.5C263.3,159.2,246.9,161.1,246.7,161.1C246.7,161.1,246.7,161.1,246.7,161.1z"></path>	</g>	<g>		<path d="M364.8,230.4c-11,0-21.3-0.3-27.1-1.3c-0.3,0-0.5-0.3-0.4-0.6c0-0.3,0.3-0.5,0.6-0.4c17.3,2.8,73.7,0,74.2,0   c0.3,0,0.5,0.2,0.5,0.5c0,0.3-0.2,0.5-0.5,0.5C411.8,229.1,386.7,230.4,364.8,230.4z"></path>		<path d="M351.6,244.3C351.6,244.3,351.6,244.3,351.6,244.3c-4.2-0.1-7.6-0.2-10.3-0.3c-0.3,0-0.5-0.3-0.5-0.5   c0-0.3,0.3-0.5,0.5-0.5c2.6,0.1,6.1,0.2,10.2,0.3c0.3,0,0.5,0.2,0.5,0.5C352.1,244,351.8,244.3,351.6,244.3z"></path>		<path d="M363,244.3c-0.3,0-0.5-0.2-0.5-0.5c0-0.3,0.2-0.5,0.5-0.5c23.7,0,54-0.9,54.3-0.9c0.3,0,0.5,0.2,0.5,0.5   c0,0.3-0.2,0.5-0.5,0.5C417.1,243.4,386.7,244.3,363,244.3C363,244.3,363,244.3,363,244.3z"></path>		<path d="M415.6,258.4h-76.1c-0.3,0-0.5-0.2-0.5-0.5c0-0.3,0.2-0.5,0.5-0.5h76.1c0.3,0,0.5,0.2,0.5,0.5   C416.2,258.2,415.9,258.4,415.6,258.4z"></path>		<g>			<path class="st0" d="M361.7,132.4l-31.8,2.5c-5.3,0.4-10.6,0.5-15.9,0.2l-10.3-0.5c-2.3-0.1-4.1,2-3.7,4.3    c1.1,5.7,2.6,16.1,0.9,25.8c-0.4,2.2,1.3,4.2,3.6,4.2l78.2-1.5c1.7,0,3.2-1.3,3.4-3c0.5-3.2,0.9-8.6-0.4-14.2    C383.3,139,372.9,131.5,361.7,132.4z"></path>			<path d="M304.4,169.3c-1.2,0-2.3-0.5-3.1-1.4c-0.8-0.9-1.1-2.2-0.9-3.4c1.7-9.8,0.2-20.3-0.9-25.6c-0.2-1.2,0.1-2.5,0.9-3.5    c0.8-1,2-1.5,3.3-1.4l10.3,0.5c5.3,0.3,10.6,0.2,15.9-0.2l31.8-2.5c11.6-0.9,22.1,6.9,24.6,18.1c1.2,5.6,0.9,10.9,0.4,14.4    c-0.3,2-1.9,3.4-3.9,3.5L304.4,169.3C304.5,169.3,304.5,169.3,304.4,169.3z M303.6,135c-0.9,0-1.7,0.4-2.3,1    c-0.6,0.7-0.9,1.7-0.7,2.6c1.1,5.4,2.6,16,0.9,26c-0.2,0.9,0.1,1.8,0.7,2.5c0.6,0.7,1.4,1.1,2.3,1.1c0,0,0,0,0.1,0l78.2-1.5    c1.5,0,2.7-1.1,2.9-2.6c0.5-3.4,0.8-8.6-0.4-14c-2.3-10.7-12.5-18.1-23.5-17.3l-31.8,2.5c-5.3,0.4-10.7,0.5-16,0.2l-10.3-0.5    C303.7,135,303.6,135,303.6,135z M361.7,132.4L361.7,132.4L361.7,132.4z"></path>		</g>		<path d="M356.9,178.5c-0.2,0-0.3,0-0.5,0l-16.7-0.1c-0.3,0-0.5-0.2-0.5-0.5c0-0.3,0.2-0.5,0.5-0.5c0,0,0,0,0,0l16.7,0.1   c1.7,0,3.4,0,5.1-0.1l22.2-1.4c0.3,0,0.5,0.2,0.5,0.5c0,0.3-0.2,0.5-0.5,0.5l-22.2,1.4C360,178.4,358.5,178.5,356.9,178.5z"></path>		<path d="M363.1,203.4c-0.4,0-0.8,0-1.1,0l-3.3-0.1c-0.3,0-0.5-0.2-0.5-0.5c0-0.3,0.2-0.5,0.5-0.5l3.3,0.1c2.6,0,5.2-0.1,7.8-0.3   l5.7-0.6c0.3,0,0.5,0.2,0.6,0.5c0,0.3-0.2,0.5-0.5,0.6l-5.7,0.6C367.7,203.2,365.4,203.4,363.1,203.4z"></path>		<path d="M342.1,191.9c-5.1,0-10.3-0.1-15.4-0.4l-31.8-1.6c-0.3,0-0.5-0.3-0.5-0.5c0-0.3,0.3-0.5,0.5-0.5l31.8,1.6   c15,0.8,30.2,0.4,45.2-1.1l7.8-0.8c0.3,0,0.5,0.2,0.6,0.5c0,0.3-0.2,0.5-0.5,0.6l-7.8,0.8C362.1,191.4,352.1,191.9,342.1,191.9z"></path>		<path d="M235.4,141.7c-0.3,0-0.5-0.2-0.5-0.5c0-0.3,0.2-0.5,0.5-0.5l21.7-1.2c0.3,0,0.5,0.2,0.5,0.5c0,0.3-0.2,0.5-0.5,0.5   L235.4,141.7C235.4,141.7,235.4,141.7,235.4,141.7z"></path>		<path d="M232.9,128.5c-0.3,0-0.5-0.2-0.5-0.5c0-0.3,0.2-0.5,0.5-0.5l32.3-1.4c0.3,0,0.5,0.2,0.5,0.5c0,0.3-0.2,0.5-0.5,0.5   L232.9,128.5C233,128.5,233,128.5,232.9,128.5z"></path>		<path d="M231.1,113.9c-0.3,0-0.5-0.2-0.5-0.5c0-0.3,0.2-0.5,0.5-0.5l65.2-2.1c0,0,0,0,0,0c0.3,0,0.5,0.2,0.5,0.5   c0,0.3-0.2,0.5-0.5,0.5L231.1,113.9C231.1,113.9,231.1,113.9,231.1,113.9z"></path>		<path d="M228.7,99.7c-0.3,0-0.5-0.2-0.5-0.5c0-0.3,0.2-0.5,0.5-0.5c14.6-1.2,59-0.7,59.4-0.7c0.3,0,0.5,0.2,0.5,0.5   c0,0.3-0.2,0.5-0.5,0.5c0,0,0,0,0,0C287.7,99,243.3,98.6,228.7,99.7C228.8,99.7,228.8,99.7,228.7,99.7z"></path>		<g>			<path class="st0" d="M280,86.3h-52.4c-0.7,0-1.3-0.5-1.5-1.2c-0.6-2.7-2.5-9.4-6.4-13.9c-0.8-1-0.2-2.5,1.1-2.5    c9.5-0.5,35.3-1.5,46.8,0.8c0.9,0.2,1.8,0.5,2.6,1c2.8,1.7,9.4,6.4,11.3,13.9C281.7,85.4,281,86.3,280,86.3z"></path>			<path d="M280,86.8h-52.4c-0.9,0-1.8-0.6-2-1.6c-0.6-2.7-2.5-9.3-6.3-13.7c-0.5-0.6-0.6-1.4-0.3-2.2c0.3-0.7,1-1.2,1.7-1.2    c10.3-0.5,35.5-1.4,46.9,0.8c1,0.2,1.9,0.6,2.7,1.1c2.8,1.7,9.6,6.5,11.5,14.2c0.2,0.6,0,1.3-0.4,1.8    C281.2,86.5,280.6,86.8,280,86.8z M244.3,68.6c-9.2,0-18.2,0.4-23.5,0.6c-0.4,0-0.7,0.2-0.9,0.6c-0.2,0.4-0.1,0.8,0.2,1.1    c3.9,4.6,5.8,11.4,6.5,14.1c0.1,0.5,0.5,0.8,1,0.8H280c0.3,0,0.6-0.1,0.8-0.4c0.2-0.3,0.3-0.6,0.2-0.9c-1.8-7.3-8.3-11.9-11-13.6    c-0.7-0.4-1.5-0.8-2.4-0.9C262,68.9,253.1,68.6,244.3,68.6z"></path>		</g>		<path d="M58.9,72.2c-5.9,0-11.8-0.3-16.8-1.2c-0.3,0-0.5-0.3-0.4-0.6c0-0.3,0.3-0.5,0.6-0.4c20.3,3.5,53.5-1.8,53.8-1.9   c0.3,0,0.5,0.1,0.6,0.4c0,0.3-0.1,0.5-0.4,0.6C96,69.2,77,72.2,58.9,72.2z"></path>		<path d="M55.4,84.3c-2,0-4,0-5.9-0.1c-0.3,0-0.5-0.2-0.5-0.5c0-0.3,0.3-0.5,0.5-0.5c24.2,0.9,55-4.4,55.3-4.5   c0.3,0,0.5,0.1,0.6,0.4c0,0.3-0.1,0.5-0.4,0.6C104.6,79.8,78.5,84.3,55.4,84.3z"></path>		<path d="M63.9,96.6c-2,0-3.9-0.1-5.6-0.3c-0.3,0-0.5-0.3-0.4-0.6c0-0.3,0.3-0.5,0.6-0.4c10.8,1.2,29.3-2.1,29.5-2.1   c0.3-0.1,0.5,0.1,0.6,0.4c0,0.3-0.1,0.5-0.4,0.6C87.9,94.2,74.6,96.6,63.9,96.6z"></path>	</g></g><path class="st0" d="M137.3,375.5c-17.3,0-31-3-40.7-9l-2.6-1.6l2.1-2.2c0.5-0.5,12-12.5,31.5-13.9c0.7,0,1.4-0.1,2.2-0.1 c19.4,0,50.7,16.1,52,16.8l5.7,3l-6.3,1.6C180.3,370.4,159.9,375.5,137.3,375.5z"></path><path d="M180.6,367.8c0,0-54.5,13.8-82.7-3.4c0,0,11.1-11.8,29.8-13.1C146.5,350,180.6,367.8,180.6,367.8z"></path><path class="st0" d="M93.7,456.2l-0.2-2.3c-0.1-1.2-2.1-30.8,9-53.1c11-22.1,34.1-45.3,35.1-46.3l0.8-0.8l73.5,3.6l-1.2,3.2 c-0.2,0.6-6,16.3,6.3,31.4c19.8,24.4,33.2,59.5,33.8,61l1.3,3.3H93.7z"></path><path d="M95.9,453.7c0,0-2.2-29.9,8.7-51.8c10.9-22,34.6-45.7,34.6-45.7l69,3.4c0,0-6.7,17.3,6.7,33.9 c19.8,24.3,33.4,60.3,33.4,60.3H95.9z"></path><g>	<g>		<path class="st0" d="M314.6,311.6l-64.5-43.2l1.1-9c0,0-23.3-14.4-55.7-16.2c-32.3-1.8-67.2,14.6-67.2,14.6L54.7,310l59.4-5.4   c-8.1,27.1-16.5,56.5-16.2,59.7c0,0,27.8-10,53.1,3.4c25.3,13.3,64.3,11.6,87.6-2.1l7.7-64.9L314.6,311.6z"></path>		<path d="M192.1,377.4c-15.5,0-30.1-3.2-41.4-9.2c-24.8-13.1-52.4-3.4-52.7-3.3c-0.1,0.1-0.3,0-0.4,0c-0.1-0.1-0.2-0.2-0.2-0.4   c-0.3-2.7,5.1-22.6,16-59.2l-58.6,5.3c-0.2,0-0.4-0.1-0.5-0.3c-0.1-0.2,0-0.5,0.2-0.6l73.5-52.1c0,0,0.1,0,0.1,0   c0.4-0.2,35.4-16.5,67.5-14.7c32.1,1.8,55.7,16.1,55.9,16.2c0.2,0.1,0.3,0.3,0.2,0.5l-1,8.6l64.3,43c0.2,0.1,0.3,0.4,0.2,0.6   c-0.1,0.2-0.3,0.4-0.6,0.3l-67.8-10.7l-7.6,64.3c0,0.2-0.1,0.3-0.2,0.4c-11.5,6.7-26.9,10.7-43.3,11.2   C194.4,377.4,193.3,377.4,192.1,377.4z M121.4,360.4c9.1,0,19.7,1.6,29.8,7c24.2,12.7,63.1,11.9,86.9-1.9l7.6-64.6   c0-0.1,0.1-0.3,0.2-0.3c0.1-0.1,0.2-0.1,0.4-0.1l66.1,10.4l-62.6-41.9c-0.2-0.1-0.2-0.3-0.2-0.5l1-8.6   c-2.7-1.6-25.2-14.3-55.2-15.9c-31.3-1.7-65.6,13.9-66.9,14.6l-72,51l57.5-5.2c0.2,0,0.3,0.1,0.4,0.2c0.1,0.1,0.1,0.3,0.1,0.5   C102,347,98.7,360.4,98.4,363.7C100.9,362.9,109.9,360.4,121.4,360.4z"></path>	</g>	<path d="M172.1,364.2c-0.1,0-0.1,0-0.2,0c-0.3-0.1-0.4-0.4-0.3-0.7c0.1-0.2,11.3-24.7,40.2-32.9c11.7-3.3,19.6-9.6,22.8-18.2  c2.4-6.5,1.4-12.2,1.4-12.2c-0.1-0.3,0.1-0.5,0.4-0.6c0.3-0.1,0.5,0.1,0.6,0.4c0,0.2,1.1,5.9-1.4,12.7c-2.3,6.3-8.3,14.6-23.5,18.9  c-28.5,8-39.4,32.1-39.5,32.3C172.5,364.1,172.3,364.2,172.1,364.2z"></path></g><g>	<g>		<path class="st0" d="M170.2,225.3l-3.3,19.6l-11.5,3.7c0,0,7.3,13.4,33.2,12.9c25.9-0.5,30.4-14.7,30.4-14.7l-17.1-4.8l-2.6-13.2   L170.2,225.3z"></path>		<path d="M187.1,262c-24.7,0-31.9-12.6-32.2-13.2c-0.1-0.1-0.1-0.3,0-0.4c0.1-0.1,0.2-0.2,0.3-0.3l11.2-3.6l3.3-19.3   c0-0.3,0.3-0.5,0.6-0.4l29.1,3.6c0.2,0,0.4,0.2,0.4,0.4l2.5,12.8l16.8,4.8c0.1,0,0.2,0.1,0.3,0.2c0.1,0.1,0.1,0.3,0,0.4   c-0.2,0.6-4.9,14.5-30.9,15C188.1,262,187.6,262,187.1,262z M156.1,248.9c1.7,2.4,10.1,12.6,32.4,12.1   c22.5-0.4,28.6-11.4,29.7-13.8l-16.5-4.7c-0.2-0.1-0.3-0.2-0.4-0.4l-2.5-12.8l-28.3-3.5l-3.2,19.2c0,0.2-0.2,0.3-0.3,0.4   L156.1,248.9z M166.9,244.9L166.9,244.9L166.9,244.9z"></path>	</g>	<g>		<path class="st0" d="M84.8,228.1c-11,0-21.8-5.1-26.9-12.8c-4.1-6-3.4-11.7-2.9-17.1c0.6-5.2,1.1-10.1-2.3-15.9   c-2.9-4.9-6.5-6.7-10.3-8.6c-3.9-1.9-8.3-4.1-11.7-9.6c-4.9-8.1-5.7-20.5-1.9-31.4c2.7-7.7,7.2-13.3,12.5-15.3   c1.4-0.5,2.7-0.8,4.1-0.8c4.1,0,7.5,2.3,11.9,5.3c5.1,3.5,11.5,7.8,22,10.4c4.6,1.1,9.1,1.7,13.8,1.7c4,0,7.4-0.4,10.7-0.8   c2.7-0.3,5.3-0.6,7.9-0.6c5.2,0,9.3,1.3,13.2,4.4c5.6,4.3,7.7,9.6,9.6,14.2c2.1,5.1,3.5,8.1,7.4,9.4c1,0.3,2,0.5,3.1,0.5   c2.7,0,5.2-1,7.8-2.1c2.6-1.1,5.4-2.2,8.3-2.2c1.7,0,3.3,0.4,4.9,1.1c9.3,4.6,9.9,19.8,8.9,27.1c-2.4,17.9-19.6,35.5-34.7,35.5   c0,0,0,0,0,0c-1,0-2.1-0.1-3.1-0.3c-6-1-9.6-5-12.6-8.2c-2.9-3.1-4.8-5-7.5-5c-0.2,0-0.3,0-0.5,0c-3.1,0.2-4.8,2.6-7.6,6.7   c-2.7,4.1-6.1,9.1-12.7,12C92.9,227.3,88.9,228.1,84.8,228.1z"></path>		<path d="M164.8,160.3c-7.6-3.8-14.3,5.9-23.8,2.8c-10-3.3-7.2-15.8-17.8-24c-11.7-9-21.7,1.4-44.6-4.2   c-22.1-5.4-26.9-18.6-36.5-15c-11.6,4.4-17.8,29.1-9.3,43.1c6.1,10.2,15.6,7.3,21.9,18.2c7.5,12.7-2.1,22.1,5.1,32.9   c6.8,10.1,24,14.6,35.4,9.6c11.8-5.2,12.1-18.2,21-18.9c8.6-0.6,10.7,11.4,21.2,13.2c13.7,2.3,32.4-14.4,34.8-33.1   C173.4,176.8,172.1,163.9,164.8,160.3z"></path>		<path d="M227,189.1c3.1,23-16.6,39.9-39.7,39.9s-41.1-15.6-42.4-38.8c-1.5-28.7,17-40.5,40-42.8C208,145,222.9,158.1,227,189.1z"></path>		<g>			<path class="st0" d="M222.9,207.7c-1.2-0.9-2.4-0.9-3.5-0.4c0.3-18.1-12-26.8-20.6-17.1c-13.1,14.8-31.9-10.3-35.8,13.4    c-0.2,1.1-0.2,2.3-0.3,3.4c-1.9-1.6-4.2-2.9-6.2-1.9c-3.7,1.9,2.3,21.4,9.4,22.1c4.2,11.4,12,20.2,20.5,21.3    c11.4,1.5,21.5-3.8,30-25.3C220.9,219,226.5,210.4,222.9,207.7z"></path>			<path d="M189.8,249.1c-1.1,0-2.3-0.1-3.5-0.2c-8.2-1-16.3-9.4-20.8-21.3c-5-0.8-9.1-9.8-10.2-15.7c-0.5-2.3-0.9-6.2,1-7.2    c1.6-0.9,3.7-0.4,6,1.3c0-0.8,0.1-1.6,0.3-2.5c0.8-5,2.4-8.2,4.8-9.9c3.2-2.2,7.5-1.2,12-0.2c6.3,1.4,13.4,3,19.2-3.6    c3.4-3.8,7.6-5.1,11.5-3.5c5,1.9,9.9,8.9,10,20.3c1.1-0.3,2.2-0.1,3.3,0.7c0.9,0.7,1.3,1.6,1.4,2.8c0.2,4.2-4.4,10.2-7.8,13.3    C209.8,241,201.3,249.1,189.8,249.1z M158,205.2c-0.4,0-0.9,0.1-1.3,0.3c-0.9,0.5-1.1,2.9-0.5,6.1c1.2,6,5.2,14.5,9.7,15    c0.2,0,0.4,0.1,0.4,0.3c4.3,11.7,12.2,19.9,20.1,20.9c12.9,1.7,22-6,29.4-25c0-0.1,0.1-0.1,0.1-0.2c3.7-3.4,7.7-9.1,7.5-12.6    c0-0.9-0.4-1.6-1-2c-1-0.7-1.9-0.8-2.9-0.3c-0.2,0.1-0.3,0.1-0.5,0c-0.2-0.1-0.2-0.3-0.2-0.4c0.2-11.3-4.5-18.2-9.3-20.1    c-3.6-1.4-7.3-0.2-10.4,3.3c-6.2,7-13.6,5.4-20.2,3.9c-4.5-1-8.3-1.9-11.2,0.1c-2.1,1.5-3.6,4.5-4.3,9.2    c-0.2,1.1-0.2,2.2-0.3,3.3c0,0.2-0.1,0.4-0.3,0.4c-0.2,0.1-0.4,0-0.5-0.1C161.1,206.3,159.5,205.2,158,205.2z"></path>		</g>	</g></g><g>	<path class="st0" d="M162,227.1c-2-5.3-12.3-19.3-8.6-23.2c4.3-4.5,2.2-7.1,2-7.3c0,0,0,0,0,0l-8.1,7.3c0,0,4-9.7,5.5-12.8  c1.1-2.2,0.6-5.6,0.2-7.2c-0.1-0.4-0.6-0.6-0.9-0.2l-8.7,9.6c0,0,4.8-7.6,5.5-10.7c0.4-1.9-0.3-3.4-1-4.3c-0.3-0.4-0.9-0.4-1.2,0  l-13.1,20.7c-2.3,3.6-2.2,8.3,0.3,11.8l8,11.5c2,2.9,3,6.2,3,9.6c0,2-1.3,3.7-3.1,4.3c-21.9,7.2-103.1,35.9-100.3,61.4  c2.1,18.6,28.6,12.8,47.5,4.8c32.5-13.6,66.3-57.1,66.3-57.1S163.9,232.4,162,227.1z"></path>	<path d="M58.5,310.6c-4.2,0-8.1-0.7-11.2-2.5c-3.6-2.1-5.7-5.6-6.2-10.3c-2.9-25.7,76.3-53.9,100.6-62c1.7-0.5,2.8-2.1,2.8-3.8  c0-3.4-1-6.6-2.9-9.4l-8-11.5c-2.6-3.7-2.7-8.6-0.3-12.4l13.1-20.7c0.2-0.3,0.6-0.6,1-0.6c0.4,0,0.8,0.2,1,0.5  c0.7,1,1.5,2.6,1.1,4.7c-0.3,1.6-1.7,4.2-3,6.5l5.3-5.9c0.3-0.3,0.7-0.4,1-0.3c0.4,0.1,0.7,0.4,0.7,0.8c0.4,1.8,0.9,5.2-0.3,7.6  c-1,2.2-3.4,7.6-4.6,10.7l6.4-5.8c0.1-0.1,0.2-0.1,0.4-0.1c0.1,0,0.3,0.1,0.4,0.2c0.3,0.3,2.6,3.2-2,8c-2.4,2.5,2.1,10.4,5.3,16.2  c1.5,2.6,2.8,4.9,3.3,6.5c2,5.5-6.3,18.3-6.6,18.9c-0.4,0.5-34.2,43.7-66.5,57.2C82.9,305.7,69.6,310.6,58.5,310.6z M147.3,178.5  C147.3,178.5,147.3,178.5,147.3,178.5c-0.1,0-0.1,0-0.2,0.1l-13.1,20.7c-2.2,3.5-2.1,7.9,0.3,11.3l8,11.5c2,2.9,3.1,6.4,3.1,9.9  c0,2.2-1.4,4.1-3.5,4.8c-10.2,3.4-36.5,12.5-59.4,23.8c-28.1,14-41.8,26.4-40.6,37.1c0.5,4.4,2.4,7.6,5.7,9.5  c11.1,6.5,34.3-2.3,41.1-5.1c32-13.4,65.7-56.5,66.1-56.9c0.1-0.1,8.4-12.9,6.5-17.9c-0.6-1.5-1.8-3.8-3.3-6.4  c-3.8-6.7-8.1-14.4-5.2-17.4c3.1-3.3,2.7-5.4,2.2-6.2l-7.7,6.9c-0.2,0.2-0.4,0.2-0.6,0c-0.2-0.1-0.3-0.4-0.2-0.6  c0-0.1,4.1-9.7,5.5-12.8c1-2.2,0.5-5.6,0.2-6.9l-8.7,9.6c-0.2,0.2-0.5,0.2-0.7,0.1c-0.2-0.2-0.3-0.5-0.1-0.7  c0-0.1,4.8-7.6,5.4-10.6c0.4-1.7-0.3-3-0.9-3.9C147.4,178.5,147.4,178.5,147.3,178.5z"></path></g><g>	<path class="st0" d="M216.8,229c2-5.3,12.3-19.3,8.6-23.2c-4.3-4.5-2.2-7.1-2-7.3c0,0,0,0,0,0l8.1,7.3c0,0-4-9.7-5.5-12.8  c-1.1-2.2-0.6-5.6-0.2-7.2c0.1-0.4,0.6-0.6,0.9-0.2l8.7,9.6c0,0-4.8-7.6-5.5-10.7c-0.4-1.9,0.3-3.4,1-4.3c0.3-0.4,0.9-0.4,1.2,0  l13.1,20.7c2.3,3.6,2.2,8.3-0.3,11.8l-8,11.5c-2,2.9-3,6.2-3,9.6c0,2,1.3,3.7,3.1,4.3c21.9,7.2,103.1,35.9,100.3,61.4  c-2.1,18.6-28.6,12.8-47.5,4.8c-32.5-13.6-66.3-57.1-66.3-57.1S214.8,234.3,216.8,229z"></path>	<path d="M320.2,312.5c-11.1,0-24.3-4.9-30.8-7.6c-32.3-13.5-66.1-56.8-66.5-57.2c-0.4-0.6-8.7-13.4-6.7-18.9  c0.6-1.6,1.9-3.9,3.3-6.5c3.2-5.8,7.7-13.7,5.3-16.2c-4.6-4.8-2.3-7.7-2-8c0.1-0.1,0.2-0.2,0.4-0.2c0.1,0,0.3,0,0.4,0.1l6.4,5.8  c-1.3-3-3.6-8.5-4.6-10.7c-1.1-2.4-0.7-5.7-0.3-7.6c0.1-0.4,0.4-0.7,0.7-0.8c0.4-0.1,0.8,0,1,0.3l5.3,5.9c-1.3-2.3-2.6-4.9-3-6.5  c-0.5-2.1,0.3-3.7,1.1-4.7c0.2-0.3,0.6-0.5,1-0.5c0.4,0,0.8,0.2,1,0.6l13.1,20.7c2.4,3.8,2.3,8.7-0.3,12.4l-8,11.5  c-1.9,2.8-2.9,6-2.9,9.4c0,1.7,1.1,3.3,2.8,3.8c24.3,8,103.5,36.3,100.6,62c-0.5,4.7-2.6,8.2-6.2,10.3  C328.4,311.8,324.5,312.5,320.2,312.5z M223.5,199.2c-0.4,0.8-0.9,3,2.2,6.2c2.9,3-1.4,10.6-5.2,17.4c-1.5,2.6-2.7,4.8-3.3,6.4  c-1.9,5,6.5,17.9,6.5,18c0.3,0.4,34,43.5,66,56.9c6.8,2.9,30,11.7,41.1,5.1c3.3-2,5.3-5.2,5.7-9.5c1.2-10.7-12.5-23.1-40.6-37.1  c-22.9-11.4-49.1-20.4-59.4-23.8c-2.1-0.7-3.5-2.6-3.5-4.8c0-3.6,1.1-7,3.1-9.9l8-11.5c2.4-3.4,2.5-7.8,0.3-11.3l-13.1-20.7  c-0.1-0.1-0.1-0.1-0.2-0.1c0,0-0.1,0-0.2,0.1c-0.6,0.8-1.3,2.1-0.9,3.9c0.7,3,5.4,10.5,5.4,10.6c0.1,0.2,0.1,0.5-0.1,0.7  c-0.2,0.2-0.5,0.1-0.7-0.1l-8.7-9.6c-0.3,1.4-0.9,4.7,0.2,6.9c1.5,3.1,5.5,12.7,5.5,12.8c0.1,0.2,0,0.5-0.2,0.6  c-0.2,0.1-0.5,0.1-0.6,0L223.5,199.2z M216.8,229L216.8,229L216.8,229z"></path></g><g>	<g>		<g>			<path class="st0" d="M383.6,453.7H164c-5.2,0-9.4-4.2-9.4-9.4v-2.5H393v2.5C393,449.5,388.8,453.7,383.6,453.7z"></path>			<path d="M383.6,454.2H164c-5.5,0-9.9-4.5-9.9-9.9v-2.5c0-0.3,0.2-0.5,0.5-0.5H393c0.3,0,0.5,0.2,0.5,0.5v2.5    C393.6,449.8,389.1,454.2,383.6,454.2z M155.1,442.3v2c0,4.9,4,8.9,8.9,8.9h219.6c4.9,0,8.9-4,8.9-8.9v-2H155.1z"></path>		</g>		<g>			<path class="st0" d="M393,442.1H254l44.2-130.8c2.6-4.1,7.2-6.6,12.2-6.6h117.5c5.3,0,8.8,5.2,7,9.8c-0.7,1.8-1.4,3.6-2,5.5    L393,442.1z"></path>			<path d="M393,442.6H254c-0.2,0-0.3-0.1-0.4-0.2c-0.1-0.1-0.1-0.3-0.1-0.5l44.2-130.8c0,0,0-0.1,0.1-0.1c2.8-4.3,7.5-6.8,12.6-6.8    h117.5c2.7,0,5.1,1.2,6.6,3.4c1.4,2.1,1.8,4.7,0.9,7.1c-0.2,0.5-0.4,1-0.6,1.5c-0.5,1.3-1,2.6-1.4,3.9l-39.8,122.1    C393.5,442.4,393.3,442.6,393,442.6z M254.8,441.5h137.9l39.7-121.8c0.4-1.3,1-2.7,1.5-4c0.2-0.5,0.4-1,0.6-1.5    c0.8-2,0.5-4.3-0.8-6.1c-1.3-1.9-3.4-3-5.8-3H310.4c-4.8,0-9.2,2.3-11.7,6.3L254.8,441.5z"></path>		</g>		<g>							<ellipse transform="matrix(0.2757 -0.9612 0.9612 0.2757 -106.1326 607.5881)" class="st0" cx="350.1" cy="374.2" rx="10.9" ry="9.4"></ellipse>			<path d="M349.4,385.5c-0.9,0-1.7-0.1-2.5-0.4c-5.2-1.6-8-7.8-6.2-13.8c0.9-3.2,3-5.8,5.7-7.2c2.2-1.2,4.7-1.5,7-0.8    c5.2,1.6,8,7.8,6.2,13.8c-0.9,3.2-3,5.8-5.7,7.2C352.4,385.1,350.9,385.5,349.4,385.5z M341.6,371.6c-1.6,5.5,0.8,11.1,5.6,12.5    c2,0.6,4.3,0.4,6.3-0.7c2.5-1.3,4.4-3.7,5.2-6.6c1.6-5.5-0.8-11.1-5.6-12.5c-2-0.6-4.3-0.4-6.3,0.7    C344.4,366.3,342.5,368.7,341.6,371.6z"></path>		</g>	</g></g><g>	<g>					<ellipse transform="matrix(0.2955 -0.9553 0.9553 0.2955 -9.3971 580.1729)" class="st0" cx="388.7" cy="296.5" rx="24.6" ry="24.6"></ellipse>		<path d="M388.7,321.6c-13.9,0-25.2-11.3-25.2-25.2c0-13.9,11.3-25.2,25.2-25.2s25.2,11.3,25.2,25.2   C413.8,310.3,402.5,321.6,388.7,321.6z M388.7,272.3c-13.3,0-24.1,10.8-24.1,24.1s10.8,24.1,24.1,24.1s24.1-10.8,24.1-24.1   S402,272.3,388.7,272.3z"></path>	</g>	<path d="M400.4,304.7c-0.1-0.1-0.8-0.5-1.4-2c-1.2-2.6-1.4-6.4-1.4-9c0,0,0,0,0,0c0-3.5-2-6.5-5-7.9l0-2.1c0-1.9-1.5-3.4-3.3-3.5  l-0.3,0c-1.9,0-3.4,1.5-3.4,3.4l0,2.1c-3,1.3-5.2,4.3-5.2,7.8c0,2.6-0.4,6.3-1.6,9c-0.7,1.4-1.4,1.9-1.5,1.9  c-0.4,0.2-0.6,0.6-0.5,1c0.1,0.4,0.5,0.7,0.9,0.7l6.6,0.1c0,2.5,2,4.6,4.5,4.6c2.5,0,4.6-2,4.7-4.5l6.6,0.1c0.4,0,0.8-0.3,0.9-0.7  C401,305.3,400.8,304.9,400.4,304.7z M387.4,283.6c0-0.9,0.7-1.6,1.6-1.6l0.3,0c0.9,0,1.6,0.7,1.6,1.6l0,1.5  c-0.6-0.1-1.1-0.2-1.7-0.2c-0.6,0-1.2,0-1.8,0.2L387.4,283.6z M388.8,308.9c-1.5,0-2.8-1.3-2.8-2.8l5.6,0.1  C391.6,307.8,390.3,309,388.8,308.9z"></path></g><g>	<path class="st0" d="M440.8,156.5c0-0.2-0.2-0.4-0.4-0.4l-3-0.2c-0.2,0-0.3-0.1-0.4-0.3c-0.2-0.6-0.4-1.1-0.7-1.6  c-0.1-0.2-0.1-0.3,0.1-0.5l1.9-2.4c0.1-0.2,0.1-0.4,0-0.6l-1.6-2.1c-0.1-0.2-0.4-0.2-0.5-0.1l-2.7,1.3c-0.2,0.1-0.3,0-0.5-0.1  c-0.4-0.4-0.9-0.7-1.4-1.1c-0.1-0.1-0.2-0.3-0.2-0.4l0.5-3c0-0.2-0.1-0.4-0.3-0.5l-2.5-1c-0.2-0.1-0.4,0-0.5,0.2l-1.7,2.5  c-0.1,0.1-0.3,0.2-0.5,0.2c-0.6-0.1-1.2-0.2-1.8-0.2c-0.2,0-0.3-0.1-0.4-0.3l-1.1-2.8c-0.1-0.2-0.3-0.3-0.5-0.3l-2.6,0.4  c-0.2,0-0.4,0.2-0.4,0.4l-0.2,3c0,0.2-0.1,0.3-0.3,0.4c-0.6,0.2-1.1,0.4-1.6,0.7c-0.2,0.1-0.3,0.1-0.5-0.1l-2.4-1.9  c-0.2-0.1-0.4-0.1-0.6,0l-2.1,1.6c-0.2,0.1-0.2,0.4-0.1,0.5l1.3,2.8c0.1,0.2,0,0.3-0.1,0.5c-0.4,0.4-0.7,0.9-1.1,1.4  c-0.1,0.1-0.3,0.2-0.4,0.2l-3-0.5c-0.2,0-0.4,0.1-0.5,0.3l-1,2.5c-0.1,0.2,0,0.4,0.2,0.5l2.5,1.7c0.1,0.1,0.2,0.3,0.2,0.5  c-0.1,0.6-0.2,1.2-0.2,1.8c0,0.2-0.1,0.3-0.3,0.4l-2.8,1.1c-0.2,0.1-0.3,0.3-0.3,0.5l0.4,2.6c0,0.2,0.2,0.4,0.4,0.4l3,0.2  c0.2,0,0.3,0.1,0.4,0.3c0.2,0.6,0.4,1.1,0.7,1.6c0.1,0.2,0.1,0.3-0.1,0.5l-1.9,2.4c-0.1,0.2-0.1,0.4,0,0.6l1.6,2.1  c0.1,0.2,0.4,0.2,0.5,0.1l2.7-1.3c0.2-0.1,0.3,0,0.5,0.1c0.4,0.4,0.9,0.7,1.4,1.1c0.1,0.1,0.2,0.3,0.2,0.4l-0.5,3  c0,0.2,0.1,0.4,0.3,0.5l2.5,1c0.2,0.1,0.4,0,0.5-0.2l1.7-2.5c0.1-0.1,0.3-0.2,0.5-0.2c0.6,0.1,1.2,0.2,1.8,0.2  c0.2,0,0.3,0.1,0.4,0.3l1.1,2.8c0.1,0.2,0.3,0.3,0.5,0.3l2.6-0.4c0.2,0,0.4-0.2,0.4-0.4l0.2-3c0-0.2,0.1-0.3,0.3-0.4  c0.6-0.2,1.1-0.4,1.6-0.7c0.2-0.1,0.3-0.1,0.5,0.1l2.4,1.9c0.2,0.1,0.4,0.1,0.6,0l2.1-1.6c0.2-0.1,0.2-0.4,0.1-0.5l-1.3-2.8  c-0.1-0.2,0-0.3,0.1-0.5c0.4-0.4,0.7-0.9,1.1-1.4c0.1-0.1,0.3-0.2,0.4-0.2l3,0.5c0.2,0,0.4-0.1,0.5-0.3l1-2.5  c0.1-0.2,0-0.4-0.2-0.5l-2.5-1.7c-0.1-0.1-0.2-0.3-0.2-0.5c0.1-0.6,0.2-1.2,0.2-1.8c0-0.2,0.1-0.3,0.3-0.4l2.8-1.1  c0.2-0.1,0.3-0.3,0.3-0.5L440.8,156.5z M423.7,169.1c-4.9,0-8.9-4-8.9-8.9s4-8.9,8.9-8.9c4.9,0,8.9,4,8.9,8.9  S428.6,169.1,423.7,169.1z"></path>	<path d="M424.8,178.3c-0.4,0-0.7-0.2-0.9-0.6l-1.1-2.8c-0.6,0-1.2-0.1-1.8-0.2l-1.7,2.5c-0.3,0.4-0.7,0.5-1.1,0.3l-2.5-1  c-0.4-0.2-0.7-0.6-0.6-1l0.5-3c-0.5-0.3-1-0.7-1.4-1.1l-2.7,1.3c-0.4,0.2-0.9,0.1-1.2-0.3l-1.6-2.1c-0.3-0.4-0.3-0.8,0-1.2l1.9-2.3  c-0.3-0.5-0.5-1.1-0.7-1.6l-3-0.2c-0.4,0-0.8-0.4-0.9-0.8l-0.4-2.6c-0.1-0.4,0.2-0.9,0.6-1l2.8-1.1c0-0.6,0.1-1.2,0.2-1.8l-2.5-1.7  c-0.4-0.3-0.5-0.7-0.3-1.1l1-2.5c0.2-0.4,0.6-0.7,1-0.6l3,0.5c0.3-0.5,0.7-1,1.1-1.4l-1.3-2.7c-0.2-0.4-0.1-0.9,0.3-1.2l2.1-1.6  c0.4-0.3,0.8-0.3,1.2,0l2.3,1.9c0.5-0.3,1.1-0.5,1.6-0.7l0.2-3c0-0.4,0.4-0.8,0.8-0.9l2.6-0.4c0.4-0.1,0.9,0.2,1,0.6l1.1,2.8  c0.6,0,1.2,0.1,1.8,0.2l1.7-2.5c0.3-0.4,0.7-0.5,1.1-0.3l2.5,1c0.4,0.2,0.7,0.6,0.6,1l-0.5,3c0.5,0.3,1,0.7,1.4,1.1l2.7-1.3  c0.4-0.2,0.9-0.1,1.2,0.3l1.6,2.1c0.3,0.4,0.3,0.8,0,1.2l-1.9,2.3c0.3,0.5,0.5,1.1,0.7,1.6l3,0.2c0.4,0,0.8,0.4,0.9,0.8  c0,0,0,0,0,0l0.4,2.6c0.1,0.4-0.2,0.9-0.6,1l-2.8,1.1c0,0.6-0.1,1.2-0.2,1.8l2.5,1.7c0.4,0.3,0.5,0.7,0.3,1.1l-1,2.5  c-0.2,0.4-0.6,0.7-1,0.6l-3-0.5c-0.3,0.5-0.7,1-1.1,1.4l1.3,2.7c0.2,0.4,0.1,0.9-0.3,1.2l-2.1,1.6c-0.4,0.3-0.8,0.3-1.2,0l-2.3-1.9  c-0.5,0.3-1.1,0.5-1.6,0.7l-0.2,3c0,0.4-0.4,0.8-0.8,0.9l-2.6,0.4C424.9,178.3,424.8,178.3,424.8,178.3z M421,173.6  c0.1,0,0.1,0,0.2,0c0.6,0.1,1.1,0.2,1.7,0.2c0.4,0,0.7,0.3,0.8,0.6l1.1,2.8l2.5-0.4l0.2-3c0-0.4,0.3-0.7,0.6-0.8  c0.5-0.2,1.1-0.4,1.6-0.7c0.3-0.2,0.7-0.1,1,0.1l2.3,1.9l2-1.6l-1.3-2.7c-0.2-0.3-0.1-0.7,0.1-1c0.4-0.4,0.7-0.9,1-1.4  c0.2-0.3,0.6-0.5,1-0.4l3,0.5l1-2.4l-2.5-1.7c-0.3-0.2-0.5-0.6-0.4-1c0.1-0.6,0.2-1.1,0.2-1.7c0-0.4,0.3-0.7,0.6-0.8l2.8-1.1  l-0.4-2.5l-3-0.2c-0.4,0-0.7-0.3-0.8-0.6c-0.2-0.5-0.4-1.1-0.7-1.6c-0.2-0.3-0.1-0.7,0.1-1l1.9-2.3l-1.6-2l-2.7,1.3  c-0.3,0.2-0.7,0.1-1-0.1c-0.4-0.4-0.9-0.7-1.4-1c-0.3-0.2-0.5-0.6-0.4-1l0.5-3l-2.4-1l-1.7,2.5c-0.2,0.3-0.6,0.5-1,0.4  c-0.6-0.1-1.1-0.2-1.7-0.2c-0.4,0-0.7-0.3-0.8-0.6l-1.1-2.8l-2.5,0.4l-0.2,3c0,0.4-0.3,0.7-0.6,0.8c-0.5,0.2-1.1,0.4-1.6,0.7  c-0.3,0.2-0.7,0.1-1-0.1l-2.3-1.9l-2,1.6l1.3,2.7c0.2,0.3,0.1,0.7-0.1,1c-0.4,0.4-0.7,0.9-1,1.4c-0.2,0.3-0.6,0.5-1,0.4l-3-0.5  l-1,2.4l2.5,1.7c0.3,0.2,0.5,0.6,0.4,1c-0.1,0.5-0.2,1.1-0.2,1.7c0,0.4-0.3,0.7-0.6,0.8l-2.8,1.1l0.4,2.5l3,0.2  c0.4,0,0.7,0.3,0.8,0.6c0.2,0.5,0.4,1.1,0.7,1.6c0.2,0.3,0.1,0.7-0.1,1l-1.9,2.3l1.6,2l2.7-1.3c0.3-0.2,0.7-0.1,1,0.1  c0.4,0.4,0.9,0.7,1.4,1c0.3,0.2,0.5,0.6,0.4,1l-0.5,3l2.4,1l1.7-2.5C420.4,173.8,420.7,173.6,421,173.6z M440.4,156.6L440.4,156.6  L440.4,156.6z M423.7,169.7c-5.2,0-9.4-4.2-9.4-9.4c0-5.2,4.2-9.4,9.4-9.4c5.2,0,9.4,4.2,9.4,9.4  C433.1,165.4,428.9,169.7,423.7,169.7z M423.7,151.8c-4.6,0-8.4,3.8-8.4,8.4c0,4.6,3.8,8.4,8.4,8.4c4.6,0,8.4-3.8,8.4-8.4  C432.1,155.6,428.3,151.8,423.7,151.8z"></path></g><g>	<g>		<path class="st1" d="M90.4,413.7c-0.1,0-0.2,0-0.3-0.1c-20-16.5-35.2-38.1-43.9-62.3c-2.3-6.5-4.2-13.2-5.6-19.9   c-0.1-0.3,0.1-0.5,0.4-0.6c0.3-0.1,0.5,0.1,0.6,0.4c1.4,6.7,3.2,13.3,5.5,19.8c8.6,24,23.7,45.4,43.6,61.8   c0.2,0.2,0.2,0.5,0.1,0.7C90.7,413.6,90.5,413.7,90.4,413.7z"></path>		<path class="st1" d="M90.9,426.5c-0.1,0-0.2,0-0.3-0.1C65.7,405.8,46.8,379,36,349c-2.9-8.1-5.2-16.4-6.9-24.8   c-0.1-0.3,0.1-0.5,0.4-0.6c0.3-0.1,0.5,0.1,0.6,0.4c1.7,8.3,4,16.6,6.9,24.6c10.8,29.9,29.5,56.5,54.2,76.9   c0.2,0.2,0.2,0.5,0.1,0.7C91.2,426.4,91,426.5,90.9,426.5z"></path>		<path class="st1" d="M75.9,426.8c-0.6,0-1.2-0.1-1.7-0.4c-1-0.5-1.7-1.3-2.1-2.3c-0.4-1-0.3-2.1,0.1-3.1c0.5-1,1.3-1.7,2.3-2.1   c2.1-0.7,4.4,0.3,5.1,2.4c0.7,2.1-0.3,4.4-2.4,5.1C76.8,426.8,76.3,426.8,75.9,426.8z M75.9,419.9c-0.3,0-0.7,0.1-1,0.2   c-0.7,0.3-1.3,0.8-1.7,1.5c-0.3,0.7-0.4,1.5-0.1,2.3c0.3,0.7,0.8,1.3,1.5,1.7c0.7,0.3,1.5,0.4,2.3,0.1c1.5-0.6,2.4-2.3,1.8-3.8   C78.3,420.6,77.1,419.9,75.9,419.9z"></path>		<path class="st1" d="M62.6,413.4c-0.1,0-0.3-0.1-0.4-0.2c-0.1-0.1-0.1-0.3-0.1-0.5l2.1-6.6c0.1-0.2,0.2-0.3,0.4-0.3   c0.2,0,0.4,0,0.5,0.2l4.4,5.5c0.1,0.1,0.1,0.3,0.1,0.5c-0.1,0.2-0.2,0.3-0.4,0.3C66,413,62.7,413.4,62.6,413.4   C62.7,413.4,62.6,413.4,62.6,413.4z M64.9,407.3l-1.6,5c1-0.1,2.9-0.4,4.8-0.8L64.9,407.3z"></path>		<path class="st1" d="M60.2,402.8c-0.8,0-3.3-0.2-4.8-2.2c-0.5-0.8-0.6-1.9-0.7-3.1c-0.1-1.2-0.1-2.5-0.7-3.4   c-0.5-0.7-1.5-1.1-2.7-1.6c-1.4-0.5-2.8-1.1-3.5-2.3c-0.5-0.9-0.3-2.2,0-3.5c0.2-1.1,0.4-2.2,0.1-2.7c-0.4-0.7-1.5-1.1-2.5-1.5   c-0.8-0.3-1.4-0.5-1.8-0.9c-0.2-0.2-0.2-0.5,0-0.7c0.2-0.2,0.5-0.2,0.7,0c0.2,0.2,0.8,0.4,1.4,0.7c1.2,0.4,2.5,0.9,3.1,2   c0.5,0.9,0.2,2.2,0,3.4c-0.2,1.1-0.5,2.2-0.1,2.8c0.5,0.9,1.8,1.4,3,1.8c1.2,0.5,2.5,1,3.2,1.9c0.7,1.1,0.8,2.6,0.9,3.9   c0.1,1,0.1,2,0.5,2.5c1.4,1.9,4.1,1.8,4.1,1.8c0.3,0,0.5,0.2,0.5,0.5s-0.2,0.5-0.5,0.5C60.4,402.8,60.4,402.8,60.2,402.8z"></path>	</g>	<g>		<path class="st1" d="M338.3,419.7c-0.2,0-0.4-0.1-0.4-0.3c-0.1-0.2,0-0.6,0.2-0.7c6-3.2,11.9-6.9,17.4-11   c20.6-15.2,36.7-35.7,46.8-59.5c0.1-0.3,0.4-0.4,0.7-0.3c0.3,0.1,0.4,0.4,0.3,0.7c-10.1,23.9-26.4,44.6-47.1,59.9   c-5.6,4.1-11.4,7.8-17.5,11.1C338.4,419.7,338.3,419.7,338.3,419.7z"></path>		<path class="st1" d="M334.7,432.8c-0.2,0-0.4-0.1-0.4-0.3c-0.1-0.2,0-0.6,0.2-0.7c7.5-4,14.8-8.6,21.6-13.7   c25.6-18.9,45.7-44.5,58.2-74c0.1-0.3,0.4-0.4,0.7-0.3c0.3,0.1,0.4,0.4,0.3,0.7c-12.6,29.7-32.8,55.4-58.5,74.4   c-6.9,5.1-14.2,9.7-21.7,13.7C334.8,432.8,334.8,432.8,334.7,432.8z"></path>		<path class="st1" d="M416,363.6c-0.2,0-0.4,0-0.6,0c-1.1-0.2-2-0.7-2.6-1.6c-1.3-1.8-0.9-4.3,0.8-5.6c0.9-0.6,1.9-0.9,3-0.7   c1.1,0.2,2,0.7,2.6,1.6c0.6,0.9,0.9,1.9,0.7,3c-0.2,1.1-0.7,2-1.6,2.6C417.7,363.4,416.9,363.6,416,363.6z M416,356.7   c-0.6,0-1.2,0.2-1.8,0.6c-1.3,1-1.6,2.8-0.6,4.2c0.5,0.6,1.2,1.1,2,1.2c0.8,0.1,1.6-0.1,2.2-0.5c0.6-0.5,1.1-1.2,1.2-2   c0.1-0.8-0.1-1.6-0.5-2.2c-0.5-0.6-1.2-1.1-2-1.2C416.3,356.7,416.2,356.7,416,356.7z M418.1,362.5L418.1,362.5L418.1,362.5z"></path>		<path class="st1" d="M410.3,375.7C410.3,375.7,410.3,375.7,410.3,375.7l-7-0.1c-0.2,0-0.4-0.1-0.4-0.3c-0.1-0.2-0.1-0.4,0-0.5   l4-5.8c0.1-0.1,0.3-0.2,0.4-0.2c0.2,0,0.3,0.1,0.4,0.3c1.6,2.9,2.9,5.9,2.9,5.9c0.1,0.2,0.1,0.3,0,0.5   C410.6,375.6,410.5,375.7,410.3,375.7z M404.3,374.6l5.2,0.1c-0.4-0.9-1.2-2.6-2.2-4.4L404.3,374.6z"></path>		<path class="st1" d="M385.5,402.5c-0.1,0-0.2,0-0.2-0.1c-0.2-0.1-0.3-0.4-0.2-0.7c0.2-0.3,0.2-0.9,0.2-1.6c0.1-1.2,0.1-2.6,1-3.5   c0.7-0.7,2-0.8,3.3-0.9c1.1-0.1,2.2-0.2,2.7-0.7c0.7-0.7,0.8-2.1,0.9-3.4c0.1-1.3,0.2-2.7,1-3.6c0.8-1,2.2-1.5,3.5-2   c1-0.4,1.9-0.7,2.3-1.2c1.4-1.9,0.5-4.4,0.5-4.5c-0.1-0.3,0-0.6,0.3-0.7c0.3-0.1,0.6,0,0.7,0.3c0,0.1,1.1,3.1-0.6,5.4   c-0.6,0.7-1.6,1.1-2.7,1.5c-1.2,0.4-2.3,0.8-3,1.7c-0.5,0.6-0.6,1.8-0.7,3c-0.1,1.5-0.2,3-1.2,4c-0.7,0.8-2.1,0.9-3.4,1   c-1.1,0.1-2.2,0.2-2.7,0.6c-0.6,0.6-0.7,1.8-0.7,2.8c0,0.8-0.1,1.5-0.3,2C385.8,402.4,385.7,402.5,385.5,402.5z"></path>	</g>	<path class="st1" d="M406.3,61.3c0,0-0.1,0-0.1,0c-0.3-0.1-0.4-0.4-0.3-0.6l5.4-18.8c0.1-0.3,0.4-0.4,0.6-0.3  c0.3,0.1,0.4,0.4,0.3,0.6l-5.4,18.8C406.8,61.1,406.6,61.3,406.3,61.3z"></path>	<path class="st1" d="M417.1,65.4c-0.1,0-0.2,0-0.2-0.1c-0.3-0.1-0.4-0.4-0.2-0.7l13.3-26.7c0.1-0.3,0.4-0.4,0.7-0.2  c0.3,0.1,0.4,0.4,0.2,0.7l-13.3,26.7C417.4,65.3,417.3,65.4,417.1,65.4z"></path>	<path class="st1" d="M423.7,72.2c-0.1,0-0.3-0.1-0.4-0.2c-0.2-0.2-0.2-0.5,0-0.7l15.1-15c0.2-0.2,0.5-0.2,0.7,0  c0.2,0.2,0.2,0.5,0,0.7l-15.1,15C424,72.2,423.8,72.2,423.7,72.2z"></path>	<g>		<path class="st1" d="M54.6,247.4c-0.1,0-0.3,0-0.4-0.1c-0.2-0.2-0.2-0.5,0-0.7l1.9-2c0.2-0.2,0.5-0.2,0.7,0c0.2,0.2,0.2,0.5,0,0.7   l-1.9,2C54.8,247.4,54.7,247.4,54.6,247.4z"></path>		<path class="st1" d="M48,254.2c-0.1,0-0.3,0-0.4-0.1c-0.2-0.2-0.2-0.5,0-0.7l1.9-2c0.2-0.2,0.5-0.2,0.7,0c0.2,0.2,0.2,0.5,0,0.7   l-1.9,2C48.3,254.2,48.2,254.2,48,254.2z"></path>		<path class="st1" d="M49.9,247.5c-0.1,0-0.3,0-0.4-0.1l-1.9-1.9c-0.2-0.2-0.2-0.5,0-0.7c0.2-0.2,0.5-0.2,0.7,0l1.9,1.9   c0.2,0.2,0.2,0.5,0,0.7C50.1,247.5,50,247.5,49.9,247.5z"></path>		<path class="st1" d="M56.5,254.1c-0.1,0-0.3,0-0.4-0.1l-1.9-1.9c-0.2-0.2-0.2-0.5,0-0.7c0.2-0.2,0.5-0.2,0.7,0l1.9,1.9   c0.2,0.2,0.2,0.5,0,0.7C56.8,254,56.6,254.1,56.5,254.1z"></path>	</g>	<g>		<path class="st1" d="M340.6,69.6c-0.1,0-0.3,0-0.4-0.1c-0.2-0.2-0.2-0.5,0-0.7l1.9-2c0.2-0.2,0.5-0.2,0.7,0c0.2,0.2,0.2,0.5,0,0.7   l-1.9,2C340.9,69.6,340.7,69.6,340.6,69.6z"></path>		<path class="st1" d="M334.1,76.5c-0.1,0-0.3,0-0.4-0.1c-0.2-0.2-0.2-0.5,0-0.7l1.9-2c0.2-0.2,0.5-0.2,0.7,0c0.2,0.2,0.2,0.5,0,0.7   l-1.9,2C334.3,76.4,334.2,76.5,334.1,76.5z"></path>		<path class="st1" d="M335.9,69.7c-0.1,0-0.3,0-0.4-0.1l-1.9-1.9c-0.2-0.2-0.2-0.5,0-0.7c0.2-0.2,0.5-0.2,0.7,0l1.9,1.9   c0.2,0.2,0.2,0.5,0,0.7C336.2,69.7,336,69.7,335.9,69.7z"></path>		<path class="st1" d="M342.5,76.3c-0.1,0-0.3,0-0.4-0.1l-1.9-1.9c-0.2-0.2-0.2-0.5,0-0.7c0.2-0.2,0.5-0.2,0.7,0l1.9,1.9   c0.2,0.2,0.2,0.5,0,0.7C342.8,76.2,342.7,76.3,342.5,76.3z"></path>	</g></g></svg>