<svg width="42" height="42" viewBox="0 0 42 42" fill="none" xmlns="http://www.w3.org/2000/svg">
<rect width="42" height="42" rx="21" fill="#E4F1F5"/>
<path d="M25.9251 22.0834C26.7376 22.0834 27.4526 21.6392 27.8209 20.9675L31.6993 13.9367C32.1001 13.2217 31.5801 12.3334 30.7568 12.3334H14.7234L13.7051 10.1667H10.1626V12.3334H12.3293L16.2293 20.5559L14.7668 23.1992C13.9759 24.6509 15.0159 26.4167 16.6626 26.4167H29.6626V24.25H16.6626L17.8543 22.0834H25.9251ZM15.7526 14.5H28.9151L25.9251 19.9167H18.3201L15.7526 14.5ZM16.6626 27.5C15.4709 27.5 14.5068 28.475 14.5068 29.6667C14.5068 30.8584 15.4709 31.8334 16.6626 31.8334C17.8543 31.8334 18.8293 30.8584 18.8293 29.6667C18.8293 28.475 17.8543 27.5 16.6626 27.5ZM27.4959 27.5C26.3043 27.5 25.3401 28.475 25.3401 29.6667C25.3401 30.8584 26.3043 31.8334 27.4959 31.8334C28.6876 31.8334 29.6626 30.8584 29.6626 29.6667C29.6626 28.475 28.6876 27.5 27.4959 27.5Z" fill="#151719"/>
</svg>
